%TF.GenerationSoftware,KiCad,Pcbnew,(5.1.9)-1*%
%TF.CreationDate,2021-04-28T17:58:15+02:00*%
%TF.ProjectId,Hoofdbord,486f6f66-6462-46f7-9264-2e6b69636164,rev?*%
%TF.SameCoordinates,Original*%
%TF.FileFunction,Soldermask,Top*%
%TF.FilePolarity,Negative*%
%FSLAX46Y46*%
G04 Gerber Fmt 4.6, Leading zero omitted, Abs format (unit mm)*
G04 Created by KiCad (PCBNEW (5.1.9)-1) date 2021-04-28 17:58:15*
%MOMM*%
%LPD*%
G01*
G04 APERTURE LIST*
%ADD10O,1.700000X1.700000*%
%ADD11R,1.700000X1.700000*%
%ADD12R,1.416000X1.416000*%
%ADD13C,1.416000*%
%ADD14C,6.400000*%
%ADD15C,0.800000*%
%ADD16R,6.400000X5.800000*%
%ADD17R,2.200000X1.200000*%
%ADD18C,1.300000*%
%ADD19R,1.800000X0.600000*%
%ADD20R,1.100000X0.450000*%
%ADD21R,1.525000X0.650000*%
G04 APERTURE END LIST*
D10*
%TO.C,J5*%
X3556000Y8382000D03*
X1016000Y8382000D03*
X-1524000Y8382000D03*
D11*
X-4064000Y8382000D03*
%TD*%
D12*
%TO.C,DS1*%
X40830500Y-7874000D03*
D13*
X43370500Y-7874000D03*
X45910500Y-7874000D03*
X48450500Y-7874000D03*
X50990500Y-7874000D03*
X53530500Y-7874000D03*
X56070500Y-7874000D03*
X53530500Y7366000D03*
X50990500Y7366000D03*
X48450500Y7366000D03*
X45910500Y7366000D03*
X43370500Y7366000D03*
%TD*%
D14*
%TO.C,*%
X-71945500Y15494000D03*
D15*
X-69545500Y15494000D03*
X-70248444Y13796944D03*
X-71945500Y13094000D03*
X-73642556Y13796944D03*
X-74345500Y15494000D03*
X-73642556Y17191056D03*
X-71945500Y17894000D03*
X-70248444Y17191056D03*
%TD*%
D14*
%TO.C,*%
X70040500Y-15367000D03*
D15*
X72440500Y-15367000D03*
X71737556Y-17064056D03*
X70040500Y-17767000D03*
X68343444Y-17064056D03*
X67640500Y-15367000D03*
X68343444Y-13669944D03*
X70040500Y-12967000D03*
X71737556Y-13669944D03*
%TD*%
D14*
%TO.C,*%
X-71945500Y-15367000D03*
D15*
X-69545500Y-15367000D03*
X-70248444Y-17064056D03*
X-71945500Y-17767000D03*
X-73642556Y-17064056D03*
X-74345500Y-15367000D03*
X-73642556Y-13669944D03*
X-71945500Y-12967000D03*
X-70248444Y-13669944D03*
%TD*%
D14*
%TO.C,*%
X70040500Y15494000D03*
D15*
X72440500Y15494000D03*
X71737556Y13796944D03*
X70040500Y13094000D03*
X68343444Y13796944D03*
X67640500Y15494000D03*
X68343444Y17191056D03*
X70040500Y17894000D03*
X71737556Y17191056D03*
%TD*%
D10*
%TO.C,SW2*%
X24574500Y-6985000D03*
D11*
X27114500Y-6985000D03*
%TD*%
%TO.C,R14*%
G36*
G01*
X15118501Y5147000D02*
X14218499Y5147000D01*
G75*
G02*
X13968500Y5396999I0J249999D01*
G01*
X13968500Y6097001D01*
G75*
G02*
X14218499Y6347000I249999J0D01*
G01*
X15118501Y6347000D01*
G75*
G02*
X15368500Y6097001I0J-249999D01*
G01*
X15368500Y5396999D01*
G75*
G02*
X15118501Y5147000I-249999J0D01*
G01*
G37*
G36*
G01*
X15118501Y7147000D02*
X14218499Y7147000D01*
G75*
G02*
X13968500Y7396999I0J249999D01*
G01*
X13968500Y8097001D01*
G75*
G02*
X14218499Y8347000I249999J0D01*
G01*
X15118501Y8347000D01*
G75*
G02*
X15368500Y8097001I0J-249999D01*
G01*
X15368500Y7396999D01*
G75*
G02*
X15118501Y7147000I-249999J0D01*
G01*
G37*
%TD*%
%TO.C,R13*%
G36*
G01*
X13347500Y6292001D02*
X13347500Y5391999D01*
G75*
G02*
X13097501Y5142000I-249999J0D01*
G01*
X12397499Y5142000D01*
G75*
G02*
X12147500Y5391999I0J249999D01*
G01*
X12147500Y6292001D01*
G75*
G02*
X12397499Y6542000I249999J0D01*
G01*
X13097501Y6542000D01*
G75*
G02*
X13347500Y6292001I0J-249999D01*
G01*
G37*
G36*
G01*
X11347500Y6292001D02*
X11347500Y5391999D01*
G75*
G02*
X11097501Y5142000I-249999J0D01*
G01*
X10397499Y5142000D01*
G75*
G02*
X10147500Y5391999I0J249999D01*
G01*
X10147500Y6292001D01*
G75*
G02*
X10397499Y6542000I249999J0D01*
G01*
X11097501Y6542000D01*
G75*
G02*
X11347500Y6292001I0J-249999D01*
G01*
G37*
%TD*%
%TO.C,R16*%
G36*
G01*
X18529500Y5391999D02*
X18529500Y6292001D01*
G75*
G02*
X18779499Y6542000I249999J0D01*
G01*
X19479501Y6542000D01*
G75*
G02*
X19729500Y6292001I0J-249999D01*
G01*
X19729500Y5391999D01*
G75*
G02*
X19479501Y5142000I-249999J0D01*
G01*
X18779499Y5142000D01*
G75*
G02*
X18529500Y5391999I0J249999D01*
G01*
G37*
G36*
G01*
X20529500Y5391999D02*
X20529500Y6292001D01*
G75*
G02*
X20779499Y6542000I249999J0D01*
G01*
X21479501Y6542000D01*
G75*
G02*
X21729500Y6292001I0J-249999D01*
G01*
X21729500Y5391999D01*
G75*
G02*
X21479501Y5142000I-249999J0D01*
G01*
X20779499Y5142000D01*
G75*
G02*
X20529500Y5391999I0J249999D01*
G01*
G37*
%TD*%
%TO.C,R15*%
G36*
G01*
X16758499Y8347000D02*
X17658501Y8347000D01*
G75*
G02*
X17908500Y8097001I0J-249999D01*
G01*
X17908500Y7396999D01*
G75*
G02*
X17658501Y7147000I-249999J0D01*
G01*
X16758499Y7147000D01*
G75*
G02*
X16508500Y7396999I0J249999D01*
G01*
X16508500Y8097001D01*
G75*
G02*
X16758499Y8347000I249999J0D01*
G01*
G37*
G36*
G01*
X16758499Y6347000D02*
X17658501Y6347000D01*
G75*
G02*
X17908500Y6097001I0J-249999D01*
G01*
X17908500Y5396999D01*
G75*
G02*
X17658501Y5147000I-249999J0D01*
G01*
X16758499Y5147000D01*
G75*
G02*
X16508500Y5396999I0J249999D01*
G01*
X16508500Y6097001D01*
G75*
G02*
X16758499Y6347000I249999J0D01*
G01*
G37*
%TD*%
%TO.C,U1*%
G36*
G01*
X2693500Y-7261000D02*
X2693500Y-8661000D01*
G75*
G02*
X2618500Y-8736000I-75000J0D01*
G01*
X2468500Y-8736000D01*
G75*
G02*
X2393500Y-8661000I0J75000D01*
G01*
X2393500Y-7261000D01*
G75*
G02*
X2468500Y-7186000I75000J0D01*
G01*
X2618500Y-7186000D01*
G75*
G02*
X2693500Y-7261000I0J-75000D01*
G01*
G37*
G36*
G01*
X2193500Y-7261000D02*
X2193500Y-8661000D01*
G75*
G02*
X2118500Y-8736000I-75000J0D01*
G01*
X1968500Y-8736000D01*
G75*
G02*
X1893500Y-8661000I0J75000D01*
G01*
X1893500Y-7261000D01*
G75*
G02*
X1968500Y-7186000I75000J0D01*
G01*
X2118500Y-7186000D01*
G75*
G02*
X2193500Y-7261000I0J-75000D01*
G01*
G37*
G36*
G01*
X1693500Y-7261000D02*
X1693500Y-8661000D01*
G75*
G02*
X1618500Y-8736000I-75000J0D01*
G01*
X1468500Y-8736000D01*
G75*
G02*
X1393500Y-8661000I0J75000D01*
G01*
X1393500Y-7261000D01*
G75*
G02*
X1468500Y-7186000I75000J0D01*
G01*
X1618500Y-7186000D01*
G75*
G02*
X1693500Y-7261000I0J-75000D01*
G01*
G37*
G36*
G01*
X1193500Y-7261000D02*
X1193500Y-8661000D01*
G75*
G02*
X1118500Y-8736000I-75000J0D01*
G01*
X968500Y-8736000D01*
G75*
G02*
X893500Y-8661000I0J75000D01*
G01*
X893500Y-7261000D01*
G75*
G02*
X968500Y-7186000I75000J0D01*
G01*
X1118500Y-7186000D01*
G75*
G02*
X1193500Y-7261000I0J-75000D01*
G01*
G37*
G36*
G01*
X693500Y-7261000D02*
X693500Y-8661000D01*
G75*
G02*
X618500Y-8736000I-75000J0D01*
G01*
X468500Y-8736000D01*
G75*
G02*
X393500Y-8661000I0J75000D01*
G01*
X393500Y-7261000D01*
G75*
G02*
X468500Y-7186000I75000J0D01*
G01*
X618500Y-7186000D01*
G75*
G02*
X693500Y-7261000I0J-75000D01*
G01*
G37*
G36*
G01*
X193500Y-7261000D02*
X193500Y-8661000D01*
G75*
G02*
X118500Y-8736000I-75000J0D01*
G01*
X-31500Y-8736000D01*
G75*
G02*
X-106500Y-8661000I0J75000D01*
G01*
X-106500Y-7261000D01*
G75*
G02*
X-31500Y-7186000I75000J0D01*
G01*
X118500Y-7186000D01*
G75*
G02*
X193500Y-7261000I0J-75000D01*
G01*
G37*
G36*
G01*
X-306500Y-7261000D02*
X-306500Y-8661000D01*
G75*
G02*
X-381500Y-8736000I-75000J0D01*
G01*
X-531500Y-8736000D01*
G75*
G02*
X-606500Y-8661000I0J75000D01*
G01*
X-606500Y-7261000D01*
G75*
G02*
X-531500Y-7186000I75000J0D01*
G01*
X-381500Y-7186000D01*
G75*
G02*
X-306500Y-7261000I0J-75000D01*
G01*
G37*
G36*
G01*
X-806500Y-7261000D02*
X-806500Y-8661000D01*
G75*
G02*
X-881500Y-8736000I-75000J0D01*
G01*
X-1031500Y-8736000D01*
G75*
G02*
X-1106500Y-8661000I0J75000D01*
G01*
X-1106500Y-7261000D01*
G75*
G02*
X-1031500Y-7186000I75000J0D01*
G01*
X-881500Y-7186000D01*
G75*
G02*
X-806500Y-7261000I0J-75000D01*
G01*
G37*
G36*
G01*
X-1306500Y-7261000D02*
X-1306500Y-8661000D01*
G75*
G02*
X-1381500Y-8736000I-75000J0D01*
G01*
X-1531500Y-8736000D01*
G75*
G02*
X-1606500Y-8661000I0J75000D01*
G01*
X-1606500Y-7261000D01*
G75*
G02*
X-1531500Y-7186000I75000J0D01*
G01*
X-1381500Y-7186000D01*
G75*
G02*
X-1306500Y-7261000I0J-75000D01*
G01*
G37*
G36*
G01*
X-1806500Y-7261000D02*
X-1806500Y-8661000D01*
G75*
G02*
X-1881500Y-8736000I-75000J0D01*
G01*
X-2031500Y-8736000D01*
G75*
G02*
X-2106500Y-8661000I0J75000D01*
G01*
X-2106500Y-7261000D01*
G75*
G02*
X-2031500Y-7186000I75000J0D01*
G01*
X-1881500Y-7186000D01*
G75*
G02*
X-1806500Y-7261000I0J-75000D01*
G01*
G37*
G36*
G01*
X-2306500Y-7261000D02*
X-2306500Y-8661000D01*
G75*
G02*
X-2381500Y-8736000I-75000J0D01*
G01*
X-2531500Y-8736000D01*
G75*
G02*
X-2606500Y-8661000I0J75000D01*
G01*
X-2606500Y-7261000D01*
G75*
G02*
X-2531500Y-7186000I75000J0D01*
G01*
X-2381500Y-7186000D01*
G75*
G02*
X-2306500Y-7261000I0J-75000D01*
G01*
G37*
G36*
G01*
X-2806500Y-7261000D02*
X-2806500Y-8661000D01*
G75*
G02*
X-2881500Y-8736000I-75000J0D01*
G01*
X-3031500Y-8736000D01*
G75*
G02*
X-3106500Y-8661000I0J75000D01*
G01*
X-3106500Y-7261000D01*
G75*
G02*
X-3031500Y-7186000I75000J0D01*
G01*
X-2881500Y-7186000D01*
G75*
G02*
X-2806500Y-7261000I0J-75000D01*
G01*
G37*
G36*
G01*
X-3306500Y-7261000D02*
X-3306500Y-8661000D01*
G75*
G02*
X-3381500Y-8736000I-75000J0D01*
G01*
X-3531500Y-8736000D01*
G75*
G02*
X-3606500Y-8661000I0J75000D01*
G01*
X-3606500Y-7261000D01*
G75*
G02*
X-3531500Y-7186000I75000J0D01*
G01*
X-3381500Y-7186000D01*
G75*
G02*
X-3306500Y-7261000I0J-75000D01*
G01*
G37*
G36*
G01*
X-3806500Y-7261000D02*
X-3806500Y-8661000D01*
G75*
G02*
X-3881500Y-8736000I-75000J0D01*
G01*
X-4031500Y-8736000D01*
G75*
G02*
X-4106500Y-8661000I0J75000D01*
G01*
X-4106500Y-7261000D01*
G75*
G02*
X-4031500Y-7186000I75000J0D01*
G01*
X-3881500Y-7186000D01*
G75*
G02*
X-3806500Y-7261000I0J-75000D01*
G01*
G37*
G36*
G01*
X-4306500Y-7261000D02*
X-4306500Y-8661000D01*
G75*
G02*
X-4381500Y-8736000I-75000J0D01*
G01*
X-4531500Y-8736000D01*
G75*
G02*
X-4606500Y-8661000I0J75000D01*
G01*
X-4606500Y-7261000D01*
G75*
G02*
X-4531500Y-7186000I75000J0D01*
G01*
X-4381500Y-7186000D01*
G75*
G02*
X-4306500Y-7261000I0J-75000D01*
G01*
G37*
G36*
G01*
X-4806500Y-7261000D02*
X-4806500Y-8661000D01*
G75*
G02*
X-4881500Y-8736000I-75000J0D01*
G01*
X-5031500Y-8736000D01*
G75*
G02*
X-5106500Y-8661000I0J75000D01*
G01*
X-5106500Y-7261000D01*
G75*
G02*
X-5031500Y-7186000I75000J0D01*
G01*
X-4881500Y-7186000D01*
G75*
G02*
X-4806500Y-7261000I0J-75000D01*
G01*
G37*
G36*
G01*
X-6106500Y-5961000D02*
X-6106500Y-6111000D01*
G75*
G02*
X-6181500Y-6186000I-75000J0D01*
G01*
X-7581500Y-6186000D01*
G75*
G02*
X-7656500Y-6111000I0J75000D01*
G01*
X-7656500Y-5961000D01*
G75*
G02*
X-7581500Y-5886000I75000J0D01*
G01*
X-6181500Y-5886000D01*
G75*
G02*
X-6106500Y-5961000I0J-75000D01*
G01*
G37*
G36*
G01*
X-6106500Y-5461000D02*
X-6106500Y-5611000D01*
G75*
G02*
X-6181500Y-5686000I-75000J0D01*
G01*
X-7581500Y-5686000D01*
G75*
G02*
X-7656500Y-5611000I0J75000D01*
G01*
X-7656500Y-5461000D01*
G75*
G02*
X-7581500Y-5386000I75000J0D01*
G01*
X-6181500Y-5386000D01*
G75*
G02*
X-6106500Y-5461000I0J-75000D01*
G01*
G37*
G36*
G01*
X-6106500Y-4961000D02*
X-6106500Y-5111000D01*
G75*
G02*
X-6181500Y-5186000I-75000J0D01*
G01*
X-7581500Y-5186000D01*
G75*
G02*
X-7656500Y-5111000I0J75000D01*
G01*
X-7656500Y-4961000D01*
G75*
G02*
X-7581500Y-4886000I75000J0D01*
G01*
X-6181500Y-4886000D01*
G75*
G02*
X-6106500Y-4961000I0J-75000D01*
G01*
G37*
G36*
G01*
X-6106500Y-4461000D02*
X-6106500Y-4611000D01*
G75*
G02*
X-6181500Y-4686000I-75000J0D01*
G01*
X-7581500Y-4686000D01*
G75*
G02*
X-7656500Y-4611000I0J75000D01*
G01*
X-7656500Y-4461000D01*
G75*
G02*
X-7581500Y-4386000I75000J0D01*
G01*
X-6181500Y-4386000D01*
G75*
G02*
X-6106500Y-4461000I0J-75000D01*
G01*
G37*
G36*
G01*
X-6106500Y-3961000D02*
X-6106500Y-4111000D01*
G75*
G02*
X-6181500Y-4186000I-75000J0D01*
G01*
X-7581500Y-4186000D01*
G75*
G02*
X-7656500Y-4111000I0J75000D01*
G01*
X-7656500Y-3961000D01*
G75*
G02*
X-7581500Y-3886000I75000J0D01*
G01*
X-6181500Y-3886000D01*
G75*
G02*
X-6106500Y-3961000I0J-75000D01*
G01*
G37*
G36*
G01*
X-6106500Y-3461000D02*
X-6106500Y-3611000D01*
G75*
G02*
X-6181500Y-3686000I-75000J0D01*
G01*
X-7581500Y-3686000D01*
G75*
G02*
X-7656500Y-3611000I0J75000D01*
G01*
X-7656500Y-3461000D01*
G75*
G02*
X-7581500Y-3386000I75000J0D01*
G01*
X-6181500Y-3386000D01*
G75*
G02*
X-6106500Y-3461000I0J-75000D01*
G01*
G37*
G36*
G01*
X-6106500Y-2961000D02*
X-6106500Y-3111000D01*
G75*
G02*
X-6181500Y-3186000I-75000J0D01*
G01*
X-7581500Y-3186000D01*
G75*
G02*
X-7656500Y-3111000I0J75000D01*
G01*
X-7656500Y-2961000D01*
G75*
G02*
X-7581500Y-2886000I75000J0D01*
G01*
X-6181500Y-2886000D01*
G75*
G02*
X-6106500Y-2961000I0J-75000D01*
G01*
G37*
G36*
G01*
X-6106500Y-2461000D02*
X-6106500Y-2611000D01*
G75*
G02*
X-6181500Y-2686000I-75000J0D01*
G01*
X-7581500Y-2686000D01*
G75*
G02*
X-7656500Y-2611000I0J75000D01*
G01*
X-7656500Y-2461000D01*
G75*
G02*
X-7581500Y-2386000I75000J0D01*
G01*
X-6181500Y-2386000D01*
G75*
G02*
X-6106500Y-2461000I0J-75000D01*
G01*
G37*
G36*
G01*
X-6106500Y-1961000D02*
X-6106500Y-2111000D01*
G75*
G02*
X-6181500Y-2186000I-75000J0D01*
G01*
X-7581500Y-2186000D01*
G75*
G02*
X-7656500Y-2111000I0J75000D01*
G01*
X-7656500Y-1961000D01*
G75*
G02*
X-7581500Y-1886000I75000J0D01*
G01*
X-6181500Y-1886000D01*
G75*
G02*
X-6106500Y-1961000I0J-75000D01*
G01*
G37*
G36*
G01*
X-6106500Y-1461000D02*
X-6106500Y-1611000D01*
G75*
G02*
X-6181500Y-1686000I-75000J0D01*
G01*
X-7581500Y-1686000D01*
G75*
G02*
X-7656500Y-1611000I0J75000D01*
G01*
X-7656500Y-1461000D01*
G75*
G02*
X-7581500Y-1386000I75000J0D01*
G01*
X-6181500Y-1386000D01*
G75*
G02*
X-6106500Y-1461000I0J-75000D01*
G01*
G37*
G36*
G01*
X-6106500Y-961000D02*
X-6106500Y-1111000D01*
G75*
G02*
X-6181500Y-1186000I-75000J0D01*
G01*
X-7581500Y-1186000D01*
G75*
G02*
X-7656500Y-1111000I0J75000D01*
G01*
X-7656500Y-961000D01*
G75*
G02*
X-7581500Y-886000I75000J0D01*
G01*
X-6181500Y-886000D01*
G75*
G02*
X-6106500Y-961000I0J-75000D01*
G01*
G37*
G36*
G01*
X-6106500Y-461000D02*
X-6106500Y-611000D01*
G75*
G02*
X-6181500Y-686000I-75000J0D01*
G01*
X-7581500Y-686000D01*
G75*
G02*
X-7656500Y-611000I0J75000D01*
G01*
X-7656500Y-461000D01*
G75*
G02*
X-7581500Y-386000I75000J0D01*
G01*
X-6181500Y-386000D01*
G75*
G02*
X-6106500Y-461000I0J-75000D01*
G01*
G37*
G36*
G01*
X-6106500Y39000D02*
X-6106500Y-111000D01*
G75*
G02*
X-6181500Y-186000I-75000J0D01*
G01*
X-7581500Y-186000D01*
G75*
G02*
X-7656500Y-111000I0J75000D01*
G01*
X-7656500Y39000D01*
G75*
G02*
X-7581500Y114000I75000J0D01*
G01*
X-6181500Y114000D01*
G75*
G02*
X-6106500Y39000I0J-75000D01*
G01*
G37*
G36*
G01*
X-6106500Y539000D02*
X-6106500Y389000D01*
G75*
G02*
X-6181500Y314000I-75000J0D01*
G01*
X-7581500Y314000D01*
G75*
G02*
X-7656500Y389000I0J75000D01*
G01*
X-7656500Y539000D01*
G75*
G02*
X-7581500Y614000I75000J0D01*
G01*
X-6181500Y614000D01*
G75*
G02*
X-6106500Y539000I0J-75000D01*
G01*
G37*
G36*
G01*
X-6106500Y1039000D02*
X-6106500Y889000D01*
G75*
G02*
X-6181500Y814000I-75000J0D01*
G01*
X-7581500Y814000D01*
G75*
G02*
X-7656500Y889000I0J75000D01*
G01*
X-7656500Y1039000D01*
G75*
G02*
X-7581500Y1114000I75000J0D01*
G01*
X-6181500Y1114000D01*
G75*
G02*
X-6106500Y1039000I0J-75000D01*
G01*
G37*
G36*
G01*
X-6106500Y1539000D02*
X-6106500Y1389000D01*
G75*
G02*
X-6181500Y1314000I-75000J0D01*
G01*
X-7581500Y1314000D01*
G75*
G02*
X-7656500Y1389000I0J75000D01*
G01*
X-7656500Y1539000D01*
G75*
G02*
X-7581500Y1614000I75000J0D01*
G01*
X-6181500Y1614000D01*
G75*
G02*
X-6106500Y1539000I0J-75000D01*
G01*
G37*
G36*
G01*
X-4806500Y4089000D02*
X-4806500Y2689000D01*
G75*
G02*
X-4881500Y2614000I-75000J0D01*
G01*
X-5031500Y2614000D01*
G75*
G02*
X-5106500Y2689000I0J75000D01*
G01*
X-5106500Y4089000D01*
G75*
G02*
X-5031500Y4164000I75000J0D01*
G01*
X-4881500Y4164000D01*
G75*
G02*
X-4806500Y4089000I0J-75000D01*
G01*
G37*
G36*
G01*
X-4306500Y4089000D02*
X-4306500Y2689000D01*
G75*
G02*
X-4381500Y2614000I-75000J0D01*
G01*
X-4531500Y2614000D01*
G75*
G02*
X-4606500Y2689000I0J75000D01*
G01*
X-4606500Y4089000D01*
G75*
G02*
X-4531500Y4164000I75000J0D01*
G01*
X-4381500Y4164000D01*
G75*
G02*
X-4306500Y4089000I0J-75000D01*
G01*
G37*
G36*
G01*
X-3806500Y4089000D02*
X-3806500Y2689000D01*
G75*
G02*
X-3881500Y2614000I-75000J0D01*
G01*
X-4031500Y2614000D01*
G75*
G02*
X-4106500Y2689000I0J75000D01*
G01*
X-4106500Y4089000D01*
G75*
G02*
X-4031500Y4164000I75000J0D01*
G01*
X-3881500Y4164000D01*
G75*
G02*
X-3806500Y4089000I0J-75000D01*
G01*
G37*
G36*
G01*
X-3306500Y4089000D02*
X-3306500Y2689000D01*
G75*
G02*
X-3381500Y2614000I-75000J0D01*
G01*
X-3531500Y2614000D01*
G75*
G02*
X-3606500Y2689000I0J75000D01*
G01*
X-3606500Y4089000D01*
G75*
G02*
X-3531500Y4164000I75000J0D01*
G01*
X-3381500Y4164000D01*
G75*
G02*
X-3306500Y4089000I0J-75000D01*
G01*
G37*
G36*
G01*
X-2806500Y4089000D02*
X-2806500Y2689000D01*
G75*
G02*
X-2881500Y2614000I-75000J0D01*
G01*
X-3031500Y2614000D01*
G75*
G02*
X-3106500Y2689000I0J75000D01*
G01*
X-3106500Y4089000D01*
G75*
G02*
X-3031500Y4164000I75000J0D01*
G01*
X-2881500Y4164000D01*
G75*
G02*
X-2806500Y4089000I0J-75000D01*
G01*
G37*
G36*
G01*
X-2306500Y4089000D02*
X-2306500Y2689000D01*
G75*
G02*
X-2381500Y2614000I-75000J0D01*
G01*
X-2531500Y2614000D01*
G75*
G02*
X-2606500Y2689000I0J75000D01*
G01*
X-2606500Y4089000D01*
G75*
G02*
X-2531500Y4164000I75000J0D01*
G01*
X-2381500Y4164000D01*
G75*
G02*
X-2306500Y4089000I0J-75000D01*
G01*
G37*
G36*
G01*
X-1806500Y4089000D02*
X-1806500Y2689000D01*
G75*
G02*
X-1881500Y2614000I-75000J0D01*
G01*
X-2031500Y2614000D01*
G75*
G02*
X-2106500Y2689000I0J75000D01*
G01*
X-2106500Y4089000D01*
G75*
G02*
X-2031500Y4164000I75000J0D01*
G01*
X-1881500Y4164000D01*
G75*
G02*
X-1806500Y4089000I0J-75000D01*
G01*
G37*
G36*
G01*
X-1306500Y4089000D02*
X-1306500Y2689000D01*
G75*
G02*
X-1381500Y2614000I-75000J0D01*
G01*
X-1531500Y2614000D01*
G75*
G02*
X-1606500Y2689000I0J75000D01*
G01*
X-1606500Y4089000D01*
G75*
G02*
X-1531500Y4164000I75000J0D01*
G01*
X-1381500Y4164000D01*
G75*
G02*
X-1306500Y4089000I0J-75000D01*
G01*
G37*
G36*
G01*
X-806500Y4089000D02*
X-806500Y2689000D01*
G75*
G02*
X-881500Y2614000I-75000J0D01*
G01*
X-1031500Y2614000D01*
G75*
G02*
X-1106500Y2689000I0J75000D01*
G01*
X-1106500Y4089000D01*
G75*
G02*
X-1031500Y4164000I75000J0D01*
G01*
X-881500Y4164000D01*
G75*
G02*
X-806500Y4089000I0J-75000D01*
G01*
G37*
G36*
G01*
X-306500Y4089000D02*
X-306500Y2689000D01*
G75*
G02*
X-381500Y2614000I-75000J0D01*
G01*
X-531500Y2614000D01*
G75*
G02*
X-606500Y2689000I0J75000D01*
G01*
X-606500Y4089000D01*
G75*
G02*
X-531500Y4164000I75000J0D01*
G01*
X-381500Y4164000D01*
G75*
G02*
X-306500Y4089000I0J-75000D01*
G01*
G37*
G36*
G01*
X193500Y4089000D02*
X193500Y2689000D01*
G75*
G02*
X118500Y2614000I-75000J0D01*
G01*
X-31500Y2614000D01*
G75*
G02*
X-106500Y2689000I0J75000D01*
G01*
X-106500Y4089000D01*
G75*
G02*
X-31500Y4164000I75000J0D01*
G01*
X118500Y4164000D01*
G75*
G02*
X193500Y4089000I0J-75000D01*
G01*
G37*
G36*
G01*
X693500Y4089000D02*
X693500Y2689000D01*
G75*
G02*
X618500Y2614000I-75000J0D01*
G01*
X468500Y2614000D01*
G75*
G02*
X393500Y2689000I0J75000D01*
G01*
X393500Y4089000D01*
G75*
G02*
X468500Y4164000I75000J0D01*
G01*
X618500Y4164000D01*
G75*
G02*
X693500Y4089000I0J-75000D01*
G01*
G37*
G36*
G01*
X1193500Y4089000D02*
X1193500Y2689000D01*
G75*
G02*
X1118500Y2614000I-75000J0D01*
G01*
X968500Y2614000D01*
G75*
G02*
X893500Y2689000I0J75000D01*
G01*
X893500Y4089000D01*
G75*
G02*
X968500Y4164000I75000J0D01*
G01*
X1118500Y4164000D01*
G75*
G02*
X1193500Y4089000I0J-75000D01*
G01*
G37*
G36*
G01*
X1693500Y4089000D02*
X1693500Y2689000D01*
G75*
G02*
X1618500Y2614000I-75000J0D01*
G01*
X1468500Y2614000D01*
G75*
G02*
X1393500Y2689000I0J75000D01*
G01*
X1393500Y4089000D01*
G75*
G02*
X1468500Y4164000I75000J0D01*
G01*
X1618500Y4164000D01*
G75*
G02*
X1693500Y4089000I0J-75000D01*
G01*
G37*
G36*
G01*
X2193500Y4089000D02*
X2193500Y2689000D01*
G75*
G02*
X2118500Y2614000I-75000J0D01*
G01*
X1968500Y2614000D01*
G75*
G02*
X1893500Y2689000I0J75000D01*
G01*
X1893500Y4089000D01*
G75*
G02*
X1968500Y4164000I75000J0D01*
G01*
X2118500Y4164000D01*
G75*
G02*
X2193500Y4089000I0J-75000D01*
G01*
G37*
G36*
G01*
X2693500Y4089000D02*
X2693500Y2689000D01*
G75*
G02*
X2618500Y2614000I-75000J0D01*
G01*
X2468500Y2614000D01*
G75*
G02*
X2393500Y2689000I0J75000D01*
G01*
X2393500Y4089000D01*
G75*
G02*
X2468500Y4164000I75000J0D01*
G01*
X2618500Y4164000D01*
G75*
G02*
X2693500Y4089000I0J-75000D01*
G01*
G37*
G36*
G01*
X5243500Y1539000D02*
X5243500Y1389000D01*
G75*
G02*
X5168500Y1314000I-75000J0D01*
G01*
X3768500Y1314000D01*
G75*
G02*
X3693500Y1389000I0J75000D01*
G01*
X3693500Y1539000D01*
G75*
G02*
X3768500Y1614000I75000J0D01*
G01*
X5168500Y1614000D01*
G75*
G02*
X5243500Y1539000I0J-75000D01*
G01*
G37*
G36*
G01*
X5243500Y1039000D02*
X5243500Y889000D01*
G75*
G02*
X5168500Y814000I-75000J0D01*
G01*
X3768500Y814000D01*
G75*
G02*
X3693500Y889000I0J75000D01*
G01*
X3693500Y1039000D01*
G75*
G02*
X3768500Y1114000I75000J0D01*
G01*
X5168500Y1114000D01*
G75*
G02*
X5243500Y1039000I0J-75000D01*
G01*
G37*
G36*
G01*
X5243500Y539000D02*
X5243500Y389000D01*
G75*
G02*
X5168500Y314000I-75000J0D01*
G01*
X3768500Y314000D01*
G75*
G02*
X3693500Y389000I0J75000D01*
G01*
X3693500Y539000D01*
G75*
G02*
X3768500Y614000I75000J0D01*
G01*
X5168500Y614000D01*
G75*
G02*
X5243500Y539000I0J-75000D01*
G01*
G37*
G36*
G01*
X5243500Y39000D02*
X5243500Y-111000D01*
G75*
G02*
X5168500Y-186000I-75000J0D01*
G01*
X3768500Y-186000D01*
G75*
G02*
X3693500Y-111000I0J75000D01*
G01*
X3693500Y39000D01*
G75*
G02*
X3768500Y114000I75000J0D01*
G01*
X5168500Y114000D01*
G75*
G02*
X5243500Y39000I0J-75000D01*
G01*
G37*
G36*
G01*
X5243500Y-461000D02*
X5243500Y-611000D01*
G75*
G02*
X5168500Y-686000I-75000J0D01*
G01*
X3768500Y-686000D01*
G75*
G02*
X3693500Y-611000I0J75000D01*
G01*
X3693500Y-461000D01*
G75*
G02*
X3768500Y-386000I75000J0D01*
G01*
X5168500Y-386000D01*
G75*
G02*
X5243500Y-461000I0J-75000D01*
G01*
G37*
G36*
G01*
X5243500Y-961000D02*
X5243500Y-1111000D01*
G75*
G02*
X5168500Y-1186000I-75000J0D01*
G01*
X3768500Y-1186000D01*
G75*
G02*
X3693500Y-1111000I0J75000D01*
G01*
X3693500Y-961000D01*
G75*
G02*
X3768500Y-886000I75000J0D01*
G01*
X5168500Y-886000D01*
G75*
G02*
X5243500Y-961000I0J-75000D01*
G01*
G37*
G36*
G01*
X5243500Y-1461000D02*
X5243500Y-1611000D01*
G75*
G02*
X5168500Y-1686000I-75000J0D01*
G01*
X3768500Y-1686000D01*
G75*
G02*
X3693500Y-1611000I0J75000D01*
G01*
X3693500Y-1461000D01*
G75*
G02*
X3768500Y-1386000I75000J0D01*
G01*
X5168500Y-1386000D01*
G75*
G02*
X5243500Y-1461000I0J-75000D01*
G01*
G37*
G36*
G01*
X5243500Y-1961000D02*
X5243500Y-2111000D01*
G75*
G02*
X5168500Y-2186000I-75000J0D01*
G01*
X3768500Y-2186000D01*
G75*
G02*
X3693500Y-2111000I0J75000D01*
G01*
X3693500Y-1961000D01*
G75*
G02*
X3768500Y-1886000I75000J0D01*
G01*
X5168500Y-1886000D01*
G75*
G02*
X5243500Y-1961000I0J-75000D01*
G01*
G37*
G36*
G01*
X5243500Y-2461000D02*
X5243500Y-2611000D01*
G75*
G02*
X5168500Y-2686000I-75000J0D01*
G01*
X3768500Y-2686000D01*
G75*
G02*
X3693500Y-2611000I0J75000D01*
G01*
X3693500Y-2461000D01*
G75*
G02*
X3768500Y-2386000I75000J0D01*
G01*
X5168500Y-2386000D01*
G75*
G02*
X5243500Y-2461000I0J-75000D01*
G01*
G37*
G36*
G01*
X5243500Y-2961000D02*
X5243500Y-3111000D01*
G75*
G02*
X5168500Y-3186000I-75000J0D01*
G01*
X3768500Y-3186000D01*
G75*
G02*
X3693500Y-3111000I0J75000D01*
G01*
X3693500Y-2961000D01*
G75*
G02*
X3768500Y-2886000I75000J0D01*
G01*
X5168500Y-2886000D01*
G75*
G02*
X5243500Y-2961000I0J-75000D01*
G01*
G37*
G36*
G01*
X5243500Y-3461000D02*
X5243500Y-3611000D01*
G75*
G02*
X5168500Y-3686000I-75000J0D01*
G01*
X3768500Y-3686000D01*
G75*
G02*
X3693500Y-3611000I0J75000D01*
G01*
X3693500Y-3461000D01*
G75*
G02*
X3768500Y-3386000I75000J0D01*
G01*
X5168500Y-3386000D01*
G75*
G02*
X5243500Y-3461000I0J-75000D01*
G01*
G37*
G36*
G01*
X5243500Y-3961000D02*
X5243500Y-4111000D01*
G75*
G02*
X5168500Y-4186000I-75000J0D01*
G01*
X3768500Y-4186000D01*
G75*
G02*
X3693500Y-4111000I0J75000D01*
G01*
X3693500Y-3961000D01*
G75*
G02*
X3768500Y-3886000I75000J0D01*
G01*
X5168500Y-3886000D01*
G75*
G02*
X5243500Y-3961000I0J-75000D01*
G01*
G37*
G36*
G01*
X5243500Y-4461000D02*
X5243500Y-4611000D01*
G75*
G02*
X5168500Y-4686000I-75000J0D01*
G01*
X3768500Y-4686000D01*
G75*
G02*
X3693500Y-4611000I0J75000D01*
G01*
X3693500Y-4461000D01*
G75*
G02*
X3768500Y-4386000I75000J0D01*
G01*
X5168500Y-4386000D01*
G75*
G02*
X5243500Y-4461000I0J-75000D01*
G01*
G37*
G36*
G01*
X5243500Y-4961000D02*
X5243500Y-5111000D01*
G75*
G02*
X5168500Y-5186000I-75000J0D01*
G01*
X3768500Y-5186000D01*
G75*
G02*
X3693500Y-5111000I0J75000D01*
G01*
X3693500Y-4961000D01*
G75*
G02*
X3768500Y-4886000I75000J0D01*
G01*
X5168500Y-4886000D01*
G75*
G02*
X5243500Y-4961000I0J-75000D01*
G01*
G37*
G36*
G01*
X5243500Y-5461000D02*
X5243500Y-5611000D01*
G75*
G02*
X5168500Y-5686000I-75000J0D01*
G01*
X3768500Y-5686000D01*
G75*
G02*
X3693500Y-5611000I0J75000D01*
G01*
X3693500Y-5461000D01*
G75*
G02*
X3768500Y-5386000I75000J0D01*
G01*
X5168500Y-5386000D01*
G75*
G02*
X5243500Y-5461000I0J-75000D01*
G01*
G37*
G36*
G01*
X5243500Y-5961000D02*
X5243500Y-6111000D01*
G75*
G02*
X5168500Y-6186000I-75000J0D01*
G01*
X3768500Y-6186000D01*
G75*
G02*
X3693500Y-6111000I0J75000D01*
G01*
X3693500Y-5961000D01*
G75*
G02*
X3768500Y-5886000I75000J0D01*
G01*
X5168500Y-5886000D01*
G75*
G02*
X5243500Y-5961000I0J-75000D01*
G01*
G37*
%TD*%
D10*
%TO.C,J3*%
X9207500Y-6985000D03*
X9207500Y-4445000D03*
X9207500Y-1905000D03*
X9207500Y635000D03*
D11*
X9207500Y3175000D03*
%TD*%
D10*
%TO.C,J4*%
X-14541500Y-6985000D03*
X-17081500Y-6985000D03*
X-19621500Y-6985000D03*
D11*
X-22161500Y-6985000D03*
%TD*%
%TO.C,C15*%
G36*
G01*
X7015500Y555500D02*
X6065500Y555500D01*
G75*
G02*
X5815500Y805500I0J250000D01*
G01*
X5815500Y1480500D01*
G75*
G02*
X6065500Y1730500I250000J0D01*
G01*
X7015500Y1730500D01*
G75*
G02*
X7265500Y1480500I0J-250000D01*
G01*
X7265500Y805500D01*
G75*
G02*
X7015500Y555500I-250000J0D01*
G01*
G37*
G36*
G01*
X7015500Y-1519500D02*
X6065500Y-1519500D01*
G75*
G02*
X5815500Y-1269500I0J250000D01*
G01*
X5815500Y-594500D01*
G75*
G02*
X6065500Y-344500I250000J0D01*
G01*
X7015500Y-344500D01*
G75*
G02*
X7265500Y-594500I0J-250000D01*
G01*
X7265500Y-1269500D01*
G75*
G02*
X7015500Y-1519500I-250000J0D01*
G01*
G37*
%TD*%
%TO.C,C14*%
G36*
G01*
X6380500Y-9053500D02*
X5430500Y-9053500D01*
G75*
G02*
X5180500Y-8803500I0J250000D01*
G01*
X5180500Y-8128500D01*
G75*
G02*
X5430500Y-7878500I250000J0D01*
G01*
X6380500Y-7878500D01*
G75*
G02*
X6630500Y-8128500I0J-250000D01*
G01*
X6630500Y-8803500D01*
G75*
G02*
X6380500Y-9053500I-250000J0D01*
G01*
G37*
G36*
G01*
X6380500Y-11128500D02*
X5430500Y-11128500D01*
G75*
G02*
X5180500Y-10878500I0J250000D01*
G01*
X5180500Y-10203500D01*
G75*
G02*
X5430500Y-9953500I250000J0D01*
G01*
X6380500Y-9953500D01*
G75*
G02*
X6630500Y-10203500I0J-250000D01*
G01*
X6630500Y-10878500D01*
G75*
G02*
X6380500Y-11128500I-250000J0D01*
G01*
G37*
%TD*%
%TO.C,C9*%
G36*
G01*
X6380500Y5424500D02*
X5430500Y5424500D01*
G75*
G02*
X5180500Y5674500I0J250000D01*
G01*
X5180500Y6349500D01*
G75*
G02*
X5430500Y6599500I250000J0D01*
G01*
X6380500Y6599500D01*
G75*
G02*
X6630500Y6349500I0J-250000D01*
G01*
X6630500Y5674500D01*
G75*
G02*
X6380500Y5424500I-250000J0D01*
G01*
G37*
G36*
G01*
X6380500Y3349500D02*
X5430500Y3349500D01*
G75*
G02*
X5180500Y3599500I0J250000D01*
G01*
X5180500Y4274500D01*
G75*
G02*
X5430500Y4524500I250000J0D01*
G01*
X6380500Y4524500D01*
G75*
G02*
X6630500Y4274500I0J-250000D01*
G01*
X6630500Y3599500D01*
G75*
G02*
X6380500Y3349500I-250000J0D01*
G01*
G37*
%TD*%
D16*
%TO.C,U2*%
X-10473000Y11049000D03*
D17*
X-16773000Y8769000D03*
X-16773000Y13329000D03*
%TD*%
%TO.C,C17*%
G36*
G01*
X-19842500Y13139000D02*
X-18892500Y13139000D01*
G75*
G02*
X-18642500Y12889000I0J-250000D01*
G01*
X-18642500Y12214000D01*
G75*
G02*
X-18892500Y11964000I-250000J0D01*
G01*
X-19842500Y11964000D01*
G75*
G02*
X-20092500Y12214000I0J250000D01*
G01*
X-20092500Y12889000D01*
G75*
G02*
X-19842500Y13139000I250000J0D01*
G01*
G37*
G36*
G01*
X-19842500Y15214000D02*
X-18892500Y15214000D01*
G75*
G02*
X-18642500Y14964000I0J-250000D01*
G01*
X-18642500Y14289000D01*
G75*
G02*
X-18892500Y14039000I-250000J0D01*
G01*
X-19842500Y14039000D01*
G75*
G02*
X-20092500Y14289000I0J250000D01*
G01*
X-20092500Y14964000D01*
G75*
G02*
X-19842500Y15214000I250000J0D01*
G01*
G37*
%TD*%
%TO.C,C16*%
G36*
G01*
X-19779000Y9329000D02*
X-18829000Y9329000D01*
G75*
G02*
X-18579000Y9079000I0J-250000D01*
G01*
X-18579000Y8404000D01*
G75*
G02*
X-18829000Y8154000I-250000J0D01*
G01*
X-19779000Y8154000D01*
G75*
G02*
X-20029000Y8404000I0J250000D01*
G01*
X-20029000Y9079000D01*
G75*
G02*
X-19779000Y9329000I250000J0D01*
G01*
G37*
G36*
G01*
X-19779000Y11404000D02*
X-18829000Y11404000D01*
G75*
G02*
X-18579000Y11154000I0J-250000D01*
G01*
X-18579000Y10479000D01*
G75*
G02*
X-18829000Y10229000I-250000J0D01*
G01*
X-19779000Y10229000D01*
G75*
G02*
X-20029000Y10479000I0J250000D01*
G01*
X-20029000Y11154000D01*
G75*
G02*
X-19779000Y11404000I250000J0D01*
G01*
G37*
%TD*%
%TO.C,R8*%
G36*
G01*
X17785501Y-7871000D02*
X16885499Y-7871000D01*
G75*
G02*
X16635500Y-7621001I0J249999D01*
G01*
X16635500Y-6920999D01*
G75*
G02*
X16885499Y-6671000I249999J0D01*
G01*
X17785501Y-6671000D01*
G75*
G02*
X18035500Y-6920999I0J-249999D01*
G01*
X18035500Y-7621001D01*
G75*
G02*
X17785501Y-7871000I-249999J0D01*
G01*
G37*
G36*
G01*
X17785501Y-9871000D02*
X16885499Y-9871000D01*
G75*
G02*
X16635500Y-9621001I0J249999D01*
G01*
X16635500Y-8920999D01*
G75*
G02*
X16885499Y-8671000I249999J0D01*
G01*
X17785501Y-8671000D01*
G75*
G02*
X18035500Y-8920999I0J-249999D01*
G01*
X18035500Y-9621001D01*
G75*
G02*
X17785501Y-9871000I-249999J0D01*
G01*
G37*
%TD*%
%TO.C,R10*%
G36*
G01*
X18790499Y-8671000D02*
X19690501Y-8671000D01*
G75*
G02*
X19940500Y-8920999I0J-249999D01*
G01*
X19940500Y-9621001D01*
G75*
G02*
X19690501Y-9871000I-249999J0D01*
G01*
X18790499Y-9871000D01*
G75*
G02*
X18540500Y-9621001I0J249999D01*
G01*
X18540500Y-8920999D01*
G75*
G02*
X18790499Y-8671000I249999J0D01*
G01*
G37*
G36*
G01*
X18790499Y-6671000D02*
X19690501Y-6671000D01*
G75*
G02*
X19940500Y-6920999I0J-249999D01*
G01*
X19940500Y-7621001D01*
G75*
G02*
X19690501Y-7871000I-249999J0D01*
G01*
X18790499Y-7871000D01*
G75*
G02*
X18540500Y-7621001I0J249999D01*
G01*
X18540500Y-6920999D01*
G75*
G02*
X18790499Y-6671000I249999J0D01*
G01*
G37*
%TD*%
%TO.C,R6*%
G36*
G01*
X15880501Y-7871000D02*
X14980499Y-7871000D01*
G75*
G02*
X14730500Y-7621001I0J249999D01*
G01*
X14730500Y-6920999D01*
G75*
G02*
X14980499Y-6671000I249999J0D01*
G01*
X15880501Y-6671000D01*
G75*
G02*
X16130500Y-6920999I0J-249999D01*
G01*
X16130500Y-7621001D01*
G75*
G02*
X15880501Y-7871000I-249999J0D01*
G01*
G37*
G36*
G01*
X15880501Y-9871000D02*
X14980499Y-9871000D01*
G75*
G02*
X14730500Y-9621001I0J249999D01*
G01*
X14730500Y-8920999D01*
G75*
G02*
X14980499Y-8671000I249999J0D01*
G01*
X15880501Y-8671000D01*
G75*
G02*
X16130500Y-8920999I0J-249999D01*
G01*
X16130500Y-9621001D01*
G75*
G02*
X15880501Y-9871000I-249999J0D01*
G01*
G37*
%TD*%
%TO.C,R7*%
G36*
G01*
X13075499Y-8671000D02*
X13975501Y-8671000D01*
G75*
G02*
X14225500Y-8920999I0J-249999D01*
G01*
X14225500Y-9621001D01*
G75*
G02*
X13975501Y-9871000I-249999J0D01*
G01*
X13075499Y-9871000D01*
G75*
G02*
X12825500Y-9621001I0J249999D01*
G01*
X12825500Y-8920999D01*
G75*
G02*
X13075499Y-8671000I249999J0D01*
G01*
G37*
G36*
G01*
X13075499Y-6671000D02*
X13975501Y-6671000D01*
G75*
G02*
X14225500Y-6920999I0J-249999D01*
G01*
X14225500Y-7621001D01*
G75*
G02*
X13975501Y-7871000I-249999J0D01*
G01*
X13075499Y-7871000D01*
G75*
G02*
X12825500Y-7621001I0J249999D01*
G01*
X12825500Y-6920999D01*
G75*
G02*
X13075499Y-6671000I249999J0D01*
G01*
G37*
%TD*%
%TO.C,R2*%
G36*
G01*
X-3495500Y-9582999D02*
X-3495500Y-10483001D01*
G75*
G02*
X-3745499Y-10733000I-249999J0D01*
G01*
X-4445501Y-10733000D01*
G75*
G02*
X-4695500Y-10483001I0J249999D01*
G01*
X-4695500Y-9582999D01*
G75*
G02*
X-4445501Y-9333000I249999J0D01*
G01*
X-3745499Y-9333000D01*
G75*
G02*
X-3495500Y-9582999I0J-249999D01*
G01*
G37*
G36*
G01*
X-1495500Y-9582999D02*
X-1495500Y-10483001D01*
G75*
G02*
X-1745499Y-10733000I-249999J0D01*
G01*
X-2445501Y-10733000D01*
G75*
G02*
X-2695500Y-10483001I0J249999D01*
G01*
X-2695500Y-9582999D01*
G75*
G02*
X-2445501Y-9333000I249999J0D01*
G01*
X-1745499Y-9333000D01*
G75*
G02*
X-1495500Y-9582999I0J-249999D01*
G01*
G37*
%TD*%
%TO.C,R1*%
G36*
G01*
X-5455499Y-11538000D02*
X-6355501Y-11538000D01*
G75*
G02*
X-6605500Y-11288001I0J249999D01*
G01*
X-6605500Y-10587999D01*
G75*
G02*
X-6355501Y-10338000I249999J0D01*
G01*
X-5455499Y-10338000D01*
G75*
G02*
X-5205500Y-10587999I0J-249999D01*
G01*
X-5205500Y-11288001D01*
G75*
G02*
X-5455499Y-11538000I-249999J0D01*
G01*
G37*
G36*
G01*
X-5455499Y-13538000D02*
X-6355501Y-13538000D01*
G75*
G02*
X-6605500Y-13288001I0J249999D01*
G01*
X-6605500Y-12587999D01*
G75*
G02*
X-6355501Y-12338000I249999J0D01*
G01*
X-5455499Y-12338000D01*
G75*
G02*
X-5205500Y-12587999I0J-249999D01*
G01*
X-5205500Y-13288001D01*
G75*
G02*
X-5455499Y-13538000I-249999J0D01*
G01*
G37*
%TD*%
%TO.C,R5*%
G36*
G01*
X-17211500Y4831501D02*
X-17211500Y3931499D01*
G75*
G02*
X-17461499Y3681500I-249999J0D01*
G01*
X-18161501Y3681500D01*
G75*
G02*
X-18411500Y3931499I0J249999D01*
G01*
X-18411500Y4831501D01*
G75*
G02*
X-18161501Y5081500I249999J0D01*
G01*
X-17461499Y5081500D01*
G75*
G02*
X-17211500Y4831501I0J-249999D01*
G01*
G37*
G36*
G01*
X-15211500Y4831501D02*
X-15211500Y3931499D01*
G75*
G02*
X-15461499Y3681500I-249999J0D01*
G01*
X-16161501Y3681500D01*
G75*
G02*
X-16411500Y3931499I0J249999D01*
G01*
X-16411500Y4831501D01*
G75*
G02*
X-16161501Y5081500I249999J0D01*
G01*
X-15461499Y5081500D01*
G75*
G02*
X-15211500Y4831501I0J-249999D01*
G01*
G37*
%TD*%
%TO.C,R4*%
G36*
G01*
X-9276501Y-1670000D02*
X-8376499Y-1670000D01*
G75*
G02*
X-8126500Y-1919999I0J-249999D01*
G01*
X-8126500Y-2620001D01*
G75*
G02*
X-8376499Y-2870000I-249999J0D01*
G01*
X-9276501Y-2870000D01*
G75*
G02*
X-9526500Y-2620001I0J249999D01*
G01*
X-9526500Y-1919999D01*
G75*
G02*
X-9276501Y-1670000I249999J0D01*
G01*
G37*
G36*
G01*
X-9276501Y330000D02*
X-8376499Y330000D01*
G75*
G02*
X-8126500Y80001I0J-249999D01*
G01*
X-8126500Y-620001D01*
G75*
G02*
X-8376499Y-870000I-249999J0D01*
G01*
X-9276501Y-870000D01*
G75*
G02*
X-9526500Y-620001I0J249999D01*
G01*
X-9526500Y80001D01*
G75*
G02*
X-9276501Y330000I249999J0D01*
G01*
G37*
%TD*%
%TO.C,R3*%
G36*
G01*
X-11308501Y-447500D02*
X-10408499Y-447500D01*
G75*
G02*
X-10158500Y-697499I0J-249999D01*
G01*
X-10158500Y-1397501D01*
G75*
G02*
X-10408499Y-1647500I-249999J0D01*
G01*
X-11308501Y-1647500D01*
G75*
G02*
X-11558500Y-1397501I0J249999D01*
G01*
X-11558500Y-697499D01*
G75*
G02*
X-11308501Y-447500I249999J0D01*
G01*
G37*
G36*
G01*
X-11308501Y1552500D02*
X-10408499Y1552500D01*
G75*
G02*
X-10158500Y1302501I0J-249999D01*
G01*
X-10158500Y602499D01*
G75*
G02*
X-10408499Y352500I-249999J0D01*
G01*
X-11308501Y352500D01*
G75*
G02*
X-11558500Y602499I0J249999D01*
G01*
X-11558500Y1302501D01*
G75*
G02*
X-11308501Y1552500I249999J0D01*
G01*
G37*
%TD*%
%TO.C,R11*%
G36*
G01*
X22167001Y9607500D02*
X21266999Y9607500D01*
G75*
G02*
X21017000Y9857499I0J249999D01*
G01*
X21017000Y10557501D01*
G75*
G02*
X21266999Y10807500I249999J0D01*
G01*
X22167001Y10807500D01*
G75*
G02*
X22417000Y10557501I0J-249999D01*
G01*
X22417000Y9857499D01*
G75*
G02*
X22167001Y9607500I-249999J0D01*
G01*
G37*
G36*
G01*
X22167001Y7607500D02*
X21266999Y7607500D01*
G75*
G02*
X21017000Y7857499I0J249999D01*
G01*
X21017000Y8557501D01*
G75*
G02*
X21266999Y8807500I249999J0D01*
G01*
X22167001Y8807500D01*
G75*
G02*
X22417000Y8557501I0J-249999D01*
G01*
X22417000Y7857499D01*
G75*
G02*
X22167001Y7607500I-249999J0D01*
G01*
G37*
%TD*%
%TO.C,R9*%
G36*
G01*
X23298999Y7791500D02*
X24199001Y7791500D01*
G75*
G02*
X24449000Y7541501I0J-249999D01*
G01*
X24449000Y6841499D01*
G75*
G02*
X24199001Y6591500I-249999J0D01*
G01*
X23298999Y6591500D01*
G75*
G02*
X23049000Y6841499I0J249999D01*
G01*
X23049000Y7541501D01*
G75*
G02*
X23298999Y7791500I249999J0D01*
G01*
G37*
G36*
G01*
X23298999Y9791500D02*
X24199001Y9791500D01*
G75*
G02*
X24449000Y9541501I0J-249999D01*
G01*
X24449000Y8841499D01*
G75*
G02*
X24199001Y8591500I-249999J0D01*
G01*
X23298999Y8591500D01*
G75*
G02*
X23049000Y8841499I0J249999D01*
G01*
X23049000Y9541501D01*
G75*
G02*
X23298999Y9791500I249999J0D01*
G01*
G37*
%TD*%
%TO.C,R12*%
G36*
G01*
X23425999Y-3638500D02*
X24326001Y-3638500D01*
G75*
G02*
X24576000Y-3888499I0J-249999D01*
G01*
X24576000Y-4588501D01*
G75*
G02*
X24326001Y-4838500I-249999J0D01*
G01*
X23425999Y-4838500D01*
G75*
G02*
X23176000Y-4588501I0J249999D01*
G01*
X23176000Y-3888499D01*
G75*
G02*
X23425999Y-3638500I249999J0D01*
G01*
G37*
G36*
G01*
X23425999Y-1638500D02*
X24326001Y-1638500D01*
G75*
G02*
X24576000Y-1888499I0J-249999D01*
G01*
X24576000Y-2588501D01*
G75*
G02*
X24326001Y-2838500I-249999J0D01*
G01*
X23425999Y-2838500D01*
G75*
G02*
X23176000Y-2588501I0J249999D01*
G01*
X23176000Y-1888499D01*
G75*
G02*
X23425999Y-1638500I249999J0D01*
G01*
G37*
%TD*%
D18*
%TO.C,SW3*%
X14668500Y3175000D03*
X17208500Y3175000D03*
X17208500Y-4445000D03*
X14668500Y-4445000D03*
%TD*%
D10*
%TO.C,SW1*%
X13652500Y-12192000D03*
D11*
X11112500Y-12192000D03*
%TD*%
%TO.C,J1*%
X-22034500Y4064000D03*
D10*
X-22034500Y1524000D03*
X-22034500Y-1016000D03*
X-22034500Y-3556000D03*
%TD*%
%TO.C,J2*%
X-22098000Y8763000D03*
D11*
X-22098000Y11303000D03*
%TD*%
D19*
%TO.C,IC3*%
X35459000Y10546500D03*
X35459000Y9746500D03*
X35459000Y8946500D03*
X35459000Y8146500D03*
X35459000Y7346500D03*
X35459000Y6546500D03*
X35459000Y5746500D03*
X35459000Y4946500D03*
X35459000Y4146500D03*
X35459000Y3346500D03*
X35459000Y2546500D03*
X35459000Y1746500D03*
X35459000Y946500D03*
X35459000Y146500D03*
X35459000Y-653500D03*
X35459000Y-1453500D03*
X35459000Y-2253500D03*
X35459000Y-3053500D03*
X26009000Y-3053500D03*
X26009000Y-2253500D03*
X26009000Y-1453500D03*
X26009000Y-653500D03*
X26009000Y146500D03*
X26009000Y946500D03*
X26009000Y1746500D03*
X26009000Y2546500D03*
X26009000Y3346500D03*
X26009000Y4146500D03*
X26009000Y4946500D03*
X26009000Y5746500D03*
X26009000Y6546500D03*
X26009000Y7346500D03*
X26009000Y8146500D03*
X26009000Y8946500D03*
X26009000Y9746500D03*
X26009000Y10546500D03*
%TD*%
D20*
%TO.C,IC1*%
X-17843500Y-680000D03*
X-17843500Y-30000D03*
X-17843500Y620000D03*
X-17843500Y1270000D03*
X-13943500Y1270000D03*
X-13943500Y620000D03*
X-13943500Y-30000D03*
X-13943500Y-680000D03*
%TD*%
D21*
%TO.C,IC2*%
X-7937500Y-9398000D03*
X-7937500Y-10668000D03*
X-7937500Y-11938000D03*
X-7937500Y-13208000D03*
X-13361500Y-13208000D03*
X-13361500Y-11938000D03*
X-13361500Y-10668000D03*
X-13361500Y-9398000D03*
%TD*%
D13*
%TO.C,DS2*%
X-55689500Y7366000D03*
X-53149500Y7366000D03*
X-50609500Y7366000D03*
X-48069500Y7366000D03*
X-45529500Y7366000D03*
X-42989500Y-7874000D03*
X-45529500Y-7874000D03*
X-48069500Y-7874000D03*
X-50609500Y-7874000D03*
X-53149500Y-7874000D03*
X-55689500Y-7874000D03*
D12*
X-58229500Y-7874000D03*
%TD*%
%TO.C,C5*%
G36*
G01*
X21493500Y-5794500D02*
X20543500Y-5794500D01*
G75*
G02*
X20293500Y-5544500I0J250000D01*
G01*
X20293500Y-4869500D01*
G75*
G02*
X20543500Y-4619500I250000J0D01*
G01*
X21493500Y-4619500D01*
G75*
G02*
X21743500Y-4869500I0J-250000D01*
G01*
X21743500Y-5544500D01*
G75*
G02*
X21493500Y-5794500I-250000J0D01*
G01*
G37*
G36*
G01*
X21493500Y-7869500D02*
X20543500Y-7869500D01*
G75*
G02*
X20293500Y-7619500I0J250000D01*
G01*
X20293500Y-6944500D01*
G75*
G02*
X20543500Y-6694500I250000J0D01*
G01*
X21493500Y-6694500D01*
G75*
G02*
X21743500Y-6944500I0J-250000D01*
G01*
X21743500Y-7619500D01*
G75*
G02*
X21493500Y-7869500I-250000J0D01*
G01*
G37*
%TD*%
%TO.C,C4*%
G36*
G01*
X11145500Y-8683500D02*
X12095500Y-8683500D01*
G75*
G02*
X12345500Y-8933500I0J-250000D01*
G01*
X12345500Y-9608500D01*
G75*
G02*
X12095500Y-9858500I-250000J0D01*
G01*
X11145500Y-9858500D01*
G75*
G02*
X10895500Y-9608500I0J250000D01*
G01*
X10895500Y-8933500D01*
G75*
G02*
X11145500Y-8683500I250000J0D01*
G01*
G37*
G36*
G01*
X11145500Y-6608500D02*
X12095500Y-6608500D01*
G75*
G02*
X12345500Y-6858500I0J-250000D01*
G01*
X12345500Y-7533500D01*
G75*
G02*
X12095500Y-7783500I-250000J0D01*
G01*
X11145500Y-7783500D01*
G75*
G02*
X10895500Y-7533500I0J250000D01*
G01*
X10895500Y-6858500D01*
G75*
G02*
X11145500Y-6608500I250000J0D01*
G01*
G37*
%TD*%
%TO.C,C8*%
G36*
G01*
X29370000Y-6631000D02*
X30320000Y-6631000D01*
G75*
G02*
X30570000Y-6881000I0J-250000D01*
G01*
X30570000Y-7556000D01*
G75*
G02*
X30320000Y-7806000I-250000J0D01*
G01*
X29370000Y-7806000D01*
G75*
G02*
X29120000Y-7556000I0J250000D01*
G01*
X29120000Y-6881000D01*
G75*
G02*
X29370000Y-6631000I250000J0D01*
G01*
G37*
G36*
G01*
X29370000Y-4556000D02*
X30320000Y-4556000D01*
G75*
G02*
X30570000Y-4806000I0J-250000D01*
G01*
X30570000Y-5481000D01*
G75*
G02*
X30320000Y-5731000I-250000J0D01*
G01*
X29370000Y-5731000D01*
G75*
G02*
X29120000Y-5481000I0J250000D01*
G01*
X29120000Y-4806000D01*
G75*
G02*
X29370000Y-4556000I250000J0D01*
G01*
G37*
%TD*%
%TO.C,C6*%
G36*
G01*
X32352000Y-5731000D02*
X31402000Y-5731000D01*
G75*
G02*
X31152000Y-5481000I0J250000D01*
G01*
X31152000Y-4806000D01*
G75*
G02*
X31402000Y-4556000I250000J0D01*
G01*
X32352000Y-4556000D01*
G75*
G02*
X32602000Y-4806000I0J-250000D01*
G01*
X32602000Y-5481000D01*
G75*
G02*
X32352000Y-5731000I-250000J0D01*
G01*
G37*
G36*
G01*
X32352000Y-7806000D02*
X31402000Y-7806000D01*
G75*
G02*
X31152000Y-7556000I0J250000D01*
G01*
X31152000Y-6881000D01*
G75*
G02*
X31402000Y-6631000I250000J0D01*
G01*
X32352000Y-6631000D01*
G75*
G02*
X32602000Y-6881000I0J-250000D01*
G01*
X32602000Y-7556000D01*
G75*
G02*
X32352000Y-7806000I-250000J0D01*
G01*
G37*
%TD*%
%TO.C,C7*%
G36*
G01*
X34447500Y-5751500D02*
X33497500Y-5751500D01*
G75*
G02*
X33247500Y-5501500I0J250000D01*
G01*
X33247500Y-4826500D01*
G75*
G02*
X33497500Y-4576500I250000J0D01*
G01*
X34447500Y-4576500D01*
G75*
G02*
X34697500Y-4826500I0J-250000D01*
G01*
X34697500Y-5501500D01*
G75*
G02*
X34447500Y-5751500I-250000J0D01*
G01*
G37*
G36*
G01*
X34447500Y-7826500D02*
X33497500Y-7826500D01*
G75*
G02*
X33247500Y-7576500I0J250000D01*
G01*
X33247500Y-6901500D01*
G75*
G02*
X33497500Y-6651500I250000J0D01*
G01*
X34447500Y-6651500D01*
G75*
G02*
X34697500Y-6901500I0J-250000D01*
G01*
X34697500Y-7576500D01*
G75*
G02*
X34447500Y-7826500I-250000J0D01*
G01*
G37*
%TD*%
%TO.C,C1*%
G36*
G01*
X-8503500Y-15588000D02*
X-8503500Y-14638000D01*
G75*
G02*
X-8253500Y-14388000I250000J0D01*
G01*
X-7578500Y-14388000D01*
G75*
G02*
X-7328500Y-14638000I0J-250000D01*
G01*
X-7328500Y-15588000D01*
G75*
G02*
X-7578500Y-15838000I-250000J0D01*
G01*
X-8253500Y-15838000D01*
G75*
G02*
X-8503500Y-15588000I0J250000D01*
G01*
G37*
G36*
G01*
X-10578500Y-15588000D02*
X-10578500Y-14638000D01*
G75*
G02*
X-10328500Y-14388000I250000J0D01*
G01*
X-9653500Y-14388000D01*
G75*
G02*
X-9403500Y-14638000I0J-250000D01*
G01*
X-9403500Y-15588000D01*
G75*
G02*
X-9653500Y-15838000I-250000J0D01*
G01*
X-10328500Y-15838000D01*
G75*
G02*
X-10578500Y-15588000I0J250000D01*
G01*
G37*
%TD*%
%TO.C,C13*%
G36*
G01*
X4348500Y-9096500D02*
X3398500Y-9096500D01*
G75*
G02*
X3148500Y-8846500I0J250000D01*
G01*
X3148500Y-8171500D01*
G75*
G02*
X3398500Y-7921500I250000J0D01*
G01*
X4348500Y-7921500D01*
G75*
G02*
X4598500Y-8171500I0J-250000D01*
G01*
X4598500Y-8846500D01*
G75*
G02*
X4348500Y-9096500I-250000J0D01*
G01*
G37*
G36*
G01*
X4348500Y-11171500D02*
X3398500Y-11171500D01*
G75*
G02*
X3148500Y-10921500I0J250000D01*
G01*
X3148500Y-10246500D01*
G75*
G02*
X3398500Y-9996500I250000J0D01*
G01*
X4348500Y-9996500D01*
G75*
G02*
X4598500Y-10246500I0J-250000D01*
G01*
X4598500Y-10921500D01*
G75*
G02*
X4348500Y-11171500I-250000J0D01*
G01*
G37*
%TD*%
%TO.C,C12*%
G36*
G01*
X-7974000Y-7841000D02*
X-7974000Y-6891000D01*
G75*
G02*
X-7724000Y-6641000I250000J0D01*
G01*
X-7049000Y-6641000D01*
G75*
G02*
X-6799000Y-6891000I0J-250000D01*
G01*
X-6799000Y-7841000D01*
G75*
G02*
X-7049000Y-8091000I-250000J0D01*
G01*
X-7724000Y-8091000D01*
G75*
G02*
X-7974000Y-7841000I0J250000D01*
G01*
G37*
G36*
G01*
X-10049000Y-7841000D02*
X-10049000Y-6891000D01*
G75*
G02*
X-9799000Y-6641000I250000J0D01*
G01*
X-9124000Y-6641000D01*
G75*
G02*
X-8874000Y-6891000I0J-250000D01*
G01*
X-8874000Y-7841000D01*
G75*
G02*
X-9124000Y-8091000I-250000J0D01*
G01*
X-9799000Y-8091000D01*
G75*
G02*
X-10049000Y-7841000I0J250000D01*
G01*
G37*
%TD*%
%TO.C,C11*%
G36*
G01*
X-6761500Y6578000D02*
X-5811500Y6578000D01*
G75*
G02*
X-5561500Y6328000I0J-250000D01*
G01*
X-5561500Y5653000D01*
G75*
G02*
X-5811500Y5403000I-250000J0D01*
G01*
X-6761500Y5403000D01*
G75*
G02*
X-7011500Y5653000I0J250000D01*
G01*
X-7011500Y6328000D01*
G75*
G02*
X-6761500Y6578000I250000J0D01*
G01*
G37*
G36*
G01*
X-6761500Y4503000D02*
X-5811500Y4503000D01*
G75*
G02*
X-5561500Y4253000I0J-250000D01*
G01*
X-5561500Y3578000D01*
G75*
G02*
X-5811500Y3328000I-250000J0D01*
G01*
X-6761500Y3328000D01*
G75*
G02*
X-7011500Y3578000I0J250000D01*
G01*
X-7011500Y4253000D01*
G75*
G02*
X-6761500Y4503000I250000J0D01*
G01*
G37*
%TD*%
%TO.C,C10*%
G36*
G01*
X4348500Y5424500D02*
X3398500Y5424500D01*
G75*
G02*
X3148500Y5674500I0J250000D01*
G01*
X3148500Y6349500D01*
G75*
G02*
X3398500Y6599500I250000J0D01*
G01*
X4348500Y6599500D01*
G75*
G02*
X4598500Y6349500I0J-250000D01*
G01*
X4598500Y5674500D01*
G75*
G02*
X4348500Y5424500I-250000J0D01*
G01*
G37*
G36*
G01*
X4348500Y3349500D02*
X3398500Y3349500D01*
G75*
G02*
X3148500Y3599500I0J250000D01*
G01*
X3148500Y4274500D01*
G75*
G02*
X3398500Y4524500I250000J0D01*
G01*
X4348500Y4524500D01*
G75*
G02*
X4598500Y4274500I0J-250000D01*
G01*
X4598500Y3599500D01*
G75*
G02*
X4348500Y3349500I-250000J0D01*
G01*
G37*
%TD*%
%TO.C,C3*%
G36*
G01*
X-17266500Y-3015000D02*
X-17266500Y-2065000D01*
G75*
G02*
X-17016500Y-1815000I250000J0D01*
G01*
X-16341500Y-1815000D01*
G75*
G02*
X-16091500Y-2065000I0J-250000D01*
G01*
X-16091500Y-3015000D01*
G75*
G02*
X-16341500Y-3265000I-250000J0D01*
G01*
X-17016500Y-3265000D01*
G75*
G02*
X-17266500Y-3015000I0J250000D01*
G01*
G37*
G36*
G01*
X-19341500Y-3015000D02*
X-19341500Y-2065000D01*
G75*
G02*
X-19091500Y-1815000I250000J0D01*
G01*
X-18416500Y-1815000D01*
G75*
G02*
X-18166500Y-2065000I0J-250000D01*
G01*
X-18166500Y-3015000D01*
G75*
G02*
X-18416500Y-3265000I-250000J0D01*
G01*
X-19091500Y-3265000D01*
G75*
G02*
X-19341500Y-3015000I0J250000D01*
G01*
G37*
%TD*%
%TO.C,C2*%
G36*
G01*
X-13456500Y-3015000D02*
X-13456500Y-2065000D01*
G75*
G02*
X-13206500Y-1815000I250000J0D01*
G01*
X-12531500Y-1815000D01*
G75*
G02*
X-12281500Y-2065000I0J-250000D01*
G01*
X-12281500Y-3015000D01*
G75*
G02*
X-12531500Y-3265000I-250000J0D01*
G01*
X-13206500Y-3265000D01*
G75*
G02*
X-13456500Y-3015000I0J250000D01*
G01*
G37*
G36*
G01*
X-15531500Y-3015000D02*
X-15531500Y-2065000D01*
G75*
G02*
X-15281500Y-1815000I250000J0D01*
G01*
X-14606500Y-1815000D01*
G75*
G02*
X-14356500Y-2065000I0J-250000D01*
G01*
X-14356500Y-3015000D01*
G75*
G02*
X-14606500Y-3265000I-250000J0D01*
G01*
X-15281500Y-3265000D01*
G75*
G02*
X-15531500Y-3015000I0J250000D01*
G01*
G37*
%TD*%
M02*
