%TF.GenerationSoftware,KiCad,Pcbnew,(5.1.9)-1*%
%TF.CreationDate,2021-04-25T23:04:25+02:00*%
%TF.ProjectId,Schaakbord_Bord,53636861-616b-4626-9f72-645f426f7264,rev?*%
%TF.SameCoordinates,Original*%
%TF.FileFunction,Legend,Bot*%
%TF.FilePolarity,Positive*%
%FSLAX46Y46*%
G04 Gerber Fmt 4.6, Leading zero omitted, Abs format (unit mm)*
G04 Created by KiCad (PCBNEW (5.1.9)-1) date 2021-04-25 23:04:25*
%MOMM*%
%LPD*%
G01*
G04 APERTURE LIST*
%ADD10C,0.120000*%
%ADD11C,0.200000*%
%ADD12C,0.150000*%
%ADD13C,0.254000*%
G04 APERTURE END LIST*
D10*
%TO.C,J3*%
X156387800Y13081000D02*
X156387800Y14351000D01*
X155117800Y13081000D02*
X156387800Y13081000D01*
X144577800Y15393929D02*
X144577800Y15791000D01*
X145337800Y15393929D02*
X145337800Y15791000D01*
X144577800Y24451000D02*
X144577800Y18451000D01*
X145337800Y24451000D02*
X144577800Y24451000D01*
X145337800Y18451000D02*
X145337800Y24451000D01*
X146227800Y15791000D02*
X146227800Y18451000D01*
X147117800Y15393929D02*
X147117800Y15791000D01*
X147877800Y15393929D02*
X147877800Y15791000D01*
X147117800Y24451000D02*
X147117800Y18451000D01*
X147877800Y24451000D02*
X147117800Y24451000D01*
X147877800Y18451000D02*
X147877800Y24451000D01*
X148767800Y15791000D02*
X148767800Y18451000D01*
X149657800Y15393929D02*
X149657800Y15791000D01*
X150417800Y15393929D02*
X150417800Y15791000D01*
X149657800Y24451000D02*
X149657800Y18451000D01*
X150417800Y24451000D02*
X149657800Y24451000D01*
X150417800Y18451000D02*
X150417800Y24451000D01*
X151307800Y15791000D02*
X151307800Y18451000D01*
X152197800Y15393929D02*
X152197800Y15791000D01*
X152957800Y15393929D02*
X152957800Y15791000D01*
X152197800Y24451000D02*
X152197800Y18451000D01*
X152957800Y24451000D02*
X152197800Y24451000D01*
X152957800Y18451000D02*
X152957800Y24451000D01*
X153847800Y15791000D02*
X153847800Y18451000D01*
X154737800Y15461000D02*
X154737800Y15791000D01*
X155497800Y15461000D02*
X155497800Y15791000D01*
X154837800Y18451000D02*
X154837800Y24451000D01*
X154957800Y18451000D02*
X154957800Y24451000D01*
X155077800Y18451000D02*
X155077800Y24451000D01*
X155197800Y18451000D02*
X155197800Y24451000D01*
X155317800Y18451000D02*
X155317800Y24451000D01*
X155437800Y18451000D02*
X155437800Y24451000D01*
X154737800Y24451000D02*
X154737800Y18451000D01*
X155497800Y24451000D02*
X154737800Y24451000D01*
X155497800Y18451000D02*
X155497800Y24451000D01*
X156447800Y18451000D02*
X156447800Y15791000D01*
X143627800Y18451000D02*
X156447800Y18451000D01*
X143627800Y15791000D02*
X143627800Y18451000D01*
X156447800Y15791000D02*
X143627800Y15791000D01*
%TO.C,J4*%
X156327800Y-24618800D02*
X156327800Y-15988800D01*
X156209705Y-24618800D02*
X156209705Y-15988800D01*
X156091610Y-24618800D02*
X156091610Y-15988800D01*
X155973515Y-24618800D02*
X155973515Y-15988800D01*
X155855420Y-24618800D02*
X155855420Y-15988800D01*
X155737325Y-24618800D02*
X155737325Y-15988800D01*
X155619230Y-24618800D02*
X155619230Y-15988800D01*
X155501135Y-24618800D02*
X155501135Y-15988800D01*
X155383040Y-24618800D02*
X155383040Y-15988800D01*
X155264945Y-24618800D02*
X155264945Y-15988800D01*
X155146850Y-24618800D02*
X155146850Y-15988800D01*
X155028755Y-24618800D02*
X155028755Y-15988800D01*
X154910660Y-24618800D02*
X154910660Y-15988800D01*
X154792565Y-24618800D02*
X154792565Y-15988800D01*
X154674470Y-24618800D02*
X154674470Y-15988800D01*
X154556375Y-24618800D02*
X154556375Y-15988800D01*
X154438280Y-24618800D02*
X154438280Y-15988800D01*
X154320185Y-24618800D02*
X154320185Y-15988800D01*
X154202090Y-24618800D02*
X154202090Y-15988800D01*
X154083995Y-24618800D02*
X154083995Y-15988800D01*
X153965900Y-24618800D02*
X153965900Y-15988800D01*
X155477800Y-15988800D02*
X155477800Y-15638800D01*
X154757800Y-15988800D02*
X154757800Y-15638800D01*
X152937800Y-15988800D02*
X152937800Y-15578800D01*
X152217800Y-15988800D02*
X152217800Y-15578800D01*
X150397800Y-15988800D02*
X150397800Y-15578800D01*
X149677800Y-15988800D02*
X149677800Y-15578800D01*
X147857800Y-15988800D02*
X147857800Y-15578800D01*
X147137800Y-15988800D02*
X147137800Y-15578800D01*
X145317800Y-15988800D02*
X145317800Y-15578800D01*
X144597800Y-15988800D02*
X144597800Y-15578800D01*
X153847800Y-24618800D02*
X153847800Y-15988800D01*
X151307800Y-24618800D02*
X151307800Y-15988800D01*
X148767800Y-24618800D02*
X148767800Y-15988800D01*
X146227800Y-24618800D02*
X146227800Y-15988800D01*
X156447800Y-24618800D02*
X156447800Y-15988800D01*
X156447800Y-15988800D02*
X143627800Y-15988800D01*
X143627800Y-24618800D02*
X143627800Y-15988800D01*
X156447800Y-24618800D02*
X143627800Y-24618800D01*
X156447800Y-13418800D02*
X155117800Y-13418800D01*
X156447800Y-14528800D02*
X156447800Y-13418800D01*
%TO.C,J2*%
X105216000Y-14541500D02*
X105216000Y-13431500D01*
X105216000Y-13431500D02*
X103886000Y-13431500D01*
X105216000Y-24631500D02*
X94936000Y-24631500D01*
X94936000Y-24631500D02*
X94936000Y-16001500D01*
X105216000Y-16001500D02*
X94936000Y-16001500D01*
X105216000Y-24631500D02*
X105216000Y-16001500D01*
X97536000Y-24631500D02*
X97536000Y-16001500D01*
X100076000Y-24631500D02*
X100076000Y-16001500D01*
X102616000Y-24631500D02*
X102616000Y-16001500D01*
X95906000Y-16001500D02*
X95906000Y-15591500D01*
X96626000Y-16001500D02*
X96626000Y-15591500D01*
X98446000Y-16001500D02*
X98446000Y-15591500D01*
X99166000Y-16001500D02*
X99166000Y-15591500D01*
X100986000Y-16001500D02*
X100986000Y-15591500D01*
X101706000Y-16001500D02*
X101706000Y-15591500D01*
X103526000Y-16001500D02*
X103526000Y-15651500D01*
X104246000Y-16001500D02*
X104246000Y-15651500D01*
X102734100Y-24631500D02*
X102734100Y-16001500D01*
X102852195Y-24631500D02*
X102852195Y-16001500D01*
X102970290Y-24631500D02*
X102970290Y-16001500D01*
X103088385Y-24631500D02*
X103088385Y-16001500D01*
X103206480Y-24631500D02*
X103206480Y-16001500D01*
X103324575Y-24631500D02*
X103324575Y-16001500D01*
X103442670Y-24631500D02*
X103442670Y-16001500D01*
X103560765Y-24631500D02*
X103560765Y-16001500D01*
X103678860Y-24631500D02*
X103678860Y-16001500D01*
X103796955Y-24631500D02*
X103796955Y-16001500D01*
X103915050Y-24631500D02*
X103915050Y-16001500D01*
X104033145Y-24631500D02*
X104033145Y-16001500D01*
X104151240Y-24631500D02*
X104151240Y-16001500D01*
X104269335Y-24631500D02*
X104269335Y-16001500D01*
X104387430Y-24631500D02*
X104387430Y-16001500D01*
X104505525Y-24631500D02*
X104505525Y-16001500D01*
X104623620Y-24631500D02*
X104623620Y-16001500D01*
X104741715Y-24631500D02*
X104741715Y-16001500D01*
X104859810Y-24631500D02*
X104859810Y-16001500D01*
X104977905Y-24631500D02*
X104977905Y-16001500D01*
X105096000Y-24631500D02*
X105096000Y-16001500D01*
%TO.C,J1*%
X105156000Y13081000D02*
X105156000Y14351000D01*
X103886000Y13081000D02*
X105156000Y13081000D01*
X95886000Y15393929D02*
X95886000Y15791000D01*
X96646000Y15393929D02*
X96646000Y15791000D01*
X95886000Y24451000D02*
X95886000Y18451000D01*
X96646000Y24451000D02*
X95886000Y24451000D01*
X96646000Y18451000D02*
X96646000Y24451000D01*
X97536000Y15791000D02*
X97536000Y18451000D01*
X98426000Y15393929D02*
X98426000Y15791000D01*
X99186000Y15393929D02*
X99186000Y15791000D01*
X98426000Y24451000D02*
X98426000Y18451000D01*
X99186000Y24451000D02*
X98426000Y24451000D01*
X99186000Y18451000D02*
X99186000Y24451000D01*
X100076000Y15791000D02*
X100076000Y18451000D01*
X100966000Y15393929D02*
X100966000Y15791000D01*
X101726000Y15393929D02*
X101726000Y15791000D01*
X100966000Y24451000D02*
X100966000Y18451000D01*
X101726000Y24451000D02*
X100966000Y24451000D01*
X101726000Y18451000D02*
X101726000Y24451000D01*
X102616000Y15791000D02*
X102616000Y18451000D01*
X103506000Y15461000D02*
X103506000Y15791000D01*
X104266000Y15461000D02*
X104266000Y15791000D01*
X103606000Y18451000D02*
X103606000Y24451000D01*
X103726000Y18451000D02*
X103726000Y24451000D01*
X103846000Y18451000D02*
X103846000Y24451000D01*
X103966000Y18451000D02*
X103966000Y24451000D01*
X104086000Y18451000D02*
X104086000Y24451000D01*
X104206000Y18451000D02*
X104206000Y24451000D01*
X103506000Y24451000D02*
X103506000Y18451000D01*
X104266000Y24451000D02*
X103506000Y24451000D01*
X104266000Y18451000D02*
X104266000Y24451000D01*
X105216000Y18451000D02*
X105216000Y15791000D01*
X94936000Y18451000D02*
X105216000Y18451000D01*
X94936000Y15791000D02*
X94936000Y18451000D01*
X105216000Y15791000D02*
X94936000Y15791000D01*
%TO.C,JP1*%
X142795500Y16449500D02*
X140795500Y16449500D01*
X142795500Y13649500D02*
X142795500Y16449500D01*
X140795500Y13649500D02*
X142795500Y13649500D01*
X140795500Y16449500D02*
X140795500Y13649500D01*
D11*
%TO.C,IC5*%
X163525000Y4950000D02*
X160325000Y4950000D01*
X160325000Y4950000D02*
X160325000Y-4950000D01*
X160325000Y-4950000D02*
X163525000Y-4950000D01*
X163525000Y-4950000D02*
X163525000Y4950000D01*
X165400000Y5120000D02*
X163875000Y5120000D01*
D10*
%TO.C,C5*%
X157707000Y3951248D02*
X157707000Y4473752D01*
X156237000Y3951248D02*
X156237000Y4473752D01*
%TO.C,J3*%
D12*
X150447333Y12358619D02*
X150447333Y11644333D01*
X150494952Y11501476D01*
X150590190Y11406238D01*
X150733047Y11358619D01*
X150828285Y11358619D01*
X150066380Y12358619D02*
X149447333Y12358619D01*
X149780666Y11977666D01*
X149637809Y11977666D01*
X149542571Y11930047D01*
X149494952Y11882428D01*
X149447333Y11787190D01*
X149447333Y11549095D01*
X149494952Y11453857D01*
X149542571Y11406238D01*
X149637809Y11358619D01*
X149923523Y11358619D01*
X150018761Y11406238D01*
X150066380Y11453857D01*
%TO.C,J4*%
X150320333Y-11644380D02*
X150320333Y-12358666D01*
X150367952Y-12501523D01*
X150463190Y-12596761D01*
X150606047Y-12644380D01*
X150701285Y-12644380D01*
X149415571Y-11977714D02*
X149415571Y-12644380D01*
X149653666Y-11596761D02*
X149891761Y-12311047D01*
X149272714Y-12311047D01*
%TO.C,J2*%
X100409333Y-11326880D02*
X100409333Y-12041166D01*
X100456952Y-12184023D01*
X100552190Y-12279261D01*
X100695047Y-12326880D01*
X100790285Y-12326880D01*
X99980761Y-11422119D02*
X99933142Y-11374500D01*
X99837904Y-11326880D01*
X99599809Y-11326880D01*
X99504571Y-11374500D01*
X99456952Y-11422119D01*
X99409333Y-11517357D01*
X99409333Y-11612595D01*
X99456952Y-11755452D01*
X100028380Y-12326880D01*
X99409333Y-12326880D01*
%TO.C,J1*%
X100409333Y12434819D02*
X100409333Y11720533D01*
X100456952Y11577676D01*
X100552190Y11482438D01*
X100695047Y11434819D01*
X100790285Y11434819D01*
X99409333Y11434819D02*
X99980761Y11434819D01*
X99695047Y11434819D02*
X99695047Y12434819D01*
X99790285Y12291961D01*
X99885523Y12196723D01*
X99980761Y12149104D01*
%TO.C,JP1*%
X139447880Y15882833D02*
X140162166Y15882833D01*
X140305023Y15930452D01*
X140400261Y16025690D01*
X140447880Y16168547D01*
X140447880Y16263785D01*
X140447880Y15406642D02*
X139447880Y15406642D01*
X139447880Y15025690D01*
X139495500Y14930452D01*
X139543119Y14882833D01*
X139638357Y14835214D01*
X139781214Y14835214D01*
X139876452Y14882833D01*
X139924071Y14930452D01*
X139971690Y15025690D01*
X139971690Y15406642D01*
X140447880Y13882833D02*
X140447880Y14454261D01*
X140447880Y14168547D02*
X139447880Y14168547D01*
X139590738Y14263785D01*
X139685976Y14359023D01*
X139733595Y14454261D01*
%TO.C,IC5*%
D13*
X163164761Y-574523D02*
X163164761Y695476D01*
X161834285Y-453571D02*
X161894761Y-514047D01*
X162076190Y-574523D01*
X162197142Y-574523D01*
X162378571Y-514047D01*
X162499523Y-393095D01*
X162560000Y-272142D01*
X162620476Y-30238D01*
X162620476Y151190D01*
X162560000Y393095D01*
X162499523Y514047D01*
X162378571Y635000D01*
X162197142Y695476D01*
X162076190Y695476D01*
X161894761Y635000D01*
X161834285Y574523D01*
X160685238Y695476D02*
X161290000Y695476D01*
X161350476Y90714D01*
X161290000Y151190D01*
X161169047Y211666D01*
X160866666Y211666D01*
X160745714Y151190D01*
X160685238Y90714D01*
X160624761Y-30238D01*
X160624761Y-332619D01*
X160685238Y-453571D01*
X160745714Y-514047D01*
X160866666Y-574523D01*
X161169047Y-574523D01*
X161290000Y-514047D01*
X161350476Y-453571D01*
%TO.C,C5*%
D12*
X155678142Y4357666D02*
X155725761Y4405285D01*
X155773380Y4548142D01*
X155773380Y4643380D01*
X155725761Y4786238D01*
X155630523Y4881476D01*
X155535285Y4929095D01*
X155344809Y4976714D01*
X155201952Y4976714D01*
X155011476Y4929095D01*
X154916238Y4881476D01*
X154821000Y4786238D01*
X154773380Y4643380D01*
X154773380Y4548142D01*
X154821000Y4405285D01*
X154868619Y4357666D01*
X154773380Y3452904D02*
X154773380Y3929095D01*
X155249571Y3976714D01*
X155201952Y3929095D01*
X155154333Y3833857D01*
X155154333Y3595761D01*
X155201952Y3500523D01*
X155249571Y3452904D01*
X155344809Y3405285D01*
X155582904Y3405285D01*
X155678142Y3452904D01*
X155725761Y3500523D01*
X155773380Y3595761D01*
X155773380Y3833857D01*
X155725761Y3929095D01*
X155678142Y3976714D01*
%TD*%
M02*
