%TF.GenerationSoftware,KiCad,Pcbnew,(5.1.9)-1*%
%TF.CreationDate,2021-04-24T17:32:51+02:00*%
%TF.ProjectId,Schaakbord_Bord,53636861-616b-4626-9f72-645f426f7264,rev?*%
%TF.SameCoordinates,Original*%
%TF.FileFunction,Legend,Top*%
%TF.FilePolarity,Positive*%
%FSLAX46Y46*%
G04 Gerber Fmt 4.6, Leading zero omitted, Abs format (unit mm)*
G04 Created by KiCad (PCBNEW (5.1.9)-1) date 2021-04-24 17:32:51*
%MOMM*%
%LPD*%
G01*
G04 APERTURE LIST*
%ADD10C,0.120000*%
%ADD11C,0.150000*%
G04 APERTURE END LIST*
D10*
%TO.C,J4*%
X144078000Y-24568000D02*
X144078000Y-15938000D01*
X144196095Y-24568000D02*
X144196095Y-15938000D01*
X144314190Y-24568000D02*
X144314190Y-15938000D01*
X144432285Y-24568000D02*
X144432285Y-15938000D01*
X144550380Y-24568000D02*
X144550380Y-15938000D01*
X144668475Y-24568000D02*
X144668475Y-15938000D01*
X144786570Y-24568000D02*
X144786570Y-15938000D01*
X144904665Y-24568000D02*
X144904665Y-15938000D01*
X145022760Y-24568000D02*
X145022760Y-15938000D01*
X145140855Y-24568000D02*
X145140855Y-15938000D01*
X145258950Y-24568000D02*
X145258950Y-15938000D01*
X145377045Y-24568000D02*
X145377045Y-15938000D01*
X145495140Y-24568000D02*
X145495140Y-15938000D01*
X145613235Y-24568000D02*
X145613235Y-15938000D01*
X145731330Y-24568000D02*
X145731330Y-15938000D01*
X145849425Y-24568000D02*
X145849425Y-15938000D01*
X145967520Y-24568000D02*
X145967520Y-15938000D01*
X146085615Y-24568000D02*
X146085615Y-15938000D01*
X146203710Y-24568000D02*
X146203710Y-15938000D01*
X146321805Y-24568000D02*
X146321805Y-15938000D01*
X146439900Y-24568000D02*
X146439900Y-15938000D01*
X144928000Y-15938000D02*
X144928000Y-15588000D01*
X145648000Y-15938000D02*
X145648000Y-15588000D01*
X147468000Y-15938000D02*
X147468000Y-15528000D01*
X148188000Y-15938000D02*
X148188000Y-15528000D01*
X150008000Y-15938000D02*
X150008000Y-15528000D01*
X150728000Y-15938000D02*
X150728000Y-15528000D01*
X152548000Y-15938000D02*
X152548000Y-15528000D01*
X153268000Y-15938000D02*
X153268000Y-15528000D01*
X155088000Y-15938000D02*
X155088000Y-15528000D01*
X155808000Y-15938000D02*
X155808000Y-15528000D01*
X146558000Y-24568000D02*
X146558000Y-15938000D01*
X149098000Y-24568000D02*
X149098000Y-15938000D01*
X151638000Y-24568000D02*
X151638000Y-15938000D01*
X154178000Y-24568000D02*
X154178000Y-15938000D01*
X143958000Y-24568000D02*
X143958000Y-15938000D01*
X143958000Y-15938000D02*
X156778000Y-15938000D01*
X156778000Y-24568000D02*
X156778000Y-15938000D01*
X143958000Y-24568000D02*
X156778000Y-24568000D01*
X143958000Y-13368000D02*
X145288000Y-13368000D01*
X143958000Y-14478000D02*
X143958000Y-13368000D01*
%TO.C,J3*%
X144018000Y13081000D02*
X144018000Y14351000D01*
X145288000Y13081000D02*
X144018000Y13081000D01*
X155828000Y15393929D02*
X155828000Y15791000D01*
X155068000Y15393929D02*
X155068000Y15791000D01*
X155828000Y24451000D02*
X155828000Y18451000D01*
X155068000Y24451000D02*
X155828000Y24451000D01*
X155068000Y18451000D02*
X155068000Y24451000D01*
X154178000Y15791000D02*
X154178000Y18451000D01*
X153288000Y15393929D02*
X153288000Y15791000D01*
X152528000Y15393929D02*
X152528000Y15791000D01*
X153288000Y24451000D02*
X153288000Y18451000D01*
X152528000Y24451000D02*
X153288000Y24451000D01*
X152528000Y18451000D02*
X152528000Y24451000D01*
X151638000Y15791000D02*
X151638000Y18451000D01*
X150748000Y15393929D02*
X150748000Y15791000D01*
X149988000Y15393929D02*
X149988000Y15791000D01*
X150748000Y24451000D02*
X150748000Y18451000D01*
X149988000Y24451000D02*
X150748000Y24451000D01*
X149988000Y18451000D02*
X149988000Y24451000D01*
X149098000Y15791000D02*
X149098000Y18451000D01*
X148208000Y15393929D02*
X148208000Y15791000D01*
X147448000Y15393929D02*
X147448000Y15791000D01*
X148208000Y24451000D02*
X148208000Y18451000D01*
X147448000Y24451000D02*
X148208000Y24451000D01*
X147448000Y18451000D02*
X147448000Y24451000D01*
X146558000Y15791000D02*
X146558000Y18451000D01*
X145668000Y15461000D02*
X145668000Y15791000D01*
X144908000Y15461000D02*
X144908000Y15791000D01*
X145568000Y18451000D02*
X145568000Y24451000D01*
X145448000Y18451000D02*
X145448000Y24451000D01*
X145328000Y18451000D02*
X145328000Y24451000D01*
X145208000Y18451000D02*
X145208000Y24451000D01*
X145088000Y18451000D02*
X145088000Y24451000D01*
X144968000Y18451000D02*
X144968000Y24451000D01*
X145668000Y24451000D02*
X145668000Y18451000D01*
X144908000Y24451000D02*
X145668000Y24451000D01*
X144908000Y18451000D02*
X144908000Y24451000D01*
X143958000Y18451000D02*
X143958000Y15791000D01*
X156778000Y18451000D02*
X143958000Y18451000D01*
X156778000Y15791000D02*
X156778000Y18451000D01*
X143958000Y15791000D02*
X156778000Y15791000D01*
%TO.C,J2*%
X94872500Y-14541500D02*
X94872500Y-13431500D01*
X94872500Y-13431500D02*
X96202500Y-13431500D01*
X94872500Y-24631500D02*
X105152500Y-24631500D01*
X105152500Y-24631500D02*
X105152500Y-16001500D01*
X94872500Y-16001500D02*
X105152500Y-16001500D01*
X94872500Y-24631500D02*
X94872500Y-16001500D01*
X102552500Y-24631500D02*
X102552500Y-16001500D01*
X100012500Y-24631500D02*
X100012500Y-16001500D01*
X97472500Y-24631500D02*
X97472500Y-16001500D01*
X104182500Y-16001500D02*
X104182500Y-15591500D01*
X103462500Y-16001500D02*
X103462500Y-15591500D01*
X101642500Y-16001500D02*
X101642500Y-15591500D01*
X100922500Y-16001500D02*
X100922500Y-15591500D01*
X99102500Y-16001500D02*
X99102500Y-15591500D01*
X98382500Y-16001500D02*
X98382500Y-15591500D01*
X96562500Y-16001500D02*
X96562500Y-15651500D01*
X95842500Y-16001500D02*
X95842500Y-15651500D01*
X97354400Y-24631500D02*
X97354400Y-16001500D01*
X97236305Y-24631500D02*
X97236305Y-16001500D01*
X97118210Y-24631500D02*
X97118210Y-16001500D01*
X97000115Y-24631500D02*
X97000115Y-16001500D01*
X96882020Y-24631500D02*
X96882020Y-16001500D01*
X96763925Y-24631500D02*
X96763925Y-16001500D01*
X96645830Y-24631500D02*
X96645830Y-16001500D01*
X96527735Y-24631500D02*
X96527735Y-16001500D01*
X96409640Y-24631500D02*
X96409640Y-16001500D01*
X96291545Y-24631500D02*
X96291545Y-16001500D01*
X96173450Y-24631500D02*
X96173450Y-16001500D01*
X96055355Y-24631500D02*
X96055355Y-16001500D01*
X95937260Y-24631500D02*
X95937260Y-16001500D01*
X95819165Y-24631500D02*
X95819165Y-16001500D01*
X95701070Y-24631500D02*
X95701070Y-16001500D01*
X95582975Y-24631500D02*
X95582975Y-16001500D01*
X95464880Y-24631500D02*
X95464880Y-16001500D01*
X95346785Y-24631500D02*
X95346785Y-16001500D01*
X95228690Y-24631500D02*
X95228690Y-16001500D01*
X95110595Y-24631500D02*
X95110595Y-16001500D01*
X94992500Y-24631500D02*
X94992500Y-16001500D01*
%TO.C,J1*%
X94996000Y13081000D02*
X94996000Y14351000D01*
X96266000Y13081000D02*
X94996000Y13081000D01*
X104266000Y15393929D02*
X104266000Y15791000D01*
X103506000Y15393929D02*
X103506000Y15791000D01*
X104266000Y24451000D02*
X104266000Y18451000D01*
X103506000Y24451000D02*
X104266000Y24451000D01*
X103506000Y18451000D02*
X103506000Y24451000D01*
X102616000Y15791000D02*
X102616000Y18451000D01*
X101726000Y15393929D02*
X101726000Y15791000D01*
X100966000Y15393929D02*
X100966000Y15791000D01*
X101726000Y24451000D02*
X101726000Y18451000D01*
X100966000Y24451000D02*
X101726000Y24451000D01*
X100966000Y18451000D02*
X100966000Y24451000D01*
X100076000Y15791000D02*
X100076000Y18451000D01*
X99186000Y15393929D02*
X99186000Y15791000D01*
X98426000Y15393929D02*
X98426000Y15791000D01*
X99186000Y24451000D02*
X99186000Y18451000D01*
X98426000Y24451000D02*
X99186000Y24451000D01*
X98426000Y18451000D02*
X98426000Y24451000D01*
X97536000Y15791000D02*
X97536000Y18451000D01*
X96646000Y15461000D02*
X96646000Y15791000D01*
X95886000Y15461000D02*
X95886000Y15791000D01*
X96546000Y18451000D02*
X96546000Y24451000D01*
X96426000Y18451000D02*
X96426000Y24451000D01*
X96306000Y18451000D02*
X96306000Y24451000D01*
X96186000Y18451000D02*
X96186000Y24451000D01*
X96066000Y18451000D02*
X96066000Y24451000D01*
X95946000Y18451000D02*
X95946000Y24451000D01*
X96646000Y24451000D02*
X96646000Y18451000D01*
X95886000Y24451000D02*
X96646000Y24451000D01*
X95886000Y18451000D02*
X95886000Y24451000D01*
X94936000Y18451000D02*
X94936000Y15791000D01*
X105216000Y18451000D02*
X94936000Y18451000D01*
X105216000Y15791000D02*
X105216000Y18451000D01*
X94936000Y15791000D02*
X105216000Y15791000D01*
%TO.C,R4*%
X346483000Y4344936D02*
X346483000Y4799064D01*
X347953000Y4344936D02*
X347953000Y4799064D01*
%TO.C,R3*%
X296445000Y4344936D02*
X296445000Y4799064D01*
X297915000Y4344936D02*
X297915000Y4799064D01*
%TO.C,R2*%
X246407000Y4344936D02*
X246407000Y4799064D01*
X247877000Y4344936D02*
X247877000Y4799064D01*
%TO.C,R1*%
X196369000Y4328936D02*
X196369000Y4783064D01*
X197839000Y4328936D02*
X197839000Y4783064D01*
%TO.C,R5*%
X146585000Y4344936D02*
X146585000Y4799064D01*
X148055000Y4344936D02*
X148055000Y4799064D01*
%TO.C,R6*%
X102097064Y6758000D02*
X101642936Y6758000D01*
X102097064Y8228000D02*
X101642936Y8228000D01*
%TO.C,R7*%
X46509000Y4344936D02*
X46509000Y4799064D01*
X47979000Y4344936D02*
X47979000Y4799064D01*
%TO.C,R8*%
X-3529000Y4344936D02*
X-3529000Y4799064D01*
X-2059000Y4344936D02*
X-2059000Y4799064D01*
%TO.C,C4*%
X352071000Y4310748D02*
X352071000Y4833252D01*
X353541000Y4310748D02*
X353541000Y4833252D01*
%TO.C,C3*%
X302033000Y4310748D02*
X302033000Y4833252D01*
X303503000Y4310748D02*
X303503000Y4833252D01*
%TO.C,C2*%
X251995000Y4332248D02*
X251995000Y4854752D01*
X253465000Y4332248D02*
X253465000Y4854752D01*
%TO.C,C1*%
X201957000Y4310748D02*
X201957000Y4833252D01*
X203427000Y4310748D02*
X203427000Y4833252D01*
%TO.C,C6*%
X153643000Y4833252D02*
X153643000Y4310748D01*
X152173000Y4833252D02*
X152173000Y4310748D01*
%TO.C,C7*%
X103605000Y4833252D02*
X103605000Y4310748D01*
X102135000Y4833252D02*
X102135000Y4310748D01*
%TO.C,C8*%
X53567000Y4833252D02*
X53567000Y4310748D01*
X52097000Y4833252D02*
X52097000Y4310748D01*
%TO.C,C9*%
X3529000Y4833252D02*
X3529000Y4310748D01*
X2059000Y4833252D02*
X2059000Y4310748D01*
%TO.C,IC4*%
X348432000Y3796000D02*
X349362000Y3796000D01*
X351592000Y3796000D02*
X350662000Y3796000D01*
X351592000Y3796000D02*
X351592000Y5956000D01*
X348432000Y3796000D02*
X348432000Y5256000D01*
%TO.C,IC3*%
X298394000Y3796000D02*
X299324000Y3796000D01*
X301554000Y3796000D02*
X300624000Y3796000D01*
X301554000Y3796000D02*
X301554000Y5956000D01*
X298394000Y3796000D02*
X298394000Y5256000D01*
%TO.C,IC2*%
X248356000Y3796000D02*
X249286000Y3796000D01*
X251516000Y3796000D02*
X250586000Y3796000D01*
X251516000Y3796000D02*
X251516000Y5956000D01*
X248356000Y3796000D02*
X248356000Y5256000D01*
%TO.C,IC6*%
X148534000Y3796000D02*
X149464000Y3796000D01*
X151694000Y3796000D02*
X150764000Y3796000D01*
X151694000Y3796000D02*
X151694000Y5956000D01*
X148534000Y3796000D02*
X148534000Y5256000D01*
%TO.C,IC7*%
X98496000Y3796000D02*
X99426000Y3796000D01*
X101656000Y3796000D02*
X100726000Y3796000D01*
X101656000Y3796000D02*
X101656000Y5956000D01*
X98496000Y3796000D02*
X98496000Y5256000D01*
%TO.C,IC8*%
X48458000Y3796000D02*
X49388000Y3796000D01*
X51618000Y3796000D02*
X50688000Y3796000D01*
X51618000Y3796000D02*
X51618000Y5956000D01*
X48458000Y3796000D02*
X48458000Y5256000D01*
%TO.C,IC9*%
X-1580000Y3796000D02*
X-650000Y3796000D01*
X1580000Y3796000D02*
X650000Y3796000D01*
X1580000Y3796000D02*
X1580000Y5956000D01*
X-1580000Y3796000D02*
X-1580000Y5256000D01*
%TO.C,IC1*%
X198318000Y3796000D02*
X198318000Y5256000D01*
X201478000Y3796000D02*
X201478000Y5956000D01*
X201478000Y3796000D02*
X200548000Y3796000D01*
X198318000Y3796000D02*
X199248000Y3796000D01*
%TO.C,D8*%
X352512000Y-2700000D02*
X347512000Y-2700000D01*
X346412000Y1600000D02*
X346412000Y2700000D01*
X346412000Y2700000D02*
X352512000Y2700000D01*
%TO.C,D7*%
X302474000Y-2700000D02*
X297474000Y-2700000D01*
X296374000Y1600000D02*
X296374000Y2700000D01*
X296374000Y2700000D02*
X302474000Y2700000D01*
%TO.C,D6*%
X252436000Y-2700000D02*
X247436000Y-2700000D01*
X246336000Y1600000D02*
X246336000Y2700000D01*
X246336000Y2700000D02*
X252436000Y2700000D01*
%TO.C,D5*%
X202398000Y-2700000D02*
X197398000Y-2700000D01*
X196298000Y1600000D02*
X196298000Y2700000D01*
X196298000Y2700000D02*
X202398000Y2700000D01*
%TO.C,D4*%
X152614000Y-2700000D02*
X147614000Y-2700000D01*
X146514000Y1600000D02*
X146514000Y2700000D01*
X146514000Y2700000D02*
X152614000Y2700000D01*
%TO.C,D3*%
X102576000Y-2700000D02*
X97576000Y-2700000D01*
X96476000Y1600000D02*
X96476000Y2700000D01*
X96476000Y2700000D02*
X102576000Y2700000D01*
%TO.C,D2*%
X52538000Y-2700000D02*
X47538000Y-2700000D01*
X46438000Y1600000D02*
X46438000Y2700000D01*
X46438000Y2700000D02*
X52538000Y2700000D01*
%TO.C,D1*%
X2500000Y-2700000D02*
X-2500000Y-2700000D01*
X-3600000Y1600000D02*
X-3600000Y2700000D01*
X-3600000Y2700000D02*
X2500000Y2700000D01*
%TO.C,J4*%
D11*
X141970380Y-19191333D02*
X142684666Y-19191333D01*
X142827523Y-19238952D01*
X142922761Y-19334190D01*
X142970380Y-19477047D01*
X142970380Y-19572285D01*
X142303714Y-18286571D02*
X142970380Y-18286571D01*
X141922761Y-18524666D02*
X142637047Y-18762761D01*
X142637047Y-18143714D01*
%TO.C,J3*%
X142470380Y18402666D02*
X143184666Y18402666D01*
X143327523Y18355047D01*
X143422761Y18259809D01*
X143470380Y18116952D01*
X143470380Y18021714D01*
X142470380Y18783619D02*
X142470380Y19402666D01*
X142851333Y19069333D01*
X142851333Y19212190D01*
X142898952Y19307428D01*
X142946571Y19355047D01*
X143041809Y19402666D01*
X143279904Y19402666D01*
X143375142Y19355047D01*
X143422761Y19307428D01*
X143470380Y19212190D01*
X143470380Y18926476D01*
X143422761Y18831238D01*
X143375142Y18783619D01*
%TO.C,J2*%
X92884880Y-19254833D02*
X93599166Y-19254833D01*
X93742023Y-19302452D01*
X93837261Y-19397690D01*
X93884880Y-19540547D01*
X93884880Y-19635785D01*
X92980119Y-18826261D02*
X92932500Y-18778642D01*
X92884880Y-18683404D01*
X92884880Y-18445309D01*
X92932500Y-18350071D01*
X92980119Y-18302452D01*
X93075357Y-18254833D01*
X93170595Y-18254833D01*
X93313452Y-18302452D01*
X93884880Y-18873880D01*
X93884880Y-18254833D01*
%TO.C,J1*%
X93448380Y18402666D02*
X94162666Y18402666D01*
X94305523Y18355047D01*
X94400761Y18259809D01*
X94448380Y18116952D01*
X94448380Y18021714D01*
X94448380Y19402666D02*
X94448380Y18831238D01*
X94448380Y19116952D02*
X93448380Y19116952D01*
X93591238Y19021714D01*
X93686476Y18926476D01*
X93734095Y18831238D01*
%TO.C,R4*%
X346020380Y4167333D02*
X345544190Y3834000D01*
X346020380Y3595904D02*
X345020380Y3595904D01*
X345020380Y3976857D01*
X345068000Y4072095D01*
X345115619Y4119714D01*
X345210857Y4167333D01*
X345353714Y4167333D01*
X345448952Y4119714D01*
X345496571Y4072095D01*
X345544190Y3976857D01*
X345544190Y3595904D01*
X345353714Y5024476D02*
X346020380Y5024476D01*
X344972761Y4786380D02*
X345687047Y4548285D01*
X345687047Y5167333D01*
%TO.C,R3*%
X295981380Y4135333D02*
X295505190Y3802000D01*
X295981380Y3563904D02*
X294981380Y3563904D01*
X294981380Y3944857D01*
X295029000Y4040095D01*
X295076619Y4087714D01*
X295171857Y4135333D01*
X295314714Y4135333D01*
X295409952Y4087714D01*
X295457571Y4040095D01*
X295505190Y3944857D01*
X295505190Y3563904D01*
X294981380Y4468666D02*
X294981380Y5087714D01*
X295362333Y4754380D01*
X295362333Y4897238D01*
X295409952Y4992476D01*
X295457571Y5040095D01*
X295552809Y5087714D01*
X295790904Y5087714D01*
X295886142Y5040095D01*
X295933761Y4992476D01*
X295981380Y4897238D01*
X295981380Y4611523D01*
X295933761Y4516285D01*
X295886142Y4468666D01*
%TO.C,R2*%
X246070380Y4167333D02*
X245594190Y3834000D01*
X246070380Y3595904D02*
X245070380Y3595904D01*
X245070380Y3976857D01*
X245118000Y4072095D01*
X245165619Y4119714D01*
X245260857Y4167333D01*
X245403714Y4167333D01*
X245498952Y4119714D01*
X245546571Y4072095D01*
X245594190Y3976857D01*
X245594190Y3595904D01*
X245165619Y4548285D02*
X245118000Y4595904D01*
X245070380Y4691142D01*
X245070380Y4929238D01*
X245118000Y5024476D01*
X245165619Y5072095D01*
X245260857Y5119714D01*
X245356095Y5119714D01*
X245498952Y5072095D01*
X246070380Y4500666D01*
X246070380Y5119714D01*
%TO.C,R1*%
X195906380Y4119333D02*
X195430190Y3786000D01*
X195906380Y3547904D02*
X194906380Y3547904D01*
X194906380Y3928857D01*
X194954000Y4024095D01*
X195001619Y4071714D01*
X195096857Y4119333D01*
X195239714Y4119333D01*
X195334952Y4071714D01*
X195382571Y4024095D01*
X195430190Y3928857D01*
X195430190Y3547904D01*
X195906380Y5071714D02*
X195906380Y4500285D01*
X195906380Y4786000D02*
X194906380Y4786000D01*
X195049238Y4690761D01*
X195144476Y4595523D01*
X195192095Y4500285D01*
%TO.C,R5*%
X146122380Y4405333D02*
X145646190Y4072000D01*
X146122380Y3833904D02*
X145122380Y3833904D01*
X145122380Y4214857D01*
X145170000Y4310095D01*
X145217619Y4357714D01*
X145312857Y4405333D01*
X145455714Y4405333D01*
X145550952Y4357714D01*
X145598571Y4310095D01*
X145646190Y4214857D01*
X145646190Y3833904D01*
X145122380Y5310095D02*
X145122380Y4833904D01*
X145598571Y4786285D01*
X145550952Y4833904D01*
X145503333Y4929142D01*
X145503333Y5167238D01*
X145550952Y5262476D01*
X145598571Y5310095D01*
X145693809Y5357714D01*
X145931904Y5357714D01*
X146027142Y5310095D01*
X146074761Y5262476D01*
X146122380Y5167238D01*
X146122380Y4929142D01*
X146074761Y4833904D01*
X146027142Y4786285D01*
%TO.C,R6*%
X101703333Y8628119D02*
X101370000Y9104309D01*
X101131904Y8628119D02*
X101131904Y9628119D01*
X101512857Y9628119D01*
X101608095Y9580500D01*
X101655714Y9532880D01*
X101703333Y9437642D01*
X101703333Y9294785D01*
X101655714Y9199547D01*
X101608095Y9151928D01*
X101512857Y9104309D01*
X101131904Y9104309D01*
X102560476Y9628119D02*
X102370000Y9628119D01*
X102274761Y9580500D01*
X102227142Y9532880D01*
X102131904Y9390023D01*
X102084285Y9199547D01*
X102084285Y8818595D01*
X102131904Y8723357D01*
X102179523Y8675738D01*
X102274761Y8628119D01*
X102465238Y8628119D01*
X102560476Y8675738D01*
X102608095Y8723357D01*
X102655714Y8818595D01*
X102655714Y9056690D01*
X102608095Y9151928D01*
X102560476Y9199547D01*
X102465238Y9247166D01*
X102274761Y9247166D01*
X102179523Y9199547D01*
X102131904Y9151928D01*
X102084285Y9056690D01*
%TO.C,R7*%
X46046380Y4405333D02*
X45570190Y4072000D01*
X46046380Y3833904D02*
X45046380Y3833904D01*
X45046380Y4214857D01*
X45094000Y4310095D01*
X45141619Y4357714D01*
X45236857Y4405333D01*
X45379714Y4405333D01*
X45474952Y4357714D01*
X45522571Y4310095D01*
X45570190Y4214857D01*
X45570190Y3833904D01*
X45046380Y4738666D02*
X45046380Y5405333D01*
X46046380Y4976761D01*
%TO.C,R8*%
X-3991619Y4405333D02*
X-4467809Y4072000D01*
X-3991619Y3833904D02*
X-4991619Y3833904D01*
X-4991619Y4214857D01*
X-4944000Y4310095D01*
X-4896380Y4357714D01*
X-4801142Y4405333D01*
X-4658285Y4405333D01*
X-4563047Y4357714D01*
X-4515428Y4310095D01*
X-4467809Y4214857D01*
X-4467809Y3833904D01*
X-4563047Y4976761D02*
X-4610666Y4881523D01*
X-4658285Y4833904D01*
X-4753523Y4786285D01*
X-4801142Y4786285D01*
X-4896380Y4833904D01*
X-4944000Y4881523D01*
X-4991619Y4976761D01*
X-4991619Y5167238D01*
X-4944000Y5262476D01*
X-4896380Y5310095D01*
X-4801142Y5357714D01*
X-4753523Y5357714D01*
X-4658285Y5310095D01*
X-4610666Y5262476D01*
X-4563047Y5167238D01*
X-4563047Y4976761D01*
X-4515428Y4881523D01*
X-4467809Y4833904D01*
X-4372571Y4786285D01*
X-4182095Y4786285D01*
X-4086857Y4833904D01*
X-4039238Y4881523D01*
X-3991619Y4976761D01*
X-3991619Y5167238D01*
X-4039238Y5262476D01*
X-4086857Y5310095D01*
X-4182095Y5357714D01*
X-4372571Y5357714D01*
X-4467809Y5310095D01*
X-4515428Y5262476D01*
X-4563047Y5167238D01*
%TO.C,C4*%
X354941142Y4405333D02*
X354988761Y4357714D01*
X355036380Y4214857D01*
X355036380Y4119619D01*
X354988761Y3976761D01*
X354893523Y3881523D01*
X354798285Y3833904D01*
X354607809Y3786285D01*
X354464952Y3786285D01*
X354274476Y3833904D01*
X354179238Y3881523D01*
X354084000Y3976761D01*
X354036380Y4119619D01*
X354036380Y4214857D01*
X354084000Y4357714D01*
X354131619Y4405333D01*
X354369714Y5262476D02*
X355036380Y5262476D01*
X353988761Y5024380D02*
X354703047Y4786285D01*
X354703047Y5405333D01*
%TO.C,C3*%
X304903142Y4426833D02*
X304950761Y4379214D01*
X304998380Y4236357D01*
X304998380Y4141119D01*
X304950761Y3998261D01*
X304855523Y3903023D01*
X304760285Y3855404D01*
X304569809Y3807785D01*
X304426952Y3807785D01*
X304236476Y3855404D01*
X304141238Y3903023D01*
X304046000Y3998261D01*
X303998380Y4141119D01*
X303998380Y4236357D01*
X304046000Y4379214D01*
X304093619Y4426833D01*
X303998380Y4760166D02*
X303998380Y5379214D01*
X304379333Y5045880D01*
X304379333Y5188738D01*
X304426952Y5283976D01*
X304474571Y5331595D01*
X304569809Y5379214D01*
X304807904Y5379214D01*
X304903142Y5331595D01*
X304950761Y5283976D01*
X304998380Y5188738D01*
X304998380Y4903023D01*
X304950761Y4807785D01*
X304903142Y4760166D01*
%TO.C,C2*%
X254865142Y4426833D02*
X254912761Y4379214D01*
X254960380Y4236357D01*
X254960380Y4141119D01*
X254912761Y3998261D01*
X254817523Y3903023D01*
X254722285Y3855404D01*
X254531809Y3807785D01*
X254388952Y3807785D01*
X254198476Y3855404D01*
X254103238Y3903023D01*
X254008000Y3998261D01*
X253960380Y4141119D01*
X253960380Y4236357D01*
X254008000Y4379214D01*
X254055619Y4426833D01*
X254055619Y4807785D02*
X254008000Y4855404D01*
X253960380Y4950642D01*
X253960380Y5188738D01*
X254008000Y5283976D01*
X254055619Y5331595D01*
X254150857Y5379214D01*
X254246095Y5379214D01*
X254388952Y5331595D01*
X254960380Y4760166D01*
X254960380Y5379214D01*
%TO.C,C1*%
X204827142Y4426833D02*
X204874761Y4379214D01*
X204922380Y4236357D01*
X204922380Y4141119D01*
X204874761Y3998261D01*
X204779523Y3903023D01*
X204684285Y3855404D01*
X204493809Y3807785D01*
X204350952Y3807785D01*
X204160476Y3855404D01*
X204065238Y3903023D01*
X203970000Y3998261D01*
X203922380Y4141119D01*
X203922380Y4236357D01*
X203970000Y4379214D01*
X204017619Y4426833D01*
X204922380Y5379214D02*
X204922380Y4807785D01*
X204922380Y5093500D02*
X203922380Y5093500D01*
X204065238Y4998261D01*
X204160476Y4903023D01*
X204208095Y4807785D01*
%TO.C,C6*%
X155043142Y4426833D02*
X155090761Y4379214D01*
X155138380Y4236357D01*
X155138380Y4141119D01*
X155090761Y3998261D01*
X154995523Y3903023D01*
X154900285Y3855404D01*
X154709809Y3807785D01*
X154566952Y3807785D01*
X154376476Y3855404D01*
X154281238Y3903023D01*
X154186000Y3998261D01*
X154138380Y4141119D01*
X154138380Y4236357D01*
X154186000Y4379214D01*
X154233619Y4426833D01*
X154138380Y5283976D02*
X154138380Y5093500D01*
X154186000Y4998261D01*
X154233619Y4950642D01*
X154376476Y4855404D01*
X154566952Y4807785D01*
X154947904Y4807785D01*
X155043142Y4855404D01*
X155090761Y4903023D01*
X155138380Y4998261D01*
X155138380Y5188738D01*
X155090761Y5283976D01*
X155043142Y5331595D01*
X154947904Y5379214D01*
X154709809Y5379214D01*
X154614571Y5331595D01*
X154566952Y5283976D01*
X154519333Y5188738D01*
X154519333Y4998261D01*
X154566952Y4903023D01*
X154614571Y4855404D01*
X154709809Y4807785D01*
%TO.C,C7*%
X105005142Y4405333D02*
X105052761Y4357714D01*
X105100380Y4214857D01*
X105100380Y4119619D01*
X105052761Y3976761D01*
X104957523Y3881523D01*
X104862285Y3833904D01*
X104671809Y3786285D01*
X104528952Y3786285D01*
X104338476Y3833904D01*
X104243238Y3881523D01*
X104148000Y3976761D01*
X104100380Y4119619D01*
X104100380Y4214857D01*
X104148000Y4357714D01*
X104195619Y4405333D01*
X104100380Y4738666D02*
X104100380Y5405333D01*
X105100380Y4976761D01*
%TO.C,C8*%
X54869142Y4405333D02*
X54916761Y4357714D01*
X54964380Y4214857D01*
X54964380Y4119619D01*
X54916761Y3976761D01*
X54821523Y3881523D01*
X54726285Y3833904D01*
X54535809Y3786285D01*
X54392952Y3786285D01*
X54202476Y3833904D01*
X54107238Y3881523D01*
X54012000Y3976761D01*
X53964380Y4119619D01*
X53964380Y4214857D01*
X54012000Y4357714D01*
X54059619Y4405333D01*
X54392952Y4976761D02*
X54345333Y4881523D01*
X54297714Y4833904D01*
X54202476Y4786285D01*
X54154857Y4786285D01*
X54059619Y4833904D01*
X54012000Y4881523D01*
X53964380Y4976761D01*
X53964380Y5167238D01*
X54012000Y5262476D01*
X54059619Y5310095D01*
X54154857Y5357714D01*
X54202476Y5357714D01*
X54297714Y5310095D01*
X54345333Y5262476D01*
X54392952Y5167238D01*
X54392952Y4976761D01*
X54440571Y4881523D01*
X54488190Y4833904D01*
X54583428Y4786285D01*
X54773904Y4786285D01*
X54869142Y4833904D01*
X54916761Y4881523D01*
X54964380Y4976761D01*
X54964380Y5167238D01*
X54916761Y5262476D01*
X54869142Y5310095D01*
X54773904Y5357714D01*
X54583428Y5357714D01*
X54488190Y5310095D01*
X54440571Y5262476D01*
X54392952Y5167238D01*
%TO.C,C9*%
X4831142Y4405333D02*
X4878761Y4357714D01*
X4926380Y4214857D01*
X4926380Y4119619D01*
X4878761Y3976761D01*
X4783523Y3881523D01*
X4688285Y3833904D01*
X4497809Y3786285D01*
X4354952Y3786285D01*
X4164476Y3833904D01*
X4069238Y3881523D01*
X3974000Y3976761D01*
X3926380Y4119619D01*
X3926380Y4214857D01*
X3974000Y4357714D01*
X4021619Y4405333D01*
X4926380Y4881523D02*
X4926380Y5072000D01*
X4878761Y5167238D01*
X4831142Y5214857D01*
X4688285Y5310095D01*
X4497809Y5357714D01*
X4116857Y5357714D01*
X4021619Y5310095D01*
X3974000Y5262476D01*
X3926380Y5167238D01*
X3926380Y4976761D01*
X3974000Y4881523D01*
X4021619Y4833904D01*
X4116857Y4786285D01*
X4354952Y4786285D01*
X4450190Y4833904D01*
X4497809Y4881523D01*
X4545428Y4976761D01*
X4545428Y5167238D01*
X4497809Y5262476D01*
X4450190Y5310095D01*
X4354952Y5357714D01*
%TO.C,IC4*%
X349035809Y6405619D02*
X349035809Y7405619D01*
X350083428Y6500857D02*
X350035809Y6453238D01*
X349892952Y6405619D01*
X349797714Y6405619D01*
X349654857Y6453238D01*
X349559619Y6548476D01*
X349512000Y6643714D01*
X349464380Y6834190D01*
X349464380Y6977047D01*
X349512000Y7167523D01*
X349559619Y7262761D01*
X349654857Y7358000D01*
X349797714Y7405619D01*
X349892952Y7405619D01*
X350035809Y7358000D01*
X350083428Y7310380D01*
X350940571Y7072285D02*
X350940571Y6405619D01*
X350702476Y7453238D02*
X350464380Y6738952D01*
X351083428Y6738952D01*
%TO.C,IC3*%
X298997809Y6405619D02*
X298997809Y7405619D01*
X300045428Y6500857D02*
X299997809Y6453238D01*
X299854952Y6405619D01*
X299759714Y6405619D01*
X299616857Y6453238D01*
X299521619Y6548476D01*
X299474000Y6643714D01*
X299426380Y6834190D01*
X299426380Y6977047D01*
X299474000Y7167523D01*
X299521619Y7262761D01*
X299616857Y7358000D01*
X299759714Y7405619D01*
X299854952Y7405619D01*
X299997809Y7358000D01*
X300045428Y7310380D01*
X300378761Y7405619D02*
X300997809Y7405619D01*
X300664476Y7024666D01*
X300807333Y7024666D01*
X300902571Y6977047D01*
X300950190Y6929428D01*
X300997809Y6834190D01*
X300997809Y6596095D01*
X300950190Y6500857D01*
X300902571Y6453238D01*
X300807333Y6405619D01*
X300521619Y6405619D01*
X300426380Y6453238D01*
X300378761Y6500857D01*
%TO.C,IC2*%
X248959809Y6405619D02*
X248959809Y7405619D01*
X250007428Y6500857D02*
X249959809Y6453238D01*
X249816952Y6405619D01*
X249721714Y6405619D01*
X249578857Y6453238D01*
X249483619Y6548476D01*
X249436000Y6643714D01*
X249388380Y6834190D01*
X249388380Y6977047D01*
X249436000Y7167523D01*
X249483619Y7262761D01*
X249578857Y7358000D01*
X249721714Y7405619D01*
X249816952Y7405619D01*
X249959809Y7358000D01*
X250007428Y7310380D01*
X250388380Y7310380D02*
X250436000Y7358000D01*
X250531238Y7405619D01*
X250769333Y7405619D01*
X250864571Y7358000D01*
X250912190Y7310380D01*
X250959809Y7215142D01*
X250959809Y7119904D01*
X250912190Y6977047D01*
X250340761Y6405619D01*
X250959809Y6405619D01*
%TO.C,IC6*%
X149772809Y6405619D02*
X149772809Y7405619D01*
X150820428Y6500857D02*
X150772809Y6453238D01*
X150629952Y6405619D01*
X150534714Y6405619D01*
X150391857Y6453238D01*
X150296619Y6548476D01*
X150249000Y6643714D01*
X150201380Y6834190D01*
X150201380Y6977047D01*
X150249000Y7167523D01*
X150296619Y7262761D01*
X150391857Y7358000D01*
X150534714Y7405619D01*
X150629952Y7405619D01*
X150772809Y7358000D01*
X150820428Y7310380D01*
X151677571Y7405619D02*
X151487095Y7405619D01*
X151391857Y7358000D01*
X151344238Y7310380D01*
X151249000Y7167523D01*
X151201380Y6977047D01*
X151201380Y6596095D01*
X151249000Y6500857D01*
X151296619Y6453238D01*
X151391857Y6405619D01*
X151582333Y6405619D01*
X151677571Y6453238D01*
X151725190Y6500857D01*
X151772809Y6596095D01*
X151772809Y6834190D01*
X151725190Y6929428D01*
X151677571Y6977047D01*
X151582333Y7024666D01*
X151391857Y7024666D01*
X151296619Y6977047D01*
X151249000Y6929428D01*
X151201380Y6834190D01*
%TO.C,IC7*%
X96115309Y4119619D02*
X96115309Y5119619D01*
X97162928Y4214857D02*
X97115309Y4167238D01*
X96972452Y4119619D01*
X96877214Y4119619D01*
X96734357Y4167238D01*
X96639119Y4262476D01*
X96591500Y4357714D01*
X96543880Y4548190D01*
X96543880Y4691047D01*
X96591500Y4881523D01*
X96639119Y4976761D01*
X96734357Y5072000D01*
X96877214Y5119619D01*
X96972452Y5119619D01*
X97115309Y5072000D01*
X97162928Y5024380D01*
X97496261Y5119619D02*
X98162928Y5119619D01*
X97734357Y4119619D01*
%TO.C,IC8*%
X49696809Y6405619D02*
X49696809Y7405619D01*
X50744428Y6500857D02*
X50696809Y6453238D01*
X50553952Y6405619D01*
X50458714Y6405619D01*
X50315857Y6453238D01*
X50220619Y6548476D01*
X50173000Y6643714D01*
X50125380Y6834190D01*
X50125380Y6977047D01*
X50173000Y7167523D01*
X50220619Y7262761D01*
X50315857Y7358000D01*
X50458714Y7405619D01*
X50553952Y7405619D01*
X50696809Y7358000D01*
X50744428Y7310380D01*
X51315857Y6977047D02*
X51220619Y7024666D01*
X51173000Y7072285D01*
X51125380Y7167523D01*
X51125380Y7215142D01*
X51173000Y7310380D01*
X51220619Y7358000D01*
X51315857Y7405619D01*
X51506333Y7405619D01*
X51601571Y7358000D01*
X51649190Y7310380D01*
X51696809Y7215142D01*
X51696809Y7167523D01*
X51649190Y7072285D01*
X51601571Y7024666D01*
X51506333Y6977047D01*
X51315857Y6977047D01*
X51220619Y6929428D01*
X51173000Y6881809D01*
X51125380Y6786571D01*
X51125380Y6596095D01*
X51173000Y6500857D01*
X51220619Y6453238D01*
X51315857Y6405619D01*
X51506333Y6405619D01*
X51601571Y6453238D01*
X51649190Y6500857D01*
X51696809Y6596095D01*
X51696809Y6786571D01*
X51649190Y6881809D01*
X51601571Y6929428D01*
X51506333Y6977047D01*
%TO.C,IC9*%
X-341190Y6405619D02*
X-341190Y7405619D01*
X706428Y6500857D02*
X658809Y6453238D01*
X515952Y6405619D01*
X420714Y6405619D01*
X277857Y6453238D01*
X182619Y6548476D01*
X134999Y6643714D01*
X87380Y6834190D01*
X87380Y6977047D01*
X134999Y7167523D01*
X182619Y7262761D01*
X277857Y7358000D01*
X420714Y7405619D01*
X515952Y7405619D01*
X658809Y7358000D01*
X706428Y7310380D01*
X1182619Y6405619D02*
X1373095Y6405619D01*
X1468333Y6453238D01*
X1515952Y6500857D01*
X1611190Y6643714D01*
X1658809Y6834190D01*
X1658809Y7215142D01*
X1611190Y7310380D01*
X1563571Y7358000D01*
X1468333Y7405619D01*
X1277857Y7405619D01*
X1182619Y7358000D01*
X1135000Y7310380D01*
X1087380Y7215142D01*
X1087380Y6977047D01*
X1135000Y6881809D01*
X1182619Y6834190D01*
X1277857Y6786571D01*
X1468333Y6786571D01*
X1563571Y6834190D01*
X1611190Y6881809D01*
X1658809Y6977047D01*
%TO.C,IC1*%
X198921809Y6405619D02*
X198921809Y7405619D01*
X199969428Y6500857D02*
X199921809Y6453238D01*
X199778952Y6405619D01*
X199683714Y6405619D01*
X199540857Y6453238D01*
X199445619Y6548476D01*
X199398000Y6643714D01*
X199350380Y6834190D01*
X199350380Y6977047D01*
X199398000Y7167523D01*
X199445619Y7262761D01*
X199540857Y7358000D01*
X199683714Y7405619D01*
X199778952Y7405619D01*
X199921809Y7358000D01*
X199969428Y7310380D01*
X200921809Y6405619D02*
X200350380Y6405619D01*
X200636095Y6405619D02*
X200636095Y7405619D01*
X200540857Y7262761D01*
X200445619Y7167523D01*
X200350380Y7119904D01*
%TO.C,D8*%
X349273904Y-4008380D02*
X349273904Y-3008380D01*
X349512000Y-3008380D01*
X349654857Y-3056000D01*
X349750095Y-3151238D01*
X349797714Y-3246476D01*
X349845333Y-3436952D01*
X349845333Y-3579809D01*
X349797714Y-3770285D01*
X349750095Y-3865523D01*
X349654857Y-3960761D01*
X349512000Y-4008380D01*
X349273904Y-4008380D01*
X350416761Y-3436952D02*
X350321523Y-3389333D01*
X350273904Y-3341714D01*
X350226285Y-3246476D01*
X350226285Y-3198857D01*
X350273904Y-3103619D01*
X350321523Y-3056000D01*
X350416761Y-3008380D01*
X350607238Y-3008380D01*
X350702476Y-3056000D01*
X350750095Y-3103619D01*
X350797714Y-3198857D01*
X350797714Y-3246476D01*
X350750095Y-3341714D01*
X350702476Y-3389333D01*
X350607238Y-3436952D01*
X350416761Y-3436952D01*
X350321523Y-3484571D01*
X350273904Y-3532190D01*
X350226285Y-3627428D01*
X350226285Y-3817904D01*
X350273904Y-3913142D01*
X350321523Y-3960761D01*
X350416761Y-4008380D01*
X350607238Y-4008380D01*
X350702476Y-3960761D01*
X350750095Y-3913142D01*
X350797714Y-3817904D01*
X350797714Y-3627428D01*
X350750095Y-3532190D01*
X350702476Y-3484571D01*
X350607238Y-3436952D01*
%TO.C,D7*%
X299235904Y-4008380D02*
X299235904Y-3008380D01*
X299474000Y-3008380D01*
X299616857Y-3056000D01*
X299712095Y-3151238D01*
X299759714Y-3246476D01*
X299807333Y-3436952D01*
X299807333Y-3579809D01*
X299759714Y-3770285D01*
X299712095Y-3865523D01*
X299616857Y-3960761D01*
X299474000Y-4008380D01*
X299235904Y-4008380D01*
X300140666Y-3008380D02*
X300807333Y-3008380D01*
X300378761Y-4008380D01*
%TO.C,D6*%
X249197904Y-4008380D02*
X249197904Y-3008380D01*
X249436000Y-3008380D01*
X249578857Y-3056000D01*
X249674095Y-3151238D01*
X249721714Y-3246476D01*
X249769333Y-3436952D01*
X249769333Y-3579809D01*
X249721714Y-3770285D01*
X249674095Y-3865523D01*
X249578857Y-3960761D01*
X249436000Y-4008380D01*
X249197904Y-4008380D01*
X250626476Y-3008380D02*
X250436000Y-3008380D01*
X250340761Y-3056000D01*
X250293142Y-3103619D01*
X250197904Y-3246476D01*
X250150285Y-3436952D01*
X250150285Y-3817904D01*
X250197904Y-3913142D01*
X250245523Y-3960761D01*
X250340761Y-4008380D01*
X250531238Y-4008380D01*
X250626476Y-3960761D01*
X250674095Y-3913142D01*
X250721714Y-3817904D01*
X250721714Y-3579809D01*
X250674095Y-3484571D01*
X250626476Y-3436952D01*
X250531238Y-3389333D01*
X250340761Y-3389333D01*
X250245523Y-3436952D01*
X250197904Y-3484571D01*
X250150285Y-3579809D01*
%TO.C,D5*%
X199413904Y-4008380D02*
X199413904Y-3008380D01*
X199652000Y-3008380D01*
X199794857Y-3056000D01*
X199890095Y-3151238D01*
X199937714Y-3246476D01*
X199985333Y-3436952D01*
X199985333Y-3579809D01*
X199937714Y-3770285D01*
X199890095Y-3865523D01*
X199794857Y-3960761D01*
X199652000Y-4008380D01*
X199413904Y-4008380D01*
X200890095Y-3008380D02*
X200413904Y-3008380D01*
X200366285Y-3484571D01*
X200413904Y-3436952D01*
X200509142Y-3389333D01*
X200747238Y-3389333D01*
X200842476Y-3436952D01*
X200890095Y-3484571D01*
X200937714Y-3579809D01*
X200937714Y-3817904D01*
X200890095Y-3913142D01*
X200842476Y-3960761D01*
X200747238Y-4008380D01*
X200509142Y-4008380D01*
X200413904Y-3960761D01*
X200366285Y-3913142D01*
%TO.C,D4*%
X149375904Y-4008380D02*
X149375904Y-3008380D01*
X149614000Y-3008380D01*
X149756857Y-3056000D01*
X149852095Y-3151238D01*
X149899714Y-3246476D01*
X149947333Y-3436952D01*
X149947333Y-3579809D01*
X149899714Y-3770285D01*
X149852095Y-3865523D01*
X149756857Y-3960761D01*
X149614000Y-4008380D01*
X149375904Y-4008380D01*
X150804476Y-3341714D02*
X150804476Y-4008380D01*
X150566380Y-2960761D02*
X150328285Y-3675047D01*
X150947333Y-3675047D01*
%TO.C,D3*%
X99337904Y-4008380D02*
X99337904Y-3008380D01*
X99576000Y-3008380D01*
X99718857Y-3056000D01*
X99814095Y-3151238D01*
X99861714Y-3246476D01*
X99909333Y-3436952D01*
X99909333Y-3579809D01*
X99861714Y-3770285D01*
X99814095Y-3865523D01*
X99718857Y-3960761D01*
X99576000Y-4008380D01*
X99337904Y-4008380D01*
X100242666Y-3008380D02*
X100861714Y-3008380D01*
X100528380Y-3389333D01*
X100671238Y-3389333D01*
X100766476Y-3436952D01*
X100814095Y-3484571D01*
X100861714Y-3579809D01*
X100861714Y-3817904D01*
X100814095Y-3913142D01*
X100766476Y-3960761D01*
X100671238Y-4008380D01*
X100385523Y-4008380D01*
X100290285Y-3960761D01*
X100242666Y-3913142D01*
%TO.C,D2*%
X49299904Y-4008380D02*
X49299904Y-3008380D01*
X49538000Y-3008380D01*
X49680857Y-3056000D01*
X49776095Y-3151238D01*
X49823714Y-3246476D01*
X49871333Y-3436952D01*
X49871333Y-3579809D01*
X49823714Y-3770285D01*
X49776095Y-3865523D01*
X49680857Y-3960761D01*
X49538000Y-4008380D01*
X49299904Y-4008380D01*
X50252285Y-3103619D02*
X50299904Y-3056000D01*
X50395142Y-3008380D01*
X50633238Y-3008380D01*
X50728476Y-3056000D01*
X50776095Y-3103619D01*
X50823714Y-3198857D01*
X50823714Y-3294095D01*
X50776095Y-3436952D01*
X50204666Y-4008380D01*
X50823714Y-4008380D01*
%TO.C,D1*%
X-738095Y-4008380D02*
X-738095Y-3008380D01*
X-500000Y-3008380D01*
X-357142Y-3056000D01*
X-261904Y-3151238D01*
X-214285Y-3246476D01*
X-166666Y-3436952D01*
X-166666Y-3579809D01*
X-214285Y-3770285D01*
X-261904Y-3865523D01*
X-357142Y-3960761D01*
X-500000Y-4008380D01*
X-738095Y-4008380D01*
X785714Y-4008380D02*
X214285Y-4008380D01*
X499999Y-4008380D02*
X499999Y-3008380D01*
X404761Y-3151238D01*
X309523Y-3246476D01*
X214285Y-3294095D01*
%TD*%
M02*
