%TF.GenerationSoftware,KiCad,Pcbnew,(5.1.9)-1*%
%TF.CreationDate,2021-04-24T17:32:51+02:00*%
%TF.ProjectId,Schaakbord_Bord,53636861-616b-4626-9f72-645f426f7264,rev?*%
%TF.SameCoordinates,Original*%
%TF.FileFunction,Legend,Bot*%
%TF.FilePolarity,Positive*%
%FSLAX46Y46*%
G04 Gerber Fmt 4.6, Leading zero omitted, Abs format (unit mm)*
G04 Created by KiCad (PCBNEW (5.1.9)-1) date 2021-04-24 17:32:51*
%MOMM*%
%LPD*%
G01*
G04 APERTURE LIST*
%ADD10C,0.120000*%
%ADD11C,0.200000*%
%ADD12C,0.150000*%
%ADD13C,0.254000*%
G04 APERTURE END LIST*
D10*
%TO.C,JP1*%
X142795500Y16449500D02*
X140795500Y16449500D01*
X142795500Y13649500D02*
X142795500Y16449500D01*
X140795500Y13649500D02*
X142795500Y13649500D01*
X140795500Y16449500D02*
X140795500Y13649500D01*
D11*
%TO.C,IC5*%
X163525000Y4950000D02*
X160325000Y4950000D01*
X160325000Y4950000D02*
X160325000Y-4950000D01*
X160325000Y-4950000D02*
X163525000Y-4950000D01*
X163525000Y-4950000D02*
X163525000Y4950000D01*
X165400000Y5120000D02*
X163875000Y5120000D01*
D10*
%TO.C,C5*%
X157707000Y3951248D02*
X157707000Y4473752D01*
X156237000Y3951248D02*
X156237000Y4473752D01*
%TO.C,JP1*%
D12*
X139447880Y15882833D02*
X140162166Y15882833D01*
X140305023Y15930452D01*
X140400261Y16025690D01*
X140447880Y16168547D01*
X140447880Y16263785D01*
X140447880Y15406642D02*
X139447880Y15406642D01*
X139447880Y15025690D01*
X139495500Y14930452D01*
X139543119Y14882833D01*
X139638357Y14835214D01*
X139781214Y14835214D01*
X139876452Y14882833D01*
X139924071Y14930452D01*
X139971690Y15025690D01*
X139971690Y15406642D01*
X140447880Y13882833D02*
X140447880Y14454261D01*
X140447880Y14168547D02*
X139447880Y14168547D01*
X139590738Y14263785D01*
X139685976Y14359023D01*
X139733595Y14454261D01*
%TO.C,IC5*%
D13*
X163164761Y-574523D02*
X163164761Y695476D01*
X161834285Y-453571D02*
X161894761Y-514047D01*
X162076190Y-574523D01*
X162197142Y-574523D01*
X162378571Y-514047D01*
X162499523Y-393095D01*
X162560000Y-272142D01*
X162620476Y-30238D01*
X162620476Y151190D01*
X162560000Y393095D01*
X162499523Y514047D01*
X162378571Y635000D01*
X162197142Y695476D01*
X162076190Y695476D01*
X161894761Y635000D01*
X161834285Y574523D01*
X160685238Y695476D02*
X161290000Y695476D01*
X161350476Y90714D01*
X161290000Y151190D01*
X161169047Y211666D01*
X160866666Y211666D01*
X160745714Y151190D01*
X160685238Y90714D01*
X160624761Y-30238D01*
X160624761Y-332619D01*
X160685238Y-453571D01*
X160745714Y-514047D01*
X160866666Y-574523D01*
X161169047Y-574523D01*
X161290000Y-514047D01*
X161350476Y-453571D01*
%TO.C,C5*%
D12*
X155678142Y4357666D02*
X155725761Y4405285D01*
X155773380Y4548142D01*
X155773380Y4643380D01*
X155725761Y4786238D01*
X155630523Y4881476D01*
X155535285Y4929095D01*
X155344809Y4976714D01*
X155201952Y4976714D01*
X155011476Y4929095D01*
X154916238Y4881476D01*
X154821000Y4786238D01*
X154773380Y4643380D01*
X154773380Y4548142D01*
X154821000Y4405285D01*
X154868619Y4357666D01*
X154773380Y3452904D02*
X154773380Y3929095D01*
X155249571Y3976714D01*
X155201952Y3929095D01*
X155154333Y3833857D01*
X155154333Y3595761D01*
X155201952Y3500523D01*
X155249571Y3452904D01*
X155344809Y3405285D01*
X155582904Y3405285D01*
X155678142Y3452904D01*
X155725761Y3500523D01*
X155773380Y3595761D01*
X155773380Y3833857D01*
X155725761Y3929095D01*
X155678142Y3976714D01*
%TD*%
M02*
