%TF.GenerationSoftware,KiCad,Pcbnew,(5.1.9)-1*%
%TF.CreationDate,2021-04-24T17:32:51+02:00*%
%TF.ProjectId,Schaakbord_Bord,53636861-616b-4626-9f72-645f426f7264,rev?*%
%TF.SameCoordinates,Original*%
%TF.FileFunction,Copper,L1,Top*%
%TF.FilePolarity,Positive*%
%FSLAX46Y46*%
G04 Gerber Fmt 4.6, Leading zero omitted, Abs format (unit mm)*
G04 Created by KiCad (PCBNEW (5.1.9)-1) date 2021-04-24 17:32:51*
%MOMM*%
%LPD*%
G01*
G04 APERTURE LIST*
%TA.AperFunction,ComponentPad*%
%ADD10R,1.700000X1.700000*%
%TD*%
%TA.AperFunction,ComponentPad*%
%ADD11O,1.700000X1.700000*%
%TD*%
%TA.AperFunction,SMDPad,CuDef*%
%ADD12R,0.800000X0.900000*%
%TD*%
%TA.AperFunction,SMDPad,CuDef*%
%ADD13R,2.000000X1.100000*%
%TD*%
%TA.AperFunction,ViaPad*%
%ADD14C,1.000000*%
%TD*%
%TA.AperFunction,ViaPad*%
%ADD15C,0.800000*%
%TD*%
%TA.AperFunction,Conductor*%
%ADD16C,0.400000*%
%TD*%
%TA.AperFunction,Conductor*%
%ADD17C,0.800000*%
%TD*%
G04 APERTURE END LIST*
D10*
%TO.P,J4,1*%
%TO.N,GNDD*%
X145288000Y-14478000D03*
D11*
%TO.P,J4,2*%
%TO.N,+3V3*%
X147828000Y-14478000D03*
%TO.P,J4,3*%
%TO.N,QH*%
X150368000Y-14478000D03*
%TO.P,J4,4*%
%TO.N,CLK*%
X152908000Y-14478000D03*
%TO.P,J4,5*%
%TO.N,SH*%
X155448000Y-14478000D03*
%TD*%
%TO.P,J3,5*%
%TO.N,SH*%
X155448000Y14351000D03*
%TO.P,J3,4*%
%TO.N,CLK*%
X152908000Y14351000D03*
%TO.P,J3,3*%
%TO.N,SER*%
X150368000Y14351000D03*
%TO.P,J3,2*%
%TO.N,+3V3*%
X147828000Y14351000D03*
D10*
%TO.P,J3,1*%
%TO.N,GNDD*%
X145288000Y14351000D03*
%TD*%
D11*
%TO.P,J2,4*%
%TO.N,Net-(D8-Pad6)*%
X103822500Y-14541500D03*
%TO.P,J2,3*%
%TO.N,Net-(D8-Pad5)*%
X101282500Y-14541500D03*
%TO.P,J2,2*%
%TO.N,+5V*%
X98742500Y-14541500D03*
D10*
%TO.P,J2,1*%
%TO.N,GNDD*%
X96202500Y-14541500D03*
%TD*%
D11*
%TO.P,J1,4*%
%TO.N,Net-(D1-Pad1)*%
X103886000Y14351000D03*
%TO.P,J1,3*%
%TO.N,Net-(D1-Pad2)*%
X101346000Y14351000D03*
%TO.P,J1,2*%
%TO.N,+5V*%
X98806000Y14351000D03*
D10*
%TO.P,J1,1*%
%TO.N,GNDD*%
X96266000Y14351000D03*
%TD*%
%TO.P,R4,2*%
%TO.N,Net-(IC4-Pad3)*%
%TA.AperFunction,SMDPad,CuDef*%
G36*
G01*
X347668001Y4972000D02*
X346767999Y4972000D01*
G75*
G02*
X346518000Y5221999I0J249999D01*
G01*
X346518000Y5922001D01*
G75*
G02*
X346767999Y6172000I249999J0D01*
G01*
X347668001Y6172000D01*
G75*
G02*
X347918000Y5922001I0J-249999D01*
G01*
X347918000Y5221999D01*
G75*
G02*
X347668001Y4972000I-249999J0D01*
G01*
G37*
%TD.AperFunction*%
%TO.P,R4,1*%
%TO.N,+3V3*%
%TA.AperFunction,SMDPad,CuDef*%
G36*
G01*
X347668001Y2972000D02*
X346767999Y2972000D01*
G75*
G02*
X346518000Y3221999I0J249999D01*
G01*
X346518000Y3922001D01*
G75*
G02*
X346767999Y4172000I249999J0D01*
G01*
X347668001Y4172000D01*
G75*
G02*
X347918000Y3922001I0J-249999D01*
G01*
X347918000Y3221999D01*
G75*
G02*
X347668001Y2972000I-249999J0D01*
G01*
G37*
%TD.AperFunction*%
%TD*%
%TO.P,R3,2*%
%TO.N,Net-(IC3-Pad3)*%
%TA.AperFunction,SMDPad,CuDef*%
G36*
G01*
X297630001Y4972000D02*
X296729999Y4972000D01*
G75*
G02*
X296480000Y5221999I0J249999D01*
G01*
X296480000Y5922001D01*
G75*
G02*
X296729999Y6172000I249999J0D01*
G01*
X297630001Y6172000D01*
G75*
G02*
X297880000Y5922001I0J-249999D01*
G01*
X297880000Y5221999D01*
G75*
G02*
X297630001Y4972000I-249999J0D01*
G01*
G37*
%TD.AperFunction*%
%TO.P,R3,1*%
%TO.N,+3V3*%
%TA.AperFunction,SMDPad,CuDef*%
G36*
G01*
X297630001Y2972000D02*
X296729999Y2972000D01*
G75*
G02*
X296480000Y3221999I0J249999D01*
G01*
X296480000Y3922001D01*
G75*
G02*
X296729999Y4172000I249999J0D01*
G01*
X297630001Y4172000D01*
G75*
G02*
X297880000Y3922001I0J-249999D01*
G01*
X297880000Y3221999D01*
G75*
G02*
X297630001Y2972000I-249999J0D01*
G01*
G37*
%TD.AperFunction*%
%TD*%
%TO.P,R2,2*%
%TO.N,Net-(IC2-Pad3)*%
%TA.AperFunction,SMDPad,CuDef*%
G36*
G01*
X247592001Y4972000D02*
X246691999Y4972000D01*
G75*
G02*
X246442000Y5221999I0J249999D01*
G01*
X246442000Y5922001D01*
G75*
G02*
X246691999Y6172000I249999J0D01*
G01*
X247592001Y6172000D01*
G75*
G02*
X247842000Y5922001I0J-249999D01*
G01*
X247842000Y5221999D01*
G75*
G02*
X247592001Y4972000I-249999J0D01*
G01*
G37*
%TD.AperFunction*%
%TO.P,R2,1*%
%TO.N,+3V3*%
%TA.AperFunction,SMDPad,CuDef*%
G36*
G01*
X247592001Y2972000D02*
X246691999Y2972000D01*
G75*
G02*
X246442000Y3221999I0J249999D01*
G01*
X246442000Y3922001D01*
G75*
G02*
X246691999Y4172000I249999J0D01*
G01*
X247592001Y4172000D01*
G75*
G02*
X247842000Y3922001I0J-249999D01*
G01*
X247842000Y3221999D01*
G75*
G02*
X247592001Y2972000I-249999J0D01*
G01*
G37*
%TD.AperFunction*%
%TD*%
%TO.P,R1,2*%
%TO.N,Net-(IC1-Pad3)*%
%TA.AperFunction,SMDPad,CuDef*%
G36*
G01*
X197554001Y4956000D02*
X196653999Y4956000D01*
G75*
G02*
X196404000Y5205999I0J249999D01*
G01*
X196404000Y5906001D01*
G75*
G02*
X196653999Y6156000I249999J0D01*
G01*
X197554001Y6156000D01*
G75*
G02*
X197804000Y5906001I0J-249999D01*
G01*
X197804000Y5205999D01*
G75*
G02*
X197554001Y4956000I-249999J0D01*
G01*
G37*
%TD.AperFunction*%
%TO.P,R1,1*%
%TO.N,+3V3*%
%TA.AperFunction,SMDPad,CuDef*%
G36*
G01*
X197554001Y2956000D02*
X196653999Y2956000D01*
G75*
G02*
X196404000Y3205999I0J249999D01*
G01*
X196404000Y3906001D01*
G75*
G02*
X196653999Y4156000I249999J0D01*
G01*
X197554001Y4156000D01*
G75*
G02*
X197804000Y3906001I0J-249999D01*
G01*
X197804000Y3205999D01*
G75*
G02*
X197554001Y2956000I-249999J0D01*
G01*
G37*
%TD.AperFunction*%
%TD*%
%TO.P,R5,2*%
%TO.N,Net-(IC5-Pad14)*%
%TA.AperFunction,SMDPad,CuDef*%
G36*
G01*
X147770001Y4972000D02*
X146869999Y4972000D01*
G75*
G02*
X146620000Y5221999I0J249999D01*
G01*
X146620000Y5922001D01*
G75*
G02*
X146869999Y6172000I249999J0D01*
G01*
X147770001Y6172000D01*
G75*
G02*
X148020000Y5922001I0J-249999D01*
G01*
X148020000Y5221999D01*
G75*
G02*
X147770001Y4972000I-249999J0D01*
G01*
G37*
%TD.AperFunction*%
%TO.P,R5,1*%
%TO.N,+3V3*%
%TA.AperFunction,SMDPad,CuDef*%
G36*
G01*
X147770001Y2972000D02*
X146869999Y2972000D01*
G75*
G02*
X146620000Y3221999I0J249999D01*
G01*
X146620000Y3922001D01*
G75*
G02*
X146869999Y4172000I249999J0D01*
G01*
X147770001Y4172000D01*
G75*
G02*
X148020000Y3922001I0J-249999D01*
G01*
X148020000Y3221999D01*
G75*
G02*
X147770001Y2972000I-249999J0D01*
G01*
G37*
%TD.AperFunction*%
%TD*%
%TO.P,R6,2*%
%TO.N,Net-(IC5-Pad13)*%
%TA.AperFunction,SMDPad,CuDef*%
G36*
G01*
X101470000Y7943001D02*
X101470000Y7042999D01*
G75*
G02*
X101220001Y6793000I-249999J0D01*
G01*
X100519999Y6793000D01*
G75*
G02*
X100270000Y7042999I0J249999D01*
G01*
X100270000Y7943001D01*
G75*
G02*
X100519999Y8193000I249999J0D01*
G01*
X101220001Y8193000D01*
G75*
G02*
X101470000Y7943001I0J-249999D01*
G01*
G37*
%TD.AperFunction*%
%TO.P,R6,1*%
%TO.N,+3V3*%
%TA.AperFunction,SMDPad,CuDef*%
G36*
G01*
X103470000Y7943001D02*
X103470000Y7042999D01*
G75*
G02*
X103220001Y6793000I-249999J0D01*
G01*
X102519999Y6793000D01*
G75*
G02*
X102270000Y7042999I0J249999D01*
G01*
X102270000Y7943001D01*
G75*
G02*
X102519999Y8193000I249999J0D01*
G01*
X103220001Y8193000D01*
G75*
G02*
X103470000Y7943001I0J-249999D01*
G01*
G37*
%TD.AperFunction*%
%TD*%
%TO.P,R7,2*%
%TO.N,Net-(IC5-Pad12)*%
%TA.AperFunction,SMDPad,CuDef*%
G36*
G01*
X47694001Y4972000D02*
X46793999Y4972000D01*
G75*
G02*
X46544000Y5221999I0J249999D01*
G01*
X46544000Y5922001D01*
G75*
G02*
X46793999Y6172000I249999J0D01*
G01*
X47694001Y6172000D01*
G75*
G02*
X47944000Y5922001I0J-249999D01*
G01*
X47944000Y5221999D01*
G75*
G02*
X47694001Y4972000I-249999J0D01*
G01*
G37*
%TD.AperFunction*%
%TO.P,R7,1*%
%TO.N,+3V3*%
%TA.AperFunction,SMDPad,CuDef*%
G36*
G01*
X47694001Y2972000D02*
X46793999Y2972000D01*
G75*
G02*
X46544000Y3221999I0J249999D01*
G01*
X46544000Y3922001D01*
G75*
G02*
X46793999Y4172000I249999J0D01*
G01*
X47694001Y4172000D01*
G75*
G02*
X47944000Y3922001I0J-249999D01*
G01*
X47944000Y3221999D01*
G75*
G02*
X47694001Y2972000I-249999J0D01*
G01*
G37*
%TD.AperFunction*%
%TD*%
%TO.P,R8,2*%
%TO.N,Net-(IC5-Pad11)*%
%TA.AperFunction,SMDPad,CuDef*%
G36*
G01*
X-2343999Y4972000D02*
X-3244001Y4972000D01*
G75*
G02*
X-3494000Y5221999I0J249999D01*
G01*
X-3494000Y5922001D01*
G75*
G02*
X-3244001Y6172000I249999J0D01*
G01*
X-2343999Y6172000D01*
G75*
G02*
X-2094000Y5922001I0J-249999D01*
G01*
X-2094000Y5221999D01*
G75*
G02*
X-2343999Y4972000I-249999J0D01*
G01*
G37*
%TD.AperFunction*%
%TO.P,R8,1*%
%TO.N,+3V3*%
%TA.AperFunction,SMDPad,CuDef*%
G36*
G01*
X-2343999Y2972000D02*
X-3244001Y2972000D01*
G75*
G02*
X-3494000Y3221999I0J249999D01*
G01*
X-3494000Y3922001D01*
G75*
G02*
X-3244001Y4172000I249999J0D01*
G01*
X-2343999Y4172000D01*
G75*
G02*
X-2094000Y3922001I0J-249999D01*
G01*
X-2094000Y3221999D01*
G75*
G02*
X-2343999Y2972000I-249999J0D01*
G01*
G37*
%TD.AperFunction*%
%TD*%
%TO.P,C4,2*%
%TO.N,+3V3*%
%TA.AperFunction,SMDPad,CuDef*%
G36*
G01*
X353281000Y5022000D02*
X352331000Y5022000D01*
G75*
G02*
X352081000Y5272000I0J250000D01*
G01*
X352081000Y5947000D01*
G75*
G02*
X352331000Y6197000I250000J0D01*
G01*
X353281000Y6197000D01*
G75*
G02*
X353531000Y5947000I0J-250000D01*
G01*
X353531000Y5272000D01*
G75*
G02*
X353281000Y5022000I-250000J0D01*
G01*
G37*
%TD.AperFunction*%
%TO.P,C4,1*%
%TO.N,GNDD*%
%TA.AperFunction,SMDPad,CuDef*%
G36*
G01*
X353281000Y2947000D02*
X352331000Y2947000D01*
G75*
G02*
X352081000Y3197000I0J250000D01*
G01*
X352081000Y3872000D01*
G75*
G02*
X352331000Y4122000I250000J0D01*
G01*
X353281000Y4122000D01*
G75*
G02*
X353531000Y3872000I0J-250000D01*
G01*
X353531000Y3197000D01*
G75*
G02*
X353281000Y2947000I-250000J0D01*
G01*
G37*
%TD.AperFunction*%
%TD*%
%TO.P,C3,2*%
%TO.N,+3V3*%
%TA.AperFunction,SMDPad,CuDef*%
G36*
G01*
X303243000Y5022000D02*
X302293000Y5022000D01*
G75*
G02*
X302043000Y5272000I0J250000D01*
G01*
X302043000Y5947000D01*
G75*
G02*
X302293000Y6197000I250000J0D01*
G01*
X303243000Y6197000D01*
G75*
G02*
X303493000Y5947000I0J-250000D01*
G01*
X303493000Y5272000D01*
G75*
G02*
X303243000Y5022000I-250000J0D01*
G01*
G37*
%TD.AperFunction*%
%TO.P,C3,1*%
%TO.N,GNDD*%
%TA.AperFunction,SMDPad,CuDef*%
G36*
G01*
X303243000Y2947000D02*
X302293000Y2947000D01*
G75*
G02*
X302043000Y3197000I0J250000D01*
G01*
X302043000Y3872000D01*
G75*
G02*
X302293000Y4122000I250000J0D01*
G01*
X303243000Y4122000D01*
G75*
G02*
X303493000Y3872000I0J-250000D01*
G01*
X303493000Y3197000D01*
G75*
G02*
X303243000Y2947000I-250000J0D01*
G01*
G37*
%TD.AperFunction*%
%TD*%
%TO.P,C2,2*%
%TO.N,+3V3*%
%TA.AperFunction,SMDPad,CuDef*%
G36*
G01*
X253205000Y5043500D02*
X252255000Y5043500D01*
G75*
G02*
X252005000Y5293500I0J250000D01*
G01*
X252005000Y5968500D01*
G75*
G02*
X252255000Y6218500I250000J0D01*
G01*
X253205000Y6218500D01*
G75*
G02*
X253455000Y5968500I0J-250000D01*
G01*
X253455000Y5293500D01*
G75*
G02*
X253205000Y5043500I-250000J0D01*
G01*
G37*
%TD.AperFunction*%
%TO.P,C2,1*%
%TO.N,GNDD*%
%TA.AperFunction,SMDPad,CuDef*%
G36*
G01*
X253205000Y2968500D02*
X252255000Y2968500D01*
G75*
G02*
X252005000Y3218500I0J250000D01*
G01*
X252005000Y3893500D01*
G75*
G02*
X252255000Y4143500I250000J0D01*
G01*
X253205000Y4143500D01*
G75*
G02*
X253455000Y3893500I0J-250000D01*
G01*
X253455000Y3218500D01*
G75*
G02*
X253205000Y2968500I-250000J0D01*
G01*
G37*
%TD.AperFunction*%
%TD*%
%TO.P,C1,2*%
%TO.N,+3V3*%
%TA.AperFunction,SMDPad,CuDef*%
G36*
G01*
X203167000Y5022000D02*
X202217000Y5022000D01*
G75*
G02*
X201967000Y5272000I0J250000D01*
G01*
X201967000Y5947000D01*
G75*
G02*
X202217000Y6197000I250000J0D01*
G01*
X203167000Y6197000D01*
G75*
G02*
X203417000Y5947000I0J-250000D01*
G01*
X203417000Y5272000D01*
G75*
G02*
X203167000Y5022000I-250000J0D01*
G01*
G37*
%TD.AperFunction*%
%TO.P,C1,1*%
%TO.N,GNDD*%
%TA.AperFunction,SMDPad,CuDef*%
G36*
G01*
X203167000Y2947000D02*
X202217000Y2947000D01*
G75*
G02*
X201967000Y3197000I0J250000D01*
G01*
X201967000Y3872000D01*
G75*
G02*
X202217000Y4122000I250000J0D01*
G01*
X203167000Y4122000D01*
G75*
G02*
X203417000Y3872000I0J-250000D01*
G01*
X203417000Y3197000D01*
G75*
G02*
X203167000Y2947000I-250000J0D01*
G01*
G37*
%TD.AperFunction*%
%TD*%
%TO.P,C6,2*%
%TO.N,GNDD*%
%TA.AperFunction,SMDPad,CuDef*%
G36*
G01*
X152433000Y4122000D02*
X153383000Y4122000D01*
G75*
G02*
X153633000Y3872000I0J-250000D01*
G01*
X153633000Y3197000D01*
G75*
G02*
X153383000Y2947000I-250000J0D01*
G01*
X152433000Y2947000D01*
G75*
G02*
X152183000Y3197000I0J250000D01*
G01*
X152183000Y3872000D01*
G75*
G02*
X152433000Y4122000I250000J0D01*
G01*
G37*
%TD.AperFunction*%
%TO.P,C6,1*%
%TO.N,+3V3*%
%TA.AperFunction,SMDPad,CuDef*%
G36*
G01*
X152433000Y6197000D02*
X153383000Y6197000D01*
G75*
G02*
X153633000Y5947000I0J-250000D01*
G01*
X153633000Y5272000D01*
G75*
G02*
X153383000Y5022000I-250000J0D01*
G01*
X152433000Y5022000D01*
G75*
G02*
X152183000Y5272000I0J250000D01*
G01*
X152183000Y5947000D01*
G75*
G02*
X152433000Y6197000I250000J0D01*
G01*
G37*
%TD.AperFunction*%
%TD*%
%TO.P,C7,2*%
%TO.N,GNDD*%
%TA.AperFunction,SMDPad,CuDef*%
G36*
G01*
X102395000Y4122000D02*
X103345000Y4122000D01*
G75*
G02*
X103595000Y3872000I0J-250000D01*
G01*
X103595000Y3197000D01*
G75*
G02*
X103345000Y2947000I-250000J0D01*
G01*
X102395000Y2947000D01*
G75*
G02*
X102145000Y3197000I0J250000D01*
G01*
X102145000Y3872000D01*
G75*
G02*
X102395000Y4122000I250000J0D01*
G01*
G37*
%TD.AperFunction*%
%TO.P,C7,1*%
%TO.N,+3V3*%
%TA.AperFunction,SMDPad,CuDef*%
G36*
G01*
X102395000Y6197000D02*
X103345000Y6197000D01*
G75*
G02*
X103595000Y5947000I0J-250000D01*
G01*
X103595000Y5272000D01*
G75*
G02*
X103345000Y5022000I-250000J0D01*
G01*
X102395000Y5022000D01*
G75*
G02*
X102145000Y5272000I0J250000D01*
G01*
X102145000Y5947000D01*
G75*
G02*
X102395000Y6197000I250000J0D01*
G01*
G37*
%TD.AperFunction*%
%TD*%
%TO.P,C8,2*%
%TO.N,GNDD*%
%TA.AperFunction,SMDPad,CuDef*%
G36*
G01*
X52357000Y4122000D02*
X53307000Y4122000D01*
G75*
G02*
X53557000Y3872000I0J-250000D01*
G01*
X53557000Y3197000D01*
G75*
G02*
X53307000Y2947000I-250000J0D01*
G01*
X52357000Y2947000D01*
G75*
G02*
X52107000Y3197000I0J250000D01*
G01*
X52107000Y3872000D01*
G75*
G02*
X52357000Y4122000I250000J0D01*
G01*
G37*
%TD.AperFunction*%
%TO.P,C8,1*%
%TO.N,+3V3*%
%TA.AperFunction,SMDPad,CuDef*%
G36*
G01*
X52357000Y6197000D02*
X53307000Y6197000D01*
G75*
G02*
X53557000Y5947000I0J-250000D01*
G01*
X53557000Y5272000D01*
G75*
G02*
X53307000Y5022000I-250000J0D01*
G01*
X52357000Y5022000D01*
G75*
G02*
X52107000Y5272000I0J250000D01*
G01*
X52107000Y5947000D01*
G75*
G02*
X52357000Y6197000I250000J0D01*
G01*
G37*
%TD.AperFunction*%
%TD*%
%TO.P,C9,2*%
%TO.N,GNDD*%
%TA.AperFunction,SMDPad,CuDef*%
G36*
G01*
X2319000Y4122000D02*
X3269000Y4122000D01*
G75*
G02*
X3519000Y3872000I0J-250000D01*
G01*
X3519000Y3197000D01*
G75*
G02*
X3269000Y2947000I-250000J0D01*
G01*
X2319000Y2947000D01*
G75*
G02*
X2069000Y3197000I0J250000D01*
G01*
X2069000Y3872000D01*
G75*
G02*
X2319000Y4122000I250000J0D01*
G01*
G37*
%TD.AperFunction*%
%TO.P,C9,1*%
%TO.N,+3V3*%
%TA.AperFunction,SMDPad,CuDef*%
G36*
G01*
X2319000Y6197000D02*
X3269000Y6197000D01*
G75*
G02*
X3519000Y5947000I0J-250000D01*
G01*
X3519000Y5272000D01*
G75*
G02*
X3269000Y5022000I-250000J0D01*
G01*
X2319000Y5022000D01*
G75*
G02*
X2069000Y5272000I0J250000D01*
G01*
X2069000Y5947000D01*
G75*
G02*
X2319000Y6197000I250000J0D01*
G01*
G37*
%TD.AperFunction*%
%TD*%
D12*
%TO.P,IC4,2*%
%TO.N,GNDD*%
X350012000Y3556000D03*
%TO.P,IC4,3*%
%TO.N,Net-(IC4-Pad3)*%
X349062000Y5556000D03*
%TO.P,IC4,1*%
%TO.N,+3V3*%
X350962000Y5556000D03*
%TD*%
%TO.P,IC3,2*%
%TO.N,GNDD*%
X299974000Y3556000D03*
%TO.P,IC3,3*%
%TO.N,Net-(IC3-Pad3)*%
X299024000Y5556000D03*
%TO.P,IC3,1*%
%TO.N,+3V3*%
X300924000Y5556000D03*
%TD*%
%TO.P,IC2,2*%
%TO.N,GNDD*%
X249936000Y3556000D03*
%TO.P,IC2,3*%
%TO.N,Net-(IC2-Pad3)*%
X248986000Y5556000D03*
%TO.P,IC2,1*%
%TO.N,+3V3*%
X250886000Y5556000D03*
%TD*%
%TO.P,IC6,2*%
%TO.N,GNDD*%
X150114000Y3556000D03*
%TO.P,IC6,3*%
%TO.N,Net-(IC5-Pad14)*%
X149164000Y5556000D03*
%TO.P,IC6,1*%
%TO.N,+3V3*%
X151064000Y5556000D03*
%TD*%
%TO.P,IC7,2*%
%TO.N,GNDD*%
X100076000Y3556000D03*
%TO.P,IC7,3*%
%TO.N,Net-(IC5-Pad13)*%
X99126000Y5556000D03*
%TO.P,IC7,1*%
%TO.N,+3V3*%
X101026000Y5556000D03*
%TD*%
%TO.P,IC8,2*%
%TO.N,GNDD*%
X50038000Y3556000D03*
%TO.P,IC8,3*%
%TO.N,Net-(IC5-Pad12)*%
X49088000Y5556000D03*
%TO.P,IC8,1*%
%TO.N,+3V3*%
X50988000Y5556000D03*
%TD*%
%TO.P,IC9,2*%
%TO.N,GNDD*%
X0Y3556000D03*
%TO.P,IC9,3*%
%TO.N,Net-(IC5-Pad11)*%
X-950000Y5556000D03*
%TO.P,IC9,1*%
%TO.N,+3V3*%
X950000Y5556000D03*
%TD*%
%TO.P,IC1,2*%
%TO.N,GNDD*%
X199898000Y3556000D03*
%TO.P,IC1,3*%
%TO.N,Net-(IC1-Pad3)*%
X198948000Y5556000D03*
%TO.P,IC1,1*%
%TO.N,+3V3*%
X200848000Y5556000D03*
%TD*%
D13*
%TO.P,D8,6*%
%TO.N,Net-(D8-Pad6)*%
X352412000Y1700000D03*
%TO.P,D8,5*%
%TO.N,Net-(D8-Pad5)*%
X352412000Y0D03*
%TO.P,D8,4*%
%TO.N,+5V*%
X352412000Y-1700000D03*
%TO.P,D8,3*%
%TO.N,GNDD*%
X347612000Y-1700000D03*
%TO.P,D8,2*%
%TO.N,Net-(D7-Pad5)*%
X347612000Y0D03*
%TO.P,D8,1*%
%TO.N,Net-(D7-Pad6)*%
X347612000Y1700000D03*
%TD*%
%TO.P,D7,6*%
%TO.N,Net-(D7-Pad6)*%
X302374000Y1700000D03*
%TO.P,D7,5*%
%TO.N,Net-(D7-Pad5)*%
X302374000Y0D03*
%TO.P,D7,4*%
%TO.N,+5V*%
X302374000Y-1700000D03*
%TO.P,D7,3*%
%TO.N,GNDD*%
X297574000Y-1700000D03*
%TO.P,D7,2*%
%TO.N,Net-(D6-Pad5)*%
X297574000Y0D03*
%TO.P,D7,1*%
%TO.N,Net-(D6-Pad6)*%
X297574000Y1700000D03*
%TD*%
%TO.P,D6,6*%
%TO.N,Net-(D6-Pad6)*%
X252336000Y1700000D03*
%TO.P,D6,5*%
%TO.N,Net-(D6-Pad5)*%
X252336000Y0D03*
%TO.P,D6,4*%
%TO.N,+5V*%
X252336000Y-1700000D03*
%TO.P,D6,3*%
%TO.N,GNDD*%
X247536000Y-1700000D03*
%TO.P,D6,2*%
%TO.N,Net-(D5-Pad5)*%
X247536000Y0D03*
%TO.P,D6,1*%
%TO.N,Net-(D5-Pad6)*%
X247536000Y1700000D03*
%TD*%
%TO.P,D5,6*%
%TO.N,Net-(D5-Pad6)*%
X202298000Y1700000D03*
%TO.P,D5,5*%
%TO.N,Net-(D5-Pad5)*%
X202298000Y0D03*
%TO.P,D5,4*%
%TO.N,+5V*%
X202298000Y-1700000D03*
%TO.P,D5,3*%
%TO.N,GNDD*%
X197498000Y-1700000D03*
%TO.P,D5,2*%
%TO.N,Net-(D4-Pad5)*%
X197498000Y0D03*
%TO.P,D5,1*%
%TO.N,Net-(D4-Pad6)*%
X197498000Y1700000D03*
%TD*%
%TO.P,D4,6*%
%TO.N,Net-(D4-Pad6)*%
X152514000Y1700000D03*
%TO.P,D4,5*%
%TO.N,Net-(D4-Pad5)*%
X152514000Y0D03*
%TO.P,D4,4*%
%TO.N,+5V*%
X152514000Y-1700000D03*
%TO.P,D4,3*%
%TO.N,GNDD*%
X147714000Y-1700000D03*
%TO.P,D4,2*%
%TO.N,Net-(D3-Pad5)*%
X147714000Y0D03*
%TO.P,D4,1*%
%TO.N,Net-(D3-Pad6)*%
X147714000Y1700000D03*
%TD*%
%TO.P,D3,6*%
%TO.N,Net-(D3-Pad6)*%
X102476000Y1700000D03*
%TO.P,D3,5*%
%TO.N,Net-(D3-Pad5)*%
X102476000Y0D03*
%TO.P,D3,4*%
%TO.N,+5V*%
X102476000Y-1700000D03*
%TO.P,D3,3*%
%TO.N,GNDD*%
X97676000Y-1700000D03*
%TO.P,D3,2*%
%TO.N,Net-(D2-Pad5)*%
X97676000Y0D03*
%TO.P,D3,1*%
%TO.N,Net-(D2-Pad6)*%
X97676000Y1700000D03*
%TD*%
%TO.P,D2,6*%
%TO.N,Net-(D2-Pad6)*%
X52438000Y1700000D03*
%TO.P,D2,5*%
%TO.N,Net-(D2-Pad5)*%
X52438000Y0D03*
%TO.P,D2,4*%
%TO.N,+5V*%
X52438000Y-1700000D03*
%TO.P,D2,3*%
%TO.N,GNDD*%
X47638000Y-1700000D03*
%TO.P,D2,2*%
%TO.N,Net-(D1-Pad5)*%
X47638000Y0D03*
%TO.P,D2,1*%
%TO.N,Net-(D1-Pad6)*%
X47638000Y1700000D03*
%TD*%
%TO.P,D1,6*%
%TO.N,Net-(D1-Pad6)*%
X2400000Y1700000D03*
%TO.P,D1,5*%
%TO.N,Net-(D1-Pad5)*%
X2400000Y0D03*
%TO.P,D1,4*%
%TO.N,+5V*%
X2400000Y-1700000D03*
%TO.P,D1,3*%
%TO.N,GNDD*%
X-2400000Y-1700000D03*
%TO.P,D1,2*%
%TO.N,Net-(D1-Pad2)*%
X-2400000Y0D03*
%TO.P,D1,1*%
%TO.N,Net-(D1-Pad1)*%
X-2400000Y1700000D03*
%TD*%
D14*
%TO.N,+5V*%
X100711000Y1778000D03*
X4243600Y-1700000D03*
X254179600Y-1700000D03*
X204141600Y-1700000D03*
X154357600Y-1700000D03*
X104319600Y-1700000D03*
X54281600Y-1700000D03*
X304217600Y-1700000D03*
X6350000Y-3810000D03*
X56642000Y-4064000D03*
X106680000Y-4064000D03*
X156718000Y-4064000D03*
X206375000Y-4064000D03*
X256540000Y-4064000D03*
X306578000Y-4064000D03*
%TO.N,GNDD*%
X99568000Y-1651000D03*
D15*
X154559000Y3175000D03*
X166116000Y-2794000D03*
X149352000Y-1968500D03*
D14*
X96266000Y3492500D03*
D15*
%TO.N,+3V3*%
X155448000Y5609500D03*
X149313990Y-889000D03*
%TO.N,Net-(IC1-Pad3)*%
X195580022Y5588000D03*
%TO.N,Net-(IC2-Pad3)*%
X245618000Y5572022D03*
%TO.N,Net-(IC3-Pad3)*%
X295528990Y5588000D03*
%TO.N,Net-(IC4-Pad3)*%
X345567000Y5588004D03*
%TO.N,Net-(IC5-Pad14)*%
X149164000Y6731000D03*
%TO.N,Net-(IC5-Pad13)*%
X99126000Y6731000D03*
%TO.N,Net-(IC5-Pad12)*%
X49088000Y6731000D03*
%TO.N,Net-(IC5-Pad11)*%
X-950000Y6857968D03*
%TD*%
D16*
%TO.N,Net-(D1-Pad6)*%
X2400000Y1700000D02*
X47638000Y1700000D01*
%TO.N,Net-(D1-Pad5)*%
X2400000Y0D02*
X47638000Y0D01*
D17*
%TO.N,+5V*%
X2400000Y-1700000D02*
X4243600Y-1700000D01*
X252336000Y-1700000D02*
X254179600Y-1700000D01*
X202298000Y-1700000D02*
X204141600Y-1700000D01*
X152514000Y-1700000D02*
X154357600Y-1700000D01*
X102476000Y-1700000D02*
X104319600Y-1700000D01*
X52438000Y-1700000D02*
X54281600Y-1700000D01*
X304217600Y-1700000D02*
X304217600Y-1700000D01*
X304217600Y-1700000D02*
X302374000Y-1700000D01*
X6350000Y-3810000D02*
X6350000Y-3810000D01*
X102427000Y-1651000D02*
X102476000Y-1700000D01*
X6604000Y-4064000D02*
X6350000Y-3810000D01*
X56642000Y-4064000D02*
X6604000Y-4064000D01*
X106172000Y-4064000D02*
X56642000Y-4064000D01*
X106680000Y-4064000D02*
X106172000Y-4064000D01*
X106680000Y-4064000D02*
X304338978Y-4064000D01*
X352412000Y-2680000D02*
X352412000Y-1700000D01*
X306578000Y-4064000D02*
X351028000Y-4064000D01*
X306070000Y-4064000D02*
X304419000Y-4064000D01*
X306578000Y-4064000D02*
X306070000Y-4064000D01*
X351028000Y-4064000D02*
X352412000Y-2680000D01*
X101522000Y-1700000D02*
X102476000Y-1700000D01*
X100711000Y-889000D02*
X101522000Y-1700000D01*
X100711000Y1778000D02*
X100711000Y-889000D01*
D16*
%TO.N,GNDD*%
X299974000Y-700000D02*
X299974000Y3556000D01*
X298974000Y-1700000D02*
X299974000Y-700000D01*
X297574000Y-1700000D02*
X298974000Y-1700000D01*
X349012000Y-1700000D02*
X350012000Y-700000D01*
X350012000Y-700000D02*
X350012000Y3556000D01*
X347612000Y-1700000D02*
X349012000Y-1700000D01*
X249936000Y-700000D02*
X249936000Y3556000D01*
X248936000Y-1700000D02*
X249936000Y-700000D01*
X247536000Y-1700000D02*
X248936000Y-1700000D01*
X199898000Y129998D02*
X199898000Y3556000D01*
X198068002Y-1700000D02*
X199898000Y129998D01*
X197498000Y-1700000D02*
X198068002Y-1700000D01*
X50038000Y-700000D02*
X50038000Y3556000D01*
X49038000Y-1700000D02*
X50038000Y-700000D01*
X47638000Y-1700000D02*
X49038000Y-1700000D01*
X-2400000Y-1700000D02*
X-1000000Y-1700000D01*
X-1000000Y-1700000D02*
X0Y-700000D01*
X0Y-700000D02*
X0Y3556000D01*
D17*
X254705999Y-2850001D02*
X255856000Y-1700000D01*
X248686001Y-2850001D02*
X254705999Y-2850001D01*
X255856000Y-1700000D02*
X297574000Y-1700000D01*
X247536000Y-1700000D02*
X248686001Y-2850001D01*
X47638000Y-1700000D02*
X48788001Y-2850001D01*
X48788001Y-2850001D02*
X54807999Y-2850001D01*
X54807999Y-2850001D02*
X55958000Y-1700000D01*
X55958000Y-1700000D02*
X97676000Y-1700000D01*
X-2400000Y-1700000D02*
X-1249999Y-2850001D01*
X-1249999Y-2850001D02*
X4769999Y-2850001D01*
X4769999Y-2850001D02*
X5920000Y-1700000D01*
X5920000Y-1700000D02*
X47638000Y-1700000D01*
X197498000Y-1700000D02*
X167718000Y-1700000D01*
D16*
X2540000Y3556000D02*
X2794000Y3810000D01*
X0Y3556000D02*
X2540000Y3556000D01*
X52578000Y3556000D02*
X52832000Y3810000D01*
X50038000Y3556000D02*
X52578000Y3556000D01*
X102616000Y3556000D02*
X102870000Y3810000D01*
X100076000Y3556000D02*
X102616000Y3556000D01*
X152654000Y3556000D02*
X152908000Y3810000D01*
X150114000Y3556000D02*
X152654000Y3556000D01*
X202438000Y3556000D02*
X202692000Y3810000D01*
X199898000Y3556000D02*
X202438000Y3556000D01*
X252476000Y3556000D02*
X252730000Y3810000D01*
X249936000Y3556000D02*
X252476000Y3556000D01*
X302557000Y3556000D02*
X302768000Y3767000D01*
X299974000Y3556000D02*
X302557000Y3556000D01*
X352595000Y3556000D02*
X352806000Y3767000D01*
X350012000Y3556000D02*
X352595000Y3556000D01*
D17*
X305894000Y-1700000D02*
X347612000Y-1700000D01*
X304744000Y-2850000D02*
X305894000Y-1700000D01*
X298724000Y-2850000D02*
X304744000Y-2850000D01*
X297574000Y-1700000D02*
X298724000Y-2850000D01*
X205818000Y-1700000D02*
X247536000Y-1700000D01*
X204667999Y-2850001D02*
X205818000Y-1700000D01*
X198648001Y-2850001D02*
X204667999Y-2850001D01*
X197498000Y-1700000D02*
X198648001Y-2850001D01*
X154883999Y-2850001D02*
X148864001Y-2850001D01*
X156034000Y-1700000D02*
X154883999Y-2850001D01*
X148864001Y-2850001D02*
X147714000Y-1700000D01*
D16*
X153267500Y3175000D02*
X152908000Y3534500D01*
X154305000Y3175000D02*
X153267500Y3175000D01*
D17*
X165559000Y-1700000D02*
X156034000Y-1700000D01*
D16*
X166116000Y-2257000D02*
X166116000Y-2794000D01*
X166116000Y-1778000D02*
X166038000Y-1700000D01*
X166116000Y-2257000D02*
X166116000Y-1778000D01*
D17*
X166038000Y-1700000D02*
X165559000Y-1700000D01*
X167718000Y-1700000D02*
X166038000Y-1700000D01*
X97725000Y-1651000D02*
X97676000Y-1700000D01*
X99568000Y-1651000D02*
X97725000Y-1651000D01*
D16*
X147982500Y-1968500D02*
X147714000Y-1700000D01*
X149917685Y-1968500D02*
X147982500Y-1968500D01*
X150304500Y-1581685D02*
X149917685Y-1968500D01*
X150304500Y3365500D02*
X150304500Y-1581685D01*
X150114000Y3556000D02*
X150304500Y3365500D01*
D17*
X105996000Y-1700000D02*
X147714000Y-1700000D01*
X100955987Y-2809989D02*
X100995999Y-2850001D01*
X100995999Y-2850001D02*
X103956001Y-2850001D01*
X103956001Y-2850001D02*
X103996013Y-2809989D01*
X104886011Y-2809989D02*
X105996000Y-1700000D01*
X97676000Y-1700000D02*
X98785989Y-2809989D01*
X103996013Y-2809989D02*
X104886011Y-2809989D01*
X98785989Y-2809989D02*
X100955987Y-2809989D01*
X99568000Y2286000D02*
X99568000Y-1651000D01*
X98361500Y3492500D02*
X99568000Y2286000D01*
X96266000Y3492500D02*
X98361500Y3492500D01*
D16*
X100076000Y3556000D02*
X98361500Y3556000D01*
%TO.N,Net-(D1-Pad2)*%
X-4699000Y830500D02*
X-3868500Y0D01*
X-4699000Y6234798D02*
X-4699000Y830500D01*
X4687202Y15621000D02*
X-4699000Y6234798D01*
X-3868500Y0D02*
X-2400000Y0D01*
X100012500Y15621000D02*
X4687202Y15621000D01*
X101346000Y14287500D02*
X100012500Y15621000D01*
%TO.N,Net-(D1-Pad1)*%
X102108000Y12509500D02*
X103886000Y14287500D01*
X2424244Y12509500D02*
X102108000Y12509500D01*
X-4098989Y1998989D02*
X-4098989Y5986267D01*
X-4098989Y5986267D02*
X2424244Y12509500D01*
X-3800000Y1700000D02*
X-4098989Y1998989D01*
X-2400000Y1700000D02*
X-3800000Y1700000D01*
%TO.N,Net-(D2-Pad6)*%
X52438000Y1700000D02*
X97676000Y1700000D01*
%TO.N,Net-(D2-Pad5)*%
X52438000Y0D02*
X97676000Y0D01*
%TO.N,Net-(D3-Pad6)*%
X102476000Y1700000D02*
X147714000Y1700000D01*
%TO.N,Net-(D3-Pad5)*%
X102476000Y0D02*
X147714000Y0D01*
%TO.N,Net-(D4-Pad6)*%
X152514000Y1700000D02*
X197498000Y1700000D01*
%TO.N,Net-(D4-Pad5)*%
X152514000Y0D02*
X197498000Y0D01*
%TO.N,Net-(D5-Pad6)*%
X202298000Y1700000D02*
X247536000Y1700000D01*
%TO.N,Net-(D5-Pad5)*%
X202298000Y0D02*
X247536000Y0D01*
%TO.N,Net-(D6-Pad6)*%
X252336000Y1700000D02*
X297574000Y1700000D01*
%TO.N,Net-(D6-Pad5)*%
X252336000Y0D02*
X297574000Y0D01*
%TO.N,Net-(D7-Pad6)*%
X302374000Y1700000D02*
X347612000Y1700000D01*
%TO.N,Net-(D7-Pad5)*%
X302374000Y0D02*
X347612000Y0D01*
%TO.N,Net-(D8-Pad6)*%
X353812000Y1700000D02*
X352412000Y1700000D01*
X354838000Y674000D02*
X353812000Y1700000D01*
X351663000Y-6096000D02*
X354838000Y-2921000D01*
X106119929Y-6096000D02*
X351663000Y-6096000D01*
X103886000Y-8329929D02*
X106119929Y-6096000D01*
X354838000Y-2921000D02*
X354838000Y674000D01*
X103886000Y-14478000D02*
X103886000Y-8329929D01*
%TO.N,Net-(D8-Pad5)*%
X353812000Y0D02*
X352412000Y0D01*
X354203000Y-391000D02*
X353812000Y0D01*
X354203000Y-2667000D02*
X354203000Y-391000D01*
X351536000Y-5334000D02*
X354203000Y-2667000D01*
X106033386Y-5334000D02*
X351536000Y-5334000D01*
X101346000Y-10021386D02*
X106033386Y-5334000D01*
X101346000Y-14478000D02*
X101346000Y-10021386D01*
%TO.N,+3V3*%
X152579000Y5556000D02*
X152908000Y5885000D01*
X151064000Y5556000D02*
X152579000Y5556000D01*
X199864000Y4572000D02*
X200848000Y5556000D01*
X199136000Y4572000D02*
X199864000Y4572000D01*
X198374000Y3810000D02*
X199136000Y4572000D01*
X197136000Y3810000D02*
X198374000Y3810000D01*
X197104000Y3842000D02*
X197136000Y3810000D01*
X352520000Y5556000D02*
X352806000Y5842000D01*
X350962000Y5556000D02*
X352520000Y5556000D01*
X-2794000Y3572000D02*
X-2794000Y3842000D01*
X-1762000Y3572000D02*
X-2794000Y3572000D01*
X-762000Y4572000D02*
X-1762000Y3572000D01*
X0Y4572000D02*
X-762000Y4572000D01*
X950000Y5522000D02*
X0Y4572000D01*
X950000Y5556000D02*
X950000Y5522000D01*
X2465000Y5556000D02*
X950000Y5556000D01*
X7604000Y3572000D02*
X5620000Y5556000D01*
X48276000Y3572000D02*
X7604000Y3572000D01*
X49276000Y4572000D02*
X48276000Y3572000D01*
X5620000Y5556000D02*
X2465000Y5556000D01*
X50004000Y4572000D02*
X49276000Y4572000D01*
X50988000Y5556000D02*
X50004000Y4572000D01*
X102541000Y5556000D02*
X101026000Y5556000D01*
X105696000Y5556000D02*
X102541000Y5556000D01*
X107680000Y3572000D02*
X105696000Y5556000D01*
X148352000Y3572000D02*
X107680000Y3572000D01*
X149352000Y4572000D02*
X148352000Y3572000D01*
X150080000Y4572000D02*
X149352000Y4572000D01*
X151064000Y5556000D02*
X150080000Y4572000D01*
X153183500Y5609500D02*
X152908000Y5885000D01*
X155448000Y5609500D02*
X155448000Y5609500D01*
X157215500Y3842000D02*
X155448000Y5609500D01*
X197104000Y3842000D02*
X157215500Y3842000D01*
X205401750Y5556000D02*
X202363000Y5556000D01*
X207385750Y3572000D02*
X205401750Y5556000D01*
X248174000Y3572000D02*
X207385750Y3572000D01*
X202363000Y5556000D02*
X200848000Y5556000D01*
X249174000Y4572000D02*
X248174000Y3572000D01*
X249902000Y4572000D02*
X249174000Y4572000D01*
X250886000Y5556000D02*
X249902000Y4572000D01*
X305340000Y5556000D02*
X302482000Y5556000D01*
X307324000Y3572000D02*
X305340000Y5556000D01*
X302482000Y5556000D02*
X300924000Y5556000D01*
X348250000Y3572000D02*
X307324000Y3572000D01*
X349250000Y4572000D02*
X348250000Y3572000D01*
X349978000Y4572000D02*
X349250000Y4572000D01*
X350962000Y5556000D02*
X349978000Y4572000D01*
X155448000Y5609500D02*
X153183500Y5609500D01*
X148352000Y3572000D02*
X149313990Y2610010D01*
X149313990Y-323315D02*
X149313990Y-889000D01*
X149313990Y2610010D02*
X149313990Y-323315D01*
X255302000Y5556000D02*
X252401000Y5556000D01*
X298212000Y3572000D02*
X257286000Y3572000D01*
X299212000Y4572000D02*
X298212000Y3572000D01*
X252401000Y5556000D02*
X250886000Y5556000D01*
X257286000Y3572000D02*
X255302000Y5556000D01*
X299940000Y4572000D02*
X299212000Y4572000D01*
X300924000Y5556000D02*
X299940000Y4572000D01*
X52503000Y5556000D02*
X50988000Y5556000D01*
X55425500Y5556000D02*
X52503000Y5556000D01*
X56409500Y4572000D02*
X55425500Y5556000D01*
X100042000Y4572000D02*
X56409500Y4572000D01*
X101026000Y5556000D02*
X100042000Y4572000D01*
X102870000Y7493000D02*
X102870000Y5609500D01*
%TO.N,Net-(IC1-Pad3)*%
X198948000Y5556000D02*
X195612022Y5556000D01*
X195612022Y5556000D02*
X195580022Y5588000D01*
%TO.N,Net-(IC2-Pad3)*%
X248986000Y5556000D02*
X245634022Y5556000D01*
X245634022Y5556000D02*
X245618000Y5572022D01*
%TO.N,Net-(IC3-Pad3)*%
X299024000Y5556000D02*
X295560990Y5556000D01*
X295560990Y5556000D02*
X295528990Y5588000D01*
%TO.N,Net-(IC4-Pad3)*%
X345599004Y5556000D02*
X345567000Y5588004D01*
X349062000Y5556000D02*
X345599004Y5556000D01*
%TO.N,Net-(IC5-Pad14)*%
X147574000Y5556000D02*
X147320000Y5810000D01*
X149164000Y5556000D02*
X147574000Y5556000D01*
X149164000Y5556000D02*
X149164000Y6604000D01*
X149164000Y6604000D02*
X149164000Y6731000D01*
X149164000Y6731000D02*
X149164000Y6731000D01*
%TO.N,Net-(IC5-Pad13)*%
X99126000Y5556000D02*
X99126000Y6350000D01*
X99126000Y6350000D02*
X99126000Y6477000D01*
X99126000Y6350000D02*
X99126000Y6604000D01*
X99126000Y6604000D02*
X99126000Y6731000D01*
X99126000Y6731000D02*
X99126000Y6731000D01*
X99888000Y7493000D02*
X99126000Y6731000D01*
X100870000Y7493000D02*
X99888000Y7493000D01*
%TO.N,Net-(IC5-Pad12)*%
X47530000Y5556000D02*
X47244000Y5842000D01*
X49088000Y5556000D02*
X47530000Y5556000D01*
X49088000Y5556000D02*
X49088000Y6477000D01*
X49088000Y6477000D02*
X49088000Y6604000D01*
X49088000Y6477000D02*
X49088000Y6731000D01*
X49088000Y6731000D02*
X49088000Y6731000D01*
%TO.N,Net-(IC5-Pad11)*%
X-2508000Y5556000D02*
X-2794000Y5842000D01*
X-950000Y5556000D02*
X-2508000Y5556000D01*
X-950000Y6604000D02*
X-950000Y6604000D01*
X-950000Y5556000D02*
X-950000Y6857968D01*
%TD*%
M02*
