%TF.GenerationSoftware,KiCad,Pcbnew,(5.1.9)-1*%
%TF.CreationDate,2021-04-24T17:32:51+02:00*%
%TF.ProjectId,Schaakbord_Bord,53636861-616b-4626-9f72-645f426f7264,rev?*%
%TF.SameCoordinates,Original*%
%TF.FileFunction,Soldermask,Bot*%
%TF.FilePolarity,Negative*%
%FSLAX46Y46*%
G04 Gerber Fmt 4.6, Leading zero omitted, Abs format (unit mm)*
G04 Created by KiCad (PCBNEW (5.1.9)-1) date 2021-04-24 17:32:51*
%MOMM*%
%LPD*%
G01*
G04 APERTURE LIST*
%ADD10R,1.700000X1.700000*%
%ADD11O,1.700000X1.700000*%
%ADD12C,0.100000*%
%ADD13R,1.525000X0.650000*%
G04 APERTURE END LIST*
D10*
%TO.C,J4*%
X145288000Y-14478000D03*
D11*
X147828000Y-14478000D03*
X150368000Y-14478000D03*
X152908000Y-14478000D03*
X155448000Y-14478000D03*
%TD*%
%TO.C,J3*%
X155448000Y14351000D03*
X152908000Y14351000D03*
X150368000Y14351000D03*
X147828000Y14351000D03*
D10*
X145288000Y14351000D03*
%TD*%
D11*
%TO.C,J2*%
X103822500Y-14541500D03*
X101282500Y-14541500D03*
X98742500Y-14541500D03*
D10*
X96202500Y-14541500D03*
%TD*%
D11*
%TO.C,J1*%
X103886000Y14351000D03*
X101346000Y14351000D03*
X98806000Y14351000D03*
D10*
X96266000Y14351000D03*
%TD*%
D12*
%TO.C,JP1*%
G36*
X141795500Y14774500D02*
G01*
X141045500Y15274500D01*
X141045500Y16274500D01*
X142545500Y16274500D01*
X142545500Y15274500D01*
X141795500Y14774500D01*
G37*
G36*
X141045500Y13824500D02*
G01*
X141045500Y14974500D01*
X141795500Y14474500D01*
X142545500Y14974500D01*
X142545500Y13824500D01*
X141045500Y13824500D01*
G37*
%TD*%
D13*
%TO.C,IC5*%
X159213000Y4445000D03*
X159213000Y3175000D03*
X159213000Y1905000D03*
X159213000Y635000D03*
X159213000Y-635000D03*
X159213000Y-1905000D03*
X159213000Y-3175000D03*
X159213000Y-4445000D03*
X164637000Y-4445000D03*
X164637000Y-3175000D03*
X164637000Y-1905000D03*
X164637000Y-635000D03*
X164637000Y635000D03*
X164637000Y1905000D03*
X164637000Y3175000D03*
X164637000Y4445000D03*
%TD*%
%TO.C,C5*%
G36*
G01*
X157447000Y4662500D02*
X156497000Y4662500D01*
G75*
G02*
X156247000Y4912500I0J250000D01*
G01*
X156247000Y5587500D01*
G75*
G02*
X156497000Y5837500I250000J0D01*
G01*
X157447000Y5837500D01*
G75*
G02*
X157697000Y5587500I0J-250000D01*
G01*
X157697000Y4912500D01*
G75*
G02*
X157447000Y4662500I-250000J0D01*
G01*
G37*
G36*
G01*
X157447000Y2587500D02*
X156497000Y2587500D01*
G75*
G02*
X156247000Y2837500I0J250000D01*
G01*
X156247000Y3512500D01*
G75*
G02*
X156497000Y3762500I250000J0D01*
G01*
X157447000Y3762500D01*
G75*
G02*
X157697000Y3512500I0J-250000D01*
G01*
X157697000Y2837500D01*
G75*
G02*
X157447000Y2587500I-250000J0D01*
G01*
G37*
%TD*%
M02*
