M48
; DRILL file {KiCad (5.1.9)-1} date 04/24/21 17:33:03
; FORMAT={-:-/ absolute / inch / decimal}
; #@! TF.CreationDate,2021-04-24T17:33:03+02:00
; #@! TF.GenerationSoftware,Kicad,Pcbnew,(5.1.9)-1
FMAT,2
INCH
T1C0.0236
T2C0.0315
T3C0.0394
%
G90
G05
T1
X-0.0374Y0.27
X1.9326Y0.265
X3.9026Y0.265
X5.8726Y0.265
X5.8785Y-0.035
X5.88Y-0.0775
X6.085Y0.125
X6.12Y0.2208
X6.54Y-0.11
X7.7Y0.22
X9.67Y0.2194
X11.635Y0.22
X13.605Y0.22
T2
X0.1671Y-0.0669
X0.25Y-0.15
X2.1371Y-0.0669
X2.23Y-0.16
X3.79Y0.1375
X3.92Y-0.065
X3.965Y0.07
X4.1071Y-0.0669
X4.2Y-0.16
X6.0771Y-0.0669
X6.17Y-0.16
X8.0371Y-0.0669
X8.125Y-0.16
X10.0071Y-0.0669
X10.1Y-0.16
X11.9771Y-0.0669
X12.07Y-0.16
T3
X3.7875Y-0.5725
X3.79Y0.565
X3.8875Y-0.5725
X3.89Y0.565
X3.9875Y-0.5725
X3.99Y0.565
X4.0875Y-0.5725
X4.09Y0.565
X5.72Y0.565
X5.72Y-0.57
X5.82Y0.565
X5.82Y-0.57
X5.92Y0.565
X5.92Y-0.57
X6.02Y0.565
X6.02Y-0.57
X6.12Y0.565
X6.12Y-0.57
T0
M30
