%TF.GenerationSoftware,KiCad,Pcbnew,(5.1.9)-1*%
%TF.CreationDate,2021-02-24T14:45:34+01:00*%
%TF.ProjectId,Schaakbord_Testprint,53636861-616b-4626-9f72-645f54657374,rev?*%
%TF.SameCoordinates,Original*%
%TF.FileFunction,Legend,Top*%
%TF.FilePolarity,Positive*%
%FSLAX46Y46*%
G04 Gerber Fmt 4.6, Leading zero omitted, Abs format (unit mm)*
G04 Created by KiCad (PCBNEW (5.1.9)-1) date 2021-02-24 14:45:34*
%MOMM*%
%LPD*%
G01*
G04 APERTURE LIST*
%ADD10C,0.120000*%
%ADD11C,0.200000*%
%ADD12C,0.150000*%
%ADD13C,0.254000*%
G04 APERTURE END LIST*
D10*
%TO.C,J1*%
X156270000Y-54550000D02*
X153610000Y-54550000D01*
X156270000Y-97790000D02*
X156270000Y-54550000D01*
X153610000Y-97790000D02*
X153610000Y-54550000D01*
X156270000Y-97790000D02*
X153610000Y-97790000D01*
X156270000Y-99060000D02*
X156270000Y-100390000D01*
X156270000Y-100390000D02*
X154940000Y-100390000D01*
%TO.C,J2*%
X176470000Y-100390000D02*
X179130000Y-100390000D01*
X176470000Y-57150000D02*
X176470000Y-100390000D01*
X179130000Y-57150000D02*
X179130000Y-100390000D01*
X176470000Y-57150000D02*
X179130000Y-57150000D01*
X176470000Y-55880000D02*
X176470000Y-54550000D01*
X176470000Y-54550000D02*
X177800000Y-54550000D01*
D11*
%TO.C,IC1*%
X160999000Y-71290000D02*
X162799000Y-71290000D01*
X163149000Y-86428000D02*
X163149000Y-71052000D01*
X170099000Y-86428000D02*
X163149000Y-86428000D01*
X170099000Y-71052000D02*
X170099000Y-86428000D01*
X163149000Y-71052000D02*
X170099000Y-71052000D01*
%TO.C,J1*%
D12*
X154606666Y-100842380D02*
X154606666Y-101556666D01*
X154559047Y-101699523D01*
X154463809Y-101794761D01*
X154320952Y-101842380D01*
X154225714Y-101842380D01*
X155606666Y-101842380D02*
X155035238Y-101842380D01*
X155320952Y-101842380D02*
X155320952Y-100842380D01*
X155225714Y-100985238D01*
X155130476Y-101080476D01*
X155035238Y-101128095D01*
%TO.C,J2*%
X177466666Y-53002380D02*
X177466666Y-53716666D01*
X177419047Y-53859523D01*
X177323809Y-53954761D01*
X177180952Y-54002380D01*
X177085714Y-54002380D01*
X177895238Y-53097619D02*
X177942857Y-53050000D01*
X178038095Y-53002380D01*
X178276190Y-53002380D01*
X178371428Y-53050000D01*
X178419047Y-53097619D01*
X178466666Y-53192857D01*
X178466666Y-53288095D01*
X178419047Y-53430952D01*
X177847619Y-54002380D01*
X178466666Y-54002380D01*
%TO.C,IC1*%
D13*
X165384238Y-79314523D02*
X165384238Y-78044523D01*
X166714714Y-79193571D02*
X166654238Y-79254047D01*
X166472809Y-79314523D01*
X166351857Y-79314523D01*
X166170428Y-79254047D01*
X166049476Y-79133095D01*
X165989000Y-79012142D01*
X165928523Y-78770238D01*
X165928523Y-78588809D01*
X165989000Y-78346904D01*
X166049476Y-78225952D01*
X166170428Y-78105000D01*
X166351857Y-78044523D01*
X166472809Y-78044523D01*
X166654238Y-78105000D01*
X166714714Y-78165476D01*
X167924238Y-79314523D02*
X167198523Y-79314523D01*
X167561380Y-79314523D02*
X167561380Y-78044523D01*
X167440428Y-78225952D01*
X167319476Y-78346904D01*
X167198523Y-78407380D01*
%TD*%
M02*
