M48
; DRILL file {KiCad (5.1.9)-1} date 02/24/21 14:45:31
; FORMAT={-:-/ absolute / inch / decimal}
; #@! TF.CreationDate,2021-02-24T14:45:31+01:00
; #@! TF.GenerationSoftware,Kicad,Pcbnew,(5.1.9)-1
; #@! TF.FileFunction,Plated,1,2,PTH
FMAT,2
INCH
T1C0.0394
%
G90
G05
T1
X6.1Y-2.2
X6.1Y-2.3
X6.1Y-2.4
X6.1Y-2.5
X6.1Y-2.6
X6.1Y-2.7
X6.1Y-2.8
X6.1Y-2.9
X6.1Y-3.0
X6.1Y-3.1
X6.1Y-3.2
X6.1Y-3.3
X6.1Y-3.4
X6.1Y-3.5
X6.1Y-3.6
X6.1Y-3.7
X6.1Y-3.8
X6.1Y-3.9
X7.0Y-2.2
X7.0Y-2.3
X7.0Y-2.4
X7.0Y-2.5
X7.0Y-2.6
X7.0Y-2.7
X7.0Y-2.8
X7.0Y-2.9
X7.0Y-3.0
X7.0Y-3.1
X7.0Y-3.2
X7.0Y-3.3
X7.0Y-3.4
X7.0Y-3.5
X7.0Y-3.6
X7.0Y-3.7
X7.0Y-3.8
X7.0Y-3.9
T0
M30
