%TF.GenerationSoftware,KiCad,Pcbnew,(5.1.9)-1*%
%TF.CreationDate,2021-04-25T23:04:25+02:00*%
%TF.ProjectId,Schaakbord_Bord,53636861-616b-4626-9f72-645f426f7264,rev?*%
%TF.SameCoordinates,Original*%
%TF.FileFunction,Soldermask,Top*%
%TF.FilePolarity,Negative*%
%FSLAX46Y46*%
G04 Gerber Fmt 4.6, Leading zero omitted, Abs format (unit mm)*
G04 Created by KiCad (PCBNEW (5.1.9)-1) date 2021-04-25 23:04:25*
%MOMM*%
%LPD*%
G01*
G04 APERTURE LIST*
%ADD10R,1.700000X1.700000*%
%ADD11O,1.700000X1.700000*%
%ADD12R,0.800000X0.900000*%
%ADD13R,2.000000X1.100000*%
G04 APERTURE END LIST*
D10*
%TO.C,J3*%
X144957800Y14351000D03*
D11*
X147497800Y14351000D03*
X150037800Y14351000D03*
X152577800Y14351000D03*
X155117800Y14351000D03*
%TD*%
%TO.C,J4*%
X155117800Y-14528800D03*
X152577800Y-14528800D03*
X150037800Y-14528800D03*
X147497800Y-14528800D03*
D10*
X144957800Y-14528800D03*
%TD*%
D11*
%TO.C,J2*%
X96266000Y-14541500D03*
X98806000Y-14541500D03*
X101346000Y-14541500D03*
D10*
X103886000Y-14541500D03*
%TD*%
D11*
%TO.C,J1*%
X96266000Y14351000D03*
X98806000Y14351000D03*
X101346000Y14351000D03*
D10*
X103886000Y14351000D03*
%TD*%
%TO.C,R4*%
G36*
G01*
X347668001Y4972000D02*
X346767999Y4972000D01*
G75*
G02*
X346518000Y5221999I0J249999D01*
G01*
X346518000Y5922001D01*
G75*
G02*
X346767999Y6172000I249999J0D01*
G01*
X347668001Y6172000D01*
G75*
G02*
X347918000Y5922001I0J-249999D01*
G01*
X347918000Y5221999D01*
G75*
G02*
X347668001Y4972000I-249999J0D01*
G01*
G37*
G36*
G01*
X347668001Y2972000D02*
X346767999Y2972000D01*
G75*
G02*
X346518000Y3221999I0J249999D01*
G01*
X346518000Y3922001D01*
G75*
G02*
X346767999Y4172000I249999J0D01*
G01*
X347668001Y4172000D01*
G75*
G02*
X347918000Y3922001I0J-249999D01*
G01*
X347918000Y3221999D01*
G75*
G02*
X347668001Y2972000I-249999J0D01*
G01*
G37*
%TD*%
%TO.C,R3*%
G36*
G01*
X297630001Y4972000D02*
X296729999Y4972000D01*
G75*
G02*
X296480000Y5221999I0J249999D01*
G01*
X296480000Y5922001D01*
G75*
G02*
X296729999Y6172000I249999J0D01*
G01*
X297630001Y6172000D01*
G75*
G02*
X297880000Y5922001I0J-249999D01*
G01*
X297880000Y5221999D01*
G75*
G02*
X297630001Y4972000I-249999J0D01*
G01*
G37*
G36*
G01*
X297630001Y2972000D02*
X296729999Y2972000D01*
G75*
G02*
X296480000Y3221999I0J249999D01*
G01*
X296480000Y3922001D01*
G75*
G02*
X296729999Y4172000I249999J0D01*
G01*
X297630001Y4172000D01*
G75*
G02*
X297880000Y3922001I0J-249999D01*
G01*
X297880000Y3221999D01*
G75*
G02*
X297630001Y2972000I-249999J0D01*
G01*
G37*
%TD*%
%TO.C,R2*%
G36*
G01*
X247592001Y4972000D02*
X246691999Y4972000D01*
G75*
G02*
X246442000Y5221999I0J249999D01*
G01*
X246442000Y5922001D01*
G75*
G02*
X246691999Y6172000I249999J0D01*
G01*
X247592001Y6172000D01*
G75*
G02*
X247842000Y5922001I0J-249999D01*
G01*
X247842000Y5221999D01*
G75*
G02*
X247592001Y4972000I-249999J0D01*
G01*
G37*
G36*
G01*
X247592001Y2972000D02*
X246691999Y2972000D01*
G75*
G02*
X246442000Y3221999I0J249999D01*
G01*
X246442000Y3922001D01*
G75*
G02*
X246691999Y4172000I249999J0D01*
G01*
X247592001Y4172000D01*
G75*
G02*
X247842000Y3922001I0J-249999D01*
G01*
X247842000Y3221999D01*
G75*
G02*
X247592001Y2972000I-249999J0D01*
G01*
G37*
%TD*%
%TO.C,R1*%
G36*
G01*
X197554001Y4956000D02*
X196653999Y4956000D01*
G75*
G02*
X196404000Y5205999I0J249999D01*
G01*
X196404000Y5906001D01*
G75*
G02*
X196653999Y6156000I249999J0D01*
G01*
X197554001Y6156000D01*
G75*
G02*
X197804000Y5906001I0J-249999D01*
G01*
X197804000Y5205999D01*
G75*
G02*
X197554001Y4956000I-249999J0D01*
G01*
G37*
G36*
G01*
X197554001Y2956000D02*
X196653999Y2956000D01*
G75*
G02*
X196404000Y3205999I0J249999D01*
G01*
X196404000Y3906001D01*
G75*
G02*
X196653999Y4156000I249999J0D01*
G01*
X197554001Y4156000D01*
G75*
G02*
X197804000Y3906001I0J-249999D01*
G01*
X197804000Y3205999D01*
G75*
G02*
X197554001Y2956000I-249999J0D01*
G01*
G37*
%TD*%
%TO.C,R5*%
G36*
G01*
X147770001Y4972000D02*
X146869999Y4972000D01*
G75*
G02*
X146620000Y5221999I0J249999D01*
G01*
X146620000Y5922001D01*
G75*
G02*
X146869999Y6172000I249999J0D01*
G01*
X147770001Y6172000D01*
G75*
G02*
X148020000Y5922001I0J-249999D01*
G01*
X148020000Y5221999D01*
G75*
G02*
X147770001Y4972000I-249999J0D01*
G01*
G37*
G36*
G01*
X147770001Y2972000D02*
X146869999Y2972000D01*
G75*
G02*
X146620000Y3221999I0J249999D01*
G01*
X146620000Y3922001D01*
G75*
G02*
X146869999Y4172000I249999J0D01*
G01*
X147770001Y4172000D01*
G75*
G02*
X148020000Y3922001I0J-249999D01*
G01*
X148020000Y3221999D01*
G75*
G02*
X147770001Y2972000I-249999J0D01*
G01*
G37*
%TD*%
%TO.C,R6*%
G36*
G01*
X101470000Y7943001D02*
X101470000Y7042999D01*
G75*
G02*
X101220001Y6793000I-249999J0D01*
G01*
X100519999Y6793000D01*
G75*
G02*
X100270000Y7042999I0J249999D01*
G01*
X100270000Y7943001D01*
G75*
G02*
X100519999Y8193000I249999J0D01*
G01*
X101220001Y8193000D01*
G75*
G02*
X101470000Y7943001I0J-249999D01*
G01*
G37*
G36*
G01*
X103470000Y7943001D02*
X103470000Y7042999D01*
G75*
G02*
X103220001Y6793000I-249999J0D01*
G01*
X102519999Y6793000D01*
G75*
G02*
X102270000Y7042999I0J249999D01*
G01*
X102270000Y7943001D01*
G75*
G02*
X102519999Y8193000I249999J0D01*
G01*
X103220001Y8193000D01*
G75*
G02*
X103470000Y7943001I0J-249999D01*
G01*
G37*
%TD*%
%TO.C,R7*%
G36*
G01*
X47694001Y4972000D02*
X46793999Y4972000D01*
G75*
G02*
X46544000Y5221999I0J249999D01*
G01*
X46544000Y5922001D01*
G75*
G02*
X46793999Y6172000I249999J0D01*
G01*
X47694001Y6172000D01*
G75*
G02*
X47944000Y5922001I0J-249999D01*
G01*
X47944000Y5221999D01*
G75*
G02*
X47694001Y4972000I-249999J0D01*
G01*
G37*
G36*
G01*
X47694001Y2972000D02*
X46793999Y2972000D01*
G75*
G02*
X46544000Y3221999I0J249999D01*
G01*
X46544000Y3922001D01*
G75*
G02*
X46793999Y4172000I249999J0D01*
G01*
X47694001Y4172000D01*
G75*
G02*
X47944000Y3922001I0J-249999D01*
G01*
X47944000Y3221999D01*
G75*
G02*
X47694001Y2972000I-249999J0D01*
G01*
G37*
%TD*%
%TO.C,R8*%
G36*
G01*
X-2343999Y4972000D02*
X-3244001Y4972000D01*
G75*
G02*
X-3494000Y5221999I0J249999D01*
G01*
X-3494000Y5922001D01*
G75*
G02*
X-3244001Y6172000I249999J0D01*
G01*
X-2343999Y6172000D01*
G75*
G02*
X-2094000Y5922001I0J-249999D01*
G01*
X-2094000Y5221999D01*
G75*
G02*
X-2343999Y4972000I-249999J0D01*
G01*
G37*
G36*
G01*
X-2343999Y2972000D02*
X-3244001Y2972000D01*
G75*
G02*
X-3494000Y3221999I0J249999D01*
G01*
X-3494000Y3922001D01*
G75*
G02*
X-3244001Y4172000I249999J0D01*
G01*
X-2343999Y4172000D01*
G75*
G02*
X-2094000Y3922001I0J-249999D01*
G01*
X-2094000Y3221999D01*
G75*
G02*
X-2343999Y2972000I-249999J0D01*
G01*
G37*
%TD*%
%TO.C,C4*%
G36*
G01*
X353281000Y5022000D02*
X352331000Y5022000D01*
G75*
G02*
X352081000Y5272000I0J250000D01*
G01*
X352081000Y5947000D01*
G75*
G02*
X352331000Y6197000I250000J0D01*
G01*
X353281000Y6197000D01*
G75*
G02*
X353531000Y5947000I0J-250000D01*
G01*
X353531000Y5272000D01*
G75*
G02*
X353281000Y5022000I-250000J0D01*
G01*
G37*
G36*
G01*
X353281000Y2947000D02*
X352331000Y2947000D01*
G75*
G02*
X352081000Y3197000I0J250000D01*
G01*
X352081000Y3872000D01*
G75*
G02*
X352331000Y4122000I250000J0D01*
G01*
X353281000Y4122000D01*
G75*
G02*
X353531000Y3872000I0J-250000D01*
G01*
X353531000Y3197000D01*
G75*
G02*
X353281000Y2947000I-250000J0D01*
G01*
G37*
%TD*%
%TO.C,C3*%
G36*
G01*
X303243000Y5022000D02*
X302293000Y5022000D01*
G75*
G02*
X302043000Y5272000I0J250000D01*
G01*
X302043000Y5947000D01*
G75*
G02*
X302293000Y6197000I250000J0D01*
G01*
X303243000Y6197000D01*
G75*
G02*
X303493000Y5947000I0J-250000D01*
G01*
X303493000Y5272000D01*
G75*
G02*
X303243000Y5022000I-250000J0D01*
G01*
G37*
G36*
G01*
X303243000Y2947000D02*
X302293000Y2947000D01*
G75*
G02*
X302043000Y3197000I0J250000D01*
G01*
X302043000Y3872000D01*
G75*
G02*
X302293000Y4122000I250000J0D01*
G01*
X303243000Y4122000D01*
G75*
G02*
X303493000Y3872000I0J-250000D01*
G01*
X303493000Y3197000D01*
G75*
G02*
X303243000Y2947000I-250000J0D01*
G01*
G37*
%TD*%
%TO.C,C2*%
G36*
G01*
X253205000Y5043500D02*
X252255000Y5043500D01*
G75*
G02*
X252005000Y5293500I0J250000D01*
G01*
X252005000Y5968500D01*
G75*
G02*
X252255000Y6218500I250000J0D01*
G01*
X253205000Y6218500D01*
G75*
G02*
X253455000Y5968500I0J-250000D01*
G01*
X253455000Y5293500D01*
G75*
G02*
X253205000Y5043500I-250000J0D01*
G01*
G37*
G36*
G01*
X253205000Y2968500D02*
X252255000Y2968500D01*
G75*
G02*
X252005000Y3218500I0J250000D01*
G01*
X252005000Y3893500D01*
G75*
G02*
X252255000Y4143500I250000J0D01*
G01*
X253205000Y4143500D01*
G75*
G02*
X253455000Y3893500I0J-250000D01*
G01*
X253455000Y3218500D01*
G75*
G02*
X253205000Y2968500I-250000J0D01*
G01*
G37*
%TD*%
%TO.C,C1*%
G36*
G01*
X203167000Y5022000D02*
X202217000Y5022000D01*
G75*
G02*
X201967000Y5272000I0J250000D01*
G01*
X201967000Y5947000D01*
G75*
G02*
X202217000Y6197000I250000J0D01*
G01*
X203167000Y6197000D01*
G75*
G02*
X203417000Y5947000I0J-250000D01*
G01*
X203417000Y5272000D01*
G75*
G02*
X203167000Y5022000I-250000J0D01*
G01*
G37*
G36*
G01*
X203167000Y2947000D02*
X202217000Y2947000D01*
G75*
G02*
X201967000Y3197000I0J250000D01*
G01*
X201967000Y3872000D01*
G75*
G02*
X202217000Y4122000I250000J0D01*
G01*
X203167000Y4122000D01*
G75*
G02*
X203417000Y3872000I0J-250000D01*
G01*
X203417000Y3197000D01*
G75*
G02*
X203167000Y2947000I-250000J0D01*
G01*
G37*
%TD*%
%TO.C,C6*%
G36*
G01*
X152433000Y4122000D02*
X153383000Y4122000D01*
G75*
G02*
X153633000Y3872000I0J-250000D01*
G01*
X153633000Y3197000D01*
G75*
G02*
X153383000Y2947000I-250000J0D01*
G01*
X152433000Y2947000D01*
G75*
G02*
X152183000Y3197000I0J250000D01*
G01*
X152183000Y3872000D01*
G75*
G02*
X152433000Y4122000I250000J0D01*
G01*
G37*
G36*
G01*
X152433000Y6197000D02*
X153383000Y6197000D01*
G75*
G02*
X153633000Y5947000I0J-250000D01*
G01*
X153633000Y5272000D01*
G75*
G02*
X153383000Y5022000I-250000J0D01*
G01*
X152433000Y5022000D01*
G75*
G02*
X152183000Y5272000I0J250000D01*
G01*
X152183000Y5947000D01*
G75*
G02*
X152433000Y6197000I250000J0D01*
G01*
G37*
%TD*%
%TO.C,C7*%
G36*
G01*
X102395000Y4122000D02*
X103345000Y4122000D01*
G75*
G02*
X103595000Y3872000I0J-250000D01*
G01*
X103595000Y3197000D01*
G75*
G02*
X103345000Y2947000I-250000J0D01*
G01*
X102395000Y2947000D01*
G75*
G02*
X102145000Y3197000I0J250000D01*
G01*
X102145000Y3872000D01*
G75*
G02*
X102395000Y4122000I250000J0D01*
G01*
G37*
G36*
G01*
X102395000Y6197000D02*
X103345000Y6197000D01*
G75*
G02*
X103595000Y5947000I0J-250000D01*
G01*
X103595000Y5272000D01*
G75*
G02*
X103345000Y5022000I-250000J0D01*
G01*
X102395000Y5022000D01*
G75*
G02*
X102145000Y5272000I0J250000D01*
G01*
X102145000Y5947000D01*
G75*
G02*
X102395000Y6197000I250000J0D01*
G01*
G37*
%TD*%
%TO.C,C8*%
G36*
G01*
X52357000Y4122000D02*
X53307000Y4122000D01*
G75*
G02*
X53557000Y3872000I0J-250000D01*
G01*
X53557000Y3197000D01*
G75*
G02*
X53307000Y2947000I-250000J0D01*
G01*
X52357000Y2947000D01*
G75*
G02*
X52107000Y3197000I0J250000D01*
G01*
X52107000Y3872000D01*
G75*
G02*
X52357000Y4122000I250000J0D01*
G01*
G37*
G36*
G01*
X52357000Y6197000D02*
X53307000Y6197000D01*
G75*
G02*
X53557000Y5947000I0J-250000D01*
G01*
X53557000Y5272000D01*
G75*
G02*
X53307000Y5022000I-250000J0D01*
G01*
X52357000Y5022000D01*
G75*
G02*
X52107000Y5272000I0J250000D01*
G01*
X52107000Y5947000D01*
G75*
G02*
X52357000Y6197000I250000J0D01*
G01*
G37*
%TD*%
%TO.C,C9*%
G36*
G01*
X2319000Y4122000D02*
X3269000Y4122000D01*
G75*
G02*
X3519000Y3872000I0J-250000D01*
G01*
X3519000Y3197000D01*
G75*
G02*
X3269000Y2947000I-250000J0D01*
G01*
X2319000Y2947000D01*
G75*
G02*
X2069000Y3197000I0J250000D01*
G01*
X2069000Y3872000D01*
G75*
G02*
X2319000Y4122000I250000J0D01*
G01*
G37*
G36*
G01*
X2319000Y6197000D02*
X3269000Y6197000D01*
G75*
G02*
X3519000Y5947000I0J-250000D01*
G01*
X3519000Y5272000D01*
G75*
G02*
X3269000Y5022000I-250000J0D01*
G01*
X2319000Y5022000D01*
G75*
G02*
X2069000Y5272000I0J250000D01*
G01*
X2069000Y5947000D01*
G75*
G02*
X2319000Y6197000I250000J0D01*
G01*
G37*
%TD*%
D12*
%TO.C,IC4*%
X350012000Y3556000D03*
X349062000Y5556000D03*
X350962000Y5556000D03*
%TD*%
%TO.C,IC3*%
X299974000Y3556000D03*
X299024000Y5556000D03*
X300924000Y5556000D03*
%TD*%
%TO.C,IC2*%
X249936000Y3556000D03*
X248986000Y5556000D03*
X250886000Y5556000D03*
%TD*%
%TO.C,IC6*%
X150114000Y3556000D03*
X149164000Y5556000D03*
X151064000Y5556000D03*
%TD*%
%TO.C,IC7*%
X100076000Y3556000D03*
X99126000Y5556000D03*
X101026000Y5556000D03*
%TD*%
%TO.C,IC8*%
X50038000Y3556000D03*
X49088000Y5556000D03*
X50988000Y5556000D03*
%TD*%
%TO.C,IC9*%
X0Y3556000D03*
X-950000Y5556000D03*
X950000Y5556000D03*
%TD*%
%TO.C,IC1*%
X199898000Y3556000D03*
X198948000Y5556000D03*
X200848000Y5556000D03*
%TD*%
D13*
%TO.C,D8*%
X352412000Y1700000D03*
X352412000Y0D03*
X352412000Y-1700000D03*
X347612000Y-1700000D03*
X347612000Y0D03*
X347612000Y1700000D03*
%TD*%
%TO.C,D7*%
X302374000Y1700000D03*
X302374000Y0D03*
X302374000Y-1700000D03*
X297574000Y-1700000D03*
X297574000Y0D03*
X297574000Y1700000D03*
%TD*%
%TO.C,D6*%
X252336000Y1700000D03*
X252336000Y0D03*
X252336000Y-1700000D03*
X247536000Y-1700000D03*
X247536000Y0D03*
X247536000Y1700000D03*
%TD*%
%TO.C,D5*%
X202298000Y1700000D03*
X202298000Y0D03*
X202298000Y-1700000D03*
X197498000Y-1700000D03*
X197498000Y0D03*
X197498000Y1700000D03*
%TD*%
%TO.C,D4*%
X152514000Y1700000D03*
X152514000Y0D03*
X152514000Y-1700000D03*
X147714000Y-1700000D03*
X147714000Y0D03*
X147714000Y1700000D03*
%TD*%
%TO.C,D3*%
X102476000Y1700000D03*
X102476000Y0D03*
X102476000Y-1700000D03*
X97676000Y-1700000D03*
X97676000Y0D03*
X97676000Y1700000D03*
%TD*%
%TO.C,D2*%
X52438000Y1700000D03*
X52438000Y0D03*
X52438000Y-1700000D03*
X47638000Y-1700000D03*
X47638000Y0D03*
X47638000Y1700000D03*
%TD*%
%TO.C,D1*%
X2400000Y1700000D03*
X2400000Y0D03*
X2400000Y-1700000D03*
X-2400000Y-1700000D03*
X-2400000Y0D03*
X-2400000Y1700000D03*
%TD*%
M02*
