%TF.GenerationSoftware,KiCad,Pcbnew,(5.1.9)-1*%
%TF.CreationDate,2021-04-25T23:04:25+02:00*%
%TF.ProjectId,Schaakbord_Bord,53636861-616b-4626-9f72-645f426f7264,rev?*%
%TF.SameCoordinates,Original*%
%TF.FileFunction,Copper,L1,Top*%
%TF.FilePolarity,Positive*%
%FSLAX46Y46*%
G04 Gerber Fmt 4.6, Leading zero omitted, Abs format (unit mm)*
G04 Created by KiCad (PCBNEW (5.1.9)-1) date 2021-04-25 23:04:25*
%MOMM*%
%LPD*%
G01*
G04 APERTURE LIST*
%TA.AperFunction,ComponentPad*%
%ADD10R,1.700000X1.700000*%
%TD*%
%TA.AperFunction,ComponentPad*%
%ADD11O,1.700000X1.700000*%
%TD*%
%TA.AperFunction,SMDPad,CuDef*%
%ADD12R,0.800000X0.900000*%
%TD*%
%TA.AperFunction,SMDPad,CuDef*%
%ADD13R,2.000000X1.100000*%
%TD*%
%TA.AperFunction,ViaPad*%
%ADD14C,1.000000*%
%TD*%
%TA.AperFunction,ViaPad*%
%ADD15C,0.800000*%
%TD*%
%TA.AperFunction,Conductor*%
%ADD16C,0.400000*%
%TD*%
%TA.AperFunction,Conductor*%
%ADD17C,0.800000*%
%TD*%
%TA.AperFunction,Conductor*%
%ADD18C,0.254000*%
%TD*%
%TA.AperFunction,Conductor*%
%ADD19C,0.100000*%
%TD*%
G04 APERTURE END LIST*
D10*
%TO.P,J3,5*%
%TO.N,GNDD*%
X144957800Y14351000D03*
D11*
%TO.P,J3,4*%
%TO.N,+3V3*%
X147497800Y14351000D03*
%TO.P,J3,3*%
%TO.N,SER*%
X150037800Y14351000D03*
%TO.P,J3,2*%
%TO.N,CLK*%
X152577800Y14351000D03*
%TO.P,J3,1*%
%TO.N,SH*%
X155117800Y14351000D03*
%TD*%
%TO.P,J4,1*%
%TO.N,SH*%
X155117800Y-14528800D03*
%TO.P,J4,2*%
%TO.N,CLK*%
X152577800Y-14528800D03*
%TO.P,J4,3*%
%TO.N,QH*%
X150037800Y-14528800D03*
%TO.P,J4,4*%
%TO.N,+3V3*%
X147497800Y-14528800D03*
D10*
%TO.P,J4,5*%
%TO.N,GNDD*%
X144957800Y-14528800D03*
%TD*%
D11*
%TO.P,J2,4*%
%TO.N,GNDD*%
X96266000Y-14541500D03*
%TO.P,J2,3*%
%TO.N,+5V*%
X98806000Y-14541500D03*
%TO.P,J2,2*%
%TO.N,Net-(D8-Pad5)*%
X101346000Y-14541500D03*
D10*
%TO.P,J2,1*%
%TO.N,Net-(D8-Pad6)*%
X103886000Y-14541500D03*
%TD*%
D11*
%TO.P,J1,4*%
%TO.N,GNDD*%
X96266000Y14351000D03*
%TO.P,J1,3*%
%TO.N,+5V*%
X98806000Y14351000D03*
%TO.P,J1,2*%
%TO.N,Net-(D1-Pad2)*%
X101346000Y14351000D03*
D10*
%TO.P,J1,1*%
%TO.N,Net-(D1-Pad1)*%
X103886000Y14351000D03*
%TD*%
%TO.P,R4,2*%
%TO.N,Net-(IC4-Pad3)*%
%TA.AperFunction,SMDPad,CuDef*%
G36*
G01*
X347668001Y4972000D02*
X346767999Y4972000D01*
G75*
G02*
X346518000Y5221999I0J249999D01*
G01*
X346518000Y5922001D01*
G75*
G02*
X346767999Y6172000I249999J0D01*
G01*
X347668001Y6172000D01*
G75*
G02*
X347918000Y5922001I0J-249999D01*
G01*
X347918000Y5221999D01*
G75*
G02*
X347668001Y4972000I-249999J0D01*
G01*
G37*
%TD.AperFunction*%
%TO.P,R4,1*%
%TO.N,+3V3*%
%TA.AperFunction,SMDPad,CuDef*%
G36*
G01*
X347668001Y2972000D02*
X346767999Y2972000D01*
G75*
G02*
X346518000Y3221999I0J249999D01*
G01*
X346518000Y3922001D01*
G75*
G02*
X346767999Y4172000I249999J0D01*
G01*
X347668001Y4172000D01*
G75*
G02*
X347918000Y3922001I0J-249999D01*
G01*
X347918000Y3221999D01*
G75*
G02*
X347668001Y2972000I-249999J0D01*
G01*
G37*
%TD.AperFunction*%
%TD*%
%TO.P,R3,2*%
%TO.N,Net-(IC3-Pad3)*%
%TA.AperFunction,SMDPad,CuDef*%
G36*
G01*
X297630001Y4972000D02*
X296729999Y4972000D01*
G75*
G02*
X296480000Y5221999I0J249999D01*
G01*
X296480000Y5922001D01*
G75*
G02*
X296729999Y6172000I249999J0D01*
G01*
X297630001Y6172000D01*
G75*
G02*
X297880000Y5922001I0J-249999D01*
G01*
X297880000Y5221999D01*
G75*
G02*
X297630001Y4972000I-249999J0D01*
G01*
G37*
%TD.AperFunction*%
%TO.P,R3,1*%
%TO.N,+3V3*%
%TA.AperFunction,SMDPad,CuDef*%
G36*
G01*
X297630001Y2972000D02*
X296729999Y2972000D01*
G75*
G02*
X296480000Y3221999I0J249999D01*
G01*
X296480000Y3922001D01*
G75*
G02*
X296729999Y4172000I249999J0D01*
G01*
X297630001Y4172000D01*
G75*
G02*
X297880000Y3922001I0J-249999D01*
G01*
X297880000Y3221999D01*
G75*
G02*
X297630001Y2972000I-249999J0D01*
G01*
G37*
%TD.AperFunction*%
%TD*%
%TO.P,R2,2*%
%TO.N,Net-(IC2-Pad3)*%
%TA.AperFunction,SMDPad,CuDef*%
G36*
G01*
X247592001Y4972000D02*
X246691999Y4972000D01*
G75*
G02*
X246442000Y5221999I0J249999D01*
G01*
X246442000Y5922001D01*
G75*
G02*
X246691999Y6172000I249999J0D01*
G01*
X247592001Y6172000D01*
G75*
G02*
X247842000Y5922001I0J-249999D01*
G01*
X247842000Y5221999D01*
G75*
G02*
X247592001Y4972000I-249999J0D01*
G01*
G37*
%TD.AperFunction*%
%TO.P,R2,1*%
%TO.N,+3V3*%
%TA.AperFunction,SMDPad,CuDef*%
G36*
G01*
X247592001Y2972000D02*
X246691999Y2972000D01*
G75*
G02*
X246442000Y3221999I0J249999D01*
G01*
X246442000Y3922001D01*
G75*
G02*
X246691999Y4172000I249999J0D01*
G01*
X247592001Y4172000D01*
G75*
G02*
X247842000Y3922001I0J-249999D01*
G01*
X247842000Y3221999D01*
G75*
G02*
X247592001Y2972000I-249999J0D01*
G01*
G37*
%TD.AperFunction*%
%TD*%
%TO.P,R1,2*%
%TO.N,Net-(IC1-Pad3)*%
%TA.AperFunction,SMDPad,CuDef*%
G36*
G01*
X197554001Y4956000D02*
X196653999Y4956000D01*
G75*
G02*
X196404000Y5205999I0J249999D01*
G01*
X196404000Y5906001D01*
G75*
G02*
X196653999Y6156000I249999J0D01*
G01*
X197554001Y6156000D01*
G75*
G02*
X197804000Y5906001I0J-249999D01*
G01*
X197804000Y5205999D01*
G75*
G02*
X197554001Y4956000I-249999J0D01*
G01*
G37*
%TD.AperFunction*%
%TO.P,R1,1*%
%TO.N,+3V3*%
%TA.AperFunction,SMDPad,CuDef*%
G36*
G01*
X197554001Y2956000D02*
X196653999Y2956000D01*
G75*
G02*
X196404000Y3205999I0J249999D01*
G01*
X196404000Y3906001D01*
G75*
G02*
X196653999Y4156000I249999J0D01*
G01*
X197554001Y4156000D01*
G75*
G02*
X197804000Y3906001I0J-249999D01*
G01*
X197804000Y3205999D01*
G75*
G02*
X197554001Y2956000I-249999J0D01*
G01*
G37*
%TD.AperFunction*%
%TD*%
%TO.P,R5,2*%
%TO.N,Net-(IC5-Pad14)*%
%TA.AperFunction,SMDPad,CuDef*%
G36*
G01*
X147770001Y4972000D02*
X146869999Y4972000D01*
G75*
G02*
X146620000Y5221999I0J249999D01*
G01*
X146620000Y5922001D01*
G75*
G02*
X146869999Y6172000I249999J0D01*
G01*
X147770001Y6172000D01*
G75*
G02*
X148020000Y5922001I0J-249999D01*
G01*
X148020000Y5221999D01*
G75*
G02*
X147770001Y4972000I-249999J0D01*
G01*
G37*
%TD.AperFunction*%
%TO.P,R5,1*%
%TO.N,+3V3*%
%TA.AperFunction,SMDPad,CuDef*%
G36*
G01*
X147770001Y2972000D02*
X146869999Y2972000D01*
G75*
G02*
X146620000Y3221999I0J249999D01*
G01*
X146620000Y3922001D01*
G75*
G02*
X146869999Y4172000I249999J0D01*
G01*
X147770001Y4172000D01*
G75*
G02*
X148020000Y3922001I0J-249999D01*
G01*
X148020000Y3221999D01*
G75*
G02*
X147770001Y2972000I-249999J0D01*
G01*
G37*
%TD.AperFunction*%
%TD*%
%TO.P,R6,2*%
%TO.N,Net-(IC5-Pad13)*%
%TA.AperFunction,SMDPad,CuDef*%
G36*
G01*
X101470000Y7943001D02*
X101470000Y7042999D01*
G75*
G02*
X101220001Y6793000I-249999J0D01*
G01*
X100519999Y6793000D01*
G75*
G02*
X100270000Y7042999I0J249999D01*
G01*
X100270000Y7943001D01*
G75*
G02*
X100519999Y8193000I249999J0D01*
G01*
X101220001Y8193000D01*
G75*
G02*
X101470000Y7943001I0J-249999D01*
G01*
G37*
%TD.AperFunction*%
%TO.P,R6,1*%
%TO.N,+3V3*%
%TA.AperFunction,SMDPad,CuDef*%
G36*
G01*
X103470000Y7943001D02*
X103470000Y7042999D01*
G75*
G02*
X103220001Y6793000I-249999J0D01*
G01*
X102519999Y6793000D01*
G75*
G02*
X102270000Y7042999I0J249999D01*
G01*
X102270000Y7943001D01*
G75*
G02*
X102519999Y8193000I249999J0D01*
G01*
X103220001Y8193000D01*
G75*
G02*
X103470000Y7943001I0J-249999D01*
G01*
G37*
%TD.AperFunction*%
%TD*%
%TO.P,R7,2*%
%TO.N,Net-(IC5-Pad12)*%
%TA.AperFunction,SMDPad,CuDef*%
G36*
G01*
X47694001Y4972000D02*
X46793999Y4972000D01*
G75*
G02*
X46544000Y5221999I0J249999D01*
G01*
X46544000Y5922001D01*
G75*
G02*
X46793999Y6172000I249999J0D01*
G01*
X47694001Y6172000D01*
G75*
G02*
X47944000Y5922001I0J-249999D01*
G01*
X47944000Y5221999D01*
G75*
G02*
X47694001Y4972000I-249999J0D01*
G01*
G37*
%TD.AperFunction*%
%TO.P,R7,1*%
%TO.N,+3V3*%
%TA.AperFunction,SMDPad,CuDef*%
G36*
G01*
X47694001Y2972000D02*
X46793999Y2972000D01*
G75*
G02*
X46544000Y3221999I0J249999D01*
G01*
X46544000Y3922001D01*
G75*
G02*
X46793999Y4172000I249999J0D01*
G01*
X47694001Y4172000D01*
G75*
G02*
X47944000Y3922001I0J-249999D01*
G01*
X47944000Y3221999D01*
G75*
G02*
X47694001Y2972000I-249999J0D01*
G01*
G37*
%TD.AperFunction*%
%TD*%
%TO.P,R8,2*%
%TO.N,Net-(IC5-Pad11)*%
%TA.AperFunction,SMDPad,CuDef*%
G36*
G01*
X-2343999Y4972000D02*
X-3244001Y4972000D01*
G75*
G02*
X-3494000Y5221999I0J249999D01*
G01*
X-3494000Y5922001D01*
G75*
G02*
X-3244001Y6172000I249999J0D01*
G01*
X-2343999Y6172000D01*
G75*
G02*
X-2094000Y5922001I0J-249999D01*
G01*
X-2094000Y5221999D01*
G75*
G02*
X-2343999Y4972000I-249999J0D01*
G01*
G37*
%TD.AperFunction*%
%TO.P,R8,1*%
%TO.N,+3V3*%
%TA.AperFunction,SMDPad,CuDef*%
G36*
G01*
X-2343999Y2972000D02*
X-3244001Y2972000D01*
G75*
G02*
X-3494000Y3221999I0J249999D01*
G01*
X-3494000Y3922001D01*
G75*
G02*
X-3244001Y4172000I249999J0D01*
G01*
X-2343999Y4172000D01*
G75*
G02*
X-2094000Y3922001I0J-249999D01*
G01*
X-2094000Y3221999D01*
G75*
G02*
X-2343999Y2972000I-249999J0D01*
G01*
G37*
%TD.AperFunction*%
%TD*%
%TO.P,C4,2*%
%TO.N,+3V3*%
%TA.AperFunction,SMDPad,CuDef*%
G36*
G01*
X353281000Y5022000D02*
X352331000Y5022000D01*
G75*
G02*
X352081000Y5272000I0J250000D01*
G01*
X352081000Y5947000D01*
G75*
G02*
X352331000Y6197000I250000J0D01*
G01*
X353281000Y6197000D01*
G75*
G02*
X353531000Y5947000I0J-250000D01*
G01*
X353531000Y5272000D01*
G75*
G02*
X353281000Y5022000I-250000J0D01*
G01*
G37*
%TD.AperFunction*%
%TO.P,C4,1*%
%TO.N,GNDD*%
%TA.AperFunction,SMDPad,CuDef*%
G36*
G01*
X353281000Y2947000D02*
X352331000Y2947000D01*
G75*
G02*
X352081000Y3197000I0J250000D01*
G01*
X352081000Y3872000D01*
G75*
G02*
X352331000Y4122000I250000J0D01*
G01*
X353281000Y4122000D01*
G75*
G02*
X353531000Y3872000I0J-250000D01*
G01*
X353531000Y3197000D01*
G75*
G02*
X353281000Y2947000I-250000J0D01*
G01*
G37*
%TD.AperFunction*%
%TD*%
%TO.P,C3,2*%
%TO.N,+3V3*%
%TA.AperFunction,SMDPad,CuDef*%
G36*
G01*
X303243000Y5022000D02*
X302293000Y5022000D01*
G75*
G02*
X302043000Y5272000I0J250000D01*
G01*
X302043000Y5947000D01*
G75*
G02*
X302293000Y6197000I250000J0D01*
G01*
X303243000Y6197000D01*
G75*
G02*
X303493000Y5947000I0J-250000D01*
G01*
X303493000Y5272000D01*
G75*
G02*
X303243000Y5022000I-250000J0D01*
G01*
G37*
%TD.AperFunction*%
%TO.P,C3,1*%
%TO.N,GNDD*%
%TA.AperFunction,SMDPad,CuDef*%
G36*
G01*
X303243000Y2947000D02*
X302293000Y2947000D01*
G75*
G02*
X302043000Y3197000I0J250000D01*
G01*
X302043000Y3872000D01*
G75*
G02*
X302293000Y4122000I250000J0D01*
G01*
X303243000Y4122000D01*
G75*
G02*
X303493000Y3872000I0J-250000D01*
G01*
X303493000Y3197000D01*
G75*
G02*
X303243000Y2947000I-250000J0D01*
G01*
G37*
%TD.AperFunction*%
%TD*%
%TO.P,C2,2*%
%TO.N,+3V3*%
%TA.AperFunction,SMDPad,CuDef*%
G36*
G01*
X253205000Y5043500D02*
X252255000Y5043500D01*
G75*
G02*
X252005000Y5293500I0J250000D01*
G01*
X252005000Y5968500D01*
G75*
G02*
X252255000Y6218500I250000J0D01*
G01*
X253205000Y6218500D01*
G75*
G02*
X253455000Y5968500I0J-250000D01*
G01*
X253455000Y5293500D01*
G75*
G02*
X253205000Y5043500I-250000J0D01*
G01*
G37*
%TD.AperFunction*%
%TO.P,C2,1*%
%TO.N,GNDD*%
%TA.AperFunction,SMDPad,CuDef*%
G36*
G01*
X253205000Y2968500D02*
X252255000Y2968500D01*
G75*
G02*
X252005000Y3218500I0J250000D01*
G01*
X252005000Y3893500D01*
G75*
G02*
X252255000Y4143500I250000J0D01*
G01*
X253205000Y4143500D01*
G75*
G02*
X253455000Y3893500I0J-250000D01*
G01*
X253455000Y3218500D01*
G75*
G02*
X253205000Y2968500I-250000J0D01*
G01*
G37*
%TD.AperFunction*%
%TD*%
%TO.P,C1,2*%
%TO.N,+3V3*%
%TA.AperFunction,SMDPad,CuDef*%
G36*
G01*
X203167000Y5022000D02*
X202217000Y5022000D01*
G75*
G02*
X201967000Y5272000I0J250000D01*
G01*
X201967000Y5947000D01*
G75*
G02*
X202217000Y6197000I250000J0D01*
G01*
X203167000Y6197000D01*
G75*
G02*
X203417000Y5947000I0J-250000D01*
G01*
X203417000Y5272000D01*
G75*
G02*
X203167000Y5022000I-250000J0D01*
G01*
G37*
%TD.AperFunction*%
%TO.P,C1,1*%
%TO.N,GNDD*%
%TA.AperFunction,SMDPad,CuDef*%
G36*
G01*
X203167000Y2947000D02*
X202217000Y2947000D01*
G75*
G02*
X201967000Y3197000I0J250000D01*
G01*
X201967000Y3872000D01*
G75*
G02*
X202217000Y4122000I250000J0D01*
G01*
X203167000Y4122000D01*
G75*
G02*
X203417000Y3872000I0J-250000D01*
G01*
X203417000Y3197000D01*
G75*
G02*
X203167000Y2947000I-250000J0D01*
G01*
G37*
%TD.AperFunction*%
%TD*%
%TO.P,C6,2*%
%TO.N,GNDD*%
%TA.AperFunction,SMDPad,CuDef*%
G36*
G01*
X152433000Y4122000D02*
X153383000Y4122000D01*
G75*
G02*
X153633000Y3872000I0J-250000D01*
G01*
X153633000Y3197000D01*
G75*
G02*
X153383000Y2947000I-250000J0D01*
G01*
X152433000Y2947000D01*
G75*
G02*
X152183000Y3197000I0J250000D01*
G01*
X152183000Y3872000D01*
G75*
G02*
X152433000Y4122000I250000J0D01*
G01*
G37*
%TD.AperFunction*%
%TO.P,C6,1*%
%TO.N,+3V3*%
%TA.AperFunction,SMDPad,CuDef*%
G36*
G01*
X152433000Y6197000D02*
X153383000Y6197000D01*
G75*
G02*
X153633000Y5947000I0J-250000D01*
G01*
X153633000Y5272000D01*
G75*
G02*
X153383000Y5022000I-250000J0D01*
G01*
X152433000Y5022000D01*
G75*
G02*
X152183000Y5272000I0J250000D01*
G01*
X152183000Y5947000D01*
G75*
G02*
X152433000Y6197000I250000J0D01*
G01*
G37*
%TD.AperFunction*%
%TD*%
%TO.P,C7,2*%
%TO.N,GNDD*%
%TA.AperFunction,SMDPad,CuDef*%
G36*
G01*
X102395000Y4122000D02*
X103345000Y4122000D01*
G75*
G02*
X103595000Y3872000I0J-250000D01*
G01*
X103595000Y3197000D01*
G75*
G02*
X103345000Y2947000I-250000J0D01*
G01*
X102395000Y2947000D01*
G75*
G02*
X102145000Y3197000I0J250000D01*
G01*
X102145000Y3872000D01*
G75*
G02*
X102395000Y4122000I250000J0D01*
G01*
G37*
%TD.AperFunction*%
%TO.P,C7,1*%
%TO.N,+3V3*%
%TA.AperFunction,SMDPad,CuDef*%
G36*
G01*
X102395000Y6197000D02*
X103345000Y6197000D01*
G75*
G02*
X103595000Y5947000I0J-250000D01*
G01*
X103595000Y5272000D01*
G75*
G02*
X103345000Y5022000I-250000J0D01*
G01*
X102395000Y5022000D01*
G75*
G02*
X102145000Y5272000I0J250000D01*
G01*
X102145000Y5947000D01*
G75*
G02*
X102395000Y6197000I250000J0D01*
G01*
G37*
%TD.AperFunction*%
%TD*%
%TO.P,C8,2*%
%TO.N,GNDD*%
%TA.AperFunction,SMDPad,CuDef*%
G36*
G01*
X52357000Y4122000D02*
X53307000Y4122000D01*
G75*
G02*
X53557000Y3872000I0J-250000D01*
G01*
X53557000Y3197000D01*
G75*
G02*
X53307000Y2947000I-250000J0D01*
G01*
X52357000Y2947000D01*
G75*
G02*
X52107000Y3197000I0J250000D01*
G01*
X52107000Y3872000D01*
G75*
G02*
X52357000Y4122000I250000J0D01*
G01*
G37*
%TD.AperFunction*%
%TO.P,C8,1*%
%TO.N,+3V3*%
%TA.AperFunction,SMDPad,CuDef*%
G36*
G01*
X52357000Y6197000D02*
X53307000Y6197000D01*
G75*
G02*
X53557000Y5947000I0J-250000D01*
G01*
X53557000Y5272000D01*
G75*
G02*
X53307000Y5022000I-250000J0D01*
G01*
X52357000Y5022000D01*
G75*
G02*
X52107000Y5272000I0J250000D01*
G01*
X52107000Y5947000D01*
G75*
G02*
X52357000Y6197000I250000J0D01*
G01*
G37*
%TD.AperFunction*%
%TD*%
%TO.P,C9,2*%
%TO.N,GNDD*%
%TA.AperFunction,SMDPad,CuDef*%
G36*
G01*
X2319000Y4122000D02*
X3269000Y4122000D01*
G75*
G02*
X3519000Y3872000I0J-250000D01*
G01*
X3519000Y3197000D01*
G75*
G02*
X3269000Y2947000I-250000J0D01*
G01*
X2319000Y2947000D01*
G75*
G02*
X2069000Y3197000I0J250000D01*
G01*
X2069000Y3872000D01*
G75*
G02*
X2319000Y4122000I250000J0D01*
G01*
G37*
%TD.AperFunction*%
%TO.P,C9,1*%
%TO.N,+3V3*%
%TA.AperFunction,SMDPad,CuDef*%
G36*
G01*
X2319000Y6197000D02*
X3269000Y6197000D01*
G75*
G02*
X3519000Y5947000I0J-250000D01*
G01*
X3519000Y5272000D01*
G75*
G02*
X3269000Y5022000I-250000J0D01*
G01*
X2319000Y5022000D01*
G75*
G02*
X2069000Y5272000I0J250000D01*
G01*
X2069000Y5947000D01*
G75*
G02*
X2319000Y6197000I250000J0D01*
G01*
G37*
%TD.AperFunction*%
%TD*%
D12*
%TO.P,IC4,2*%
%TO.N,GNDD*%
X350012000Y3556000D03*
%TO.P,IC4,3*%
%TO.N,Net-(IC4-Pad3)*%
X349062000Y5556000D03*
%TO.P,IC4,1*%
%TO.N,+3V3*%
X350962000Y5556000D03*
%TD*%
%TO.P,IC3,2*%
%TO.N,GNDD*%
X299974000Y3556000D03*
%TO.P,IC3,3*%
%TO.N,Net-(IC3-Pad3)*%
X299024000Y5556000D03*
%TO.P,IC3,1*%
%TO.N,+3V3*%
X300924000Y5556000D03*
%TD*%
%TO.P,IC2,2*%
%TO.N,GNDD*%
X249936000Y3556000D03*
%TO.P,IC2,3*%
%TO.N,Net-(IC2-Pad3)*%
X248986000Y5556000D03*
%TO.P,IC2,1*%
%TO.N,+3V3*%
X250886000Y5556000D03*
%TD*%
%TO.P,IC6,2*%
%TO.N,GNDD*%
X150114000Y3556000D03*
%TO.P,IC6,3*%
%TO.N,Net-(IC5-Pad14)*%
X149164000Y5556000D03*
%TO.P,IC6,1*%
%TO.N,+3V3*%
X151064000Y5556000D03*
%TD*%
%TO.P,IC7,2*%
%TO.N,GNDD*%
X100076000Y3556000D03*
%TO.P,IC7,3*%
%TO.N,Net-(IC5-Pad13)*%
X99126000Y5556000D03*
%TO.P,IC7,1*%
%TO.N,+3V3*%
X101026000Y5556000D03*
%TD*%
%TO.P,IC8,2*%
%TO.N,GNDD*%
X50038000Y3556000D03*
%TO.P,IC8,3*%
%TO.N,Net-(IC5-Pad12)*%
X49088000Y5556000D03*
%TO.P,IC8,1*%
%TO.N,+3V3*%
X50988000Y5556000D03*
%TD*%
%TO.P,IC9,2*%
%TO.N,GNDD*%
X0Y3556000D03*
%TO.P,IC9,3*%
%TO.N,Net-(IC5-Pad11)*%
X-950000Y5556000D03*
%TO.P,IC9,1*%
%TO.N,+3V3*%
X950000Y5556000D03*
%TD*%
%TO.P,IC1,2*%
%TO.N,GNDD*%
X199898000Y3556000D03*
%TO.P,IC1,3*%
%TO.N,Net-(IC1-Pad3)*%
X198948000Y5556000D03*
%TO.P,IC1,1*%
%TO.N,+3V3*%
X200848000Y5556000D03*
%TD*%
D13*
%TO.P,D8,6*%
%TO.N,Net-(D8-Pad6)*%
X352412000Y1700000D03*
%TO.P,D8,5*%
%TO.N,Net-(D8-Pad5)*%
X352412000Y0D03*
%TO.P,D8,4*%
%TO.N,+5V*%
X352412000Y-1700000D03*
%TO.P,D8,3*%
%TO.N,GNDD*%
X347612000Y-1700000D03*
%TO.P,D8,2*%
%TO.N,Net-(D7-Pad5)*%
X347612000Y0D03*
%TO.P,D8,1*%
%TO.N,Net-(D7-Pad6)*%
X347612000Y1700000D03*
%TD*%
%TO.P,D7,6*%
%TO.N,Net-(D7-Pad6)*%
X302374000Y1700000D03*
%TO.P,D7,5*%
%TO.N,Net-(D7-Pad5)*%
X302374000Y0D03*
%TO.P,D7,4*%
%TO.N,+5V*%
X302374000Y-1700000D03*
%TO.P,D7,3*%
%TO.N,GNDD*%
X297574000Y-1700000D03*
%TO.P,D7,2*%
%TO.N,Net-(D6-Pad5)*%
X297574000Y0D03*
%TO.P,D7,1*%
%TO.N,Net-(D6-Pad6)*%
X297574000Y1700000D03*
%TD*%
%TO.P,D6,6*%
%TO.N,Net-(D6-Pad6)*%
X252336000Y1700000D03*
%TO.P,D6,5*%
%TO.N,Net-(D6-Pad5)*%
X252336000Y0D03*
%TO.P,D6,4*%
%TO.N,+5V*%
X252336000Y-1700000D03*
%TO.P,D6,3*%
%TO.N,GNDD*%
X247536000Y-1700000D03*
%TO.P,D6,2*%
%TO.N,Net-(D5-Pad5)*%
X247536000Y0D03*
%TO.P,D6,1*%
%TO.N,Net-(D5-Pad6)*%
X247536000Y1700000D03*
%TD*%
%TO.P,D5,6*%
%TO.N,Net-(D5-Pad6)*%
X202298000Y1700000D03*
%TO.P,D5,5*%
%TO.N,Net-(D5-Pad5)*%
X202298000Y0D03*
%TO.P,D5,4*%
%TO.N,+5V*%
X202298000Y-1700000D03*
%TO.P,D5,3*%
%TO.N,GNDD*%
X197498000Y-1700000D03*
%TO.P,D5,2*%
%TO.N,Net-(D4-Pad5)*%
X197498000Y0D03*
%TO.P,D5,1*%
%TO.N,Net-(D4-Pad6)*%
X197498000Y1700000D03*
%TD*%
%TO.P,D4,6*%
%TO.N,Net-(D4-Pad6)*%
X152514000Y1700000D03*
%TO.P,D4,5*%
%TO.N,Net-(D4-Pad5)*%
X152514000Y0D03*
%TO.P,D4,4*%
%TO.N,+5V*%
X152514000Y-1700000D03*
%TO.P,D4,3*%
%TO.N,GNDD*%
X147714000Y-1700000D03*
%TO.P,D4,2*%
%TO.N,Net-(D3-Pad5)*%
X147714000Y0D03*
%TO.P,D4,1*%
%TO.N,Net-(D3-Pad6)*%
X147714000Y1700000D03*
%TD*%
%TO.P,D3,6*%
%TO.N,Net-(D3-Pad6)*%
X102476000Y1700000D03*
%TO.P,D3,5*%
%TO.N,Net-(D3-Pad5)*%
X102476000Y0D03*
%TO.P,D3,4*%
%TO.N,+5V*%
X102476000Y-1700000D03*
%TO.P,D3,3*%
%TO.N,GNDD*%
X97676000Y-1700000D03*
%TO.P,D3,2*%
%TO.N,Net-(D2-Pad5)*%
X97676000Y0D03*
%TO.P,D3,1*%
%TO.N,Net-(D2-Pad6)*%
X97676000Y1700000D03*
%TD*%
%TO.P,D2,6*%
%TO.N,Net-(D2-Pad6)*%
X52438000Y1700000D03*
%TO.P,D2,5*%
%TO.N,Net-(D2-Pad5)*%
X52438000Y0D03*
%TO.P,D2,4*%
%TO.N,+5V*%
X52438000Y-1700000D03*
%TO.P,D2,3*%
%TO.N,GNDD*%
X47638000Y-1700000D03*
%TO.P,D2,2*%
%TO.N,Net-(D1-Pad5)*%
X47638000Y0D03*
%TO.P,D2,1*%
%TO.N,Net-(D1-Pad6)*%
X47638000Y1700000D03*
%TD*%
%TO.P,D1,6*%
%TO.N,Net-(D1-Pad6)*%
X2400000Y1700000D03*
%TO.P,D1,5*%
%TO.N,Net-(D1-Pad5)*%
X2400000Y0D03*
%TO.P,D1,4*%
%TO.N,+5V*%
X2400000Y-1700000D03*
%TO.P,D1,3*%
%TO.N,GNDD*%
X-2400000Y-1700000D03*
%TO.P,D1,2*%
%TO.N,Net-(D1-Pad2)*%
X-2400000Y0D03*
%TO.P,D1,1*%
%TO.N,Net-(D1-Pad1)*%
X-2400000Y1700000D03*
%TD*%
D14*
%TO.N,+5V*%
X100711000Y1778000D03*
X4243600Y-1700000D03*
X254179600Y-1700000D03*
X204141600Y-1700000D03*
X154357600Y-1700000D03*
X104319600Y-1700000D03*
X54281600Y-1700000D03*
X304217600Y-1700000D03*
X6350000Y-3810000D03*
X56642000Y-4064000D03*
X106680000Y-4064000D03*
X156718000Y-4064000D03*
X206375000Y-4064000D03*
X256540000Y-4064000D03*
X306578000Y-4064000D03*
%TO.N,GNDD*%
X99568000Y-1651000D03*
D15*
X154559000Y3175000D03*
D14*
X96266000Y3492500D03*
D15*
X168910000Y-2413000D03*
X149422999Y-2850001D03*
%TO.N,+3V3*%
X155448000Y5609500D03*
X149313990Y-889000D03*
%TO.N,Net-(IC1-Pad3)*%
X195580022Y5588000D03*
%TO.N,Net-(IC2-Pad3)*%
X245618000Y5572022D03*
%TO.N,Net-(IC3-Pad3)*%
X295528990Y5588000D03*
%TO.N,Net-(IC4-Pad3)*%
X345567000Y5588004D03*
%TO.N,Net-(IC5-Pad14)*%
X149164000Y6731000D03*
%TO.N,Net-(IC5-Pad13)*%
X99126000Y6731000D03*
%TO.N,Net-(IC5-Pad12)*%
X49088000Y6731000D03*
%TO.N,Net-(IC5-Pad11)*%
X-950000Y6857968D03*
%TD*%
D16*
%TO.N,Net-(D1-Pad6)*%
X2400000Y1700000D02*
X47638000Y1700000D01*
%TO.N,Net-(D1-Pad5)*%
X2400000Y0D02*
X47638000Y0D01*
D17*
%TO.N,+5V*%
X2400000Y-1700000D02*
X4243600Y-1700000D01*
X252336000Y-1700000D02*
X254179600Y-1700000D01*
X202298000Y-1700000D02*
X204141600Y-1700000D01*
X152514000Y-1700000D02*
X154357600Y-1700000D01*
X102476000Y-1700000D02*
X104319600Y-1700000D01*
X52438000Y-1700000D02*
X54281600Y-1700000D01*
X304217600Y-1700000D02*
X304217600Y-1700000D01*
X304217600Y-1700000D02*
X302374000Y-1700000D01*
X6350000Y-3810000D02*
X6350000Y-3810000D01*
X102427000Y-1651000D02*
X102476000Y-1700000D01*
X6604000Y-4064000D02*
X6350000Y-3810000D01*
X56642000Y-4064000D02*
X6604000Y-4064000D01*
X106172000Y-4064000D02*
X56642000Y-4064000D01*
X106680000Y-4064000D02*
X106172000Y-4064000D01*
X352412000Y-2680000D02*
X352412000Y-1700000D01*
X306578000Y-4064000D02*
X351028000Y-4064000D01*
X306070000Y-4064000D02*
X304419000Y-4064000D01*
X306578000Y-4064000D02*
X306070000Y-4064000D01*
X351028000Y-4064000D02*
X352412000Y-2680000D01*
X101522000Y-1700000D02*
X102476000Y-1700000D01*
X100711000Y-889000D02*
X101522000Y-1700000D01*
X100711000Y1778000D02*
X100711000Y-889000D01*
X106680000Y-4064000D02*
X166985496Y-4064000D01*
X166985496Y-4064000D02*
X167032998Y-4111502D01*
X168421504Y-4064000D02*
X304338978Y-4064000D01*
X167032998Y-4111502D02*
X168374002Y-4111502D01*
X168374002Y-4111502D02*
X168421504Y-4064000D01*
D16*
%TO.N,GNDD*%
X299974000Y-700000D02*
X299974000Y3556000D01*
X298974000Y-1700000D02*
X299974000Y-700000D01*
X297574000Y-1700000D02*
X298974000Y-1700000D01*
X349012000Y-1700000D02*
X350012000Y-700000D01*
X350012000Y-700000D02*
X350012000Y3556000D01*
X347612000Y-1700000D02*
X349012000Y-1700000D01*
X249936000Y-700000D02*
X249936000Y3556000D01*
X248936000Y-1700000D02*
X249936000Y-700000D01*
X247536000Y-1700000D02*
X248936000Y-1700000D01*
X199898000Y129998D02*
X199898000Y3556000D01*
X198068002Y-1700000D02*
X199898000Y129998D01*
X197498000Y-1700000D02*
X198068002Y-1700000D01*
X50038000Y-700000D02*
X50038000Y3556000D01*
X49038000Y-1700000D02*
X50038000Y-700000D01*
X47638000Y-1700000D02*
X49038000Y-1700000D01*
X-2400000Y-1700000D02*
X-1000000Y-1700000D01*
X-1000000Y-1700000D02*
X0Y-700000D01*
X0Y-700000D02*
X0Y3556000D01*
D17*
X254705999Y-2850001D02*
X255856000Y-1700000D01*
X248686001Y-2850001D02*
X254705999Y-2850001D01*
X255856000Y-1700000D02*
X297574000Y-1700000D01*
X247536000Y-1700000D02*
X248686001Y-2850001D01*
X47638000Y-1700000D02*
X48788001Y-2850001D01*
X48788001Y-2850001D02*
X54807999Y-2850001D01*
X54807999Y-2850001D02*
X55958000Y-1700000D01*
X55958000Y-1700000D02*
X97676000Y-1700000D01*
X-2400000Y-1700000D02*
X-1249999Y-2850001D01*
X-1249999Y-2850001D02*
X4769999Y-2850001D01*
X4769999Y-2850001D02*
X5920000Y-1700000D01*
X5920000Y-1700000D02*
X47638000Y-1700000D01*
X197498000Y-1700000D02*
X167718000Y-1700000D01*
D16*
X2540000Y3556000D02*
X2794000Y3810000D01*
X0Y3556000D02*
X2540000Y3556000D01*
X52578000Y3556000D02*
X52832000Y3810000D01*
X50038000Y3556000D02*
X52578000Y3556000D01*
X102616000Y3556000D02*
X102870000Y3810000D01*
X100076000Y3556000D02*
X102616000Y3556000D01*
X152654000Y3556000D02*
X152908000Y3810000D01*
X150114000Y3556000D02*
X152654000Y3556000D01*
X202438000Y3556000D02*
X202692000Y3810000D01*
X199898000Y3556000D02*
X202438000Y3556000D01*
X252476000Y3556000D02*
X252730000Y3810000D01*
X249936000Y3556000D02*
X252476000Y3556000D01*
X302557000Y3556000D02*
X302768000Y3767000D01*
X299974000Y3556000D02*
X302557000Y3556000D01*
X352595000Y3556000D02*
X352806000Y3767000D01*
X350012000Y3556000D02*
X352595000Y3556000D01*
D17*
X305894000Y-1700000D02*
X347612000Y-1700000D01*
X304744000Y-2850000D02*
X305894000Y-1700000D01*
X298724000Y-2850000D02*
X304744000Y-2850000D01*
X297574000Y-1700000D02*
X298724000Y-2850000D01*
X205818000Y-1700000D02*
X247536000Y-1700000D01*
X204667999Y-2850001D02*
X205818000Y-1700000D01*
X198648001Y-2850001D02*
X204667999Y-2850001D01*
X197498000Y-1700000D02*
X198648001Y-2850001D01*
X154883999Y-2850001D02*
X148864001Y-2850001D01*
X156034000Y-1700000D02*
X154883999Y-2850001D01*
X148864001Y-2850001D02*
X147714000Y-1700000D01*
D16*
X153267500Y3175000D02*
X152908000Y3534500D01*
X154305000Y3175000D02*
X153267500Y3175000D01*
D17*
X165559000Y-1700000D02*
X156034000Y-1700000D01*
X166038000Y-1700000D02*
X165559000Y-1700000D01*
X167718000Y-1700000D02*
X166038000Y-1700000D01*
X97725000Y-1651000D02*
X97676000Y-1700000D01*
X99568000Y-1651000D02*
X97725000Y-1651000D01*
D16*
X147982500Y-1968500D02*
X147714000Y-1700000D01*
X149917685Y-1968500D02*
X147982500Y-1968500D01*
X150304500Y-1581685D02*
X149917685Y-1968500D01*
X150304500Y3365500D02*
X150304500Y-1581685D01*
X150114000Y3556000D02*
X150304500Y3365500D01*
D17*
X105996000Y-1700000D02*
X147714000Y-1700000D01*
X100955987Y-2809989D02*
X100995999Y-2850001D01*
X100995999Y-2850001D02*
X103956001Y-2850001D01*
X103956001Y-2850001D02*
X103996013Y-2809989D01*
X104886011Y-2809989D02*
X105996000Y-1700000D01*
X97676000Y-1700000D02*
X98785989Y-2809989D01*
X103996013Y-2809989D02*
X104886011Y-2809989D01*
X98785989Y-2809989D02*
X100955987Y-2809989D01*
X99568000Y2286000D02*
X99568000Y-1651000D01*
X98361500Y3492500D02*
X99568000Y2286000D01*
X96266000Y3492500D02*
X98361500Y3492500D01*
D16*
X100076000Y3556000D02*
X98361500Y3556000D01*
X166751000Y-2413000D02*
X168910000Y-2413000D01*
X166038000Y-1700000D02*
X166751000Y-2413000D01*
%TO.N,Net-(D1-Pad2)*%
X-3868500Y0D02*
X-2400000Y0D01*
X-4699000Y830500D02*
X-3868500Y0D01*
X-4699000Y6234798D02*
X-4699000Y830500D01*
X5004702Y15938500D02*
X-4699000Y6234798D01*
X99695000Y15938500D02*
X5004702Y15938500D01*
X101346000Y14287500D02*
X99695000Y15938500D01*
%TO.N,Net-(D1-Pad1)*%
X102108000Y12509500D02*
X103886000Y14287500D01*
X2424244Y12509500D02*
X102108000Y12509500D01*
X-4098989Y1998989D02*
X-4098989Y5986267D01*
X-4098989Y5986267D02*
X2424244Y12509500D01*
X-3800000Y1700000D02*
X-4098989Y1998989D01*
X-2400000Y1700000D02*
X-3800000Y1700000D01*
%TO.N,Net-(D2-Pad6)*%
X52438000Y1700000D02*
X97676000Y1700000D01*
%TO.N,Net-(D2-Pad5)*%
X52438000Y0D02*
X97676000Y0D01*
%TO.N,Net-(D3-Pad6)*%
X102476000Y1700000D02*
X147714000Y1700000D01*
%TO.N,Net-(D3-Pad5)*%
X102476000Y0D02*
X147714000Y0D01*
%TO.N,Net-(D4-Pad6)*%
X152514000Y1700000D02*
X197498000Y1700000D01*
%TO.N,Net-(D4-Pad5)*%
X152514000Y0D02*
X197498000Y0D01*
%TO.N,Net-(D5-Pad6)*%
X202298000Y1700000D02*
X247536000Y1700000D01*
%TO.N,Net-(D5-Pad5)*%
X202298000Y0D02*
X247536000Y0D01*
%TO.N,Net-(D6-Pad6)*%
X252336000Y1700000D02*
X297574000Y1700000D01*
%TO.N,Net-(D6-Pad5)*%
X252336000Y0D02*
X297574000Y0D01*
%TO.N,Net-(D7-Pad6)*%
X302374000Y1700000D02*
X347612000Y1700000D01*
%TO.N,Net-(D7-Pad5)*%
X302374000Y0D02*
X347612000Y0D01*
%TO.N,Net-(D8-Pad6)*%
X353812000Y1700000D02*
X352412000Y1700000D01*
X354838000Y674000D02*
X353812000Y1700000D01*
X351663000Y-6096000D02*
X354838000Y-2921000D01*
X106119929Y-6096000D02*
X351663000Y-6096000D01*
X103886000Y-8329929D02*
X106119929Y-6096000D01*
X354838000Y-2921000D02*
X354838000Y674000D01*
X103886000Y-14478000D02*
X103886000Y-8329929D01*
%TO.N,Net-(D8-Pad5)*%
X353812000Y0D02*
X352412000Y0D01*
X354203000Y-391000D02*
X353812000Y0D01*
X354203000Y-2667000D02*
X354203000Y-391000D01*
X351536000Y-5334000D02*
X354203000Y-2667000D01*
X106033386Y-5334000D02*
X351536000Y-5334000D01*
X101346000Y-10021386D02*
X106033386Y-5334000D01*
X101346000Y-14478000D02*
X101346000Y-10021386D01*
%TO.N,+3V3*%
X152579000Y5556000D02*
X152908000Y5885000D01*
X151064000Y5556000D02*
X152579000Y5556000D01*
X199864000Y4572000D02*
X200848000Y5556000D01*
X199136000Y4572000D02*
X199864000Y4572000D01*
X198374000Y3810000D02*
X199136000Y4572000D01*
X197136000Y3810000D02*
X198374000Y3810000D01*
X197104000Y3842000D02*
X197136000Y3810000D01*
X352520000Y5556000D02*
X352806000Y5842000D01*
X350962000Y5556000D02*
X352520000Y5556000D01*
X-2794000Y3572000D02*
X-2794000Y3842000D01*
X-1762000Y3572000D02*
X-2794000Y3572000D01*
X-762000Y4572000D02*
X-1762000Y3572000D01*
X0Y4572000D02*
X-762000Y4572000D01*
X950000Y5522000D02*
X0Y4572000D01*
X950000Y5556000D02*
X950000Y5522000D01*
X2465000Y5556000D02*
X950000Y5556000D01*
X7604000Y3572000D02*
X5620000Y5556000D01*
X48276000Y3572000D02*
X7604000Y3572000D01*
X49276000Y4572000D02*
X48276000Y3572000D01*
X5620000Y5556000D02*
X2465000Y5556000D01*
X50004000Y4572000D02*
X49276000Y4572000D01*
X50988000Y5556000D02*
X50004000Y4572000D01*
X102541000Y5556000D02*
X101026000Y5556000D01*
X105696000Y5556000D02*
X102541000Y5556000D01*
X107680000Y3572000D02*
X105696000Y5556000D01*
X148352000Y3572000D02*
X107680000Y3572000D01*
X149352000Y4572000D02*
X148352000Y3572000D01*
X150080000Y4572000D02*
X149352000Y4572000D01*
X151064000Y5556000D02*
X150080000Y4572000D01*
X153183500Y5609500D02*
X152908000Y5885000D01*
X155448000Y5609500D02*
X155448000Y5609500D01*
X157215500Y3842000D02*
X155448000Y5609500D01*
X197104000Y3842000D02*
X157215500Y3842000D01*
X205401750Y5556000D02*
X202363000Y5556000D01*
X207385750Y3572000D02*
X205401750Y5556000D01*
X248174000Y3572000D02*
X207385750Y3572000D01*
X202363000Y5556000D02*
X200848000Y5556000D01*
X249174000Y4572000D02*
X248174000Y3572000D01*
X249902000Y4572000D02*
X249174000Y4572000D01*
X250886000Y5556000D02*
X249902000Y4572000D01*
X305340000Y5556000D02*
X302482000Y5556000D01*
X307324000Y3572000D02*
X305340000Y5556000D01*
X302482000Y5556000D02*
X300924000Y5556000D01*
X348250000Y3572000D02*
X307324000Y3572000D01*
X349250000Y4572000D02*
X348250000Y3572000D01*
X349978000Y4572000D02*
X349250000Y4572000D01*
X350962000Y5556000D02*
X349978000Y4572000D01*
X155448000Y5609500D02*
X153183500Y5609500D01*
X148352000Y3572000D02*
X149313990Y2610010D01*
X149313990Y-323315D02*
X149313990Y-889000D01*
X149313990Y2610010D02*
X149313990Y-323315D01*
X255302000Y5556000D02*
X252401000Y5556000D01*
X298212000Y3572000D02*
X257286000Y3572000D01*
X299212000Y4572000D02*
X298212000Y3572000D01*
X252401000Y5556000D02*
X250886000Y5556000D01*
X257286000Y3572000D02*
X255302000Y5556000D01*
X299940000Y4572000D02*
X299212000Y4572000D01*
X300924000Y5556000D02*
X299940000Y4572000D01*
X52503000Y5556000D02*
X50988000Y5556000D01*
X55425500Y5556000D02*
X52503000Y5556000D01*
X56409500Y4572000D02*
X55425500Y5556000D01*
X100042000Y4572000D02*
X56409500Y4572000D01*
X101026000Y5556000D02*
X100042000Y4572000D01*
X102870000Y7493000D02*
X102870000Y5609500D01*
%TO.N,Net-(IC1-Pad3)*%
X198948000Y5556000D02*
X195612022Y5556000D01*
X195612022Y5556000D02*
X195580022Y5588000D01*
%TO.N,Net-(IC2-Pad3)*%
X248986000Y5556000D02*
X245634022Y5556000D01*
X245634022Y5556000D02*
X245618000Y5572022D01*
%TO.N,Net-(IC3-Pad3)*%
X299024000Y5556000D02*
X295560990Y5556000D01*
X295560990Y5556000D02*
X295528990Y5588000D01*
%TO.N,Net-(IC4-Pad3)*%
X345599004Y5556000D02*
X345567000Y5588004D01*
X349062000Y5556000D02*
X345599004Y5556000D01*
%TO.N,Net-(IC5-Pad14)*%
X147574000Y5556000D02*
X147320000Y5810000D01*
X149164000Y5556000D02*
X147574000Y5556000D01*
X149164000Y5556000D02*
X149164000Y6604000D01*
X149164000Y6604000D02*
X149164000Y6731000D01*
X149164000Y6731000D02*
X149164000Y6731000D01*
%TO.N,Net-(IC5-Pad13)*%
X99126000Y5556000D02*
X99126000Y6350000D01*
X99126000Y6350000D02*
X99126000Y6477000D01*
X99126000Y6350000D02*
X99126000Y6604000D01*
X99126000Y6604000D02*
X99126000Y6731000D01*
X99126000Y6731000D02*
X99126000Y6731000D01*
X99888000Y7493000D02*
X99126000Y6731000D01*
X100870000Y7493000D02*
X99888000Y7493000D01*
%TO.N,Net-(IC5-Pad12)*%
X47530000Y5556000D02*
X47244000Y5842000D01*
X49088000Y5556000D02*
X47530000Y5556000D01*
X49088000Y5556000D02*
X49088000Y6477000D01*
X49088000Y6477000D02*
X49088000Y6604000D01*
X49088000Y6477000D02*
X49088000Y6731000D01*
X49088000Y6731000D02*
X49088000Y6731000D01*
%TO.N,Net-(IC5-Pad11)*%
X-2508000Y5556000D02*
X-2794000Y5842000D01*
X-950000Y5556000D02*
X-2508000Y5556000D01*
X-950000Y6604000D02*
X-950000Y6604000D01*
X-950000Y5556000D02*
X-950000Y6857968D01*
%TD*%
D18*
%TO.N,GNDD*%
X100784574Y-9401945D02*
X100752710Y-9428095D01*
X100726562Y-9459957D01*
X100648364Y-9555241D01*
X100570828Y-9700300D01*
X100523082Y-9857698D01*
X100506960Y-10021386D01*
X100511001Y-10062414D01*
X100511000Y-13313435D01*
X100399368Y-13388025D01*
X100192525Y-13594868D01*
X100076000Y-13769260D01*
X99959475Y-13594868D01*
X99752632Y-13388025D01*
X99509411Y-13225510D01*
X99239158Y-13113568D01*
X98952260Y-13056500D01*
X98659740Y-13056500D01*
X98372842Y-13113568D01*
X98102589Y-13225510D01*
X97859368Y-13388025D01*
X97652525Y-13594868D01*
X97530805Y-13777034D01*
X97461178Y-13660145D01*
X97266269Y-13443912D01*
X97032920Y-13269859D01*
X96770099Y-13144675D01*
X96622890Y-13100024D01*
X96393000Y-13221345D01*
X96393000Y-14414500D01*
X96413000Y-14414500D01*
X96413000Y-14668500D01*
X96393000Y-14668500D01*
X96393000Y-15861655D01*
X96622890Y-15982976D01*
X96770099Y-15938325D01*
X97032920Y-15813141D01*
X97266269Y-15639088D01*
X97461178Y-15422855D01*
X97530805Y-15305966D01*
X97652525Y-15488132D01*
X97859368Y-15694975D01*
X98102589Y-15857490D01*
X98372842Y-15969432D01*
X98659740Y-16026500D01*
X98952260Y-16026500D01*
X99239158Y-15969432D01*
X99509411Y-15857490D01*
X99752632Y-15694975D01*
X99959475Y-15488132D01*
X100076000Y-15313740D01*
X100192525Y-15488132D01*
X100399368Y-15694975D01*
X100642589Y-15857490D01*
X100912842Y-15969432D01*
X101199740Y-16026500D01*
X101492260Y-16026500D01*
X101779158Y-15969432D01*
X102049411Y-15857490D01*
X102292632Y-15694975D01*
X102424487Y-15563120D01*
X102446498Y-15635680D01*
X102505463Y-15745994D01*
X102584815Y-15842685D01*
X102681506Y-15922037D01*
X102791820Y-15981002D01*
X102911518Y-16017312D01*
X103036000Y-16029572D01*
X104736000Y-16029572D01*
X104860482Y-16017312D01*
X104980180Y-15981002D01*
X105090494Y-15922037D01*
X105187185Y-15842685D01*
X105266537Y-15745994D01*
X105325502Y-15635680D01*
X105361812Y-15515982D01*
X105374072Y-15391500D01*
X105374072Y-15378800D01*
X143469728Y-15378800D01*
X143481988Y-15503282D01*
X143518298Y-15622980D01*
X143577263Y-15733294D01*
X143656615Y-15829985D01*
X143753306Y-15909337D01*
X143863620Y-15968302D01*
X143983318Y-16004612D01*
X144107800Y-16016872D01*
X144672050Y-16013800D01*
X144830800Y-15855050D01*
X144830800Y-14655800D01*
X143631550Y-14655800D01*
X143472800Y-14814550D01*
X143469728Y-15378800D01*
X105374072Y-15378800D01*
X105374072Y-13691500D01*
X105372822Y-13678800D01*
X143469728Y-13678800D01*
X143472800Y-14243050D01*
X143631550Y-14401800D01*
X144830800Y-14401800D01*
X144830800Y-13202550D01*
X145084800Y-13202550D01*
X145084800Y-14401800D01*
X145104800Y-14401800D01*
X145104800Y-14655800D01*
X145084800Y-14655800D01*
X145084800Y-15855050D01*
X145243550Y-16013800D01*
X145807800Y-16016872D01*
X145932282Y-16004612D01*
X146051980Y-15968302D01*
X146162294Y-15909337D01*
X146258985Y-15829985D01*
X146338337Y-15733294D01*
X146397302Y-15622980D01*
X146419313Y-15550420D01*
X146551168Y-15682275D01*
X146794389Y-15844790D01*
X147064642Y-15956732D01*
X147351540Y-16013800D01*
X147644060Y-16013800D01*
X147930958Y-15956732D01*
X148201211Y-15844790D01*
X148444432Y-15682275D01*
X148651275Y-15475432D01*
X148767800Y-15301040D01*
X148884325Y-15475432D01*
X149091168Y-15682275D01*
X149334389Y-15844790D01*
X149604642Y-15956732D01*
X149891540Y-16013800D01*
X150184060Y-16013800D01*
X150470958Y-15956732D01*
X150741211Y-15844790D01*
X150984432Y-15682275D01*
X151191275Y-15475432D01*
X151307800Y-15301040D01*
X151424325Y-15475432D01*
X151631168Y-15682275D01*
X151874389Y-15844790D01*
X152144642Y-15956732D01*
X152431540Y-16013800D01*
X152724060Y-16013800D01*
X153010958Y-15956732D01*
X153281211Y-15844790D01*
X153524432Y-15682275D01*
X153731275Y-15475432D01*
X153847800Y-15301040D01*
X153964325Y-15475432D01*
X154171168Y-15682275D01*
X154414389Y-15844790D01*
X154684642Y-15956732D01*
X154971540Y-16013800D01*
X155264060Y-16013800D01*
X155550958Y-15956732D01*
X155821211Y-15844790D01*
X156064432Y-15682275D01*
X156271275Y-15475432D01*
X156433790Y-15232211D01*
X156545732Y-14961958D01*
X156602800Y-14675060D01*
X156602800Y-14382540D01*
X156545732Y-14095642D01*
X156433790Y-13825389D01*
X156271275Y-13582168D01*
X156064432Y-13375325D01*
X155821211Y-13212810D01*
X155550958Y-13100868D01*
X155264060Y-13043800D01*
X154971540Y-13043800D01*
X154684642Y-13100868D01*
X154414389Y-13212810D01*
X154171168Y-13375325D01*
X153964325Y-13582168D01*
X153847800Y-13756560D01*
X153731275Y-13582168D01*
X153524432Y-13375325D01*
X153281211Y-13212810D01*
X153010958Y-13100868D01*
X152724060Y-13043800D01*
X152431540Y-13043800D01*
X152144642Y-13100868D01*
X151874389Y-13212810D01*
X151631168Y-13375325D01*
X151424325Y-13582168D01*
X151307800Y-13756560D01*
X151191275Y-13582168D01*
X150984432Y-13375325D01*
X150741211Y-13212810D01*
X150470958Y-13100868D01*
X150184060Y-13043800D01*
X149891540Y-13043800D01*
X149604642Y-13100868D01*
X149334389Y-13212810D01*
X149091168Y-13375325D01*
X148884325Y-13582168D01*
X148767800Y-13756560D01*
X148651275Y-13582168D01*
X148444432Y-13375325D01*
X148201211Y-13212810D01*
X147930958Y-13100868D01*
X147644060Y-13043800D01*
X147351540Y-13043800D01*
X147064642Y-13100868D01*
X146794389Y-13212810D01*
X146551168Y-13375325D01*
X146419313Y-13507180D01*
X146397302Y-13434620D01*
X146338337Y-13324306D01*
X146258985Y-13227615D01*
X146162294Y-13148263D01*
X146051980Y-13089298D01*
X145932282Y-13052988D01*
X145807800Y-13040728D01*
X145243550Y-13043800D01*
X145084800Y-13202550D01*
X144830800Y-13202550D01*
X144672050Y-13043800D01*
X144107800Y-13040728D01*
X143983318Y-13052988D01*
X143863620Y-13089298D01*
X143753306Y-13148263D01*
X143656615Y-13227615D01*
X143577263Y-13324306D01*
X143518298Y-13434620D01*
X143481988Y-13554318D01*
X143469728Y-13678800D01*
X105372822Y-13678800D01*
X105361812Y-13567018D01*
X105325502Y-13447320D01*
X105266537Y-13337006D01*
X105187185Y-13240315D01*
X105090494Y-13160963D01*
X104980180Y-13101998D01*
X104860482Y-13065688D01*
X104736000Y-13053428D01*
X104721000Y-13053428D01*
X104721000Y-8675796D01*
X106465798Y-6931000D01*
X174046095Y-6931000D01*
X174024445Y-7011797D01*
X173726574Y-7967698D01*
X173390463Y-8910808D01*
X173016642Y-9839636D01*
X172605737Y-10752629D01*
X172158385Y-11648372D01*
X171675332Y-12525369D01*
X171157373Y-13382178D01*
X170605305Y-14217480D01*
X170020073Y-15029843D01*
X169402602Y-15817986D01*
X168753910Y-16580612D01*
X168075008Y-17316529D01*
X167367029Y-18024508D01*
X166631112Y-18703410D01*
X165868486Y-19352102D01*
X165080343Y-19969573D01*
X164267980Y-20554805D01*
X163432678Y-21106873D01*
X162575869Y-21624832D01*
X161698872Y-22107885D01*
X160803129Y-22555237D01*
X159890136Y-22966142D01*
X158961308Y-23339963D01*
X158018198Y-23676074D01*
X157062297Y-23973945D01*
X156095190Y-24233081D01*
X155365149Y-24397500D01*
X132686858Y-24397500D01*
X132653384Y-24289364D01*
X132629326Y-24232134D01*
X132606068Y-24174568D01*
X132601578Y-24166123D01*
X132460112Y-23904488D01*
X132425401Y-23853027D01*
X132391400Y-23801067D01*
X132385355Y-23793655D01*
X132195766Y-23564480D01*
X132151711Y-23520732D01*
X132108272Y-23476373D01*
X132100903Y-23470277D01*
X131870409Y-23282291D01*
X131818696Y-23247933D01*
X131767469Y-23212858D01*
X131759056Y-23208308D01*
X131496438Y-23068672D01*
X131439033Y-23045012D01*
X131381976Y-23020557D01*
X131372839Y-23017729D01*
X131088101Y-22931760D01*
X131027171Y-22919696D01*
X130966468Y-22906793D01*
X130956960Y-22905793D01*
X130956956Y-22905793D01*
X130660944Y-22876769D01*
X130660937Y-22876769D01*
X130627747Y-22873500D01*
X128591953Y-22873500D01*
X128562289Y-22876422D01*
X128552878Y-22876356D01*
X128543359Y-22877289D01*
X128247556Y-22908379D01*
X128186695Y-22920872D01*
X128125752Y-22932498D01*
X128116601Y-22935260D01*
X128116597Y-22935261D01*
X128116594Y-22935262D01*
X128116595Y-22935262D01*
X127832464Y-23023216D01*
X127775234Y-23047274D01*
X127717668Y-23070532D01*
X127709223Y-23075022D01*
X127447588Y-23216488D01*
X127396127Y-23251199D01*
X127344167Y-23285200D01*
X127336755Y-23291245D01*
X127107580Y-23480834D01*
X127063832Y-23524889D01*
X127019473Y-23568328D01*
X127013377Y-23575697D01*
X126825391Y-23806191D01*
X126791033Y-23857904D01*
X126755958Y-23909131D01*
X126751408Y-23917544D01*
X126611772Y-24180162D01*
X126588112Y-24237567D01*
X126563657Y-24294624D01*
X126560829Y-24303761D01*
X126532527Y-24397500D01*
X123657158Y-24397500D01*
X123623684Y-24289364D01*
X123599626Y-24232134D01*
X123576368Y-24174568D01*
X123571878Y-24166123D01*
X123430412Y-23904488D01*
X123395701Y-23853027D01*
X123361700Y-23801067D01*
X123355655Y-23793655D01*
X123166066Y-23564480D01*
X123122011Y-23520732D01*
X123078572Y-23476373D01*
X123071203Y-23470277D01*
X122840709Y-23282291D01*
X122788996Y-23247933D01*
X122737769Y-23212858D01*
X122729356Y-23208308D01*
X122466738Y-23068672D01*
X122409333Y-23045012D01*
X122352276Y-23020557D01*
X122343139Y-23017729D01*
X122058401Y-22931760D01*
X121997471Y-22919696D01*
X121936768Y-22906793D01*
X121927260Y-22905793D01*
X121927256Y-22905793D01*
X121631244Y-22876769D01*
X121631237Y-22876769D01*
X121598047Y-22873500D01*
X119562253Y-22873500D01*
X119532589Y-22876422D01*
X119523178Y-22876356D01*
X119513659Y-22877289D01*
X119217856Y-22908379D01*
X119156995Y-22920872D01*
X119096052Y-22932498D01*
X119086901Y-22935260D01*
X119086897Y-22935261D01*
X119086894Y-22935262D01*
X119086895Y-22935262D01*
X118802764Y-23023216D01*
X118745534Y-23047274D01*
X118687968Y-23070532D01*
X118679523Y-23075022D01*
X118417888Y-23216488D01*
X118366427Y-23251199D01*
X118314467Y-23285200D01*
X118307055Y-23291245D01*
X118077880Y-23480834D01*
X118034132Y-23524889D01*
X117989773Y-23568328D01*
X117983677Y-23575697D01*
X117795691Y-23806191D01*
X117761333Y-23857904D01*
X117726258Y-23909131D01*
X117721708Y-23917544D01*
X117582072Y-24180162D01*
X117558412Y-24237567D01*
X117533957Y-24294624D01*
X117531129Y-24303761D01*
X117502827Y-24397500D01*
X94824851Y-24397500D01*
X94094810Y-24233081D01*
X93127703Y-23973945D01*
X92171802Y-23676074D01*
X91228692Y-23339963D01*
X90299864Y-22966142D01*
X89386871Y-22555237D01*
X88491128Y-22107885D01*
X87614131Y-21624832D01*
X87507128Y-21560146D01*
X122886000Y-21560146D01*
X122888922Y-21589810D01*
X122888856Y-21599222D01*
X122889789Y-21608740D01*
X122920879Y-21904544D01*
X122933370Y-21965398D01*
X122944998Y-22026349D01*
X122947762Y-22035505D01*
X123035716Y-22319636D01*
X123059784Y-22376890D01*
X123083032Y-22434432D01*
X123087521Y-22442874D01*
X123087523Y-22442879D01*
X123087526Y-22442884D01*
X123228987Y-22704512D01*
X123263718Y-22756001D01*
X123297700Y-22807932D01*
X123303744Y-22815344D01*
X123493334Y-23044520D01*
X123537389Y-23088269D01*
X123580828Y-23132627D01*
X123588197Y-23138723D01*
X123818692Y-23326710D01*
X123870436Y-23361089D01*
X123921631Y-23396142D01*
X123930044Y-23400692D01*
X124192662Y-23540328D01*
X124250081Y-23563994D01*
X124307125Y-23588443D01*
X124316261Y-23591272D01*
X124600999Y-23677240D01*
X124661929Y-23689304D01*
X124722632Y-23702207D01*
X124732141Y-23703207D01*
X124732143Y-23703207D01*
X125028156Y-23732231D01*
X125058078Y-23732231D01*
X125087818Y-23735462D01*
X125097382Y-23735496D01*
X125108021Y-23735459D01*
X125137795Y-23732435D01*
X125167722Y-23732644D01*
X125177240Y-23731711D01*
X125473044Y-23700621D01*
X125533898Y-23688130D01*
X125594849Y-23676502D01*
X125603999Y-23673740D01*
X125604003Y-23673739D01*
X125604006Y-23673738D01*
X125888136Y-23585784D01*
X125945390Y-23561716D01*
X126002932Y-23538468D01*
X126011374Y-23533979D01*
X126011379Y-23533977D01*
X126011384Y-23533974D01*
X126273012Y-23392513D01*
X126324501Y-23357782D01*
X126376432Y-23323800D01*
X126383844Y-23317756D01*
X126613020Y-23128166D01*
X126656769Y-23084111D01*
X126701127Y-23040672D01*
X126707223Y-23033303D01*
X126895210Y-22802808D01*
X126929589Y-22751064D01*
X126964642Y-22699869D01*
X126969192Y-22691456D01*
X127108828Y-22428838D01*
X127132494Y-22371419D01*
X127156943Y-22314375D01*
X127159772Y-22305239D01*
X127245740Y-22020501D01*
X127257804Y-21959571D01*
X127270707Y-21898868D01*
X127271707Y-21889357D01*
X127300731Y-21593344D01*
X127300731Y-21593337D01*
X127304000Y-21560147D01*
X127304000Y-19524353D01*
X127301078Y-19494689D01*
X127301144Y-19485278D01*
X127300211Y-19475759D01*
X127269121Y-19179956D01*
X127256628Y-19119095D01*
X127245002Y-19058152D01*
X127242238Y-19048995D01*
X127154284Y-18764864D01*
X127130226Y-18707634D01*
X127106968Y-18650068D01*
X127102478Y-18641623D01*
X126961012Y-18379988D01*
X126926301Y-18328527D01*
X126892300Y-18276567D01*
X126886255Y-18269155D01*
X126696666Y-18039980D01*
X126652611Y-17996232D01*
X126609172Y-17951873D01*
X126601803Y-17945777D01*
X126371309Y-17757791D01*
X126319596Y-17723433D01*
X126268369Y-17688358D01*
X126259956Y-17683808D01*
X125997338Y-17544172D01*
X125939933Y-17520512D01*
X125882876Y-17496057D01*
X125873739Y-17493229D01*
X125589001Y-17407260D01*
X125528071Y-17395196D01*
X125467368Y-17382293D01*
X125457860Y-17381293D01*
X125457856Y-17381293D01*
X125161844Y-17352269D01*
X125131922Y-17352269D01*
X125102182Y-17349038D01*
X125092618Y-17349004D01*
X125081979Y-17349041D01*
X125052205Y-17352065D01*
X125022278Y-17351856D01*
X125012759Y-17352789D01*
X124716956Y-17383879D01*
X124656095Y-17396372D01*
X124595152Y-17407998D01*
X124586001Y-17410760D01*
X124585997Y-17410761D01*
X124585994Y-17410762D01*
X124585995Y-17410762D01*
X124301864Y-17498716D01*
X124244634Y-17522774D01*
X124187068Y-17546032D01*
X124178623Y-17550522D01*
X123916988Y-17691988D01*
X123865527Y-17726699D01*
X123813567Y-17760700D01*
X123806155Y-17766745D01*
X123576980Y-17956334D01*
X123533232Y-18000389D01*
X123488873Y-18043828D01*
X123482777Y-18051197D01*
X123294791Y-18281691D01*
X123260433Y-18333404D01*
X123225358Y-18384631D01*
X123220808Y-18393044D01*
X123081172Y-18655662D01*
X123057512Y-18713067D01*
X123033057Y-18770124D01*
X123030229Y-18779261D01*
X122944260Y-19063999D01*
X122932196Y-19124929D01*
X122919293Y-19185632D01*
X122918293Y-19195144D01*
X122889269Y-19491156D01*
X122889269Y-19491173D01*
X122886001Y-19524353D01*
X122886000Y-21560146D01*
X87507128Y-21560146D01*
X86757322Y-21106873D01*
X85922020Y-20554805D01*
X85109657Y-19969573D01*
X84321514Y-19352102D01*
X83558888Y-18703410D01*
X82822971Y-18024508D01*
X82114992Y-17316529D01*
X81436090Y-16580612D01*
X80787398Y-15817986D01*
X80169927Y-15029843D01*
X80075229Y-14898391D01*
X94824519Y-14898391D01*
X94921843Y-15172752D01*
X95070822Y-15422855D01*
X95265731Y-15639088D01*
X95499080Y-15813141D01*
X95761901Y-15938325D01*
X95909110Y-15982976D01*
X96139000Y-15861655D01*
X96139000Y-14668500D01*
X94945186Y-14668500D01*
X94824519Y-14898391D01*
X80075229Y-14898391D01*
X79584695Y-14217480D01*
X79562970Y-14184609D01*
X94824519Y-14184609D01*
X94945186Y-14414500D01*
X96139000Y-14414500D01*
X96139000Y-13221345D01*
X95909110Y-13100024D01*
X95761901Y-13144675D01*
X95499080Y-13269859D01*
X95265731Y-13443912D01*
X95070822Y-13660145D01*
X94921843Y-13910248D01*
X94824519Y-14184609D01*
X79562970Y-14184609D01*
X79032627Y-13382178D01*
X78514668Y-12525369D01*
X78031615Y-11648372D01*
X77584263Y-10752629D01*
X77173358Y-9839636D01*
X76799537Y-8910808D01*
X76463426Y-7967698D01*
X76165555Y-7011797D01*
X75906419Y-6044690D01*
X75693432Y-5099000D01*
X105087517Y-5099000D01*
X100784574Y-9401945D01*
%TA.AperFunction,Conductor*%
D19*
G36*
X100784574Y-9401945D02*
G01*
X100752710Y-9428095D01*
X100726562Y-9459957D01*
X100648364Y-9555241D01*
X100570828Y-9700300D01*
X100523082Y-9857698D01*
X100506960Y-10021386D01*
X100511001Y-10062414D01*
X100511000Y-13313435D01*
X100399368Y-13388025D01*
X100192525Y-13594868D01*
X100076000Y-13769260D01*
X99959475Y-13594868D01*
X99752632Y-13388025D01*
X99509411Y-13225510D01*
X99239158Y-13113568D01*
X98952260Y-13056500D01*
X98659740Y-13056500D01*
X98372842Y-13113568D01*
X98102589Y-13225510D01*
X97859368Y-13388025D01*
X97652525Y-13594868D01*
X97530805Y-13777034D01*
X97461178Y-13660145D01*
X97266269Y-13443912D01*
X97032920Y-13269859D01*
X96770099Y-13144675D01*
X96622890Y-13100024D01*
X96393000Y-13221345D01*
X96393000Y-14414500D01*
X96413000Y-14414500D01*
X96413000Y-14668500D01*
X96393000Y-14668500D01*
X96393000Y-15861655D01*
X96622890Y-15982976D01*
X96770099Y-15938325D01*
X97032920Y-15813141D01*
X97266269Y-15639088D01*
X97461178Y-15422855D01*
X97530805Y-15305966D01*
X97652525Y-15488132D01*
X97859368Y-15694975D01*
X98102589Y-15857490D01*
X98372842Y-15969432D01*
X98659740Y-16026500D01*
X98952260Y-16026500D01*
X99239158Y-15969432D01*
X99509411Y-15857490D01*
X99752632Y-15694975D01*
X99959475Y-15488132D01*
X100076000Y-15313740D01*
X100192525Y-15488132D01*
X100399368Y-15694975D01*
X100642589Y-15857490D01*
X100912842Y-15969432D01*
X101199740Y-16026500D01*
X101492260Y-16026500D01*
X101779158Y-15969432D01*
X102049411Y-15857490D01*
X102292632Y-15694975D01*
X102424487Y-15563120D01*
X102446498Y-15635680D01*
X102505463Y-15745994D01*
X102584815Y-15842685D01*
X102681506Y-15922037D01*
X102791820Y-15981002D01*
X102911518Y-16017312D01*
X103036000Y-16029572D01*
X104736000Y-16029572D01*
X104860482Y-16017312D01*
X104980180Y-15981002D01*
X105090494Y-15922037D01*
X105187185Y-15842685D01*
X105266537Y-15745994D01*
X105325502Y-15635680D01*
X105361812Y-15515982D01*
X105374072Y-15391500D01*
X105374072Y-15378800D01*
X143469728Y-15378800D01*
X143481988Y-15503282D01*
X143518298Y-15622980D01*
X143577263Y-15733294D01*
X143656615Y-15829985D01*
X143753306Y-15909337D01*
X143863620Y-15968302D01*
X143983318Y-16004612D01*
X144107800Y-16016872D01*
X144672050Y-16013800D01*
X144830800Y-15855050D01*
X144830800Y-14655800D01*
X143631550Y-14655800D01*
X143472800Y-14814550D01*
X143469728Y-15378800D01*
X105374072Y-15378800D01*
X105374072Y-13691500D01*
X105372822Y-13678800D01*
X143469728Y-13678800D01*
X143472800Y-14243050D01*
X143631550Y-14401800D01*
X144830800Y-14401800D01*
X144830800Y-13202550D01*
X145084800Y-13202550D01*
X145084800Y-14401800D01*
X145104800Y-14401800D01*
X145104800Y-14655800D01*
X145084800Y-14655800D01*
X145084800Y-15855050D01*
X145243550Y-16013800D01*
X145807800Y-16016872D01*
X145932282Y-16004612D01*
X146051980Y-15968302D01*
X146162294Y-15909337D01*
X146258985Y-15829985D01*
X146338337Y-15733294D01*
X146397302Y-15622980D01*
X146419313Y-15550420D01*
X146551168Y-15682275D01*
X146794389Y-15844790D01*
X147064642Y-15956732D01*
X147351540Y-16013800D01*
X147644060Y-16013800D01*
X147930958Y-15956732D01*
X148201211Y-15844790D01*
X148444432Y-15682275D01*
X148651275Y-15475432D01*
X148767800Y-15301040D01*
X148884325Y-15475432D01*
X149091168Y-15682275D01*
X149334389Y-15844790D01*
X149604642Y-15956732D01*
X149891540Y-16013800D01*
X150184060Y-16013800D01*
X150470958Y-15956732D01*
X150741211Y-15844790D01*
X150984432Y-15682275D01*
X151191275Y-15475432D01*
X151307800Y-15301040D01*
X151424325Y-15475432D01*
X151631168Y-15682275D01*
X151874389Y-15844790D01*
X152144642Y-15956732D01*
X152431540Y-16013800D01*
X152724060Y-16013800D01*
X153010958Y-15956732D01*
X153281211Y-15844790D01*
X153524432Y-15682275D01*
X153731275Y-15475432D01*
X153847800Y-15301040D01*
X153964325Y-15475432D01*
X154171168Y-15682275D01*
X154414389Y-15844790D01*
X154684642Y-15956732D01*
X154971540Y-16013800D01*
X155264060Y-16013800D01*
X155550958Y-15956732D01*
X155821211Y-15844790D01*
X156064432Y-15682275D01*
X156271275Y-15475432D01*
X156433790Y-15232211D01*
X156545732Y-14961958D01*
X156602800Y-14675060D01*
X156602800Y-14382540D01*
X156545732Y-14095642D01*
X156433790Y-13825389D01*
X156271275Y-13582168D01*
X156064432Y-13375325D01*
X155821211Y-13212810D01*
X155550958Y-13100868D01*
X155264060Y-13043800D01*
X154971540Y-13043800D01*
X154684642Y-13100868D01*
X154414389Y-13212810D01*
X154171168Y-13375325D01*
X153964325Y-13582168D01*
X153847800Y-13756560D01*
X153731275Y-13582168D01*
X153524432Y-13375325D01*
X153281211Y-13212810D01*
X153010958Y-13100868D01*
X152724060Y-13043800D01*
X152431540Y-13043800D01*
X152144642Y-13100868D01*
X151874389Y-13212810D01*
X151631168Y-13375325D01*
X151424325Y-13582168D01*
X151307800Y-13756560D01*
X151191275Y-13582168D01*
X150984432Y-13375325D01*
X150741211Y-13212810D01*
X150470958Y-13100868D01*
X150184060Y-13043800D01*
X149891540Y-13043800D01*
X149604642Y-13100868D01*
X149334389Y-13212810D01*
X149091168Y-13375325D01*
X148884325Y-13582168D01*
X148767800Y-13756560D01*
X148651275Y-13582168D01*
X148444432Y-13375325D01*
X148201211Y-13212810D01*
X147930958Y-13100868D01*
X147644060Y-13043800D01*
X147351540Y-13043800D01*
X147064642Y-13100868D01*
X146794389Y-13212810D01*
X146551168Y-13375325D01*
X146419313Y-13507180D01*
X146397302Y-13434620D01*
X146338337Y-13324306D01*
X146258985Y-13227615D01*
X146162294Y-13148263D01*
X146051980Y-13089298D01*
X145932282Y-13052988D01*
X145807800Y-13040728D01*
X145243550Y-13043800D01*
X145084800Y-13202550D01*
X144830800Y-13202550D01*
X144672050Y-13043800D01*
X144107800Y-13040728D01*
X143983318Y-13052988D01*
X143863620Y-13089298D01*
X143753306Y-13148263D01*
X143656615Y-13227615D01*
X143577263Y-13324306D01*
X143518298Y-13434620D01*
X143481988Y-13554318D01*
X143469728Y-13678800D01*
X105372822Y-13678800D01*
X105361812Y-13567018D01*
X105325502Y-13447320D01*
X105266537Y-13337006D01*
X105187185Y-13240315D01*
X105090494Y-13160963D01*
X104980180Y-13101998D01*
X104860482Y-13065688D01*
X104736000Y-13053428D01*
X104721000Y-13053428D01*
X104721000Y-8675796D01*
X106465798Y-6931000D01*
X174046095Y-6931000D01*
X174024445Y-7011797D01*
X173726574Y-7967698D01*
X173390463Y-8910808D01*
X173016642Y-9839636D01*
X172605737Y-10752629D01*
X172158385Y-11648372D01*
X171675332Y-12525369D01*
X171157373Y-13382178D01*
X170605305Y-14217480D01*
X170020073Y-15029843D01*
X169402602Y-15817986D01*
X168753910Y-16580612D01*
X168075008Y-17316529D01*
X167367029Y-18024508D01*
X166631112Y-18703410D01*
X165868486Y-19352102D01*
X165080343Y-19969573D01*
X164267980Y-20554805D01*
X163432678Y-21106873D01*
X162575869Y-21624832D01*
X161698872Y-22107885D01*
X160803129Y-22555237D01*
X159890136Y-22966142D01*
X158961308Y-23339963D01*
X158018198Y-23676074D01*
X157062297Y-23973945D01*
X156095190Y-24233081D01*
X155365149Y-24397500D01*
X132686858Y-24397500D01*
X132653384Y-24289364D01*
X132629326Y-24232134D01*
X132606068Y-24174568D01*
X132601578Y-24166123D01*
X132460112Y-23904488D01*
X132425401Y-23853027D01*
X132391400Y-23801067D01*
X132385355Y-23793655D01*
X132195766Y-23564480D01*
X132151711Y-23520732D01*
X132108272Y-23476373D01*
X132100903Y-23470277D01*
X131870409Y-23282291D01*
X131818696Y-23247933D01*
X131767469Y-23212858D01*
X131759056Y-23208308D01*
X131496438Y-23068672D01*
X131439033Y-23045012D01*
X131381976Y-23020557D01*
X131372839Y-23017729D01*
X131088101Y-22931760D01*
X131027171Y-22919696D01*
X130966468Y-22906793D01*
X130956960Y-22905793D01*
X130956956Y-22905793D01*
X130660944Y-22876769D01*
X130660937Y-22876769D01*
X130627747Y-22873500D01*
X128591953Y-22873500D01*
X128562289Y-22876422D01*
X128552878Y-22876356D01*
X128543359Y-22877289D01*
X128247556Y-22908379D01*
X128186695Y-22920872D01*
X128125752Y-22932498D01*
X128116601Y-22935260D01*
X128116597Y-22935261D01*
X128116594Y-22935262D01*
X128116595Y-22935262D01*
X127832464Y-23023216D01*
X127775234Y-23047274D01*
X127717668Y-23070532D01*
X127709223Y-23075022D01*
X127447588Y-23216488D01*
X127396127Y-23251199D01*
X127344167Y-23285200D01*
X127336755Y-23291245D01*
X127107580Y-23480834D01*
X127063832Y-23524889D01*
X127019473Y-23568328D01*
X127013377Y-23575697D01*
X126825391Y-23806191D01*
X126791033Y-23857904D01*
X126755958Y-23909131D01*
X126751408Y-23917544D01*
X126611772Y-24180162D01*
X126588112Y-24237567D01*
X126563657Y-24294624D01*
X126560829Y-24303761D01*
X126532527Y-24397500D01*
X123657158Y-24397500D01*
X123623684Y-24289364D01*
X123599626Y-24232134D01*
X123576368Y-24174568D01*
X123571878Y-24166123D01*
X123430412Y-23904488D01*
X123395701Y-23853027D01*
X123361700Y-23801067D01*
X123355655Y-23793655D01*
X123166066Y-23564480D01*
X123122011Y-23520732D01*
X123078572Y-23476373D01*
X123071203Y-23470277D01*
X122840709Y-23282291D01*
X122788996Y-23247933D01*
X122737769Y-23212858D01*
X122729356Y-23208308D01*
X122466738Y-23068672D01*
X122409333Y-23045012D01*
X122352276Y-23020557D01*
X122343139Y-23017729D01*
X122058401Y-22931760D01*
X121997471Y-22919696D01*
X121936768Y-22906793D01*
X121927260Y-22905793D01*
X121927256Y-22905793D01*
X121631244Y-22876769D01*
X121631237Y-22876769D01*
X121598047Y-22873500D01*
X119562253Y-22873500D01*
X119532589Y-22876422D01*
X119523178Y-22876356D01*
X119513659Y-22877289D01*
X119217856Y-22908379D01*
X119156995Y-22920872D01*
X119096052Y-22932498D01*
X119086901Y-22935260D01*
X119086897Y-22935261D01*
X119086894Y-22935262D01*
X119086895Y-22935262D01*
X118802764Y-23023216D01*
X118745534Y-23047274D01*
X118687968Y-23070532D01*
X118679523Y-23075022D01*
X118417888Y-23216488D01*
X118366427Y-23251199D01*
X118314467Y-23285200D01*
X118307055Y-23291245D01*
X118077880Y-23480834D01*
X118034132Y-23524889D01*
X117989773Y-23568328D01*
X117983677Y-23575697D01*
X117795691Y-23806191D01*
X117761333Y-23857904D01*
X117726258Y-23909131D01*
X117721708Y-23917544D01*
X117582072Y-24180162D01*
X117558412Y-24237567D01*
X117533957Y-24294624D01*
X117531129Y-24303761D01*
X117502827Y-24397500D01*
X94824851Y-24397500D01*
X94094810Y-24233081D01*
X93127703Y-23973945D01*
X92171802Y-23676074D01*
X91228692Y-23339963D01*
X90299864Y-22966142D01*
X89386871Y-22555237D01*
X88491128Y-22107885D01*
X87614131Y-21624832D01*
X87507128Y-21560146D01*
X122886000Y-21560146D01*
X122888922Y-21589810D01*
X122888856Y-21599222D01*
X122889789Y-21608740D01*
X122920879Y-21904544D01*
X122933370Y-21965398D01*
X122944998Y-22026349D01*
X122947762Y-22035505D01*
X123035716Y-22319636D01*
X123059784Y-22376890D01*
X123083032Y-22434432D01*
X123087521Y-22442874D01*
X123087523Y-22442879D01*
X123087526Y-22442884D01*
X123228987Y-22704512D01*
X123263718Y-22756001D01*
X123297700Y-22807932D01*
X123303744Y-22815344D01*
X123493334Y-23044520D01*
X123537389Y-23088269D01*
X123580828Y-23132627D01*
X123588197Y-23138723D01*
X123818692Y-23326710D01*
X123870436Y-23361089D01*
X123921631Y-23396142D01*
X123930044Y-23400692D01*
X124192662Y-23540328D01*
X124250081Y-23563994D01*
X124307125Y-23588443D01*
X124316261Y-23591272D01*
X124600999Y-23677240D01*
X124661929Y-23689304D01*
X124722632Y-23702207D01*
X124732141Y-23703207D01*
X124732143Y-23703207D01*
X125028156Y-23732231D01*
X125058078Y-23732231D01*
X125087818Y-23735462D01*
X125097382Y-23735496D01*
X125108021Y-23735459D01*
X125137795Y-23732435D01*
X125167722Y-23732644D01*
X125177240Y-23731711D01*
X125473044Y-23700621D01*
X125533898Y-23688130D01*
X125594849Y-23676502D01*
X125603999Y-23673740D01*
X125604003Y-23673739D01*
X125604006Y-23673738D01*
X125888136Y-23585784D01*
X125945390Y-23561716D01*
X126002932Y-23538468D01*
X126011374Y-23533979D01*
X126011379Y-23533977D01*
X126011384Y-23533974D01*
X126273012Y-23392513D01*
X126324501Y-23357782D01*
X126376432Y-23323800D01*
X126383844Y-23317756D01*
X126613020Y-23128166D01*
X126656769Y-23084111D01*
X126701127Y-23040672D01*
X126707223Y-23033303D01*
X126895210Y-22802808D01*
X126929589Y-22751064D01*
X126964642Y-22699869D01*
X126969192Y-22691456D01*
X127108828Y-22428838D01*
X127132494Y-22371419D01*
X127156943Y-22314375D01*
X127159772Y-22305239D01*
X127245740Y-22020501D01*
X127257804Y-21959571D01*
X127270707Y-21898868D01*
X127271707Y-21889357D01*
X127300731Y-21593344D01*
X127300731Y-21593337D01*
X127304000Y-21560147D01*
X127304000Y-19524353D01*
X127301078Y-19494689D01*
X127301144Y-19485278D01*
X127300211Y-19475759D01*
X127269121Y-19179956D01*
X127256628Y-19119095D01*
X127245002Y-19058152D01*
X127242238Y-19048995D01*
X127154284Y-18764864D01*
X127130226Y-18707634D01*
X127106968Y-18650068D01*
X127102478Y-18641623D01*
X126961012Y-18379988D01*
X126926301Y-18328527D01*
X126892300Y-18276567D01*
X126886255Y-18269155D01*
X126696666Y-18039980D01*
X126652611Y-17996232D01*
X126609172Y-17951873D01*
X126601803Y-17945777D01*
X126371309Y-17757791D01*
X126319596Y-17723433D01*
X126268369Y-17688358D01*
X126259956Y-17683808D01*
X125997338Y-17544172D01*
X125939933Y-17520512D01*
X125882876Y-17496057D01*
X125873739Y-17493229D01*
X125589001Y-17407260D01*
X125528071Y-17395196D01*
X125467368Y-17382293D01*
X125457860Y-17381293D01*
X125457856Y-17381293D01*
X125161844Y-17352269D01*
X125131922Y-17352269D01*
X125102182Y-17349038D01*
X125092618Y-17349004D01*
X125081979Y-17349041D01*
X125052205Y-17352065D01*
X125022278Y-17351856D01*
X125012759Y-17352789D01*
X124716956Y-17383879D01*
X124656095Y-17396372D01*
X124595152Y-17407998D01*
X124586001Y-17410760D01*
X124585997Y-17410761D01*
X124585994Y-17410762D01*
X124585995Y-17410762D01*
X124301864Y-17498716D01*
X124244634Y-17522774D01*
X124187068Y-17546032D01*
X124178623Y-17550522D01*
X123916988Y-17691988D01*
X123865527Y-17726699D01*
X123813567Y-17760700D01*
X123806155Y-17766745D01*
X123576980Y-17956334D01*
X123533232Y-18000389D01*
X123488873Y-18043828D01*
X123482777Y-18051197D01*
X123294791Y-18281691D01*
X123260433Y-18333404D01*
X123225358Y-18384631D01*
X123220808Y-18393044D01*
X123081172Y-18655662D01*
X123057512Y-18713067D01*
X123033057Y-18770124D01*
X123030229Y-18779261D01*
X122944260Y-19063999D01*
X122932196Y-19124929D01*
X122919293Y-19185632D01*
X122918293Y-19195144D01*
X122889269Y-19491156D01*
X122889269Y-19491173D01*
X122886001Y-19524353D01*
X122886000Y-21560146D01*
X87507128Y-21560146D01*
X86757322Y-21106873D01*
X85922020Y-20554805D01*
X85109657Y-19969573D01*
X84321514Y-19352102D01*
X83558888Y-18703410D01*
X82822971Y-18024508D01*
X82114992Y-17316529D01*
X81436090Y-16580612D01*
X80787398Y-15817986D01*
X80169927Y-15029843D01*
X80075229Y-14898391D01*
X94824519Y-14898391D01*
X94921843Y-15172752D01*
X95070822Y-15422855D01*
X95265731Y-15639088D01*
X95499080Y-15813141D01*
X95761901Y-15938325D01*
X95909110Y-15982976D01*
X96139000Y-15861655D01*
X96139000Y-14668500D01*
X94945186Y-14668500D01*
X94824519Y-14898391D01*
X80075229Y-14898391D01*
X79584695Y-14217480D01*
X79562970Y-14184609D01*
X94824519Y-14184609D01*
X94945186Y-14414500D01*
X96139000Y-14414500D01*
X96139000Y-13221345D01*
X95909110Y-13100024D01*
X95761901Y-13144675D01*
X95499080Y-13269859D01*
X95265731Y-13443912D01*
X95070822Y-13660145D01*
X94921843Y-13910248D01*
X94824519Y-14184609D01*
X79562970Y-14184609D01*
X79032627Y-13382178D01*
X78514668Y-12525369D01*
X78031615Y-11648372D01*
X77584263Y-10752629D01*
X77173358Y-9839636D01*
X76799537Y-8910808D01*
X76463426Y-7967698D01*
X76165555Y-7011797D01*
X75906419Y-6044690D01*
X75693432Y-5099000D01*
X105087517Y-5099000D01*
X100784574Y-9401945D01*
G37*
%TD.AperFunction*%
D18*
X154957744Y4692295D02*
X155146102Y4614274D01*
X155291225Y4585407D01*
X156596059Y3280573D01*
X156622209Y3248709D01*
X156749354Y3144364D01*
X156894413Y3066828D01*
X157051811Y3019082D01*
X157174481Y3007000D01*
X157174491Y3007000D01*
X157215499Y3002961D01*
X157256507Y3007000D01*
X174809718Y3007000D01*
X174824714Y2901329D01*
X174861725Y2535000D01*
X154116343Y2535000D01*
X154163537Y2592506D01*
X154222502Y2702820D01*
X154258812Y2822518D01*
X154271072Y2947000D01*
X154268000Y3248750D01*
X154109250Y3407500D01*
X153035000Y3407500D01*
X153035000Y3387500D01*
X152781000Y3387500D01*
X152781000Y3407500D01*
X151706750Y3407500D01*
X151548000Y3248750D01*
X151544928Y2947000D01*
X151550732Y2888072D01*
X151514000Y2888072D01*
X151389518Y2875812D01*
X151269820Y2839502D01*
X151159506Y2780537D01*
X151062815Y2701185D01*
X150983463Y2604494D01*
X150924498Y2494180D01*
X150888188Y2374482D01*
X150875928Y2250000D01*
X150875928Y1150000D01*
X150888188Y1025518D01*
X150924498Y905820D01*
X150954335Y850000D01*
X150924498Y794180D01*
X150888188Y674482D01*
X150875928Y550000D01*
X150875928Y-550000D01*
X150888188Y-674482D01*
X150924498Y-794180D01*
X150954335Y-850000D01*
X150924498Y-905820D01*
X150888188Y-1025518D01*
X150875928Y-1150000D01*
X150875928Y-2250000D01*
X150888188Y-2374482D01*
X150924498Y-2494180D01*
X150983463Y-2604494D01*
X151062815Y-2701185D01*
X151159506Y-2780537D01*
X151269820Y-2839502D01*
X151389518Y-2875812D01*
X151514000Y-2888072D01*
X153514000Y-2888072D01*
X153638482Y-2875812D01*
X153758180Y-2839502D01*
X153868494Y-2780537D01*
X153912721Y-2744241D01*
X154026533Y-2791383D01*
X154245812Y-2835000D01*
X154469388Y-2835000D01*
X154688667Y-2791383D01*
X154895224Y-2705824D01*
X155081120Y-2581612D01*
X155239212Y-2423520D01*
X155363424Y-2237624D01*
X155448983Y-2031067D01*
X155492600Y-1811788D01*
X155492600Y-1588212D01*
X155448983Y-1368933D01*
X155363424Y-1162376D01*
X155239212Y-976480D01*
X155097732Y-835000D01*
X174991074Y-835000D01*
X174985812Y-1096271D01*
X174925361Y-2095653D01*
X174831062Y-3029000D01*
X168472339Y-3029000D01*
X168421504Y-3023993D01*
X168370669Y-3029000D01*
X168370666Y-3029000D01*
X168218609Y-3043976D01*
X168111386Y-3076502D01*
X167295614Y-3076502D01*
X167188391Y-3043976D01*
X167036334Y-3029000D01*
X167036324Y-3029000D01*
X166985496Y-3023994D01*
X166934668Y-3029000D01*
X157185187Y-3029000D01*
X157049067Y-2972617D01*
X156829788Y-2929000D01*
X156606212Y-2929000D01*
X156386933Y-2972617D01*
X156250813Y-3029000D01*
X107147187Y-3029000D01*
X107011067Y-2972617D01*
X106791788Y-2929000D01*
X106568212Y-2929000D01*
X106348933Y-2972617D01*
X106212813Y-3029000D01*
X75358938Y-3029000D01*
X75280234Y-2250000D01*
X96037928Y-2250000D01*
X96050188Y-2374482D01*
X96086498Y-2494180D01*
X96145463Y-2604494D01*
X96224815Y-2701185D01*
X96321506Y-2780537D01*
X96431820Y-2839502D01*
X96551518Y-2875812D01*
X96676000Y-2888072D01*
X97390250Y-2885000D01*
X97549000Y-2726250D01*
X97549000Y-1827000D01*
X97803000Y-1827000D01*
X97803000Y-2726250D01*
X97961750Y-2885000D01*
X98676000Y-2888072D01*
X98800482Y-2875812D01*
X98920180Y-2839502D01*
X99030494Y-2780537D01*
X99127185Y-2701185D01*
X99206537Y-2604494D01*
X99265502Y-2494180D01*
X99301812Y-2374482D01*
X99314072Y-2250000D01*
X99311000Y-1985750D01*
X99152250Y-1827000D01*
X97803000Y-1827000D01*
X97549000Y-1827000D01*
X96199750Y-1827000D01*
X96041000Y-1985750D01*
X96037928Y-2250000D01*
X75280234Y-2250000D01*
X75264639Y-2095653D01*
X75204188Y-1096271D01*
X75198926Y-835000D01*
X96108317Y-835000D01*
X96116335Y-850000D01*
X96086498Y-905820D01*
X96050188Y-1025518D01*
X96037928Y-1150000D01*
X96041000Y-1414250D01*
X96199750Y-1573000D01*
X97549000Y-1573000D01*
X97549000Y-1553000D01*
X97803000Y-1553000D01*
X97803000Y-1573000D01*
X99152250Y-1573000D01*
X99311000Y-1414250D01*
X99314072Y-1150000D01*
X99301812Y-1025518D01*
X99265502Y-905820D01*
X99235665Y-850000D01*
X99265502Y-794180D01*
X99301812Y-674482D01*
X99314072Y-550000D01*
X99314072Y550000D01*
X99301812Y674482D01*
X99265502Y794180D01*
X99235665Y850000D01*
X99265502Y905820D01*
X99301812Y1025518D01*
X99314072Y1150000D01*
X99314072Y2250000D01*
X99301812Y2374482D01*
X99265502Y2494180D01*
X99206537Y2604494D01*
X99127185Y2701185D01*
X99030494Y2780537D01*
X98920180Y2839502D01*
X98800482Y2875812D01*
X98676000Y2888072D01*
X96676000Y2888072D01*
X96551518Y2875812D01*
X96431820Y2839502D01*
X96321506Y2780537D01*
X96224815Y2701185D01*
X96145463Y2604494D01*
X96108317Y2535000D01*
X75328275Y2535000D01*
X75365286Y2901329D01*
X75483876Y3737000D01*
X99145750Y3737000D01*
X99199750Y3683000D01*
X99949000Y3683000D01*
X99949000Y3703000D01*
X100203000Y3703000D01*
X100203000Y3683000D01*
X100952250Y3683000D01*
X101111000Y3841750D01*
X101114072Y4006000D01*
X101101812Y4130482D01*
X101065502Y4250180D01*
X101008217Y4357350D01*
X101118795Y4467928D01*
X101426000Y4467928D01*
X101550482Y4480188D01*
X101639707Y4507254D01*
X101614463Y4476494D01*
X101555498Y4366180D01*
X101519188Y4246482D01*
X101506928Y4122000D01*
X101510000Y3820250D01*
X101668750Y3661500D01*
X102743000Y3661500D01*
X102743000Y3681500D01*
X102997000Y3681500D01*
X102997000Y3661500D01*
X104071250Y3661500D01*
X104230000Y3820250D01*
X104233072Y4122000D01*
X104220812Y4246482D01*
X104184502Y4366180D01*
X104125537Y4476494D01*
X104046185Y4573185D01*
X103966406Y4638658D01*
X103972962Y4644038D01*
X104036123Y4721000D01*
X105350133Y4721000D01*
X107060563Y3010568D01*
X107086709Y2978709D01*
X107118568Y2952563D01*
X107118570Y2952561D01*
X107166776Y2913000D01*
X107213854Y2874364D01*
X107358913Y2796828D01*
X107516311Y2749082D01*
X107638981Y2737000D01*
X107638982Y2737000D01*
X107680000Y2732960D01*
X107721018Y2737000D01*
X146127112Y2737000D01*
X146131595Y2728613D01*
X146208460Y2634953D01*
X146183463Y2604494D01*
X146146317Y2535000D01*
X104078343Y2535000D01*
X104125537Y2592506D01*
X104184502Y2702820D01*
X104220812Y2822518D01*
X104233072Y2947000D01*
X104230000Y3248750D01*
X104071250Y3407500D01*
X102997000Y3407500D01*
X102997000Y3387500D01*
X102743000Y3387500D01*
X102743000Y3407500D01*
X101668750Y3407500D01*
X101510000Y3248750D01*
X101506928Y2947000D01*
X101512732Y2888072D01*
X101476000Y2888072D01*
X101351518Y2875812D01*
X101231820Y2839502D01*
X101180470Y2812054D01*
X101064564Y2860065D01*
X101065502Y2861820D01*
X101101812Y2981518D01*
X101114072Y3106000D01*
X101111000Y3270250D01*
X100952250Y3429000D01*
X100203000Y3429000D01*
X100203000Y3409000D01*
X99949000Y3409000D01*
X99949000Y3429000D01*
X99199750Y3429000D01*
X99041000Y3270250D01*
X99037928Y3106000D01*
X99050188Y2981518D01*
X99086498Y2861820D01*
X99145463Y2751506D01*
X99224815Y2654815D01*
X99321506Y2575463D01*
X99431820Y2516498D01*
X99551518Y2480188D01*
X99676000Y2467928D01*
X99790250Y2471000D01*
X99948998Y2629748D01*
X99948998Y2621130D01*
X99829388Y2501520D01*
X99705176Y2315624D01*
X99619617Y2109067D01*
X99576000Y1889788D01*
X99576000Y1666212D01*
X99619617Y1446933D01*
X99676000Y1310812D01*
X99676001Y-838162D01*
X99670994Y-889000D01*
X99690977Y-1091895D01*
X99750160Y-1286993D01*
X99846266Y-1466797D01*
X99933425Y-1573000D01*
X99975605Y-1624396D01*
X100015092Y-1656802D01*
X100754197Y-2395908D01*
X100786604Y-2435396D01*
X100826092Y-2467803D01*
X100908587Y-2535506D01*
X100945463Y-2604494D01*
X101024815Y-2701185D01*
X101121506Y-2780537D01*
X101231820Y-2839502D01*
X101351518Y-2875812D01*
X101476000Y-2888072D01*
X103476000Y-2888072D01*
X103600482Y-2875812D01*
X103720180Y-2839502D01*
X103830494Y-2780537D01*
X103874721Y-2744241D01*
X103988533Y-2791383D01*
X104207812Y-2835000D01*
X104431388Y-2835000D01*
X104650667Y-2791383D01*
X104857224Y-2705824D01*
X105043120Y-2581612D01*
X105201212Y-2423520D01*
X105317154Y-2250000D01*
X146075928Y-2250000D01*
X146088188Y-2374482D01*
X146124498Y-2494180D01*
X146183463Y-2604494D01*
X146262815Y-2701185D01*
X146359506Y-2780537D01*
X146469820Y-2839502D01*
X146589518Y-2875812D01*
X146714000Y-2888072D01*
X147428250Y-2885000D01*
X147587000Y-2726250D01*
X147587000Y-1827000D01*
X146237750Y-1827000D01*
X146079000Y-1985750D01*
X146075928Y-2250000D01*
X105317154Y-2250000D01*
X105325424Y-2237624D01*
X105410983Y-2031067D01*
X105454600Y-1811788D01*
X105454600Y-1588212D01*
X105410983Y-1368933D01*
X105325424Y-1162376D01*
X105201212Y-976480D01*
X105059732Y-835000D01*
X146146317Y-835000D01*
X146154335Y-850000D01*
X146124498Y-905820D01*
X146088188Y-1025518D01*
X146075928Y-1150000D01*
X146079000Y-1414250D01*
X146237750Y-1573000D01*
X147587000Y-1573000D01*
X147587000Y-1553000D01*
X147841000Y-1553000D01*
X147841000Y-1573000D01*
X147861000Y-1573000D01*
X147861000Y-1827000D01*
X147841000Y-1827000D01*
X147841000Y-2726250D01*
X147999750Y-2885000D01*
X148714000Y-2888072D01*
X148838482Y-2875812D01*
X148958180Y-2839502D01*
X149068494Y-2780537D01*
X149165185Y-2701185D01*
X149244537Y-2604494D01*
X149303502Y-2494180D01*
X149339812Y-2374482D01*
X149352072Y-2250000D01*
X149349000Y-1985750D01*
X149287250Y-1924000D01*
X149415929Y-1924000D01*
X149615888Y-1884226D01*
X149804246Y-1806205D01*
X149973764Y-1692937D01*
X150117927Y-1548774D01*
X150231195Y-1379256D01*
X150309216Y-1190898D01*
X150348990Y-990939D01*
X150348990Y-787061D01*
X150309216Y-587102D01*
X150231195Y-398744D01*
X150148990Y-275715D01*
X150148990Y2471000D01*
X150241002Y2471000D01*
X150241002Y2629748D01*
X150399750Y2471000D01*
X150514000Y2467928D01*
X150638482Y2480188D01*
X150758180Y2516498D01*
X150868494Y2575463D01*
X150965185Y2654815D01*
X151044537Y2751506D01*
X151103502Y2861820D01*
X151139812Y2981518D01*
X151152072Y3106000D01*
X151149000Y3270250D01*
X150990250Y3429000D01*
X150241000Y3429000D01*
X150241000Y3409000D01*
X149987000Y3409000D01*
X149987000Y3429000D01*
X149967000Y3429000D01*
X149967000Y3683000D01*
X149987000Y3683000D01*
X149987000Y3703000D01*
X150241000Y3703000D01*
X150241000Y3683000D01*
X150990250Y3683000D01*
X151149000Y3841750D01*
X151152072Y4006000D01*
X151139812Y4130482D01*
X151103502Y4250180D01*
X151046217Y4357350D01*
X151156795Y4467928D01*
X151464000Y4467928D01*
X151588482Y4480188D01*
X151677707Y4507254D01*
X151652463Y4476494D01*
X151593498Y4366180D01*
X151557188Y4246482D01*
X151544928Y4122000D01*
X151548000Y3820250D01*
X151706750Y3661500D01*
X152781000Y3661500D01*
X152781000Y3681500D01*
X153035000Y3681500D01*
X153035000Y3661500D01*
X154109250Y3661500D01*
X154268000Y3820250D01*
X154271072Y4122000D01*
X154258812Y4246482D01*
X154222502Y4366180D01*
X154163537Y4476494D01*
X154084185Y4573185D01*
X154004406Y4638658D01*
X154010962Y4644038D01*
X154118029Y4774500D01*
X154834715Y4774500D01*
X154957744Y4692295D01*
%TA.AperFunction,Conductor*%
D19*
G36*
X154957744Y4692295D02*
G01*
X155146102Y4614274D01*
X155291225Y4585407D01*
X156596059Y3280573D01*
X156622209Y3248709D01*
X156749354Y3144364D01*
X156894413Y3066828D01*
X157051811Y3019082D01*
X157174481Y3007000D01*
X157174491Y3007000D01*
X157215499Y3002961D01*
X157256507Y3007000D01*
X174809718Y3007000D01*
X174824714Y2901329D01*
X174861725Y2535000D01*
X154116343Y2535000D01*
X154163537Y2592506D01*
X154222502Y2702820D01*
X154258812Y2822518D01*
X154271072Y2947000D01*
X154268000Y3248750D01*
X154109250Y3407500D01*
X153035000Y3407500D01*
X153035000Y3387500D01*
X152781000Y3387500D01*
X152781000Y3407500D01*
X151706750Y3407500D01*
X151548000Y3248750D01*
X151544928Y2947000D01*
X151550732Y2888072D01*
X151514000Y2888072D01*
X151389518Y2875812D01*
X151269820Y2839502D01*
X151159506Y2780537D01*
X151062815Y2701185D01*
X150983463Y2604494D01*
X150924498Y2494180D01*
X150888188Y2374482D01*
X150875928Y2250000D01*
X150875928Y1150000D01*
X150888188Y1025518D01*
X150924498Y905820D01*
X150954335Y850000D01*
X150924498Y794180D01*
X150888188Y674482D01*
X150875928Y550000D01*
X150875928Y-550000D01*
X150888188Y-674482D01*
X150924498Y-794180D01*
X150954335Y-850000D01*
X150924498Y-905820D01*
X150888188Y-1025518D01*
X150875928Y-1150000D01*
X150875928Y-2250000D01*
X150888188Y-2374482D01*
X150924498Y-2494180D01*
X150983463Y-2604494D01*
X151062815Y-2701185D01*
X151159506Y-2780537D01*
X151269820Y-2839502D01*
X151389518Y-2875812D01*
X151514000Y-2888072D01*
X153514000Y-2888072D01*
X153638482Y-2875812D01*
X153758180Y-2839502D01*
X153868494Y-2780537D01*
X153912721Y-2744241D01*
X154026533Y-2791383D01*
X154245812Y-2835000D01*
X154469388Y-2835000D01*
X154688667Y-2791383D01*
X154895224Y-2705824D01*
X155081120Y-2581612D01*
X155239212Y-2423520D01*
X155363424Y-2237624D01*
X155448983Y-2031067D01*
X155492600Y-1811788D01*
X155492600Y-1588212D01*
X155448983Y-1368933D01*
X155363424Y-1162376D01*
X155239212Y-976480D01*
X155097732Y-835000D01*
X174991074Y-835000D01*
X174985812Y-1096271D01*
X174925361Y-2095653D01*
X174831062Y-3029000D01*
X168472339Y-3029000D01*
X168421504Y-3023993D01*
X168370669Y-3029000D01*
X168370666Y-3029000D01*
X168218609Y-3043976D01*
X168111386Y-3076502D01*
X167295614Y-3076502D01*
X167188391Y-3043976D01*
X167036334Y-3029000D01*
X167036324Y-3029000D01*
X166985496Y-3023994D01*
X166934668Y-3029000D01*
X157185187Y-3029000D01*
X157049067Y-2972617D01*
X156829788Y-2929000D01*
X156606212Y-2929000D01*
X156386933Y-2972617D01*
X156250813Y-3029000D01*
X107147187Y-3029000D01*
X107011067Y-2972617D01*
X106791788Y-2929000D01*
X106568212Y-2929000D01*
X106348933Y-2972617D01*
X106212813Y-3029000D01*
X75358938Y-3029000D01*
X75280234Y-2250000D01*
X96037928Y-2250000D01*
X96050188Y-2374482D01*
X96086498Y-2494180D01*
X96145463Y-2604494D01*
X96224815Y-2701185D01*
X96321506Y-2780537D01*
X96431820Y-2839502D01*
X96551518Y-2875812D01*
X96676000Y-2888072D01*
X97390250Y-2885000D01*
X97549000Y-2726250D01*
X97549000Y-1827000D01*
X97803000Y-1827000D01*
X97803000Y-2726250D01*
X97961750Y-2885000D01*
X98676000Y-2888072D01*
X98800482Y-2875812D01*
X98920180Y-2839502D01*
X99030494Y-2780537D01*
X99127185Y-2701185D01*
X99206537Y-2604494D01*
X99265502Y-2494180D01*
X99301812Y-2374482D01*
X99314072Y-2250000D01*
X99311000Y-1985750D01*
X99152250Y-1827000D01*
X97803000Y-1827000D01*
X97549000Y-1827000D01*
X96199750Y-1827000D01*
X96041000Y-1985750D01*
X96037928Y-2250000D01*
X75280234Y-2250000D01*
X75264639Y-2095653D01*
X75204188Y-1096271D01*
X75198926Y-835000D01*
X96108317Y-835000D01*
X96116335Y-850000D01*
X96086498Y-905820D01*
X96050188Y-1025518D01*
X96037928Y-1150000D01*
X96041000Y-1414250D01*
X96199750Y-1573000D01*
X97549000Y-1573000D01*
X97549000Y-1553000D01*
X97803000Y-1553000D01*
X97803000Y-1573000D01*
X99152250Y-1573000D01*
X99311000Y-1414250D01*
X99314072Y-1150000D01*
X99301812Y-1025518D01*
X99265502Y-905820D01*
X99235665Y-850000D01*
X99265502Y-794180D01*
X99301812Y-674482D01*
X99314072Y-550000D01*
X99314072Y550000D01*
X99301812Y674482D01*
X99265502Y794180D01*
X99235665Y850000D01*
X99265502Y905820D01*
X99301812Y1025518D01*
X99314072Y1150000D01*
X99314072Y2250000D01*
X99301812Y2374482D01*
X99265502Y2494180D01*
X99206537Y2604494D01*
X99127185Y2701185D01*
X99030494Y2780537D01*
X98920180Y2839502D01*
X98800482Y2875812D01*
X98676000Y2888072D01*
X96676000Y2888072D01*
X96551518Y2875812D01*
X96431820Y2839502D01*
X96321506Y2780537D01*
X96224815Y2701185D01*
X96145463Y2604494D01*
X96108317Y2535000D01*
X75328275Y2535000D01*
X75365286Y2901329D01*
X75483876Y3737000D01*
X99145750Y3737000D01*
X99199750Y3683000D01*
X99949000Y3683000D01*
X99949000Y3703000D01*
X100203000Y3703000D01*
X100203000Y3683000D01*
X100952250Y3683000D01*
X101111000Y3841750D01*
X101114072Y4006000D01*
X101101812Y4130482D01*
X101065502Y4250180D01*
X101008217Y4357350D01*
X101118795Y4467928D01*
X101426000Y4467928D01*
X101550482Y4480188D01*
X101639707Y4507254D01*
X101614463Y4476494D01*
X101555498Y4366180D01*
X101519188Y4246482D01*
X101506928Y4122000D01*
X101510000Y3820250D01*
X101668750Y3661500D01*
X102743000Y3661500D01*
X102743000Y3681500D01*
X102997000Y3681500D01*
X102997000Y3661500D01*
X104071250Y3661500D01*
X104230000Y3820250D01*
X104233072Y4122000D01*
X104220812Y4246482D01*
X104184502Y4366180D01*
X104125537Y4476494D01*
X104046185Y4573185D01*
X103966406Y4638658D01*
X103972962Y4644038D01*
X104036123Y4721000D01*
X105350133Y4721000D01*
X107060563Y3010568D01*
X107086709Y2978709D01*
X107118568Y2952563D01*
X107118570Y2952561D01*
X107166776Y2913000D01*
X107213854Y2874364D01*
X107358913Y2796828D01*
X107516311Y2749082D01*
X107638981Y2737000D01*
X107638982Y2737000D01*
X107680000Y2732960D01*
X107721018Y2737000D01*
X146127112Y2737000D01*
X146131595Y2728613D01*
X146208460Y2634953D01*
X146183463Y2604494D01*
X146146317Y2535000D01*
X104078343Y2535000D01*
X104125537Y2592506D01*
X104184502Y2702820D01*
X104220812Y2822518D01*
X104233072Y2947000D01*
X104230000Y3248750D01*
X104071250Y3407500D01*
X102997000Y3407500D01*
X102997000Y3387500D01*
X102743000Y3387500D01*
X102743000Y3407500D01*
X101668750Y3407500D01*
X101510000Y3248750D01*
X101506928Y2947000D01*
X101512732Y2888072D01*
X101476000Y2888072D01*
X101351518Y2875812D01*
X101231820Y2839502D01*
X101180470Y2812054D01*
X101064564Y2860065D01*
X101065502Y2861820D01*
X101101812Y2981518D01*
X101114072Y3106000D01*
X101111000Y3270250D01*
X100952250Y3429000D01*
X100203000Y3429000D01*
X100203000Y3409000D01*
X99949000Y3409000D01*
X99949000Y3429000D01*
X99199750Y3429000D01*
X99041000Y3270250D01*
X99037928Y3106000D01*
X99050188Y2981518D01*
X99086498Y2861820D01*
X99145463Y2751506D01*
X99224815Y2654815D01*
X99321506Y2575463D01*
X99431820Y2516498D01*
X99551518Y2480188D01*
X99676000Y2467928D01*
X99790250Y2471000D01*
X99948998Y2629748D01*
X99948998Y2621130D01*
X99829388Y2501520D01*
X99705176Y2315624D01*
X99619617Y2109067D01*
X99576000Y1889788D01*
X99576000Y1666212D01*
X99619617Y1446933D01*
X99676000Y1310812D01*
X99676001Y-838162D01*
X99670994Y-889000D01*
X99690977Y-1091895D01*
X99750160Y-1286993D01*
X99846266Y-1466797D01*
X99933425Y-1573000D01*
X99975605Y-1624396D01*
X100015092Y-1656802D01*
X100754197Y-2395908D01*
X100786604Y-2435396D01*
X100826092Y-2467803D01*
X100908587Y-2535506D01*
X100945463Y-2604494D01*
X101024815Y-2701185D01*
X101121506Y-2780537D01*
X101231820Y-2839502D01*
X101351518Y-2875812D01*
X101476000Y-2888072D01*
X103476000Y-2888072D01*
X103600482Y-2875812D01*
X103720180Y-2839502D01*
X103830494Y-2780537D01*
X103874721Y-2744241D01*
X103988533Y-2791383D01*
X104207812Y-2835000D01*
X104431388Y-2835000D01*
X104650667Y-2791383D01*
X104857224Y-2705824D01*
X105043120Y-2581612D01*
X105201212Y-2423520D01*
X105317154Y-2250000D01*
X146075928Y-2250000D01*
X146088188Y-2374482D01*
X146124498Y-2494180D01*
X146183463Y-2604494D01*
X146262815Y-2701185D01*
X146359506Y-2780537D01*
X146469820Y-2839502D01*
X146589518Y-2875812D01*
X146714000Y-2888072D01*
X147428250Y-2885000D01*
X147587000Y-2726250D01*
X147587000Y-1827000D01*
X146237750Y-1827000D01*
X146079000Y-1985750D01*
X146075928Y-2250000D01*
X105317154Y-2250000D01*
X105325424Y-2237624D01*
X105410983Y-2031067D01*
X105454600Y-1811788D01*
X105454600Y-1588212D01*
X105410983Y-1368933D01*
X105325424Y-1162376D01*
X105201212Y-976480D01*
X105059732Y-835000D01*
X146146317Y-835000D01*
X146154335Y-850000D01*
X146124498Y-905820D01*
X146088188Y-1025518D01*
X146075928Y-1150000D01*
X146079000Y-1414250D01*
X146237750Y-1573000D01*
X147587000Y-1573000D01*
X147587000Y-1553000D01*
X147841000Y-1553000D01*
X147841000Y-1573000D01*
X147861000Y-1573000D01*
X147861000Y-1827000D01*
X147841000Y-1827000D01*
X147841000Y-2726250D01*
X147999750Y-2885000D01*
X148714000Y-2888072D01*
X148838482Y-2875812D01*
X148958180Y-2839502D01*
X149068494Y-2780537D01*
X149165185Y-2701185D01*
X149244537Y-2604494D01*
X149303502Y-2494180D01*
X149339812Y-2374482D01*
X149352072Y-2250000D01*
X149349000Y-1985750D01*
X149287250Y-1924000D01*
X149415929Y-1924000D01*
X149615888Y-1884226D01*
X149804246Y-1806205D01*
X149973764Y-1692937D01*
X150117927Y-1548774D01*
X150231195Y-1379256D01*
X150309216Y-1190898D01*
X150348990Y-990939D01*
X150348990Y-787061D01*
X150309216Y-587102D01*
X150231195Y-398744D01*
X150148990Y-275715D01*
X150148990Y2471000D01*
X150241002Y2471000D01*
X150241002Y2629748D01*
X150399750Y2471000D01*
X150514000Y2467928D01*
X150638482Y2480188D01*
X150758180Y2516498D01*
X150868494Y2575463D01*
X150965185Y2654815D01*
X151044537Y2751506D01*
X151103502Y2861820D01*
X151139812Y2981518D01*
X151152072Y3106000D01*
X151149000Y3270250D01*
X150990250Y3429000D01*
X150241000Y3429000D01*
X150241000Y3409000D01*
X149987000Y3409000D01*
X149987000Y3429000D01*
X149967000Y3429000D01*
X149967000Y3683000D01*
X149987000Y3683000D01*
X149987000Y3703000D01*
X150241000Y3703000D01*
X150241000Y3683000D01*
X150990250Y3683000D01*
X151149000Y3841750D01*
X151152072Y4006000D01*
X151139812Y4130482D01*
X151103502Y4250180D01*
X151046217Y4357350D01*
X151156795Y4467928D01*
X151464000Y4467928D01*
X151588482Y4480188D01*
X151677707Y4507254D01*
X151652463Y4476494D01*
X151593498Y4366180D01*
X151557188Y4246482D01*
X151544928Y4122000D01*
X151548000Y3820250D01*
X151706750Y3661500D01*
X152781000Y3661500D01*
X152781000Y3681500D01*
X153035000Y3681500D01*
X153035000Y3661500D01*
X154109250Y3661500D01*
X154268000Y3820250D01*
X154271072Y4122000D01*
X154258812Y4246482D01*
X154222502Y4366180D01*
X154163537Y4476494D01*
X154084185Y4573185D01*
X154004406Y4638658D01*
X154010962Y4644038D01*
X154118029Y4774500D01*
X154834715Y4774500D01*
X154957744Y4692295D01*
G37*
%TD.AperFunction*%
D18*
X117536616Y24098864D02*
X117560684Y24041610D01*
X117583932Y23984068D01*
X117588421Y23975626D01*
X117588423Y23975621D01*
X117588426Y23975616D01*
X117729887Y23713988D01*
X117764618Y23662499D01*
X117798600Y23610568D01*
X117804644Y23603156D01*
X117994234Y23373980D01*
X118038289Y23330231D01*
X118081728Y23285873D01*
X118089097Y23279777D01*
X118319592Y23091790D01*
X118371336Y23057411D01*
X118422531Y23022358D01*
X118430944Y23017808D01*
X118693562Y22878172D01*
X118750981Y22854506D01*
X118808025Y22830057D01*
X118817161Y22827228D01*
X119101899Y22741260D01*
X119162829Y22729196D01*
X119223532Y22716293D01*
X119233041Y22715293D01*
X119233043Y22715293D01*
X119529056Y22686269D01*
X119529063Y22686269D01*
X119562253Y22683000D01*
X121598047Y22683000D01*
X121627711Y22685922D01*
X121637122Y22685856D01*
X121646640Y22686789D01*
X121942444Y22717879D01*
X122003298Y22730370D01*
X122064249Y22741998D01*
X122073399Y22744760D01*
X122073403Y22744761D01*
X122073406Y22744762D01*
X122357536Y22832716D01*
X122414790Y22856784D01*
X122472332Y22880032D01*
X122480774Y22884521D01*
X122480779Y22884523D01*
X122480784Y22884526D01*
X122742412Y23025987D01*
X122793901Y23060718D01*
X122845832Y23094700D01*
X122853244Y23100744D01*
X123082420Y23290334D01*
X123126169Y23334389D01*
X123170527Y23377828D01*
X123176623Y23385197D01*
X123364610Y23615692D01*
X123398989Y23667436D01*
X123434042Y23718631D01*
X123438592Y23727044D01*
X123578228Y23989662D01*
X123601894Y24047081D01*
X123626343Y24104125D01*
X123629172Y24113261D01*
X123657474Y24207000D01*
X126532842Y24207000D01*
X126566316Y24098864D01*
X126590384Y24041610D01*
X126613632Y23984068D01*
X126618121Y23975626D01*
X126618123Y23975621D01*
X126618126Y23975616D01*
X126759587Y23713988D01*
X126794318Y23662499D01*
X126828300Y23610568D01*
X126834344Y23603156D01*
X127023934Y23373980D01*
X127067989Y23330231D01*
X127111428Y23285873D01*
X127118797Y23279777D01*
X127349292Y23091790D01*
X127401036Y23057411D01*
X127452231Y23022358D01*
X127460644Y23017808D01*
X127723262Y22878172D01*
X127780681Y22854506D01*
X127837725Y22830057D01*
X127846861Y22827228D01*
X128131599Y22741260D01*
X128192529Y22729196D01*
X128253232Y22716293D01*
X128262741Y22715293D01*
X128262743Y22715293D01*
X128558756Y22686269D01*
X128558763Y22686269D01*
X128591953Y22683000D01*
X130627747Y22683000D01*
X130657411Y22685922D01*
X130666822Y22685856D01*
X130676340Y22686789D01*
X130972144Y22717879D01*
X131032998Y22730370D01*
X131093949Y22741998D01*
X131103099Y22744760D01*
X131103103Y22744761D01*
X131103106Y22744762D01*
X131387236Y22832716D01*
X131444490Y22856784D01*
X131502032Y22880032D01*
X131510474Y22884521D01*
X131510479Y22884523D01*
X131510484Y22884526D01*
X131772112Y23025987D01*
X131823601Y23060718D01*
X131875532Y23094700D01*
X131882944Y23100744D01*
X132112120Y23290334D01*
X132155869Y23334389D01*
X132200227Y23377828D01*
X132206323Y23385197D01*
X132394310Y23615692D01*
X132428689Y23667436D01*
X132463742Y23718631D01*
X132468292Y23727044D01*
X132607928Y23989662D01*
X132631594Y24047081D01*
X132656043Y24104125D01*
X132658872Y24113261D01*
X132687174Y24207000D01*
X155365149Y24207000D01*
X156095190Y24042581D01*
X157062297Y23783445D01*
X158018198Y23485574D01*
X158961308Y23149463D01*
X159890136Y22775642D01*
X160803129Y22364737D01*
X161698872Y21917385D01*
X162575869Y21434332D01*
X163432678Y20916373D01*
X164267980Y20364305D01*
X165080343Y19779073D01*
X165868486Y19161602D01*
X166631112Y18512910D01*
X167367029Y17834008D01*
X168075008Y17126029D01*
X168753910Y16390112D01*
X169402602Y15627486D01*
X170020073Y14839343D01*
X170605305Y14026980D01*
X171157373Y13191678D01*
X171675332Y12334869D01*
X172158385Y11457872D01*
X172605737Y10562129D01*
X173016642Y9649136D01*
X173390463Y8720308D01*
X173726574Y7777198D01*
X174024445Y6821297D01*
X174283581Y5854190D01*
X174503566Y4877429D01*
X174540296Y4677000D01*
X157561368Y4677000D01*
X156472093Y5766275D01*
X156443226Y5911398D01*
X156365205Y6099756D01*
X156251937Y6269274D01*
X156107774Y6413437D01*
X155938256Y6526705D01*
X155749898Y6604726D01*
X155549939Y6644500D01*
X155346061Y6644500D01*
X155146102Y6604726D01*
X154957744Y6526705D01*
X154834715Y6444500D01*
X154118029Y6444500D01*
X154010962Y6574962D01*
X153876386Y6685405D01*
X153722850Y6767472D01*
X153556254Y6818008D01*
X153383000Y6835072D01*
X152433000Y6835072D01*
X152259746Y6818008D01*
X152093150Y6767472D01*
X151939614Y6685405D01*
X151805038Y6574962D01*
X151787222Y6553253D01*
X151708180Y6595502D01*
X151588482Y6631812D01*
X151464000Y6644072D01*
X150664000Y6644072D01*
X150539518Y6631812D01*
X150419820Y6595502D01*
X150309506Y6536537D01*
X150212815Y6457185D01*
X150133463Y6360494D01*
X150121664Y6338420D01*
X150159226Y6429102D01*
X150199000Y6629061D01*
X150199000Y6832939D01*
X150159226Y7032898D01*
X150081205Y7221256D01*
X149967937Y7390774D01*
X149823774Y7534937D01*
X149654256Y7648205D01*
X149465898Y7726226D01*
X149265939Y7766000D01*
X149062061Y7766000D01*
X148862102Y7726226D01*
X148673744Y7648205D01*
X148504226Y7534937D01*
X148360063Y7390774D01*
X148246795Y7221256D01*
X148168774Y7032898D01*
X148129000Y6832939D01*
X148129000Y6732237D01*
X148109851Y6742472D01*
X147943255Y6793008D01*
X147770001Y6810072D01*
X146869999Y6810072D01*
X146696745Y6793008D01*
X146530149Y6742472D01*
X146376613Y6660405D01*
X146242038Y6549962D01*
X146131595Y6415387D01*
X146049528Y6261851D01*
X145998992Y6095255D01*
X145981928Y5922001D01*
X145981928Y5221999D01*
X145998992Y5048745D01*
X146049528Y4882149D01*
X146131595Y4728613D01*
X146242038Y4594038D01*
X146268891Y4572000D01*
X146242038Y4549962D01*
X146131595Y4415387D01*
X146127112Y4407000D01*
X108025869Y4407000D01*
X106315446Y6117421D01*
X106289291Y6149291D01*
X106162146Y6253636D01*
X106017087Y6331172D01*
X105859689Y6378918D01*
X105737019Y6391000D01*
X105737018Y6391000D01*
X105696000Y6395040D01*
X105654982Y6391000D01*
X104109802Y6391000D01*
X104083405Y6440386D01*
X103972962Y6574962D01*
X103972262Y6575537D01*
X104040472Y6703149D01*
X104091008Y6869745D01*
X104108072Y7042999D01*
X104108072Y7943001D01*
X104091008Y8116255D01*
X104040472Y8282851D01*
X103958405Y8436387D01*
X103847962Y8570962D01*
X103713387Y8681405D01*
X103559851Y8763472D01*
X103393255Y8814008D01*
X103220001Y8831072D01*
X102519999Y8831072D01*
X102346745Y8814008D01*
X102180149Y8763472D01*
X102026613Y8681405D01*
X101892038Y8570962D01*
X101870000Y8544109D01*
X101847962Y8570962D01*
X101713387Y8681405D01*
X101559851Y8763472D01*
X101393255Y8814008D01*
X101220001Y8831072D01*
X100519999Y8831072D01*
X100346745Y8814008D01*
X100180149Y8763472D01*
X100026613Y8681405D01*
X99892038Y8570962D01*
X99781595Y8436387D01*
X99715827Y8313344D01*
X99566913Y8268172D01*
X99421854Y8190636D01*
X99294709Y8086291D01*
X99268563Y8054431D01*
X98969224Y7755092D01*
X98824102Y7726226D01*
X98635744Y7648205D01*
X98466226Y7534937D01*
X98322063Y7390774D01*
X98208795Y7221256D01*
X98130774Y7032898D01*
X98091000Y6832939D01*
X98091000Y6629061D01*
X98130774Y6429102D01*
X98175028Y6322264D01*
X98136498Y6250180D01*
X98100188Y6130482D01*
X98087928Y6006000D01*
X98087928Y5407000D01*
X75805703Y5407000D01*
X75906419Y5854190D01*
X76165555Y6821297D01*
X76463426Y7777198D01*
X76799537Y8720308D01*
X77173358Y9649136D01*
X77584263Y10562129D01*
X78031615Y11457872D01*
X78150934Y11674500D01*
X102066982Y11674500D01*
X102108000Y11670460D01*
X102149018Y11674500D01*
X102149019Y11674500D01*
X102271689Y11686582D01*
X102429087Y11734328D01*
X102574146Y11811864D01*
X102701291Y11916209D01*
X102727446Y11948079D01*
X103642296Y12862928D01*
X104736000Y12862928D01*
X104860482Y12875188D01*
X104980180Y12911498D01*
X105090494Y12970463D01*
X105187185Y13049815D01*
X105266537Y13146506D01*
X105325502Y13256820D01*
X105361812Y13376518D01*
X105374072Y13501000D01*
X143469728Y13501000D01*
X143481988Y13376518D01*
X143518298Y13256820D01*
X143577263Y13146506D01*
X143656615Y13049815D01*
X143753306Y12970463D01*
X143863620Y12911498D01*
X143983318Y12875188D01*
X144107800Y12862928D01*
X144672050Y12866000D01*
X144830800Y13024750D01*
X144830800Y14224000D01*
X143631550Y14224000D01*
X143472800Y14065250D01*
X143469728Y13501000D01*
X105374072Y13501000D01*
X105374072Y15201000D01*
X143469728Y15201000D01*
X143472800Y14636750D01*
X143631550Y14478000D01*
X144830800Y14478000D01*
X144830800Y15677250D01*
X145084800Y15677250D01*
X145084800Y14478000D01*
X145104800Y14478000D01*
X145104800Y14224000D01*
X145084800Y14224000D01*
X145084800Y13024750D01*
X145243550Y12866000D01*
X145807800Y12862928D01*
X145932282Y12875188D01*
X146051980Y12911498D01*
X146162294Y12970463D01*
X146258985Y13049815D01*
X146338337Y13146506D01*
X146397302Y13256820D01*
X146419313Y13329380D01*
X146551168Y13197525D01*
X146794389Y13035010D01*
X147064642Y12923068D01*
X147351540Y12866000D01*
X147644060Y12866000D01*
X147930958Y12923068D01*
X148201211Y13035010D01*
X148444432Y13197525D01*
X148651275Y13404368D01*
X148767800Y13578760D01*
X148884325Y13404368D01*
X149091168Y13197525D01*
X149334389Y13035010D01*
X149604642Y12923068D01*
X149891540Y12866000D01*
X150184060Y12866000D01*
X150470958Y12923068D01*
X150741211Y13035010D01*
X150984432Y13197525D01*
X151191275Y13404368D01*
X151307800Y13578760D01*
X151424325Y13404368D01*
X151631168Y13197525D01*
X151874389Y13035010D01*
X152144642Y12923068D01*
X152431540Y12866000D01*
X152724060Y12866000D01*
X153010958Y12923068D01*
X153281211Y13035010D01*
X153524432Y13197525D01*
X153731275Y13404368D01*
X153847800Y13578760D01*
X153964325Y13404368D01*
X154171168Y13197525D01*
X154414389Y13035010D01*
X154684642Y12923068D01*
X154971540Y12866000D01*
X155264060Y12866000D01*
X155550958Y12923068D01*
X155821211Y13035010D01*
X156064432Y13197525D01*
X156271275Y13404368D01*
X156433790Y13647589D01*
X156545732Y13917842D01*
X156602800Y14204740D01*
X156602800Y14497260D01*
X156545732Y14784158D01*
X156433790Y15054411D01*
X156271275Y15297632D01*
X156064432Y15504475D01*
X155821211Y15666990D01*
X155550958Y15778932D01*
X155264060Y15836000D01*
X154971540Y15836000D01*
X154684642Y15778932D01*
X154414389Y15666990D01*
X154171168Y15504475D01*
X153964325Y15297632D01*
X153847800Y15123240D01*
X153731275Y15297632D01*
X153524432Y15504475D01*
X153281211Y15666990D01*
X153010958Y15778932D01*
X152724060Y15836000D01*
X152431540Y15836000D01*
X152144642Y15778932D01*
X151874389Y15666990D01*
X151631168Y15504475D01*
X151424325Y15297632D01*
X151307800Y15123240D01*
X151191275Y15297632D01*
X150984432Y15504475D01*
X150741211Y15666990D01*
X150470958Y15778932D01*
X150184060Y15836000D01*
X149891540Y15836000D01*
X149604642Y15778932D01*
X149334389Y15666990D01*
X149091168Y15504475D01*
X148884325Y15297632D01*
X148767800Y15123240D01*
X148651275Y15297632D01*
X148444432Y15504475D01*
X148201211Y15666990D01*
X147930958Y15778932D01*
X147644060Y15836000D01*
X147351540Y15836000D01*
X147064642Y15778932D01*
X146794389Y15666990D01*
X146551168Y15504475D01*
X146419313Y15372620D01*
X146397302Y15445180D01*
X146338337Y15555494D01*
X146258985Y15652185D01*
X146162294Y15731537D01*
X146051980Y15790502D01*
X145932282Y15826812D01*
X145807800Y15839072D01*
X145243550Y15836000D01*
X145084800Y15677250D01*
X144830800Y15677250D01*
X144672050Y15836000D01*
X144107800Y15839072D01*
X143983318Y15826812D01*
X143863620Y15790502D01*
X143753306Y15731537D01*
X143656615Y15652185D01*
X143577263Y15555494D01*
X143518298Y15445180D01*
X143481988Y15325482D01*
X143469728Y15201000D01*
X105374072Y15201000D01*
X105361812Y15325482D01*
X105325502Y15445180D01*
X105266537Y15555494D01*
X105187185Y15652185D01*
X105090494Y15731537D01*
X104980180Y15790502D01*
X104860482Y15826812D01*
X104736000Y15839072D01*
X103036000Y15839072D01*
X102911518Y15826812D01*
X102791820Y15790502D01*
X102681506Y15731537D01*
X102584815Y15652185D01*
X102505463Y15555494D01*
X102446498Y15445180D01*
X102424487Y15372620D01*
X102292632Y15504475D01*
X102049411Y15666990D01*
X101779158Y15778932D01*
X101492260Y15836000D01*
X101199740Y15836000D01*
X101015096Y15799272D01*
X100314446Y16499921D01*
X100288291Y16531791D01*
X100161146Y16636136D01*
X100016087Y16713672D01*
X99858689Y16761418D01*
X99736019Y16773500D01*
X99736018Y16773500D01*
X99695000Y16777540D01*
X99653982Y16773500D01*
X81789775Y16773500D01*
X82114992Y17126029D01*
X82822971Y17834008D01*
X83558888Y18512910D01*
X84321514Y19161602D01*
X85109657Y19779073D01*
X85922020Y20364305D01*
X86757322Y20916373D01*
X87507127Y21369646D01*
X122886000Y21369646D01*
X122886001Y19333853D01*
X122888922Y19304198D01*
X122888856Y19294778D01*
X122889789Y19285260D01*
X122920879Y18989456D01*
X122933370Y18928602D01*
X122944998Y18867651D01*
X122947762Y18858495D01*
X123035716Y18574364D01*
X123059784Y18517110D01*
X123083032Y18459568D01*
X123087521Y18451126D01*
X123087523Y18451121D01*
X123087526Y18451116D01*
X123228987Y18189488D01*
X123263718Y18137999D01*
X123297700Y18086068D01*
X123303744Y18078656D01*
X123493334Y17849480D01*
X123537389Y17805731D01*
X123580828Y17761373D01*
X123588197Y17755277D01*
X123818692Y17567290D01*
X123870436Y17532911D01*
X123921631Y17497858D01*
X123930044Y17493308D01*
X124192662Y17353672D01*
X124250081Y17330006D01*
X124307125Y17305557D01*
X124316261Y17302728D01*
X124600999Y17216760D01*
X124661929Y17204696D01*
X124722632Y17191793D01*
X124732141Y17190793D01*
X124732143Y17190793D01*
X125028156Y17161769D01*
X125058078Y17161769D01*
X125087818Y17158538D01*
X125097382Y17158504D01*
X125108021Y17158541D01*
X125137795Y17161565D01*
X125167722Y17161356D01*
X125177240Y17162289D01*
X125473044Y17193379D01*
X125533898Y17205870D01*
X125594849Y17217498D01*
X125603999Y17220260D01*
X125604003Y17220261D01*
X125604006Y17220262D01*
X125888136Y17308216D01*
X125945390Y17332284D01*
X126002932Y17355532D01*
X126011374Y17360021D01*
X126011379Y17360023D01*
X126011384Y17360026D01*
X126273012Y17501487D01*
X126324501Y17536218D01*
X126376432Y17570200D01*
X126383844Y17576244D01*
X126613020Y17765834D01*
X126656769Y17809889D01*
X126701127Y17853328D01*
X126707223Y17860697D01*
X126895210Y18091192D01*
X126929589Y18142936D01*
X126964642Y18194131D01*
X126969192Y18202544D01*
X127108828Y18465162D01*
X127132494Y18522581D01*
X127156943Y18579625D01*
X127159772Y18588761D01*
X127245740Y18873499D01*
X127257804Y18934429D01*
X127270707Y18995132D01*
X127271707Y19004643D01*
X127300731Y19300656D01*
X127300731Y19300663D01*
X127304000Y19333853D01*
X127304000Y21369647D01*
X127301078Y21399311D01*
X127301144Y21408722D01*
X127300211Y21418241D01*
X127269121Y21714044D01*
X127256628Y21774905D01*
X127245002Y21835848D01*
X127242238Y21845005D01*
X127154284Y22129136D01*
X127130226Y22186366D01*
X127106968Y22243932D01*
X127102478Y22252377D01*
X126961012Y22514012D01*
X126926301Y22565473D01*
X126892300Y22617433D01*
X126886255Y22624845D01*
X126696666Y22854020D01*
X126652611Y22897768D01*
X126609172Y22942127D01*
X126601803Y22948223D01*
X126371309Y23136209D01*
X126319596Y23170567D01*
X126268369Y23205642D01*
X126259956Y23210192D01*
X125997338Y23349828D01*
X125939933Y23373488D01*
X125882876Y23397943D01*
X125873739Y23400771D01*
X125589001Y23486740D01*
X125528071Y23498804D01*
X125467368Y23511707D01*
X125457860Y23512707D01*
X125457856Y23512707D01*
X125161844Y23541731D01*
X125131922Y23541731D01*
X125102182Y23544962D01*
X125092618Y23544996D01*
X125081979Y23544959D01*
X125052205Y23541935D01*
X125022278Y23542144D01*
X125012759Y23541211D01*
X124716956Y23510121D01*
X124656095Y23497628D01*
X124595152Y23486002D01*
X124586001Y23483240D01*
X124585997Y23483239D01*
X124585994Y23483238D01*
X124585995Y23483238D01*
X124301864Y23395284D01*
X124244634Y23371226D01*
X124187068Y23347968D01*
X124178623Y23343478D01*
X123916988Y23202012D01*
X123865527Y23167301D01*
X123813567Y23133300D01*
X123806155Y23127255D01*
X123576980Y22937666D01*
X123533232Y22893611D01*
X123488873Y22850172D01*
X123482777Y22842803D01*
X123294791Y22612309D01*
X123260433Y22560596D01*
X123225358Y22509369D01*
X123220808Y22500956D01*
X123081172Y22238338D01*
X123057512Y22180933D01*
X123033057Y22123876D01*
X123030229Y22114739D01*
X122944260Y21830001D01*
X122932196Y21769071D01*
X122919293Y21708368D01*
X122918293Y21698856D01*
X122889269Y21402844D01*
X122889269Y21402836D01*
X122886000Y21369646D01*
X87507127Y21369646D01*
X87614131Y21434332D01*
X88491128Y21917385D01*
X89386871Y22364737D01*
X90299864Y22775642D01*
X91228692Y23149463D01*
X92171802Y23485574D01*
X93127703Y23783445D01*
X94094810Y24042581D01*
X94824851Y24207000D01*
X117503142Y24207000D01*
X117536616Y24098864D01*
%TA.AperFunction,Conductor*%
D19*
G36*
X117536616Y24098864D02*
G01*
X117560684Y24041610D01*
X117583932Y23984068D01*
X117588421Y23975626D01*
X117588423Y23975621D01*
X117588426Y23975616D01*
X117729887Y23713988D01*
X117764618Y23662499D01*
X117798600Y23610568D01*
X117804644Y23603156D01*
X117994234Y23373980D01*
X118038289Y23330231D01*
X118081728Y23285873D01*
X118089097Y23279777D01*
X118319592Y23091790D01*
X118371336Y23057411D01*
X118422531Y23022358D01*
X118430944Y23017808D01*
X118693562Y22878172D01*
X118750981Y22854506D01*
X118808025Y22830057D01*
X118817161Y22827228D01*
X119101899Y22741260D01*
X119162829Y22729196D01*
X119223532Y22716293D01*
X119233041Y22715293D01*
X119233043Y22715293D01*
X119529056Y22686269D01*
X119529063Y22686269D01*
X119562253Y22683000D01*
X121598047Y22683000D01*
X121627711Y22685922D01*
X121637122Y22685856D01*
X121646640Y22686789D01*
X121942444Y22717879D01*
X122003298Y22730370D01*
X122064249Y22741998D01*
X122073399Y22744760D01*
X122073403Y22744761D01*
X122073406Y22744762D01*
X122357536Y22832716D01*
X122414790Y22856784D01*
X122472332Y22880032D01*
X122480774Y22884521D01*
X122480779Y22884523D01*
X122480784Y22884526D01*
X122742412Y23025987D01*
X122793901Y23060718D01*
X122845832Y23094700D01*
X122853244Y23100744D01*
X123082420Y23290334D01*
X123126169Y23334389D01*
X123170527Y23377828D01*
X123176623Y23385197D01*
X123364610Y23615692D01*
X123398989Y23667436D01*
X123434042Y23718631D01*
X123438592Y23727044D01*
X123578228Y23989662D01*
X123601894Y24047081D01*
X123626343Y24104125D01*
X123629172Y24113261D01*
X123657474Y24207000D01*
X126532842Y24207000D01*
X126566316Y24098864D01*
X126590384Y24041610D01*
X126613632Y23984068D01*
X126618121Y23975626D01*
X126618123Y23975621D01*
X126618126Y23975616D01*
X126759587Y23713988D01*
X126794318Y23662499D01*
X126828300Y23610568D01*
X126834344Y23603156D01*
X127023934Y23373980D01*
X127067989Y23330231D01*
X127111428Y23285873D01*
X127118797Y23279777D01*
X127349292Y23091790D01*
X127401036Y23057411D01*
X127452231Y23022358D01*
X127460644Y23017808D01*
X127723262Y22878172D01*
X127780681Y22854506D01*
X127837725Y22830057D01*
X127846861Y22827228D01*
X128131599Y22741260D01*
X128192529Y22729196D01*
X128253232Y22716293D01*
X128262741Y22715293D01*
X128262743Y22715293D01*
X128558756Y22686269D01*
X128558763Y22686269D01*
X128591953Y22683000D01*
X130627747Y22683000D01*
X130657411Y22685922D01*
X130666822Y22685856D01*
X130676340Y22686789D01*
X130972144Y22717879D01*
X131032998Y22730370D01*
X131093949Y22741998D01*
X131103099Y22744760D01*
X131103103Y22744761D01*
X131103106Y22744762D01*
X131387236Y22832716D01*
X131444490Y22856784D01*
X131502032Y22880032D01*
X131510474Y22884521D01*
X131510479Y22884523D01*
X131510484Y22884526D01*
X131772112Y23025987D01*
X131823601Y23060718D01*
X131875532Y23094700D01*
X131882944Y23100744D01*
X132112120Y23290334D01*
X132155869Y23334389D01*
X132200227Y23377828D01*
X132206323Y23385197D01*
X132394310Y23615692D01*
X132428689Y23667436D01*
X132463742Y23718631D01*
X132468292Y23727044D01*
X132607928Y23989662D01*
X132631594Y24047081D01*
X132656043Y24104125D01*
X132658872Y24113261D01*
X132687174Y24207000D01*
X155365149Y24207000D01*
X156095190Y24042581D01*
X157062297Y23783445D01*
X158018198Y23485574D01*
X158961308Y23149463D01*
X159890136Y22775642D01*
X160803129Y22364737D01*
X161698872Y21917385D01*
X162575869Y21434332D01*
X163432678Y20916373D01*
X164267980Y20364305D01*
X165080343Y19779073D01*
X165868486Y19161602D01*
X166631112Y18512910D01*
X167367029Y17834008D01*
X168075008Y17126029D01*
X168753910Y16390112D01*
X169402602Y15627486D01*
X170020073Y14839343D01*
X170605305Y14026980D01*
X171157373Y13191678D01*
X171675332Y12334869D01*
X172158385Y11457872D01*
X172605737Y10562129D01*
X173016642Y9649136D01*
X173390463Y8720308D01*
X173726574Y7777198D01*
X174024445Y6821297D01*
X174283581Y5854190D01*
X174503566Y4877429D01*
X174540296Y4677000D01*
X157561368Y4677000D01*
X156472093Y5766275D01*
X156443226Y5911398D01*
X156365205Y6099756D01*
X156251937Y6269274D01*
X156107774Y6413437D01*
X155938256Y6526705D01*
X155749898Y6604726D01*
X155549939Y6644500D01*
X155346061Y6644500D01*
X155146102Y6604726D01*
X154957744Y6526705D01*
X154834715Y6444500D01*
X154118029Y6444500D01*
X154010962Y6574962D01*
X153876386Y6685405D01*
X153722850Y6767472D01*
X153556254Y6818008D01*
X153383000Y6835072D01*
X152433000Y6835072D01*
X152259746Y6818008D01*
X152093150Y6767472D01*
X151939614Y6685405D01*
X151805038Y6574962D01*
X151787222Y6553253D01*
X151708180Y6595502D01*
X151588482Y6631812D01*
X151464000Y6644072D01*
X150664000Y6644072D01*
X150539518Y6631812D01*
X150419820Y6595502D01*
X150309506Y6536537D01*
X150212815Y6457185D01*
X150133463Y6360494D01*
X150121664Y6338420D01*
X150159226Y6429102D01*
X150199000Y6629061D01*
X150199000Y6832939D01*
X150159226Y7032898D01*
X150081205Y7221256D01*
X149967937Y7390774D01*
X149823774Y7534937D01*
X149654256Y7648205D01*
X149465898Y7726226D01*
X149265939Y7766000D01*
X149062061Y7766000D01*
X148862102Y7726226D01*
X148673744Y7648205D01*
X148504226Y7534937D01*
X148360063Y7390774D01*
X148246795Y7221256D01*
X148168774Y7032898D01*
X148129000Y6832939D01*
X148129000Y6732237D01*
X148109851Y6742472D01*
X147943255Y6793008D01*
X147770001Y6810072D01*
X146869999Y6810072D01*
X146696745Y6793008D01*
X146530149Y6742472D01*
X146376613Y6660405D01*
X146242038Y6549962D01*
X146131595Y6415387D01*
X146049528Y6261851D01*
X145998992Y6095255D01*
X145981928Y5922001D01*
X145981928Y5221999D01*
X145998992Y5048745D01*
X146049528Y4882149D01*
X146131595Y4728613D01*
X146242038Y4594038D01*
X146268891Y4572000D01*
X146242038Y4549962D01*
X146131595Y4415387D01*
X146127112Y4407000D01*
X108025869Y4407000D01*
X106315446Y6117421D01*
X106289291Y6149291D01*
X106162146Y6253636D01*
X106017087Y6331172D01*
X105859689Y6378918D01*
X105737019Y6391000D01*
X105737018Y6391000D01*
X105696000Y6395040D01*
X105654982Y6391000D01*
X104109802Y6391000D01*
X104083405Y6440386D01*
X103972962Y6574962D01*
X103972262Y6575537D01*
X104040472Y6703149D01*
X104091008Y6869745D01*
X104108072Y7042999D01*
X104108072Y7943001D01*
X104091008Y8116255D01*
X104040472Y8282851D01*
X103958405Y8436387D01*
X103847962Y8570962D01*
X103713387Y8681405D01*
X103559851Y8763472D01*
X103393255Y8814008D01*
X103220001Y8831072D01*
X102519999Y8831072D01*
X102346745Y8814008D01*
X102180149Y8763472D01*
X102026613Y8681405D01*
X101892038Y8570962D01*
X101870000Y8544109D01*
X101847962Y8570962D01*
X101713387Y8681405D01*
X101559851Y8763472D01*
X101393255Y8814008D01*
X101220001Y8831072D01*
X100519999Y8831072D01*
X100346745Y8814008D01*
X100180149Y8763472D01*
X100026613Y8681405D01*
X99892038Y8570962D01*
X99781595Y8436387D01*
X99715827Y8313344D01*
X99566913Y8268172D01*
X99421854Y8190636D01*
X99294709Y8086291D01*
X99268563Y8054431D01*
X98969224Y7755092D01*
X98824102Y7726226D01*
X98635744Y7648205D01*
X98466226Y7534937D01*
X98322063Y7390774D01*
X98208795Y7221256D01*
X98130774Y7032898D01*
X98091000Y6832939D01*
X98091000Y6629061D01*
X98130774Y6429102D01*
X98175028Y6322264D01*
X98136498Y6250180D01*
X98100188Y6130482D01*
X98087928Y6006000D01*
X98087928Y5407000D01*
X75805703Y5407000D01*
X75906419Y5854190D01*
X76165555Y6821297D01*
X76463426Y7777198D01*
X76799537Y8720308D01*
X77173358Y9649136D01*
X77584263Y10562129D01*
X78031615Y11457872D01*
X78150934Y11674500D01*
X102066982Y11674500D01*
X102108000Y11670460D01*
X102149018Y11674500D01*
X102149019Y11674500D01*
X102271689Y11686582D01*
X102429087Y11734328D01*
X102574146Y11811864D01*
X102701291Y11916209D01*
X102727446Y11948079D01*
X103642296Y12862928D01*
X104736000Y12862928D01*
X104860482Y12875188D01*
X104980180Y12911498D01*
X105090494Y12970463D01*
X105187185Y13049815D01*
X105266537Y13146506D01*
X105325502Y13256820D01*
X105361812Y13376518D01*
X105374072Y13501000D01*
X143469728Y13501000D01*
X143481988Y13376518D01*
X143518298Y13256820D01*
X143577263Y13146506D01*
X143656615Y13049815D01*
X143753306Y12970463D01*
X143863620Y12911498D01*
X143983318Y12875188D01*
X144107800Y12862928D01*
X144672050Y12866000D01*
X144830800Y13024750D01*
X144830800Y14224000D01*
X143631550Y14224000D01*
X143472800Y14065250D01*
X143469728Y13501000D01*
X105374072Y13501000D01*
X105374072Y15201000D01*
X143469728Y15201000D01*
X143472800Y14636750D01*
X143631550Y14478000D01*
X144830800Y14478000D01*
X144830800Y15677250D01*
X145084800Y15677250D01*
X145084800Y14478000D01*
X145104800Y14478000D01*
X145104800Y14224000D01*
X145084800Y14224000D01*
X145084800Y13024750D01*
X145243550Y12866000D01*
X145807800Y12862928D01*
X145932282Y12875188D01*
X146051980Y12911498D01*
X146162294Y12970463D01*
X146258985Y13049815D01*
X146338337Y13146506D01*
X146397302Y13256820D01*
X146419313Y13329380D01*
X146551168Y13197525D01*
X146794389Y13035010D01*
X147064642Y12923068D01*
X147351540Y12866000D01*
X147644060Y12866000D01*
X147930958Y12923068D01*
X148201211Y13035010D01*
X148444432Y13197525D01*
X148651275Y13404368D01*
X148767800Y13578760D01*
X148884325Y13404368D01*
X149091168Y13197525D01*
X149334389Y13035010D01*
X149604642Y12923068D01*
X149891540Y12866000D01*
X150184060Y12866000D01*
X150470958Y12923068D01*
X150741211Y13035010D01*
X150984432Y13197525D01*
X151191275Y13404368D01*
X151307800Y13578760D01*
X151424325Y13404368D01*
X151631168Y13197525D01*
X151874389Y13035010D01*
X152144642Y12923068D01*
X152431540Y12866000D01*
X152724060Y12866000D01*
X153010958Y12923068D01*
X153281211Y13035010D01*
X153524432Y13197525D01*
X153731275Y13404368D01*
X153847800Y13578760D01*
X153964325Y13404368D01*
X154171168Y13197525D01*
X154414389Y13035010D01*
X154684642Y12923068D01*
X154971540Y12866000D01*
X155264060Y12866000D01*
X155550958Y12923068D01*
X155821211Y13035010D01*
X156064432Y13197525D01*
X156271275Y13404368D01*
X156433790Y13647589D01*
X156545732Y13917842D01*
X156602800Y14204740D01*
X156602800Y14497260D01*
X156545732Y14784158D01*
X156433790Y15054411D01*
X156271275Y15297632D01*
X156064432Y15504475D01*
X155821211Y15666990D01*
X155550958Y15778932D01*
X155264060Y15836000D01*
X154971540Y15836000D01*
X154684642Y15778932D01*
X154414389Y15666990D01*
X154171168Y15504475D01*
X153964325Y15297632D01*
X153847800Y15123240D01*
X153731275Y15297632D01*
X153524432Y15504475D01*
X153281211Y15666990D01*
X153010958Y15778932D01*
X152724060Y15836000D01*
X152431540Y15836000D01*
X152144642Y15778932D01*
X151874389Y15666990D01*
X151631168Y15504475D01*
X151424325Y15297632D01*
X151307800Y15123240D01*
X151191275Y15297632D01*
X150984432Y15504475D01*
X150741211Y15666990D01*
X150470958Y15778932D01*
X150184060Y15836000D01*
X149891540Y15836000D01*
X149604642Y15778932D01*
X149334389Y15666990D01*
X149091168Y15504475D01*
X148884325Y15297632D01*
X148767800Y15123240D01*
X148651275Y15297632D01*
X148444432Y15504475D01*
X148201211Y15666990D01*
X147930958Y15778932D01*
X147644060Y15836000D01*
X147351540Y15836000D01*
X147064642Y15778932D01*
X146794389Y15666990D01*
X146551168Y15504475D01*
X146419313Y15372620D01*
X146397302Y15445180D01*
X146338337Y15555494D01*
X146258985Y15652185D01*
X146162294Y15731537D01*
X146051980Y15790502D01*
X145932282Y15826812D01*
X145807800Y15839072D01*
X145243550Y15836000D01*
X145084800Y15677250D01*
X144830800Y15677250D01*
X144672050Y15836000D01*
X144107800Y15839072D01*
X143983318Y15826812D01*
X143863620Y15790502D01*
X143753306Y15731537D01*
X143656615Y15652185D01*
X143577263Y15555494D01*
X143518298Y15445180D01*
X143481988Y15325482D01*
X143469728Y15201000D01*
X105374072Y15201000D01*
X105361812Y15325482D01*
X105325502Y15445180D01*
X105266537Y15555494D01*
X105187185Y15652185D01*
X105090494Y15731537D01*
X104980180Y15790502D01*
X104860482Y15826812D01*
X104736000Y15839072D01*
X103036000Y15839072D01*
X102911518Y15826812D01*
X102791820Y15790502D01*
X102681506Y15731537D01*
X102584815Y15652185D01*
X102505463Y15555494D01*
X102446498Y15445180D01*
X102424487Y15372620D01*
X102292632Y15504475D01*
X102049411Y15666990D01*
X101779158Y15778932D01*
X101492260Y15836000D01*
X101199740Y15836000D01*
X101015096Y15799272D01*
X100314446Y16499921D01*
X100288291Y16531791D01*
X100161146Y16636136D01*
X100016087Y16713672D01*
X99858689Y16761418D01*
X99736019Y16773500D01*
X99736018Y16773500D01*
X99695000Y16777540D01*
X99653982Y16773500D01*
X81789775Y16773500D01*
X82114992Y17126029D01*
X82822971Y17834008D01*
X83558888Y18512910D01*
X84321514Y19161602D01*
X85109657Y19779073D01*
X85922020Y20364305D01*
X86757322Y20916373D01*
X87507127Y21369646D01*
X122886000Y21369646D01*
X122886001Y19333853D01*
X122888922Y19304198D01*
X122888856Y19294778D01*
X122889789Y19285260D01*
X122920879Y18989456D01*
X122933370Y18928602D01*
X122944998Y18867651D01*
X122947762Y18858495D01*
X123035716Y18574364D01*
X123059784Y18517110D01*
X123083032Y18459568D01*
X123087521Y18451126D01*
X123087523Y18451121D01*
X123087526Y18451116D01*
X123228987Y18189488D01*
X123263718Y18137999D01*
X123297700Y18086068D01*
X123303744Y18078656D01*
X123493334Y17849480D01*
X123537389Y17805731D01*
X123580828Y17761373D01*
X123588197Y17755277D01*
X123818692Y17567290D01*
X123870436Y17532911D01*
X123921631Y17497858D01*
X123930044Y17493308D01*
X124192662Y17353672D01*
X124250081Y17330006D01*
X124307125Y17305557D01*
X124316261Y17302728D01*
X124600999Y17216760D01*
X124661929Y17204696D01*
X124722632Y17191793D01*
X124732141Y17190793D01*
X124732143Y17190793D01*
X125028156Y17161769D01*
X125058078Y17161769D01*
X125087818Y17158538D01*
X125097382Y17158504D01*
X125108021Y17158541D01*
X125137795Y17161565D01*
X125167722Y17161356D01*
X125177240Y17162289D01*
X125473044Y17193379D01*
X125533898Y17205870D01*
X125594849Y17217498D01*
X125603999Y17220260D01*
X125604003Y17220261D01*
X125604006Y17220262D01*
X125888136Y17308216D01*
X125945390Y17332284D01*
X126002932Y17355532D01*
X126011374Y17360021D01*
X126011379Y17360023D01*
X126011384Y17360026D01*
X126273012Y17501487D01*
X126324501Y17536218D01*
X126376432Y17570200D01*
X126383844Y17576244D01*
X126613020Y17765834D01*
X126656769Y17809889D01*
X126701127Y17853328D01*
X126707223Y17860697D01*
X126895210Y18091192D01*
X126929589Y18142936D01*
X126964642Y18194131D01*
X126969192Y18202544D01*
X127108828Y18465162D01*
X127132494Y18522581D01*
X127156943Y18579625D01*
X127159772Y18588761D01*
X127245740Y18873499D01*
X127257804Y18934429D01*
X127270707Y18995132D01*
X127271707Y19004643D01*
X127300731Y19300656D01*
X127300731Y19300663D01*
X127304000Y19333853D01*
X127304000Y21369647D01*
X127301078Y21399311D01*
X127301144Y21408722D01*
X127300211Y21418241D01*
X127269121Y21714044D01*
X127256628Y21774905D01*
X127245002Y21835848D01*
X127242238Y21845005D01*
X127154284Y22129136D01*
X127130226Y22186366D01*
X127106968Y22243932D01*
X127102478Y22252377D01*
X126961012Y22514012D01*
X126926301Y22565473D01*
X126892300Y22617433D01*
X126886255Y22624845D01*
X126696666Y22854020D01*
X126652611Y22897768D01*
X126609172Y22942127D01*
X126601803Y22948223D01*
X126371309Y23136209D01*
X126319596Y23170567D01*
X126268369Y23205642D01*
X126259956Y23210192D01*
X125997338Y23349828D01*
X125939933Y23373488D01*
X125882876Y23397943D01*
X125873739Y23400771D01*
X125589001Y23486740D01*
X125528071Y23498804D01*
X125467368Y23511707D01*
X125457860Y23512707D01*
X125457856Y23512707D01*
X125161844Y23541731D01*
X125131922Y23541731D01*
X125102182Y23544962D01*
X125092618Y23544996D01*
X125081979Y23544959D01*
X125052205Y23541935D01*
X125022278Y23542144D01*
X125012759Y23541211D01*
X124716956Y23510121D01*
X124656095Y23497628D01*
X124595152Y23486002D01*
X124586001Y23483240D01*
X124585997Y23483239D01*
X124585994Y23483238D01*
X124585995Y23483238D01*
X124301864Y23395284D01*
X124244634Y23371226D01*
X124187068Y23347968D01*
X124178623Y23343478D01*
X123916988Y23202012D01*
X123865527Y23167301D01*
X123813567Y23133300D01*
X123806155Y23127255D01*
X123576980Y22937666D01*
X123533232Y22893611D01*
X123488873Y22850172D01*
X123482777Y22842803D01*
X123294791Y22612309D01*
X123260433Y22560596D01*
X123225358Y22509369D01*
X123220808Y22500956D01*
X123081172Y22238338D01*
X123057512Y22180933D01*
X123033057Y22123876D01*
X123030229Y22114739D01*
X122944260Y21830001D01*
X122932196Y21769071D01*
X122919293Y21708368D01*
X122918293Y21698856D01*
X122889269Y21402844D01*
X122889269Y21402836D01*
X122886000Y21369646D01*
X87507127Y21369646D01*
X87614131Y21434332D01*
X88491128Y21917385D01*
X89386871Y22364737D01*
X90299864Y22775642D01*
X91228692Y23149463D01*
X92171802Y23485574D01*
X93127703Y23783445D01*
X94094810Y24042581D01*
X94824851Y24207000D01*
X117503142Y24207000D01*
X117536616Y24098864D01*
G37*
%TD.AperFunction*%
D18*
X94921843Y14982252D02*
X94824519Y14707891D01*
X94945186Y14478000D01*
X96139000Y14478000D01*
X96139000Y14498000D01*
X96393000Y14498000D01*
X96393000Y14478000D01*
X96413000Y14478000D01*
X96413000Y14224000D01*
X96393000Y14224000D01*
X96393000Y14204000D01*
X96139000Y14204000D01*
X96139000Y14224000D01*
X94945186Y14224000D01*
X94824519Y13994109D01*
X94921843Y13719748D01*
X95070822Y13469645D01*
X95183626Y13344500D01*
X79133630Y13344500D01*
X79584695Y14026980D01*
X80169927Y14839343D01*
X80376881Y15103500D01*
X94994067Y15103500D01*
X94921843Y14982252D01*
%TA.AperFunction,Conductor*%
D19*
G36*
X94921843Y14982252D02*
G01*
X94824519Y14707891D01*
X94945186Y14478000D01*
X96139000Y14478000D01*
X96139000Y14498000D01*
X96393000Y14498000D01*
X96393000Y14478000D01*
X96413000Y14478000D01*
X96413000Y14224000D01*
X96393000Y14224000D01*
X96393000Y14204000D01*
X96139000Y14204000D01*
X96139000Y14224000D01*
X94945186Y14224000D01*
X94824519Y13994109D01*
X94921843Y13719748D01*
X95070822Y13469645D01*
X95183626Y13344500D01*
X79133630Y13344500D01*
X79584695Y14026980D01*
X80169927Y14839343D01*
X80376881Y15103500D01*
X94994067Y15103500D01*
X94921843Y14982252D01*
G37*
%TD.AperFunction*%
%TD*%
M02*
