M48
; DRILL file {KiCad (5.1.9)-1} date 04/28/21 17:58:26
; FORMAT={-:-/ absolute / metric / decimal}
; #@! TF.CreationDate,2021-04-28T17:58:26+02:00
; #@! TF.GenerationSoftware,Kicad,Pcbnew,(5.1.9)-1
; #@! TF.FileFunction,Plated,1,2,PTH
FMAT,2
METRIC
T1C0.400
T2C0.500
T3C0.600
T4C0.800
T5C0.910
T6C1.000
T7C3.200
%
G90
G05
T1
X-5.905Y-8.001
X-3.937Y6.477
X-3.048Y5.842
X-2.476Y4.826
X1.333Y-9.779
X2.095Y0.965
X2.984Y1.651
X2.984Y0.254
X9.207Y6.223
X11.894Y-5.969
X16.002Y9.525
X16.002Y8.725
X21.145Y4.445
X27.849Y3.378
X27.851Y5.778
X27.851Y4.978
X27.851Y4.178
X27.872Y0.926
X27.876Y2.578
X27.877Y1.74
X27.904Y0.089
X33.846Y-2.286
X33.846Y-3.937
T2
X-74.346Y15.494
X-74.346Y-15.367
X-73.643Y17.191
X-73.643Y13.797
X-73.643Y-13.67
X-73.643Y-17.064
X-71.945Y17.894
X-71.945Y13.094
X-71.945Y-12.967
X-71.945Y-17.767
X-70.248Y17.191
X-70.248Y13.797
X-70.248Y-13.67
X-70.248Y-17.064
X-69.545Y15.494
X-69.545Y-15.367
X67.641Y15.494
X67.641Y-15.367
X68.343Y17.191
X68.343Y13.797
X68.343Y-13.67
X68.343Y-17.064
X70.04Y17.894
X70.04Y13.094
X70.04Y-12.967
X70.04Y-17.767
X71.738Y17.191
X71.738Y13.797
X71.738Y-13.67
X71.738Y-17.064
X72.441Y15.494
X72.441Y-15.367
T3
X-9.144Y4.0
X-5.905Y-9.271
T4
X-20.892Y15.494
X-13.97Y4.89
X-10.858Y6.858
X-10.858Y-2.54
X4.468Y-7.025
X14.668Y3.175
X14.668Y-4.445
X17.209Y3.175
X17.209Y-4.445
X28.765Y9.017
T5
X-58.229Y-7.874
X-55.689Y7.366
X-55.689Y-7.874
X-53.149Y7.366
X-53.149Y-7.874
X-50.609Y7.366
X-50.609Y-7.874
X-48.069Y7.366
X-48.069Y-7.874
X-45.529Y7.366
X-45.529Y-7.874
X-42.989Y-7.874
X40.831Y-7.874
X43.37Y7.366
X43.37Y-7.874
X45.91Y7.366
X45.91Y-7.874
X48.45Y7.366
X48.45Y-7.874
X50.99Y7.366
X50.99Y-7.874
X53.53Y7.366
X53.53Y-7.874
X56.07Y-7.874
T6
X-22.162Y-6.985
X-22.098Y11.303
X-22.098Y8.763
X-22.034Y4.064
X-22.034Y1.524
X-22.034Y-1.016
X-22.034Y-3.556
X-19.621Y-6.985
X-17.081Y-6.985
X-14.541Y-6.985
X-4.064Y8.382
X-1.524Y8.382
X1.016Y8.382
X3.556Y8.382
X9.207Y3.175
X9.207Y0.635
X9.207Y-1.905
X9.207Y-4.445
X9.207Y-6.985
X11.112Y-12.192
X13.652Y-12.192
X24.575Y-6.985
X27.114Y-6.985
T7
X-71.945Y15.494
X-71.945Y-15.367
X70.04Y15.494
X70.04Y-15.367
T0
M30
