%TF.GenerationSoftware,KiCad,Pcbnew,(5.1.9)-1*%
%TF.CreationDate,2021-04-25T11:32:43+02:00*%
%TF.ProjectId,Hoofdbord,486f6f66-6462-46f7-9264-2e6b69636164,rev?*%
%TF.SameCoordinates,Original*%
%TF.FileFunction,Soldermask,Top*%
%TF.FilePolarity,Negative*%
%FSLAX46Y46*%
G04 Gerber Fmt 4.6, Leading zero omitted, Abs format (unit mm)*
G04 Created by KiCad (PCBNEW (5.1.9)-1) date 2021-04-25 11:32:43*
%MOMM*%
%LPD*%
G01*
G04 APERTURE LIST*
%ADD10R,1.416000X1.416000*%
%ADD11C,1.416000*%
%ADD12C,6.400000*%
%ADD13C,0.800000*%
%ADD14O,1.700000X1.700000*%
%ADD15R,1.700000X1.700000*%
%ADD16R,6.400000X5.800000*%
%ADD17R,2.200000X1.200000*%
%ADD18C,1.300000*%
%ADD19R,1.800000X0.600000*%
%ADD20R,1.100000X0.450000*%
%ADD21R,1.525000X0.650000*%
G04 APERTURE END LIST*
D10*
%TO.C,DS1*%
X206883000Y-83185000D03*
D11*
X209423000Y-83185000D03*
X211963000Y-83185000D03*
X214503000Y-83185000D03*
X217043000Y-83185000D03*
X219583000Y-83185000D03*
X222123000Y-83185000D03*
X219583000Y-67945000D03*
X217043000Y-67945000D03*
X214503000Y-67945000D03*
X211963000Y-67945000D03*
X209423000Y-67945000D03*
%TD*%
D12*
%TO.C,*%
X94107000Y-59817000D03*
D13*
X96507000Y-59817000D03*
X95804056Y-61514056D03*
X94107000Y-62217000D03*
X92409944Y-61514056D03*
X91707000Y-59817000D03*
X92409944Y-58119944D03*
X94107000Y-57417000D03*
X95804056Y-58119944D03*
%TD*%
D12*
%TO.C,*%
X236093000Y-90678000D03*
D13*
X238493000Y-90678000D03*
X237790056Y-92375056D03*
X236093000Y-93078000D03*
X234395944Y-92375056D03*
X233693000Y-90678000D03*
X234395944Y-88980944D03*
X236093000Y-88278000D03*
X237790056Y-88980944D03*
%TD*%
D12*
%TO.C,*%
X94107000Y-90678000D03*
D13*
X96507000Y-90678000D03*
X95804056Y-92375056D03*
X94107000Y-93078000D03*
X92409944Y-92375056D03*
X91707000Y-90678000D03*
X92409944Y-88980944D03*
X94107000Y-88278000D03*
X95804056Y-88980944D03*
%TD*%
D12*
%TO.C,*%
X236093000Y-59817000D03*
D13*
X238493000Y-59817000D03*
X237790056Y-61514056D03*
X236093000Y-62217000D03*
X234395944Y-61514056D03*
X233693000Y-59817000D03*
X234395944Y-58119944D03*
X236093000Y-57417000D03*
X237790056Y-58119944D03*
%TD*%
D14*
%TO.C,SW2*%
X190627000Y-82296000D03*
D15*
X193167000Y-82296000D03*
%TD*%
%TO.C,R14*%
G36*
G01*
X181171001Y-70164000D02*
X180270999Y-70164000D01*
G75*
G02*
X180021000Y-69914001I0J249999D01*
G01*
X180021000Y-69213999D01*
G75*
G02*
X180270999Y-68964000I249999J0D01*
G01*
X181171001Y-68964000D01*
G75*
G02*
X181421000Y-69213999I0J-249999D01*
G01*
X181421000Y-69914001D01*
G75*
G02*
X181171001Y-70164000I-249999J0D01*
G01*
G37*
G36*
G01*
X181171001Y-68164000D02*
X180270999Y-68164000D01*
G75*
G02*
X180021000Y-67914001I0J249999D01*
G01*
X180021000Y-67213999D01*
G75*
G02*
X180270999Y-66964000I249999J0D01*
G01*
X181171001Y-66964000D01*
G75*
G02*
X181421000Y-67213999I0J-249999D01*
G01*
X181421000Y-67914001D01*
G75*
G02*
X181171001Y-68164000I-249999J0D01*
G01*
G37*
%TD*%
%TO.C,R13*%
G36*
G01*
X179400000Y-69018999D02*
X179400000Y-69919001D01*
G75*
G02*
X179150001Y-70169000I-249999J0D01*
G01*
X178449999Y-70169000D01*
G75*
G02*
X178200000Y-69919001I0J249999D01*
G01*
X178200000Y-69018999D01*
G75*
G02*
X178449999Y-68769000I249999J0D01*
G01*
X179150001Y-68769000D01*
G75*
G02*
X179400000Y-69018999I0J-249999D01*
G01*
G37*
G36*
G01*
X177400000Y-69018999D02*
X177400000Y-69919001D01*
G75*
G02*
X177150001Y-70169000I-249999J0D01*
G01*
X176449999Y-70169000D01*
G75*
G02*
X176200000Y-69919001I0J249999D01*
G01*
X176200000Y-69018999D01*
G75*
G02*
X176449999Y-68769000I249999J0D01*
G01*
X177150001Y-68769000D01*
G75*
G02*
X177400000Y-69018999I0J-249999D01*
G01*
G37*
%TD*%
%TO.C,R16*%
G36*
G01*
X184582000Y-69919001D02*
X184582000Y-69018999D01*
G75*
G02*
X184831999Y-68769000I249999J0D01*
G01*
X185532001Y-68769000D01*
G75*
G02*
X185782000Y-69018999I0J-249999D01*
G01*
X185782000Y-69919001D01*
G75*
G02*
X185532001Y-70169000I-249999J0D01*
G01*
X184831999Y-70169000D01*
G75*
G02*
X184582000Y-69919001I0J249999D01*
G01*
G37*
G36*
G01*
X186582000Y-69919001D02*
X186582000Y-69018999D01*
G75*
G02*
X186831999Y-68769000I249999J0D01*
G01*
X187532001Y-68769000D01*
G75*
G02*
X187782000Y-69018999I0J-249999D01*
G01*
X187782000Y-69919001D01*
G75*
G02*
X187532001Y-70169000I-249999J0D01*
G01*
X186831999Y-70169000D01*
G75*
G02*
X186582000Y-69919001I0J249999D01*
G01*
G37*
%TD*%
%TO.C,R15*%
G36*
G01*
X182810999Y-66964000D02*
X183711001Y-66964000D01*
G75*
G02*
X183961000Y-67213999I0J-249999D01*
G01*
X183961000Y-67914001D01*
G75*
G02*
X183711001Y-68164000I-249999J0D01*
G01*
X182810999Y-68164000D01*
G75*
G02*
X182561000Y-67914001I0J249999D01*
G01*
X182561000Y-67213999D01*
G75*
G02*
X182810999Y-66964000I249999J0D01*
G01*
G37*
G36*
G01*
X182810999Y-68964000D02*
X183711001Y-68964000D01*
G75*
G02*
X183961000Y-69213999I0J-249999D01*
G01*
X183961000Y-69914001D01*
G75*
G02*
X183711001Y-70164000I-249999J0D01*
G01*
X182810999Y-70164000D01*
G75*
G02*
X182561000Y-69914001I0J249999D01*
G01*
X182561000Y-69213999D01*
G75*
G02*
X182810999Y-68964000I249999J0D01*
G01*
G37*
%TD*%
%TO.C,U1*%
G36*
G01*
X168746000Y-82572000D02*
X168746000Y-83972000D01*
G75*
G02*
X168671000Y-84047000I-75000J0D01*
G01*
X168521000Y-84047000D01*
G75*
G02*
X168446000Y-83972000I0J75000D01*
G01*
X168446000Y-82572000D01*
G75*
G02*
X168521000Y-82497000I75000J0D01*
G01*
X168671000Y-82497000D01*
G75*
G02*
X168746000Y-82572000I0J-75000D01*
G01*
G37*
G36*
G01*
X168246000Y-82572000D02*
X168246000Y-83972000D01*
G75*
G02*
X168171000Y-84047000I-75000J0D01*
G01*
X168021000Y-84047000D01*
G75*
G02*
X167946000Y-83972000I0J75000D01*
G01*
X167946000Y-82572000D01*
G75*
G02*
X168021000Y-82497000I75000J0D01*
G01*
X168171000Y-82497000D01*
G75*
G02*
X168246000Y-82572000I0J-75000D01*
G01*
G37*
G36*
G01*
X167746000Y-82572000D02*
X167746000Y-83972000D01*
G75*
G02*
X167671000Y-84047000I-75000J0D01*
G01*
X167521000Y-84047000D01*
G75*
G02*
X167446000Y-83972000I0J75000D01*
G01*
X167446000Y-82572000D01*
G75*
G02*
X167521000Y-82497000I75000J0D01*
G01*
X167671000Y-82497000D01*
G75*
G02*
X167746000Y-82572000I0J-75000D01*
G01*
G37*
G36*
G01*
X167246000Y-82572000D02*
X167246000Y-83972000D01*
G75*
G02*
X167171000Y-84047000I-75000J0D01*
G01*
X167021000Y-84047000D01*
G75*
G02*
X166946000Y-83972000I0J75000D01*
G01*
X166946000Y-82572000D01*
G75*
G02*
X167021000Y-82497000I75000J0D01*
G01*
X167171000Y-82497000D01*
G75*
G02*
X167246000Y-82572000I0J-75000D01*
G01*
G37*
G36*
G01*
X166746000Y-82572000D02*
X166746000Y-83972000D01*
G75*
G02*
X166671000Y-84047000I-75000J0D01*
G01*
X166521000Y-84047000D01*
G75*
G02*
X166446000Y-83972000I0J75000D01*
G01*
X166446000Y-82572000D01*
G75*
G02*
X166521000Y-82497000I75000J0D01*
G01*
X166671000Y-82497000D01*
G75*
G02*
X166746000Y-82572000I0J-75000D01*
G01*
G37*
G36*
G01*
X166246000Y-82572000D02*
X166246000Y-83972000D01*
G75*
G02*
X166171000Y-84047000I-75000J0D01*
G01*
X166021000Y-84047000D01*
G75*
G02*
X165946000Y-83972000I0J75000D01*
G01*
X165946000Y-82572000D01*
G75*
G02*
X166021000Y-82497000I75000J0D01*
G01*
X166171000Y-82497000D01*
G75*
G02*
X166246000Y-82572000I0J-75000D01*
G01*
G37*
G36*
G01*
X165746000Y-82572000D02*
X165746000Y-83972000D01*
G75*
G02*
X165671000Y-84047000I-75000J0D01*
G01*
X165521000Y-84047000D01*
G75*
G02*
X165446000Y-83972000I0J75000D01*
G01*
X165446000Y-82572000D01*
G75*
G02*
X165521000Y-82497000I75000J0D01*
G01*
X165671000Y-82497000D01*
G75*
G02*
X165746000Y-82572000I0J-75000D01*
G01*
G37*
G36*
G01*
X165246000Y-82572000D02*
X165246000Y-83972000D01*
G75*
G02*
X165171000Y-84047000I-75000J0D01*
G01*
X165021000Y-84047000D01*
G75*
G02*
X164946000Y-83972000I0J75000D01*
G01*
X164946000Y-82572000D01*
G75*
G02*
X165021000Y-82497000I75000J0D01*
G01*
X165171000Y-82497000D01*
G75*
G02*
X165246000Y-82572000I0J-75000D01*
G01*
G37*
G36*
G01*
X164746000Y-82572000D02*
X164746000Y-83972000D01*
G75*
G02*
X164671000Y-84047000I-75000J0D01*
G01*
X164521000Y-84047000D01*
G75*
G02*
X164446000Y-83972000I0J75000D01*
G01*
X164446000Y-82572000D01*
G75*
G02*
X164521000Y-82497000I75000J0D01*
G01*
X164671000Y-82497000D01*
G75*
G02*
X164746000Y-82572000I0J-75000D01*
G01*
G37*
G36*
G01*
X164246000Y-82572000D02*
X164246000Y-83972000D01*
G75*
G02*
X164171000Y-84047000I-75000J0D01*
G01*
X164021000Y-84047000D01*
G75*
G02*
X163946000Y-83972000I0J75000D01*
G01*
X163946000Y-82572000D01*
G75*
G02*
X164021000Y-82497000I75000J0D01*
G01*
X164171000Y-82497000D01*
G75*
G02*
X164246000Y-82572000I0J-75000D01*
G01*
G37*
G36*
G01*
X163746000Y-82572000D02*
X163746000Y-83972000D01*
G75*
G02*
X163671000Y-84047000I-75000J0D01*
G01*
X163521000Y-84047000D01*
G75*
G02*
X163446000Y-83972000I0J75000D01*
G01*
X163446000Y-82572000D01*
G75*
G02*
X163521000Y-82497000I75000J0D01*
G01*
X163671000Y-82497000D01*
G75*
G02*
X163746000Y-82572000I0J-75000D01*
G01*
G37*
G36*
G01*
X163246000Y-82572000D02*
X163246000Y-83972000D01*
G75*
G02*
X163171000Y-84047000I-75000J0D01*
G01*
X163021000Y-84047000D01*
G75*
G02*
X162946000Y-83972000I0J75000D01*
G01*
X162946000Y-82572000D01*
G75*
G02*
X163021000Y-82497000I75000J0D01*
G01*
X163171000Y-82497000D01*
G75*
G02*
X163246000Y-82572000I0J-75000D01*
G01*
G37*
G36*
G01*
X162746000Y-82572000D02*
X162746000Y-83972000D01*
G75*
G02*
X162671000Y-84047000I-75000J0D01*
G01*
X162521000Y-84047000D01*
G75*
G02*
X162446000Y-83972000I0J75000D01*
G01*
X162446000Y-82572000D01*
G75*
G02*
X162521000Y-82497000I75000J0D01*
G01*
X162671000Y-82497000D01*
G75*
G02*
X162746000Y-82572000I0J-75000D01*
G01*
G37*
G36*
G01*
X162246000Y-82572000D02*
X162246000Y-83972000D01*
G75*
G02*
X162171000Y-84047000I-75000J0D01*
G01*
X162021000Y-84047000D01*
G75*
G02*
X161946000Y-83972000I0J75000D01*
G01*
X161946000Y-82572000D01*
G75*
G02*
X162021000Y-82497000I75000J0D01*
G01*
X162171000Y-82497000D01*
G75*
G02*
X162246000Y-82572000I0J-75000D01*
G01*
G37*
G36*
G01*
X161746000Y-82572000D02*
X161746000Y-83972000D01*
G75*
G02*
X161671000Y-84047000I-75000J0D01*
G01*
X161521000Y-84047000D01*
G75*
G02*
X161446000Y-83972000I0J75000D01*
G01*
X161446000Y-82572000D01*
G75*
G02*
X161521000Y-82497000I75000J0D01*
G01*
X161671000Y-82497000D01*
G75*
G02*
X161746000Y-82572000I0J-75000D01*
G01*
G37*
G36*
G01*
X161246000Y-82572000D02*
X161246000Y-83972000D01*
G75*
G02*
X161171000Y-84047000I-75000J0D01*
G01*
X161021000Y-84047000D01*
G75*
G02*
X160946000Y-83972000I0J75000D01*
G01*
X160946000Y-82572000D01*
G75*
G02*
X161021000Y-82497000I75000J0D01*
G01*
X161171000Y-82497000D01*
G75*
G02*
X161246000Y-82572000I0J-75000D01*
G01*
G37*
G36*
G01*
X159946000Y-81272000D02*
X159946000Y-81422000D01*
G75*
G02*
X159871000Y-81497000I-75000J0D01*
G01*
X158471000Y-81497000D01*
G75*
G02*
X158396000Y-81422000I0J75000D01*
G01*
X158396000Y-81272000D01*
G75*
G02*
X158471000Y-81197000I75000J0D01*
G01*
X159871000Y-81197000D01*
G75*
G02*
X159946000Y-81272000I0J-75000D01*
G01*
G37*
G36*
G01*
X159946000Y-80772000D02*
X159946000Y-80922000D01*
G75*
G02*
X159871000Y-80997000I-75000J0D01*
G01*
X158471000Y-80997000D01*
G75*
G02*
X158396000Y-80922000I0J75000D01*
G01*
X158396000Y-80772000D01*
G75*
G02*
X158471000Y-80697000I75000J0D01*
G01*
X159871000Y-80697000D01*
G75*
G02*
X159946000Y-80772000I0J-75000D01*
G01*
G37*
G36*
G01*
X159946000Y-80272000D02*
X159946000Y-80422000D01*
G75*
G02*
X159871000Y-80497000I-75000J0D01*
G01*
X158471000Y-80497000D01*
G75*
G02*
X158396000Y-80422000I0J75000D01*
G01*
X158396000Y-80272000D01*
G75*
G02*
X158471000Y-80197000I75000J0D01*
G01*
X159871000Y-80197000D01*
G75*
G02*
X159946000Y-80272000I0J-75000D01*
G01*
G37*
G36*
G01*
X159946000Y-79772000D02*
X159946000Y-79922000D01*
G75*
G02*
X159871000Y-79997000I-75000J0D01*
G01*
X158471000Y-79997000D01*
G75*
G02*
X158396000Y-79922000I0J75000D01*
G01*
X158396000Y-79772000D01*
G75*
G02*
X158471000Y-79697000I75000J0D01*
G01*
X159871000Y-79697000D01*
G75*
G02*
X159946000Y-79772000I0J-75000D01*
G01*
G37*
G36*
G01*
X159946000Y-79272000D02*
X159946000Y-79422000D01*
G75*
G02*
X159871000Y-79497000I-75000J0D01*
G01*
X158471000Y-79497000D01*
G75*
G02*
X158396000Y-79422000I0J75000D01*
G01*
X158396000Y-79272000D01*
G75*
G02*
X158471000Y-79197000I75000J0D01*
G01*
X159871000Y-79197000D01*
G75*
G02*
X159946000Y-79272000I0J-75000D01*
G01*
G37*
G36*
G01*
X159946000Y-78772000D02*
X159946000Y-78922000D01*
G75*
G02*
X159871000Y-78997000I-75000J0D01*
G01*
X158471000Y-78997000D01*
G75*
G02*
X158396000Y-78922000I0J75000D01*
G01*
X158396000Y-78772000D01*
G75*
G02*
X158471000Y-78697000I75000J0D01*
G01*
X159871000Y-78697000D01*
G75*
G02*
X159946000Y-78772000I0J-75000D01*
G01*
G37*
G36*
G01*
X159946000Y-78272000D02*
X159946000Y-78422000D01*
G75*
G02*
X159871000Y-78497000I-75000J0D01*
G01*
X158471000Y-78497000D01*
G75*
G02*
X158396000Y-78422000I0J75000D01*
G01*
X158396000Y-78272000D01*
G75*
G02*
X158471000Y-78197000I75000J0D01*
G01*
X159871000Y-78197000D01*
G75*
G02*
X159946000Y-78272000I0J-75000D01*
G01*
G37*
G36*
G01*
X159946000Y-77772000D02*
X159946000Y-77922000D01*
G75*
G02*
X159871000Y-77997000I-75000J0D01*
G01*
X158471000Y-77997000D01*
G75*
G02*
X158396000Y-77922000I0J75000D01*
G01*
X158396000Y-77772000D01*
G75*
G02*
X158471000Y-77697000I75000J0D01*
G01*
X159871000Y-77697000D01*
G75*
G02*
X159946000Y-77772000I0J-75000D01*
G01*
G37*
G36*
G01*
X159946000Y-77272000D02*
X159946000Y-77422000D01*
G75*
G02*
X159871000Y-77497000I-75000J0D01*
G01*
X158471000Y-77497000D01*
G75*
G02*
X158396000Y-77422000I0J75000D01*
G01*
X158396000Y-77272000D01*
G75*
G02*
X158471000Y-77197000I75000J0D01*
G01*
X159871000Y-77197000D01*
G75*
G02*
X159946000Y-77272000I0J-75000D01*
G01*
G37*
G36*
G01*
X159946000Y-76772000D02*
X159946000Y-76922000D01*
G75*
G02*
X159871000Y-76997000I-75000J0D01*
G01*
X158471000Y-76997000D01*
G75*
G02*
X158396000Y-76922000I0J75000D01*
G01*
X158396000Y-76772000D01*
G75*
G02*
X158471000Y-76697000I75000J0D01*
G01*
X159871000Y-76697000D01*
G75*
G02*
X159946000Y-76772000I0J-75000D01*
G01*
G37*
G36*
G01*
X159946000Y-76272000D02*
X159946000Y-76422000D01*
G75*
G02*
X159871000Y-76497000I-75000J0D01*
G01*
X158471000Y-76497000D01*
G75*
G02*
X158396000Y-76422000I0J75000D01*
G01*
X158396000Y-76272000D01*
G75*
G02*
X158471000Y-76197000I75000J0D01*
G01*
X159871000Y-76197000D01*
G75*
G02*
X159946000Y-76272000I0J-75000D01*
G01*
G37*
G36*
G01*
X159946000Y-75772000D02*
X159946000Y-75922000D01*
G75*
G02*
X159871000Y-75997000I-75000J0D01*
G01*
X158471000Y-75997000D01*
G75*
G02*
X158396000Y-75922000I0J75000D01*
G01*
X158396000Y-75772000D01*
G75*
G02*
X158471000Y-75697000I75000J0D01*
G01*
X159871000Y-75697000D01*
G75*
G02*
X159946000Y-75772000I0J-75000D01*
G01*
G37*
G36*
G01*
X159946000Y-75272000D02*
X159946000Y-75422000D01*
G75*
G02*
X159871000Y-75497000I-75000J0D01*
G01*
X158471000Y-75497000D01*
G75*
G02*
X158396000Y-75422000I0J75000D01*
G01*
X158396000Y-75272000D01*
G75*
G02*
X158471000Y-75197000I75000J0D01*
G01*
X159871000Y-75197000D01*
G75*
G02*
X159946000Y-75272000I0J-75000D01*
G01*
G37*
G36*
G01*
X159946000Y-74772000D02*
X159946000Y-74922000D01*
G75*
G02*
X159871000Y-74997000I-75000J0D01*
G01*
X158471000Y-74997000D01*
G75*
G02*
X158396000Y-74922000I0J75000D01*
G01*
X158396000Y-74772000D01*
G75*
G02*
X158471000Y-74697000I75000J0D01*
G01*
X159871000Y-74697000D01*
G75*
G02*
X159946000Y-74772000I0J-75000D01*
G01*
G37*
G36*
G01*
X159946000Y-74272000D02*
X159946000Y-74422000D01*
G75*
G02*
X159871000Y-74497000I-75000J0D01*
G01*
X158471000Y-74497000D01*
G75*
G02*
X158396000Y-74422000I0J75000D01*
G01*
X158396000Y-74272000D01*
G75*
G02*
X158471000Y-74197000I75000J0D01*
G01*
X159871000Y-74197000D01*
G75*
G02*
X159946000Y-74272000I0J-75000D01*
G01*
G37*
G36*
G01*
X159946000Y-73772000D02*
X159946000Y-73922000D01*
G75*
G02*
X159871000Y-73997000I-75000J0D01*
G01*
X158471000Y-73997000D01*
G75*
G02*
X158396000Y-73922000I0J75000D01*
G01*
X158396000Y-73772000D01*
G75*
G02*
X158471000Y-73697000I75000J0D01*
G01*
X159871000Y-73697000D01*
G75*
G02*
X159946000Y-73772000I0J-75000D01*
G01*
G37*
G36*
G01*
X161246000Y-71222000D02*
X161246000Y-72622000D01*
G75*
G02*
X161171000Y-72697000I-75000J0D01*
G01*
X161021000Y-72697000D01*
G75*
G02*
X160946000Y-72622000I0J75000D01*
G01*
X160946000Y-71222000D01*
G75*
G02*
X161021000Y-71147000I75000J0D01*
G01*
X161171000Y-71147000D01*
G75*
G02*
X161246000Y-71222000I0J-75000D01*
G01*
G37*
G36*
G01*
X161746000Y-71222000D02*
X161746000Y-72622000D01*
G75*
G02*
X161671000Y-72697000I-75000J0D01*
G01*
X161521000Y-72697000D01*
G75*
G02*
X161446000Y-72622000I0J75000D01*
G01*
X161446000Y-71222000D01*
G75*
G02*
X161521000Y-71147000I75000J0D01*
G01*
X161671000Y-71147000D01*
G75*
G02*
X161746000Y-71222000I0J-75000D01*
G01*
G37*
G36*
G01*
X162246000Y-71222000D02*
X162246000Y-72622000D01*
G75*
G02*
X162171000Y-72697000I-75000J0D01*
G01*
X162021000Y-72697000D01*
G75*
G02*
X161946000Y-72622000I0J75000D01*
G01*
X161946000Y-71222000D01*
G75*
G02*
X162021000Y-71147000I75000J0D01*
G01*
X162171000Y-71147000D01*
G75*
G02*
X162246000Y-71222000I0J-75000D01*
G01*
G37*
G36*
G01*
X162746000Y-71222000D02*
X162746000Y-72622000D01*
G75*
G02*
X162671000Y-72697000I-75000J0D01*
G01*
X162521000Y-72697000D01*
G75*
G02*
X162446000Y-72622000I0J75000D01*
G01*
X162446000Y-71222000D01*
G75*
G02*
X162521000Y-71147000I75000J0D01*
G01*
X162671000Y-71147000D01*
G75*
G02*
X162746000Y-71222000I0J-75000D01*
G01*
G37*
G36*
G01*
X163246000Y-71222000D02*
X163246000Y-72622000D01*
G75*
G02*
X163171000Y-72697000I-75000J0D01*
G01*
X163021000Y-72697000D01*
G75*
G02*
X162946000Y-72622000I0J75000D01*
G01*
X162946000Y-71222000D01*
G75*
G02*
X163021000Y-71147000I75000J0D01*
G01*
X163171000Y-71147000D01*
G75*
G02*
X163246000Y-71222000I0J-75000D01*
G01*
G37*
G36*
G01*
X163746000Y-71222000D02*
X163746000Y-72622000D01*
G75*
G02*
X163671000Y-72697000I-75000J0D01*
G01*
X163521000Y-72697000D01*
G75*
G02*
X163446000Y-72622000I0J75000D01*
G01*
X163446000Y-71222000D01*
G75*
G02*
X163521000Y-71147000I75000J0D01*
G01*
X163671000Y-71147000D01*
G75*
G02*
X163746000Y-71222000I0J-75000D01*
G01*
G37*
G36*
G01*
X164246000Y-71222000D02*
X164246000Y-72622000D01*
G75*
G02*
X164171000Y-72697000I-75000J0D01*
G01*
X164021000Y-72697000D01*
G75*
G02*
X163946000Y-72622000I0J75000D01*
G01*
X163946000Y-71222000D01*
G75*
G02*
X164021000Y-71147000I75000J0D01*
G01*
X164171000Y-71147000D01*
G75*
G02*
X164246000Y-71222000I0J-75000D01*
G01*
G37*
G36*
G01*
X164746000Y-71222000D02*
X164746000Y-72622000D01*
G75*
G02*
X164671000Y-72697000I-75000J0D01*
G01*
X164521000Y-72697000D01*
G75*
G02*
X164446000Y-72622000I0J75000D01*
G01*
X164446000Y-71222000D01*
G75*
G02*
X164521000Y-71147000I75000J0D01*
G01*
X164671000Y-71147000D01*
G75*
G02*
X164746000Y-71222000I0J-75000D01*
G01*
G37*
G36*
G01*
X165246000Y-71222000D02*
X165246000Y-72622000D01*
G75*
G02*
X165171000Y-72697000I-75000J0D01*
G01*
X165021000Y-72697000D01*
G75*
G02*
X164946000Y-72622000I0J75000D01*
G01*
X164946000Y-71222000D01*
G75*
G02*
X165021000Y-71147000I75000J0D01*
G01*
X165171000Y-71147000D01*
G75*
G02*
X165246000Y-71222000I0J-75000D01*
G01*
G37*
G36*
G01*
X165746000Y-71222000D02*
X165746000Y-72622000D01*
G75*
G02*
X165671000Y-72697000I-75000J0D01*
G01*
X165521000Y-72697000D01*
G75*
G02*
X165446000Y-72622000I0J75000D01*
G01*
X165446000Y-71222000D01*
G75*
G02*
X165521000Y-71147000I75000J0D01*
G01*
X165671000Y-71147000D01*
G75*
G02*
X165746000Y-71222000I0J-75000D01*
G01*
G37*
G36*
G01*
X166246000Y-71222000D02*
X166246000Y-72622000D01*
G75*
G02*
X166171000Y-72697000I-75000J0D01*
G01*
X166021000Y-72697000D01*
G75*
G02*
X165946000Y-72622000I0J75000D01*
G01*
X165946000Y-71222000D01*
G75*
G02*
X166021000Y-71147000I75000J0D01*
G01*
X166171000Y-71147000D01*
G75*
G02*
X166246000Y-71222000I0J-75000D01*
G01*
G37*
G36*
G01*
X166746000Y-71222000D02*
X166746000Y-72622000D01*
G75*
G02*
X166671000Y-72697000I-75000J0D01*
G01*
X166521000Y-72697000D01*
G75*
G02*
X166446000Y-72622000I0J75000D01*
G01*
X166446000Y-71222000D01*
G75*
G02*
X166521000Y-71147000I75000J0D01*
G01*
X166671000Y-71147000D01*
G75*
G02*
X166746000Y-71222000I0J-75000D01*
G01*
G37*
G36*
G01*
X167246000Y-71222000D02*
X167246000Y-72622000D01*
G75*
G02*
X167171000Y-72697000I-75000J0D01*
G01*
X167021000Y-72697000D01*
G75*
G02*
X166946000Y-72622000I0J75000D01*
G01*
X166946000Y-71222000D01*
G75*
G02*
X167021000Y-71147000I75000J0D01*
G01*
X167171000Y-71147000D01*
G75*
G02*
X167246000Y-71222000I0J-75000D01*
G01*
G37*
G36*
G01*
X167746000Y-71222000D02*
X167746000Y-72622000D01*
G75*
G02*
X167671000Y-72697000I-75000J0D01*
G01*
X167521000Y-72697000D01*
G75*
G02*
X167446000Y-72622000I0J75000D01*
G01*
X167446000Y-71222000D01*
G75*
G02*
X167521000Y-71147000I75000J0D01*
G01*
X167671000Y-71147000D01*
G75*
G02*
X167746000Y-71222000I0J-75000D01*
G01*
G37*
G36*
G01*
X168246000Y-71222000D02*
X168246000Y-72622000D01*
G75*
G02*
X168171000Y-72697000I-75000J0D01*
G01*
X168021000Y-72697000D01*
G75*
G02*
X167946000Y-72622000I0J75000D01*
G01*
X167946000Y-71222000D01*
G75*
G02*
X168021000Y-71147000I75000J0D01*
G01*
X168171000Y-71147000D01*
G75*
G02*
X168246000Y-71222000I0J-75000D01*
G01*
G37*
G36*
G01*
X168746000Y-71222000D02*
X168746000Y-72622000D01*
G75*
G02*
X168671000Y-72697000I-75000J0D01*
G01*
X168521000Y-72697000D01*
G75*
G02*
X168446000Y-72622000I0J75000D01*
G01*
X168446000Y-71222000D01*
G75*
G02*
X168521000Y-71147000I75000J0D01*
G01*
X168671000Y-71147000D01*
G75*
G02*
X168746000Y-71222000I0J-75000D01*
G01*
G37*
G36*
G01*
X171296000Y-73772000D02*
X171296000Y-73922000D01*
G75*
G02*
X171221000Y-73997000I-75000J0D01*
G01*
X169821000Y-73997000D01*
G75*
G02*
X169746000Y-73922000I0J75000D01*
G01*
X169746000Y-73772000D01*
G75*
G02*
X169821000Y-73697000I75000J0D01*
G01*
X171221000Y-73697000D01*
G75*
G02*
X171296000Y-73772000I0J-75000D01*
G01*
G37*
G36*
G01*
X171296000Y-74272000D02*
X171296000Y-74422000D01*
G75*
G02*
X171221000Y-74497000I-75000J0D01*
G01*
X169821000Y-74497000D01*
G75*
G02*
X169746000Y-74422000I0J75000D01*
G01*
X169746000Y-74272000D01*
G75*
G02*
X169821000Y-74197000I75000J0D01*
G01*
X171221000Y-74197000D01*
G75*
G02*
X171296000Y-74272000I0J-75000D01*
G01*
G37*
G36*
G01*
X171296000Y-74772000D02*
X171296000Y-74922000D01*
G75*
G02*
X171221000Y-74997000I-75000J0D01*
G01*
X169821000Y-74997000D01*
G75*
G02*
X169746000Y-74922000I0J75000D01*
G01*
X169746000Y-74772000D01*
G75*
G02*
X169821000Y-74697000I75000J0D01*
G01*
X171221000Y-74697000D01*
G75*
G02*
X171296000Y-74772000I0J-75000D01*
G01*
G37*
G36*
G01*
X171296000Y-75272000D02*
X171296000Y-75422000D01*
G75*
G02*
X171221000Y-75497000I-75000J0D01*
G01*
X169821000Y-75497000D01*
G75*
G02*
X169746000Y-75422000I0J75000D01*
G01*
X169746000Y-75272000D01*
G75*
G02*
X169821000Y-75197000I75000J0D01*
G01*
X171221000Y-75197000D01*
G75*
G02*
X171296000Y-75272000I0J-75000D01*
G01*
G37*
G36*
G01*
X171296000Y-75772000D02*
X171296000Y-75922000D01*
G75*
G02*
X171221000Y-75997000I-75000J0D01*
G01*
X169821000Y-75997000D01*
G75*
G02*
X169746000Y-75922000I0J75000D01*
G01*
X169746000Y-75772000D01*
G75*
G02*
X169821000Y-75697000I75000J0D01*
G01*
X171221000Y-75697000D01*
G75*
G02*
X171296000Y-75772000I0J-75000D01*
G01*
G37*
G36*
G01*
X171296000Y-76272000D02*
X171296000Y-76422000D01*
G75*
G02*
X171221000Y-76497000I-75000J0D01*
G01*
X169821000Y-76497000D01*
G75*
G02*
X169746000Y-76422000I0J75000D01*
G01*
X169746000Y-76272000D01*
G75*
G02*
X169821000Y-76197000I75000J0D01*
G01*
X171221000Y-76197000D01*
G75*
G02*
X171296000Y-76272000I0J-75000D01*
G01*
G37*
G36*
G01*
X171296000Y-76772000D02*
X171296000Y-76922000D01*
G75*
G02*
X171221000Y-76997000I-75000J0D01*
G01*
X169821000Y-76997000D01*
G75*
G02*
X169746000Y-76922000I0J75000D01*
G01*
X169746000Y-76772000D01*
G75*
G02*
X169821000Y-76697000I75000J0D01*
G01*
X171221000Y-76697000D01*
G75*
G02*
X171296000Y-76772000I0J-75000D01*
G01*
G37*
G36*
G01*
X171296000Y-77272000D02*
X171296000Y-77422000D01*
G75*
G02*
X171221000Y-77497000I-75000J0D01*
G01*
X169821000Y-77497000D01*
G75*
G02*
X169746000Y-77422000I0J75000D01*
G01*
X169746000Y-77272000D01*
G75*
G02*
X169821000Y-77197000I75000J0D01*
G01*
X171221000Y-77197000D01*
G75*
G02*
X171296000Y-77272000I0J-75000D01*
G01*
G37*
G36*
G01*
X171296000Y-77772000D02*
X171296000Y-77922000D01*
G75*
G02*
X171221000Y-77997000I-75000J0D01*
G01*
X169821000Y-77997000D01*
G75*
G02*
X169746000Y-77922000I0J75000D01*
G01*
X169746000Y-77772000D01*
G75*
G02*
X169821000Y-77697000I75000J0D01*
G01*
X171221000Y-77697000D01*
G75*
G02*
X171296000Y-77772000I0J-75000D01*
G01*
G37*
G36*
G01*
X171296000Y-78272000D02*
X171296000Y-78422000D01*
G75*
G02*
X171221000Y-78497000I-75000J0D01*
G01*
X169821000Y-78497000D01*
G75*
G02*
X169746000Y-78422000I0J75000D01*
G01*
X169746000Y-78272000D01*
G75*
G02*
X169821000Y-78197000I75000J0D01*
G01*
X171221000Y-78197000D01*
G75*
G02*
X171296000Y-78272000I0J-75000D01*
G01*
G37*
G36*
G01*
X171296000Y-78772000D02*
X171296000Y-78922000D01*
G75*
G02*
X171221000Y-78997000I-75000J0D01*
G01*
X169821000Y-78997000D01*
G75*
G02*
X169746000Y-78922000I0J75000D01*
G01*
X169746000Y-78772000D01*
G75*
G02*
X169821000Y-78697000I75000J0D01*
G01*
X171221000Y-78697000D01*
G75*
G02*
X171296000Y-78772000I0J-75000D01*
G01*
G37*
G36*
G01*
X171296000Y-79272000D02*
X171296000Y-79422000D01*
G75*
G02*
X171221000Y-79497000I-75000J0D01*
G01*
X169821000Y-79497000D01*
G75*
G02*
X169746000Y-79422000I0J75000D01*
G01*
X169746000Y-79272000D01*
G75*
G02*
X169821000Y-79197000I75000J0D01*
G01*
X171221000Y-79197000D01*
G75*
G02*
X171296000Y-79272000I0J-75000D01*
G01*
G37*
G36*
G01*
X171296000Y-79772000D02*
X171296000Y-79922000D01*
G75*
G02*
X171221000Y-79997000I-75000J0D01*
G01*
X169821000Y-79997000D01*
G75*
G02*
X169746000Y-79922000I0J75000D01*
G01*
X169746000Y-79772000D01*
G75*
G02*
X169821000Y-79697000I75000J0D01*
G01*
X171221000Y-79697000D01*
G75*
G02*
X171296000Y-79772000I0J-75000D01*
G01*
G37*
G36*
G01*
X171296000Y-80272000D02*
X171296000Y-80422000D01*
G75*
G02*
X171221000Y-80497000I-75000J0D01*
G01*
X169821000Y-80497000D01*
G75*
G02*
X169746000Y-80422000I0J75000D01*
G01*
X169746000Y-80272000D01*
G75*
G02*
X169821000Y-80197000I75000J0D01*
G01*
X171221000Y-80197000D01*
G75*
G02*
X171296000Y-80272000I0J-75000D01*
G01*
G37*
G36*
G01*
X171296000Y-80772000D02*
X171296000Y-80922000D01*
G75*
G02*
X171221000Y-80997000I-75000J0D01*
G01*
X169821000Y-80997000D01*
G75*
G02*
X169746000Y-80922000I0J75000D01*
G01*
X169746000Y-80772000D01*
G75*
G02*
X169821000Y-80697000I75000J0D01*
G01*
X171221000Y-80697000D01*
G75*
G02*
X171296000Y-80772000I0J-75000D01*
G01*
G37*
G36*
G01*
X171296000Y-81272000D02*
X171296000Y-81422000D01*
G75*
G02*
X171221000Y-81497000I-75000J0D01*
G01*
X169821000Y-81497000D01*
G75*
G02*
X169746000Y-81422000I0J75000D01*
G01*
X169746000Y-81272000D01*
G75*
G02*
X169821000Y-81197000I75000J0D01*
G01*
X171221000Y-81197000D01*
G75*
G02*
X171296000Y-81272000I0J-75000D01*
G01*
G37*
%TD*%
D14*
%TO.C,J3*%
X175260000Y-82296000D03*
X175260000Y-79756000D03*
X175260000Y-77216000D03*
X175260000Y-74676000D03*
D15*
X175260000Y-72136000D03*
%TD*%
D14*
%TO.C,J4*%
X151511000Y-82296000D03*
X148971000Y-82296000D03*
X146431000Y-82296000D03*
D15*
X143891000Y-82296000D03*
%TD*%
%TO.C,C15*%
G36*
G01*
X173068000Y-74755500D02*
X172118000Y-74755500D01*
G75*
G02*
X171868000Y-74505500I0J250000D01*
G01*
X171868000Y-73830500D01*
G75*
G02*
X172118000Y-73580500I250000J0D01*
G01*
X173068000Y-73580500D01*
G75*
G02*
X173318000Y-73830500I0J-250000D01*
G01*
X173318000Y-74505500D01*
G75*
G02*
X173068000Y-74755500I-250000J0D01*
G01*
G37*
G36*
G01*
X173068000Y-76830500D02*
X172118000Y-76830500D01*
G75*
G02*
X171868000Y-76580500I0J250000D01*
G01*
X171868000Y-75905500D01*
G75*
G02*
X172118000Y-75655500I250000J0D01*
G01*
X173068000Y-75655500D01*
G75*
G02*
X173318000Y-75905500I0J-250000D01*
G01*
X173318000Y-76580500D01*
G75*
G02*
X173068000Y-76830500I-250000J0D01*
G01*
G37*
%TD*%
%TO.C,C14*%
G36*
G01*
X172433000Y-84364500D02*
X171483000Y-84364500D01*
G75*
G02*
X171233000Y-84114500I0J250000D01*
G01*
X171233000Y-83439500D01*
G75*
G02*
X171483000Y-83189500I250000J0D01*
G01*
X172433000Y-83189500D01*
G75*
G02*
X172683000Y-83439500I0J-250000D01*
G01*
X172683000Y-84114500D01*
G75*
G02*
X172433000Y-84364500I-250000J0D01*
G01*
G37*
G36*
G01*
X172433000Y-86439500D02*
X171483000Y-86439500D01*
G75*
G02*
X171233000Y-86189500I0J250000D01*
G01*
X171233000Y-85514500D01*
G75*
G02*
X171483000Y-85264500I250000J0D01*
G01*
X172433000Y-85264500D01*
G75*
G02*
X172683000Y-85514500I0J-250000D01*
G01*
X172683000Y-86189500D01*
G75*
G02*
X172433000Y-86439500I-250000J0D01*
G01*
G37*
%TD*%
%TO.C,C9*%
G36*
G01*
X172433000Y-69886500D02*
X171483000Y-69886500D01*
G75*
G02*
X171233000Y-69636500I0J250000D01*
G01*
X171233000Y-68961500D01*
G75*
G02*
X171483000Y-68711500I250000J0D01*
G01*
X172433000Y-68711500D01*
G75*
G02*
X172683000Y-68961500I0J-250000D01*
G01*
X172683000Y-69636500D01*
G75*
G02*
X172433000Y-69886500I-250000J0D01*
G01*
G37*
G36*
G01*
X172433000Y-71961500D02*
X171483000Y-71961500D01*
G75*
G02*
X171233000Y-71711500I0J250000D01*
G01*
X171233000Y-71036500D01*
G75*
G02*
X171483000Y-70786500I250000J0D01*
G01*
X172433000Y-70786500D01*
G75*
G02*
X172683000Y-71036500I0J-250000D01*
G01*
X172683000Y-71711500D01*
G75*
G02*
X172433000Y-71961500I-250000J0D01*
G01*
G37*
%TD*%
D16*
%TO.C,U2*%
X155579500Y-64262000D03*
D17*
X149279500Y-66542000D03*
X149279500Y-61982000D03*
%TD*%
%TO.C,C17*%
G36*
G01*
X146210000Y-62172000D02*
X147160000Y-62172000D01*
G75*
G02*
X147410000Y-62422000I0J-250000D01*
G01*
X147410000Y-63097000D01*
G75*
G02*
X147160000Y-63347000I-250000J0D01*
G01*
X146210000Y-63347000D01*
G75*
G02*
X145960000Y-63097000I0J250000D01*
G01*
X145960000Y-62422000D01*
G75*
G02*
X146210000Y-62172000I250000J0D01*
G01*
G37*
G36*
G01*
X146210000Y-60097000D02*
X147160000Y-60097000D01*
G75*
G02*
X147410000Y-60347000I0J-250000D01*
G01*
X147410000Y-61022000D01*
G75*
G02*
X147160000Y-61272000I-250000J0D01*
G01*
X146210000Y-61272000D01*
G75*
G02*
X145960000Y-61022000I0J250000D01*
G01*
X145960000Y-60347000D01*
G75*
G02*
X146210000Y-60097000I250000J0D01*
G01*
G37*
%TD*%
%TO.C,C16*%
G36*
G01*
X146273500Y-65982000D02*
X147223500Y-65982000D01*
G75*
G02*
X147473500Y-66232000I0J-250000D01*
G01*
X147473500Y-66907000D01*
G75*
G02*
X147223500Y-67157000I-250000J0D01*
G01*
X146273500Y-67157000D01*
G75*
G02*
X146023500Y-66907000I0J250000D01*
G01*
X146023500Y-66232000D01*
G75*
G02*
X146273500Y-65982000I250000J0D01*
G01*
G37*
G36*
G01*
X146273500Y-63907000D02*
X147223500Y-63907000D01*
G75*
G02*
X147473500Y-64157000I0J-250000D01*
G01*
X147473500Y-64832000D01*
G75*
G02*
X147223500Y-65082000I-250000J0D01*
G01*
X146273500Y-65082000D01*
G75*
G02*
X146023500Y-64832000I0J250000D01*
G01*
X146023500Y-64157000D01*
G75*
G02*
X146273500Y-63907000I250000J0D01*
G01*
G37*
%TD*%
%TO.C,R8*%
G36*
G01*
X183838001Y-83182000D02*
X182937999Y-83182000D01*
G75*
G02*
X182688000Y-82932001I0J249999D01*
G01*
X182688000Y-82231999D01*
G75*
G02*
X182937999Y-81982000I249999J0D01*
G01*
X183838001Y-81982000D01*
G75*
G02*
X184088000Y-82231999I0J-249999D01*
G01*
X184088000Y-82932001D01*
G75*
G02*
X183838001Y-83182000I-249999J0D01*
G01*
G37*
G36*
G01*
X183838001Y-85182000D02*
X182937999Y-85182000D01*
G75*
G02*
X182688000Y-84932001I0J249999D01*
G01*
X182688000Y-84231999D01*
G75*
G02*
X182937999Y-83982000I249999J0D01*
G01*
X183838001Y-83982000D01*
G75*
G02*
X184088000Y-84231999I0J-249999D01*
G01*
X184088000Y-84932001D01*
G75*
G02*
X183838001Y-85182000I-249999J0D01*
G01*
G37*
%TD*%
%TO.C,R10*%
G36*
G01*
X184842999Y-83982000D02*
X185743001Y-83982000D01*
G75*
G02*
X185993000Y-84231999I0J-249999D01*
G01*
X185993000Y-84932001D01*
G75*
G02*
X185743001Y-85182000I-249999J0D01*
G01*
X184842999Y-85182000D01*
G75*
G02*
X184593000Y-84932001I0J249999D01*
G01*
X184593000Y-84231999D01*
G75*
G02*
X184842999Y-83982000I249999J0D01*
G01*
G37*
G36*
G01*
X184842999Y-81982000D02*
X185743001Y-81982000D01*
G75*
G02*
X185993000Y-82231999I0J-249999D01*
G01*
X185993000Y-82932001D01*
G75*
G02*
X185743001Y-83182000I-249999J0D01*
G01*
X184842999Y-83182000D01*
G75*
G02*
X184593000Y-82932001I0J249999D01*
G01*
X184593000Y-82231999D01*
G75*
G02*
X184842999Y-81982000I249999J0D01*
G01*
G37*
%TD*%
%TO.C,R6*%
G36*
G01*
X181933001Y-83182000D02*
X181032999Y-83182000D01*
G75*
G02*
X180783000Y-82932001I0J249999D01*
G01*
X180783000Y-82231999D01*
G75*
G02*
X181032999Y-81982000I249999J0D01*
G01*
X181933001Y-81982000D01*
G75*
G02*
X182183000Y-82231999I0J-249999D01*
G01*
X182183000Y-82932001D01*
G75*
G02*
X181933001Y-83182000I-249999J0D01*
G01*
G37*
G36*
G01*
X181933001Y-85182000D02*
X181032999Y-85182000D01*
G75*
G02*
X180783000Y-84932001I0J249999D01*
G01*
X180783000Y-84231999D01*
G75*
G02*
X181032999Y-83982000I249999J0D01*
G01*
X181933001Y-83982000D01*
G75*
G02*
X182183000Y-84231999I0J-249999D01*
G01*
X182183000Y-84932001D01*
G75*
G02*
X181933001Y-85182000I-249999J0D01*
G01*
G37*
%TD*%
%TO.C,R7*%
G36*
G01*
X179127999Y-83982000D02*
X180028001Y-83982000D01*
G75*
G02*
X180278000Y-84231999I0J-249999D01*
G01*
X180278000Y-84932001D01*
G75*
G02*
X180028001Y-85182000I-249999J0D01*
G01*
X179127999Y-85182000D01*
G75*
G02*
X178878000Y-84932001I0J249999D01*
G01*
X178878000Y-84231999D01*
G75*
G02*
X179127999Y-83982000I249999J0D01*
G01*
G37*
G36*
G01*
X179127999Y-81982000D02*
X180028001Y-81982000D01*
G75*
G02*
X180278000Y-82231999I0J-249999D01*
G01*
X180278000Y-82932001D01*
G75*
G02*
X180028001Y-83182000I-249999J0D01*
G01*
X179127999Y-83182000D01*
G75*
G02*
X178878000Y-82932001I0J249999D01*
G01*
X178878000Y-82231999D01*
G75*
G02*
X179127999Y-81982000I249999J0D01*
G01*
G37*
%TD*%
%TO.C,R2*%
G36*
G01*
X162557000Y-84893999D02*
X162557000Y-85794001D01*
G75*
G02*
X162307001Y-86044000I-249999J0D01*
G01*
X161606999Y-86044000D01*
G75*
G02*
X161357000Y-85794001I0J249999D01*
G01*
X161357000Y-84893999D01*
G75*
G02*
X161606999Y-84644000I249999J0D01*
G01*
X162307001Y-84644000D01*
G75*
G02*
X162557000Y-84893999I0J-249999D01*
G01*
G37*
G36*
G01*
X164557000Y-84893999D02*
X164557000Y-85794001D01*
G75*
G02*
X164307001Y-86044000I-249999J0D01*
G01*
X163606999Y-86044000D01*
G75*
G02*
X163357000Y-85794001I0J249999D01*
G01*
X163357000Y-84893999D01*
G75*
G02*
X163606999Y-84644000I249999J0D01*
G01*
X164307001Y-84644000D01*
G75*
G02*
X164557000Y-84893999I0J-249999D01*
G01*
G37*
%TD*%
%TO.C,R1*%
G36*
G01*
X160597001Y-86849000D02*
X159696999Y-86849000D01*
G75*
G02*
X159447000Y-86599001I0J249999D01*
G01*
X159447000Y-85898999D01*
G75*
G02*
X159696999Y-85649000I249999J0D01*
G01*
X160597001Y-85649000D01*
G75*
G02*
X160847000Y-85898999I0J-249999D01*
G01*
X160847000Y-86599001D01*
G75*
G02*
X160597001Y-86849000I-249999J0D01*
G01*
G37*
G36*
G01*
X160597001Y-88849000D02*
X159696999Y-88849000D01*
G75*
G02*
X159447000Y-88599001I0J249999D01*
G01*
X159447000Y-87898999D01*
G75*
G02*
X159696999Y-87649000I249999J0D01*
G01*
X160597001Y-87649000D01*
G75*
G02*
X160847000Y-87898999I0J-249999D01*
G01*
X160847000Y-88599001D01*
G75*
G02*
X160597001Y-88849000I-249999J0D01*
G01*
G37*
%TD*%
%TO.C,R5*%
G36*
G01*
X148841000Y-70479499D02*
X148841000Y-71379501D01*
G75*
G02*
X148591001Y-71629500I-249999J0D01*
G01*
X147890999Y-71629500D01*
G75*
G02*
X147641000Y-71379501I0J249999D01*
G01*
X147641000Y-70479499D01*
G75*
G02*
X147890999Y-70229500I249999J0D01*
G01*
X148591001Y-70229500D01*
G75*
G02*
X148841000Y-70479499I0J-249999D01*
G01*
G37*
G36*
G01*
X150841000Y-70479499D02*
X150841000Y-71379501D01*
G75*
G02*
X150591001Y-71629500I-249999J0D01*
G01*
X149890999Y-71629500D01*
G75*
G02*
X149641000Y-71379501I0J249999D01*
G01*
X149641000Y-70479499D01*
G75*
G02*
X149890999Y-70229500I249999J0D01*
G01*
X150591001Y-70229500D01*
G75*
G02*
X150841000Y-70479499I0J-249999D01*
G01*
G37*
%TD*%
%TO.C,R4*%
G36*
G01*
X156775999Y-76981000D02*
X157676001Y-76981000D01*
G75*
G02*
X157926000Y-77230999I0J-249999D01*
G01*
X157926000Y-77931001D01*
G75*
G02*
X157676001Y-78181000I-249999J0D01*
G01*
X156775999Y-78181000D01*
G75*
G02*
X156526000Y-77931001I0J249999D01*
G01*
X156526000Y-77230999D01*
G75*
G02*
X156775999Y-76981000I249999J0D01*
G01*
G37*
G36*
G01*
X156775999Y-74981000D02*
X157676001Y-74981000D01*
G75*
G02*
X157926000Y-75230999I0J-249999D01*
G01*
X157926000Y-75931001D01*
G75*
G02*
X157676001Y-76181000I-249999J0D01*
G01*
X156775999Y-76181000D01*
G75*
G02*
X156526000Y-75931001I0J249999D01*
G01*
X156526000Y-75230999D01*
G75*
G02*
X156775999Y-74981000I249999J0D01*
G01*
G37*
%TD*%
%TO.C,R3*%
G36*
G01*
X154743999Y-75758500D02*
X155644001Y-75758500D01*
G75*
G02*
X155894000Y-76008499I0J-249999D01*
G01*
X155894000Y-76708501D01*
G75*
G02*
X155644001Y-76958500I-249999J0D01*
G01*
X154743999Y-76958500D01*
G75*
G02*
X154494000Y-76708501I0J249999D01*
G01*
X154494000Y-76008499D01*
G75*
G02*
X154743999Y-75758500I249999J0D01*
G01*
G37*
G36*
G01*
X154743999Y-73758500D02*
X155644001Y-73758500D01*
G75*
G02*
X155894000Y-74008499I0J-249999D01*
G01*
X155894000Y-74708501D01*
G75*
G02*
X155644001Y-74958500I-249999J0D01*
G01*
X154743999Y-74958500D01*
G75*
G02*
X154494000Y-74708501I0J249999D01*
G01*
X154494000Y-74008499D01*
G75*
G02*
X154743999Y-73758500I249999J0D01*
G01*
G37*
%TD*%
%TO.C,R11*%
G36*
G01*
X188219501Y-65703500D02*
X187319499Y-65703500D01*
G75*
G02*
X187069500Y-65453501I0J249999D01*
G01*
X187069500Y-64753499D01*
G75*
G02*
X187319499Y-64503500I249999J0D01*
G01*
X188219501Y-64503500D01*
G75*
G02*
X188469500Y-64753499I0J-249999D01*
G01*
X188469500Y-65453501D01*
G75*
G02*
X188219501Y-65703500I-249999J0D01*
G01*
G37*
G36*
G01*
X188219501Y-67703500D02*
X187319499Y-67703500D01*
G75*
G02*
X187069500Y-67453501I0J249999D01*
G01*
X187069500Y-66753499D01*
G75*
G02*
X187319499Y-66503500I249999J0D01*
G01*
X188219501Y-66503500D01*
G75*
G02*
X188469500Y-66753499I0J-249999D01*
G01*
X188469500Y-67453501D01*
G75*
G02*
X188219501Y-67703500I-249999J0D01*
G01*
G37*
%TD*%
%TO.C,R9*%
G36*
G01*
X189351499Y-67519500D02*
X190251501Y-67519500D01*
G75*
G02*
X190501500Y-67769499I0J-249999D01*
G01*
X190501500Y-68469501D01*
G75*
G02*
X190251501Y-68719500I-249999J0D01*
G01*
X189351499Y-68719500D01*
G75*
G02*
X189101500Y-68469501I0J249999D01*
G01*
X189101500Y-67769499D01*
G75*
G02*
X189351499Y-67519500I249999J0D01*
G01*
G37*
G36*
G01*
X189351499Y-65519500D02*
X190251501Y-65519500D01*
G75*
G02*
X190501500Y-65769499I0J-249999D01*
G01*
X190501500Y-66469501D01*
G75*
G02*
X190251501Y-66719500I-249999J0D01*
G01*
X189351499Y-66719500D01*
G75*
G02*
X189101500Y-66469501I0J249999D01*
G01*
X189101500Y-65769499D01*
G75*
G02*
X189351499Y-65519500I249999J0D01*
G01*
G37*
%TD*%
%TO.C,R12*%
G36*
G01*
X189478499Y-78949500D02*
X190378501Y-78949500D01*
G75*
G02*
X190628500Y-79199499I0J-249999D01*
G01*
X190628500Y-79899501D01*
G75*
G02*
X190378501Y-80149500I-249999J0D01*
G01*
X189478499Y-80149500D01*
G75*
G02*
X189228500Y-79899501I0J249999D01*
G01*
X189228500Y-79199499D01*
G75*
G02*
X189478499Y-78949500I249999J0D01*
G01*
G37*
G36*
G01*
X189478499Y-76949500D02*
X190378501Y-76949500D01*
G75*
G02*
X190628500Y-77199499I0J-249999D01*
G01*
X190628500Y-77899501D01*
G75*
G02*
X190378501Y-78149500I-249999J0D01*
G01*
X189478499Y-78149500D01*
G75*
G02*
X189228500Y-77899501I0J249999D01*
G01*
X189228500Y-77199499D01*
G75*
G02*
X189478499Y-76949500I249999J0D01*
G01*
G37*
%TD*%
D18*
%TO.C,SW3*%
X180721000Y-72136000D03*
X183261000Y-72136000D03*
X183261000Y-79756000D03*
X180721000Y-79756000D03*
%TD*%
D14*
%TO.C,SW1*%
X179705000Y-87503000D03*
D15*
X177165000Y-87503000D03*
%TD*%
%TO.C,J1*%
X144018000Y-71247000D03*
D14*
X144018000Y-73787000D03*
X144018000Y-76327000D03*
X144018000Y-78867000D03*
%TD*%
%TO.C,J2*%
X143954500Y-66548000D03*
D15*
X143954500Y-64008000D03*
%TD*%
D19*
%TO.C,IC3*%
X201511500Y-64764500D03*
X201511500Y-65564500D03*
X201511500Y-66364500D03*
X201511500Y-67164500D03*
X201511500Y-67964500D03*
X201511500Y-68764500D03*
X201511500Y-69564500D03*
X201511500Y-70364500D03*
X201511500Y-71164500D03*
X201511500Y-71964500D03*
X201511500Y-72764500D03*
X201511500Y-73564500D03*
X201511500Y-74364500D03*
X201511500Y-75164500D03*
X201511500Y-75964500D03*
X201511500Y-76764500D03*
X201511500Y-77564500D03*
X201511500Y-78364500D03*
X192061500Y-78364500D03*
X192061500Y-77564500D03*
X192061500Y-76764500D03*
X192061500Y-75964500D03*
X192061500Y-75164500D03*
X192061500Y-74364500D03*
X192061500Y-73564500D03*
X192061500Y-72764500D03*
X192061500Y-71964500D03*
X192061500Y-71164500D03*
X192061500Y-70364500D03*
X192061500Y-69564500D03*
X192061500Y-68764500D03*
X192061500Y-67964500D03*
X192061500Y-67164500D03*
X192061500Y-66364500D03*
X192061500Y-65564500D03*
X192061500Y-64764500D03*
%TD*%
D20*
%TO.C,IC1*%
X148209000Y-75991000D03*
X148209000Y-75341000D03*
X148209000Y-74691000D03*
X148209000Y-74041000D03*
X152109000Y-74041000D03*
X152109000Y-74691000D03*
X152109000Y-75341000D03*
X152109000Y-75991000D03*
%TD*%
D21*
%TO.C,IC2*%
X158115000Y-84709000D03*
X158115000Y-85979000D03*
X158115000Y-87249000D03*
X158115000Y-88519000D03*
X152691000Y-88519000D03*
X152691000Y-87249000D03*
X152691000Y-85979000D03*
X152691000Y-84709000D03*
%TD*%
D11*
%TO.C,DS2*%
X110363000Y-67945000D03*
X112903000Y-67945000D03*
X115443000Y-67945000D03*
X117983000Y-67945000D03*
X120523000Y-67945000D03*
X123063000Y-83185000D03*
X120523000Y-83185000D03*
X117983000Y-83185000D03*
X115443000Y-83185000D03*
X112903000Y-83185000D03*
X110363000Y-83185000D03*
D10*
X107823000Y-83185000D03*
%TD*%
%TO.C,C5*%
G36*
G01*
X187546000Y-81105500D02*
X186596000Y-81105500D01*
G75*
G02*
X186346000Y-80855500I0J250000D01*
G01*
X186346000Y-80180500D01*
G75*
G02*
X186596000Y-79930500I250000J0D01*
G01*
X187546000Y-79930500D01*
G75*
G02*
X187796000Y-80180500I0J-250000D01*
G01*
X187796000Y-80855500D01*
G75*
G02*
X187546000Y-81105500I-250000J0D01*
G01*
G37*
G36*
G01*
X187546000Y-83180500D02*
X186596000Y-83180500D01*
G75*
G02*
X186346000Y-82930500I0J250000D01*
G01*
X186346000Y-82255500D01*
G75*
G02*
X186596000Y-82005500I250000J0D01*
G01*
X187546000Y-82005500D01*
G75*
G02*
X187796000Y-82255500I0J-250000D01*
G01*
X187796000Y-82930500D01*
G75*
G02*
X187546000Y-83180500I-250000J0D01*
G01*
G37*
%TD*%
%TO.C,C4*%
G36*
G01*
X177198000Y-83994500D02*
X178148000Y-83994500D01*
G75*
G02*
X178398000Y-84244500I0J-250000D01*
G01*
X178398000Y-84919500D01*
G75*
G02*
X178148000Y-85169500I-250000J0D01*
G01*
X177198000Y-85169500D01*
G75*
G02*
X176948000Y-84919500I0J250000D01*
G01*
X176948000Y-84244500D01*
G75*
G02*
X177198000Y-83994500I250000J0D01*
G01*
G37*
G36*
G01*
X177198000Y-81919500D02*
X178148000Y-81919500D01*
G75*
G02*
X178398000Y-82169500I0J-250000D01*
G01*
X178398000Y-82844500D01*
G75*
G02*
X178148000Y-83094500I-250000J0D01*
G01*
X177198000Y-83094500D01*
G75*
G02*
X176948000Y-82844500I0J250000D01*
G01*
X176948000Y-82169500D01*
G75*
G02*
X177198000Y-81919500I250000J0D01*
G01*
G37*
%TD*%
%TO.C,C8*%
G36*
G01*
X195422500Y-81942000D02*
X196372500Y-81942000D01*
G75*
G02*
X196622500Y-82192000I0J-250000D01*
G01*
X196622500Y-82867000D01*
G75*
G02*
X196372500Y-83117000I-250000J0D01*
G01*
X195422500Y-83117000D01*
G75*
G02*
X195172500Y-82867000I0J250000D01*
G01*
X195172500Y-82192000D01*
G75*
G02*
X195422500Y-81942000I250000J0D01*
G01*
G37*
G36*
G01*
X195422500Y-79867000D02*
X196372500Y-79867000D01*
G75*
G02*
X196622500Y-80117000I0J-250000D01*
G01*
X196622500Y-80792000D01*
G75*
G02*
X196372500Y-81042000I-250000J0D01*
G01*
X195422500Y-81042000D01*
G75*
G02*
X195172500Y-80792000I0J250000D01*
G01*
X195172500Y-80117000D01*
G75*
G02*
X195422500Y-79867000I250000J0D01*
G01*
G37*
%TD*%
%TO.C,C6*%
G36*
G01*
X198404500Y-81042000D02*
X197454500Y-81042000D01*
G75*
G02*
X197204500Y-80792000I0J250000D01*
G01*
X197204500Y-80117000D01*
G75*
G02*
X197454500Y-79867000I250000J0D01*
G01*
X198404500Y-79867000D01*
G75*
G02*
X198654500Y-80117000I0J-250000D01*
G01*
X198654500Y-80792000D01*
G75*
G02*
X198404500Y-81042000I-250000J0D01*
G01*
G37*
G36*
G01*
X198404500Y-83117000D02*
X197454500Y-83117000D01*
G75*
G02*
X197204500Y-82867000I0J250000D01*
G01*
X197204500Y-82192000D01*
G75*
G02*
X197454500Y-81942000I250000J0D01*
G01*
X198404500Y-81942000D01*
G75*
G02*
X198654500Y-82192000I0J-250000D01*
G01*
X198654500Y-82867000D01*
G75*
G02*
X198404500Y-83117000I-250000J0D01*
G01*
G37*
%TD*%
%TO.C,C7*%
G36*
G01*
X200500000Y-81062500D02*
X199550000Y-81062500D01*
G75*
G02*
X199300000Y-80812500I0J250000D01*
G01*
X199300000Y-80137500D01*
G75*
G02*
X199550000Y-79887500I250000J0D01*
G01*
X200500000Y-79887500D01*
G75*
G02*
X200750000Y-80137500I0J-250000D01*
G01*
X200750000Y-80812500D01*
G75*
G02*
X200500000Y-81062500I-250000J0D01*
G01*
G37*
G36*
G01*
X200500000Y-83137500D02*
X199550000Y-83137500D01*
G75*
G02*
X199300000Y-82887500I0J250000D01*
G01*
X199300000Y-82212500D01*
G75*
G02*
X199550000Y-81962500I250000J0D01*
G01*
X200500000Y-81962500D01*
G75*
G02*
X200750000Y-82212500I0J-250000D01*
G01*
X200750000Y-82887500D01*
G75*
G02*
X200500000Y-83137500I-250000J0D01*
G01*
G37*
%TD*%
%TO.C,C1*%
G36*
G01*
X157549000Y-90899000D02*
X157549000Y-89949000D01*
G75*
G02*
X157799000Y-89699000I250000J0D01*
G01*
X158474000Y-89699000D01*
G75*
G02*
X158724000Y-89949000I0J-250000D01*
G01*
X158724000Y-90899000D01*
G75*
G02*
X158474000Y-91149000I-250000J0D01*
G01*
X157799000Y-91149000D01*
G75*
G02*
X157549000Y-90899000I0J250000D01*
G01*
G37*
G36*
G01*
X155474000Y-90899000D02*
X155474000Y-89949000D01*
G75*
G02*
X155724000Y-89699000I250000J0D01*
G01*
X156399000Y-89699000D01*
G75*
G02*
X156649000Y-89949000I0J-250000D01*
G01*
X156649000Y-90899000D01*
G75*
G02*
X156399000Y-91149000I-250000J0D01*
G01*
X155724000Y-91149000D01*
G75*
G02*
X155474000Y-90899000I0J250000D01*
G01*
G37*
%TD*%
%TO.C,C13*%
G36*
G01*
X170401000Y-84407500D02*
X169451000Y-84407500D01*
G75*
G02*
X169201000Y-84157500I0J250000D01*
G01*
X169201000Y-83482500D01*
G75*
G02*
X169451000Y-83232500I250000J0D01*
G01*
X170401000Y-83232500D01*
G75*
G02*
X170651000Y-83482500I0J-250000D01*
G01*
X170651000Y-84157500D01*
G75*
G02*
X170401000Y-84407500I-250000J0D01*
G01*
G37*
G36*
G01*
X170401000Y-86482500D02*
X169451000Y-86482500D01*
G75*
G02*
X169201000Y-86232500I0J250000D01*
G01*
X169201000Y-85557500D01*
G75*
G02*
X169451000Y-85307500I250000J0D01*
G01*
X170401000Y-85307500D01*
G75*
G02*
X170651000Y-85557500I0J-250000D01*
G01*
X170651000Y-86232500D01*
G75*
G02*
X170401000Y-86482500I-250000J0D01*
G01*
G37*
%TD*%
%TO.C,C12*%
G36*
G01*
X158078500Y-83152000D02*
X158078500Y-82202000D01*
G75*
G02*
X158328500Y-81952000I250000J0D01*
G01*
X159003500Y-81952000D01*
G75*
G02*
X159253500Y-82202000I0J-250000D01*
G01*
X159253500Y-83152000D01*
G75*
G02*
X159003500Y-83402000I-250000J0D01*
G01*
X158328500Y-83402000D01*
G75*
G02*
X158078500Y-83152000I0J250000D01*
G01*
G37*
G36*
G01*
X156003500Y-83152000D02*
X156003500Y-82202000D01*
G75*
G02*
X156253500Y-81952000I250000J0D01*
G01*
X156928500Y-81952000D01*
G75*
G02*
X157178500Y-82202000I0J-250000D01*
G01*
X157178500Y-83152000D01*
G75*
G02*
X156928500Y-83402000I-250000J0D01*
G01*
X156253500Y-83402000D01*
G75*
G02*
X156003500Y-83152000I0J250000D01*
G01*
G37*
%TD*%
%TO.C,C11*%
G36*
G01*
X159291000Y-68733000D02*
X160241000Y-68733000D01*
G75*
G02*
X160491000Y-68983000I0J-250000D01*
G01*
X160491000Y-69658000D01*
G75*
G02*
X160241000Y-69908000I-250000J0D01*
G01*
X159291000Y-69908000D01*
G75*
G02*
X159041000Y-69658000I0J250000D01*
G01*
X159041000Y-68983000D01*
G75*
G02*
X159291000Y-68733000I250000J0D01*
G01*
G37*
G36*
G01*
X159291000Y-70808000D02*
X160241000Y-70808000D01*
G75*
G02*
X160491000Y-71058000I0J-250000D01*
G01*
X160491000Y-71733000D01*
G75*
G02*
X160241000Y-71983000I-250000J0D01*
G01*
X159291000Y-71983000D01*
G75*
G02*
X159041000Y-71733000I0J250000D01*
G01*
X159041000Y-71058000D01*
G75*
G02*
X159291000Y-70808000I250000J0D01*
G01*
G37*
%TD*%
%TO.C,C10*%
G36*
G01*
X170401000Y-69886500D02*
X169451000Y-69886500D01*
G75*
G02*
X169201000Y-69636500I0J250000D01*
G01*
X169201000Y-68961500D01*
G75*
G02*
X169451000Y-68711500I250000J0D01*
G01*
X170401000Y-68711500D01*
G75*
G02*
X170651000Y-68961500I0J-250000D01*
G01*
X170651000Y-69636500D01*
G75*
G02*
X170401000Y-69886500I-250000J0D01*
G01*
G37*
G36*
G01*
X170401000Y-71961500D02*
X169451000Y-71961500D01*
G75*
G02*
X169201000Y-71711500I0J250000D01*
G01*
X169201000Y-71036500D01*
G75*
G02*
X169451000Y-70786500I250000J0D01*
G01*
X170401000Y-70786500D01*
G75*
G02*
X170651000Y-71036500I0J-250000D01*
G01*
X170651000Y-71711500D01*
G75*
G02*
X170401000Y-71961500I-250000J0D01*
G01*
G37*
%TD*%
%TO.C,C3*%
G36*
G01*
X148786000Y-78326000D02*
X148786000Y-77376000D01*
G75*
G02*
X149036000Y-77126000I250000J0D01*
G01*
X149711000Y-77126000D01*
G75*
G02*
X149961000Y-77376000I0J-250000D01*
G01*
X149961000Y-78326000D01*
G75*
G02*
X149711000Y-78576000I-250000J0D01*
G01*
X149036000Y-78576000D01*
G75*
G02*
X148786000Y-78326000I0J250000D01*
G01*
G37*
G36*
G01*
X146711000Y-78326000D02*
X146711000Y-77376000D01*
G75*
G02*
X146961000Y-77126000I250000J0D01*
G01*
X147636000Y-77126000D01*
G75*
G02*
X147886000Y-77376000I0J-250000D01*
G01*
X147886000Y-78326000D01*
G75*
G02*
X147636000Y-78576000I-250000J0D01*
G01*
X146961000Y-78576000D01*
G75*
G02*
X146711000Y-78326000I0J250000D01*
G01*
G37*
%TD*%
%TO.C,C2*%
G36*
G01*
X152596000Y-78326000D02*
X152596000Y-77376000D01*
G75*
G02*
X152846000Y-77126000I250000J0D01*
G01*
X153521000Y-77126000D01*
G75*
G02*
X153771000Y-77376000I0J-250000D01*
G01*
X153771000Y-78326000D01*
G75*
G02*
X153521000Y-78576000I-250000J0D01*
G01*
X152846000Y-78576000D01*
G75*
G02*
X152596000Y-78326000I0J250000D01*
G01*
G37*
G36*
G01*
X150521000Y-78326000D02*
X150521000Y-77376000D01*
G75*
G02*
X150771000Y-77126000I250000J0D01*
G01*
X151446000Y-77126000D01*
G75*
G02*
X151696000Y-77376000I0J-250000D01*
G01*
X151696000Y-78326000D01*
G75*
G02*
X151446000Y-78576000I-250000J0D01*
G01*
X150771000Y-78576000D01*
G75*
G02*
X150521000Y-78326000I0J250000D01*
G01*
G37*
%TD*%
M02*
