%TF.GenerationSoftware,KiCad,Pcbnew,(5.1.9)-1*%
%TF.CreationDate,2021-04-24T21:51:37+02:00*%
%TF.ProjectId,Hoofdbord,486f6f66-6462-46f7-9264-2e6b69636164,rev?*%
%TF.SameCoordinates,Original*%
%TF.FileFunction,Copper,L2,Bot*%
%TF.FilePolarity,Positive*%
%FSLAX46Y46*%
G04 Gerber Fmt 4.6, Leading zero omitted, Abs format (unit mm)*
G04 Created by KiCad (PCBNEW (5.1.9)-1) date 2021-04-24 21:51:37*
%MOMM*%
%LPD*%
G01*
G04 APERTURE LIST*
%TA.AperFunction,ComponentPad*%
%ADD10R,1.416000X1.416000*%
%TD*%
%TA.AperFunction,ComponentPad*%
%ADD11C,1.416000*%
%TD*%
%TA.AperFunction,ComponentPad*%
%ADD12C,6.400000*%
%TD*%
%TA.AperFunction,ComponentPad*%
%ADD13C,0.800000*%
%TD*%
%TA.AperFunction,ComponentPad*%
%ADD14O,1.700000X1.700000*%
%TD*%
%TA.AperFunction,ComponentPad*%
%ADD15R,1.700000X1.700000*%
%TD*%
%TA.AperFunction,ComponentPad*%
%ADD16C,1.300000*%
%TD*%
%TA.AperFunction,ViaPad*%
%ADD17C,0.600000*%
%TD*%
%TA.AperFunction,ViaPad*%
%ADD18C,1.000000*%
%TD*%
%TA.AperFunction,ViaPad*%
%ADD19C,0.800000*%
%TD*%
%TA.AperFunction,Conductor*%
%ADD20C,0.400000*%
%TD*%
%TA.AperFunction,Conductor*%
%ADD21C,0.250000*%
%TD*%
%TA.AperFunction,Conductor*%
%ADD22C,0.800000*%
%TD*%
%TA.AperFunction,Conductor*%
%ADD23C,0.254000*%
%TD*%
%TA.AperFunction,Conductor*%
%ADD24C,0.100000*%
%TD*%
G04 APERTURE END LIST*
D10*
%TO.P,DS1,1*%
%TO.N,O15*%
X206883000Y-83185000D03*
D11*
%TO.P,DS1,2*%
%TO.N,O14*%
X209423000Y-83185000D03*
%TO.P,DS1,3*%
%TO.N,O18*%
X211963000Y-83185000D03*
%TO.P,DS1,4*%
%TO.N,O13*%
X214503000Y-83185000D03*
%TO.P,DS1,5*%
%TO.N,O17*%
X217043000Y-83185000D03*
%TO.P,DS1,6*%
%TO.N,O3*%
X219583000Y-83185000D03*
%TO.P,DS1,7*%
%TO.N,O12*%
X222123000Y-83185000D03*
%TO.P,DS1,8*%
%TO.N,O2*%
X219583000Y-67945000D03*
%TO.P,DS1,9*%
%TO.N,O1*%
X217043000Y-67945000D03*
%TO.P,DS1,10*%
%TO.N,O16*%
X214503000Y-67945000D03*
%TO.P,DS1,11*%
%TO.N,O11*%
X211963000Y-67945000D03*
%TO.P,DS1,12*%
%TO.N,O0*%
X209423000Y-67945000D03*
%TD*%
D12*
%TO.P,,1*%
%TO.N,GND*%
X94107000Y-59817000D03*
D13*
%TO.N,N/C*%
X96507000Y-59817000D03*
X95804056Y-61514056D03*
X94107000Y-62217000D03*
X92409944Y-61514056D03*
X91707000Y-59817000D03*
X92409944Y-58119944D03*
X94107000Y-57417000D03*
X95804056Y-58119944D03*
%TD*%
D12*
%TO.P,,1*%
%TO.N,GND*%
X236093000Y-90678000D03*
D13*
%TO.N,N/C*%
X238493000Y-90678000D03*
X237790056Y-92375056D03*
X236093000Y-93078000D03*
X234395944Y-92375056D03*
X233693000Y-90678000D03*
X234395944Y-88980944D03*
X236093000Y-88278000D03*
X237790056Y-88980944D03*
%TD*%
D12*
%TO.P,,1*%
%TO.N,GND*%
X94107000Y-90678000D03*
D13*
%TO.N,N/C*%
X96507000Y-90678000D03*
X95804056Y-92375056D03*
X94107000Y-93078000D03*
X92409944Y-92375056D03*
X91707000Y-90678000D03*
X92409944Y-88980944D03*
X94107000Y-88278000D03*
X95804056Y-88980944D03*
%TD*%
D12*
%TO.P,,1*%
%TO.N,GND*%
X236093000Y-59817000D03*
D13*
%TO.N,N/C*%
X238493000Y-59817000D03*
X237790056Y-61514056D03*
X236093000Y-62217000D03*
X234395944Y-61514056D03*
X233693000Y-59817000D03*
X234395944Y-58119944D03*
X236093000Y-57417000D03*
X237790056Y-58119944D03*
%TD*%
D14*
%TO.P,SW2,2*%
%TO.N,Net-(R10-Pad2)*%
X190627000Y-82296000D03*
D15*
%TO.P,SW2,1*%
%TO.N,GND*%
X193167000Y-82296000D03*
%TD*%
D14*
%TO.P,J3,5*%
%TO.N,+3V3*%
X175260000Y-82296000D03*
%TO.P,J3,4*%
%TO.N,PA0*%
X175260000Y-79756000D03*
%TO.P,J3,3*%
%TO.N,PA1*%
X175260000Y-77216000D03*
%TO.P,J3,2*%
%TO.N,PA2*%
X175260000Y-74676000D03*
D15*
%TO.P,J3,1*%
%TO.N,GND*%
X175260000Y-72136000D03*
%TD*%
D14*
%TO.P,J4,4*%
%TO.N,+3V3*%
X151511000Y-82296000D03*
%TO.P,J4,3*%
%TO.N,PA14*%
X148971000Y-82296000D03*
%TO.P,J4,2*%
%TO.N,PA13*%
X146431000Y-82296000D03*
D15*
%TO.P,J4,1*%
%TO.N,GND*%
X143891000Y-82296000D03*
%TD*%
D16*
%TO.P,SW3,4*%
%TO.N,Net-(R13-Pad1)*%
X180721000Y-72136000D03*
%TO.P,SW3,3*%
%TO.N,Net-(R15-Pad2)*%
X183261000Y-72136000D03*
%TO.P,SW3,2*%
%TO.N,GND*%
X183261000Y-79756000D03*
%TO.P,SW3,1*%
X180721000Y-79756000D03*
%TD*%
D14*
%TO.P,SW1,2*%
%TO.N,Net-(R6-Pad1)*%
X179705000Y-87503000D03*
D15*
%TO.P,SW1,1*%
%TO.N,GND*%
X177165000Y-87503000D03*
%TD*%
%TO.P,J1,1*%
%TO.N,GND*%
X144018000Y-71247000D03*
D14*
%TO.P,J1,2*%
%TO.N,Net-(IC1-Pad6)*%
X144018000Y-73787000D03*
%TO.P,J1,3*%
%TO.N,Net-(IC1-Pad7)*%
X144018000Y-76327000D03*
%TO.P,J1,4*%
%TO.N,+5V*%
X144018000Y-78867000D03*
%TD*%
%TO.P,J2,2*%
%TO.N,+5V*%
X143954500Y-66548000D03*
D15*
%TO.P,J2,1*%
%TO.N,GND*%
X143954500Y-64008000D03*
%TD*%
D11*
%TO.P,DS2,12*%
%TO.N,O4*%
X110363000Y-67945000D03*
%TO.P,DS2,11*%
%TO.N,O11*%
X112903000Y-67945000D03*
%TO.P,DS2,10*%
%TO.N,O16*%
X115443000Y-67945000D03*
%TO.P,DS2,9*%
%TO.N,O5*%
X117983000Y-67945000D03*
%TO.P,DS2,8*%
%TO.N,O6*%
X120523000Y-67945000D03*
%TO.P,DS2,7*%
%TO.N,O12*%
X123063000Y-83185000D03*
%TO.P,DS2,6*%
%TO.N,O7*%
X120523000Y-83185000D03*
%TO.P,DS2,5*%
%TO.N,O17*%
X117983000Y-83185000D03*
%TO.P,DS2,4*%
%TO.N,O13*%
X115443000Y-83185000D03*
%TO.P,DS2,3*%
%TO.N,O18*%
X112903000Y-83185000D03*
%TO.P,DS2,2*%
%TO.N,O14*%
X110363000Y-83185000D03*
D10*
%TO.P,DS2,1*%
%TO.N,O15*%
X107823000Y-83185000D03*
%TD*%
D17*
%TO.N,O0*%
X193903600Y-69533401D03*
%TO.N,O1*%
X193903600Y-70333414D03*
%TO.N,O2*%
X193903625Y-71133425D03*
%TO.N,O3*%
X193901922Y-71933435D03*
%TO.N,O4*%
X193928992Y-72732989D03*
%TO.N,O5*%
X193929000Y-73570596D03*
%TO.N,O6*%
X193924064Y-74384649D03*
%TO.N,O7*%
X193956570Y-75221507D03*
%TO.N,BOOT0*%
X187198000Y-70866000D03*
X167386000Y-85090000D03*
%TO.N,BOOT1*%
X163576000Y-70485000D03*
X175260000Y-69088000D03*
D18*
%TO.N,+3V3*%
X170521000Y-82336000D03*
X155194000Y-77850945D03*
X152082500Y-70420510D03*
X173609000Y-63754000D03*
X173609000Y-67691000D03*
D17*
X177946538Y-81280014D03*
D19*
X156908500Y-71310500D03*
D18*
%TO.N,GND*%
X155179491Y-69320500D03*
X194817972Y-66293972D03*
X147828000Y-59817000D03*
D17*
%TO.N,Net-(C7-Pad2)*%
X199898000Y-79248000D03*
X199898000Y-77597000D03*
%TO.N,PA2*%
X169037000Y-73660000D03*
%TO.N,PA1*%
X168148000Y-74345800D03*
%TO.N,PA0*%
X169037000Y-75057000D03*
%TO.N,PA14*%
X160146996Y-83693000D03*
%TD*%
D20*
%TO.N,O0*%
X209423000Y-67945000D02*
X207834599Y-69533401D01*
X207834599Y-69533401D02*
X193903600Y-69533401D01*
%TO.N,O11*%
X112903000Y-67056000D02*
X112903000Y-67945000D01*
X121666000Y-58293000D02*
X112903000Y-67056000D01*
X211963000Y-67945000D02*
X211963000Y-66943738D01*
X211963000Y-66943738D02*
X203312262Y-58293000D01*
X203312262Y-58293000D02*
X121666000Y-58293000D01*
%TO.N,O16*%
X210693000Y-66929000D02*
X202657011Y-58893011D01*
X115443000Y-66943737D02*
X115443000Y-67945000D01*
X212852000Y-69596000D02*
X211709000Y-69596000D01*
X214503000Y-67945000D02*
X212852000Y-69596000D01*
X211709000Y-69596000D02*
X210693000Y-68580000D01*
X210693000Y-68580000D02*
X210693000Y-66929000D01*
X202657011Y-58893011D02*
X123493726Y-58893011D01*
X123493726Y-58893011D02*
X115443000Y-66943737D01*
%TO.N,O1*%
X214654586Y-70333414D02*
X193903600Y-70333414D01*
X217043000Y-67945000D02*
X214654586Y-70333414D01*
%TO.N,O2*%
X216394575Y-71133425D02*
X193903625Y-71133425D01*
X219583000Y-67945000D02*
X216394575Y-71133425D01*
%TO.N,O3*%
X208331435Y-71933435D02*
X193901922Y-71933435D01*
X219583000Y-83185000D02*
X208331435Y-71933435D01*
%TO.N,O17*%
X117983000Y-83185000D02*
X125291978Y-90493978D01*
X214099970Y-80241970D02*
X217043000Y-83185000D01*
X205248405Y-80241969D02*
X214099970Y-80241970D01*
X125291978Y-90493978D02*
X194996395Y-90493978D01*
X194996395Y-90493978D02*
X205248405Y-80241969D01*
%TO.N,O13*%
X195244927Y-91093989D02*
X205496936Y-80841979D01*
X212159980Y-80841980D02*
X214503000Y-83185000D01*
X205496936Y-80841979D02*
X212159980Y-80841980D01*
X115443000Y-83185000D02*
X123351989Y-91093989D01*
X123351989Y-91093989D02*
X195244927Y-91093989D01*
%TO.N,O18*%
X205745468Y-81441990D02*
X210219990Y-81441990D01*
X195493458Y-91694000D02*
X205745468Y-81441990D01*
X121412000Y-91694000D02*
X195493458Y-91694000D01*
X112903000Y-83185000D02*
X121412000Y-91694000D01*
X210219990Y-81441990D02*
X211963000Y-83185000D01*
%TO.N,O14*%
X119507000Y-92329000D02*
X110363000Y-83185000D01*
X195707000Y-92329000D02*
X119507000Y-92329000D01*
X205994000Y-82042000D02*
X195707000Y-92329000D01*
X208280000Y-82042000D02*
X205994000Y-82042000D01*
X209423000Y-83185000D02*
X208280000Y-82042000D01*
%TO.N,O15*%
X117602000Y-92964000D02*
X107823000Y-83185000D01*
X195961000Y-92964000D02*
X117602000Y-92964000D01*
X205740000Y-83185000D02*
X195961000Y-92964000D01*
X206883000Y-83185000D02*
X205740000Y-83185000D01*
%TO.N,O4*%
X193128989Y-72732989D02*
X193928992Y-72732989D01*
X181229000Y-60833000D02*
X193128989Y-72732989D01*
X122936000Y-60833000D02*
X181229000Y-60833000D01*
X116713000Y-67056000D02*
X122936000Y-60833000D01*
X116713000Y-68580000D02*
X116713000Y-67056000D01*
X116078000Y-69215000D02*
X116713000Y-68580000D01*
X111633000Y-69215000D02*
X116078000Y-69215000D01*
X110363000Y-67945000D02*
X111633000Y-69215000D01*
%TO.N,O5*%
X192569596Y-73570596D02*
X193929000Y-73570596D01*
X180467000Y-61468000D02*
X192569596Y-73570596D01*
X124460000Y-61468000D02*
X180467000Y-61468000D01*
X117983000Y-67945000D02*
X124460000Y-61468000D01*
%TO.N,O6*%
X191986649Y-74384649D02*
X193924064Y-74384649D01*
X179705000Y-62103000D02*
X191986649Y-74384649D01*
X178054000Y-62103000D02*
X179705000Y-62103000D01*
X178034001Y-62122999D02*
X178054000Y-62103000D01*
X126345001Y-62122999D02*
X178034001Y-62122999D01*
X120523000Y-67945000D02*
X126345001Y-62122999D01*
%TO.N,O7*%
X120523000Y-83185000D02*
X127231967Y-89893967D01*
X195961000Y-77225937D02*
X193956570Y-75221507D01*
X195961000Y-88646000D02*
X195961000Y-77225937D01*
X194713033Y-89893967D02*
X195961000Y-88646000D01*
X127231967Y-89893967D02*
X194713033Y-89893967D01*
D21*
%TO.N,BOOT0*%
X187198000Y-70866000D02*
X187198000Y-70866000D01*
D20*
X171577000Y-89281000D02*
X167386000Y-85090000D01*
X184023000Y-89281000D02*
X171577000Y-89281000D01*
X187198000Y-86106000D02*
X184023000Y-89281000D01*
X187198000Y-70866000D02*
X187198000Y-86106000D01*
D21*
%TO.N,BOOT1*%
X163576000Y-70485000D02*
X173863000Y-70485000D01*
X173863000Y-70485000D02*
X175260000Y-69088000D01*
%TO.N,+3V3*%
X175641000Y-82677000D02*
X175387000Y-82677000D01*
D22*
X152082500Y-74739445D02*
X152082500Y-70420510D01*
X155194000Y-77850945D02*
X152082500Y-74739445D01*
D20*
X170521000Y-82336000D02*
X174985524Y-82336000D01*
D22*
X155194000Y-77851000D02*
X155194000Y-77850945D01*
X159639000Y-82296000D02*
X155194000Y-77851000D01*
X159679000Y-82336000D02*
X159004000Y-81661000D01*
D20*
X173609000Y-63754000D02*
X173609000Y-67691000D01*
X175387000Y-82423000D02*
X176529986Y-81280014D01*
X176529986Y-81280014D02*
X177946538Y-81280014D01*
X156908500Y-71310500D02*
X156018510Y-70420510D01*
X156018510Y-70420510D02*
X152082500Y-70420510D01*
D22*
X163536000Y-82336000D02*
X159679000Y-82336000D01*
X170521000Y-82336000D02*
X163536000Y-82336000D01*
%TO.N,GND*%
X142113000Y-65849500D02*
X143954500Y-64008000D01*
X142113000Y-69596000D02*
X142113000Y-65849500D01*
X144018000Y-71501000D02*
X142113000Y-69596000D01*
X145927419Y-64139419D02*
X144085919Y-64139419D01*
X151108500Y-69320500D02*
X145927419Y-64139419D01*
X144085919Y-64139419D02*
X143954500Y-64008000D01*
X155179491Y-69320500D02*
X151108500Y-69320500D01*
X194817972Y-66293972D02*
X188341000Y-59817000D01*
X188341000Y-59817000D02*
X147828000Y-59817000D01*
D20*
X159617500Y-69320500D02*
X155179491Y-69320500D01*
X162433000Y-72136000D02*
X159617500Y-69320500D01*
X175260000Y-72136000D02*
X162433000Y-72136000D01*
X175641000Y-72517000D02*
X175260000Y-72136000D01*
X177165000Y-87122000D02*
X177038000Y-87249000D01*
X177165000Y-83312000D02*
X177165000Y-87122000D01*
X180721000Y-79756000D02*
X177165000Y-83312000D01*
%TO.N,Net-(C7-Pad2)*%
X199898000Y-77597000D02*
X199898000Y-79248000D01*
D21*
%TO.N,PA2*%
X175260000Y-74676000D02*
X175641000Y-75057000D01*
X173609000Y-74676000D02*
X175260000Y-74676000D01*
X172593000Y-73660000D02*
X173609000Y-74676000D01*
X169037000Y-73660000D02*
X172593000Y-73660000D01*
%TO.N,PA1*%
X175260000Y-77216000D02*
X175641000Y-77597000D01*
X173609000Y-77216000D02*
X175260000Y-77216000D01*
X170738800Y-74345800D02*
X173609000Y-77216000D01*
X168148000Y-74345800D02*
X170738800Y-74345800D01*
%TO.N,PA0*%
X175387000Y-80137000D02*
X175641000Y-80137000D01*
X175006000Y-79756000D02*
X175387000Y-80137000D01*
X173736000Y-79756000D02*
X175006000Y-79756000D01*
X169037000Y-75057000D02*
X173736000Y-79756000D01*
%TO.N,PA14*%
X148971000Y-82296000D02*
X150368000Y-83693000D01*
X150368000Y-83693000D02*
X160146996Y-83693000D01*
%TD*%
D23*
%TO.N,GND*%
X233972330Y-56599445D02*
X233931912Y-56626452D01*
X233571724Y-57116119D01*
X233757416Y-57301811D01*
X233736170Y-57316007D01*
X233592007Y-57460170D01*
X233577811Y-57481416D01*
X233392119Y-57295724D01*
X232902452Y-57655912D01*
X232542151Y-58319882D01*
X232318306Y-59041385D01*
X232239520Y-59792695D01*
X232308822Y-60544938D01*
X232523548Y-61269208D01*
X232875445Y-61937670D01*
X232902452Y-61978088D01*
X233392119Y-62338276D01*
X233577811Y-62152584D01*
X233592007Y-62173830D01*
X233736170Y-62317993D01*
X233757416Y-62332189D01*
X233571724Y-62517881D01*
X233931912Y-63007548D01*
X234595882Y-63367849D01*
X235317385Y-63591694D01*
X236068695Y-63670480D01*
X236820938Y-63601178D01*
X237545208Y-63386452D01*
X238213670Y-63034555D01*
X238254088Y-63007548D01*
X238614276Y-62517881D01*
X238428584Y-62332189D01*
X238449830Y-62317993D01*
X238593993Y-62173830D01*
X238608189Y-62152584D01*
X238793881Y-62338276D01*
X239283548Y-61978088D01*
X239472000Y-61630805D01*
X239472001Y-88864012D01*
X239310555Y-88557330D01*
X239283548Y-88516912D01*
X238793881Y-88156724D01*
X238608189Y-88342416D01*
X238593993Y-88321170D01*
X238449830Y-88177007D01*
X238428584Y-88162811D01*
X238614276Y-87977119D01*
X238254088Y-87487452D01*
X237590118Y-87127151D01*
X236868615Y-86903306D01*
X236117305Y-86824520D01*
X235365062Y-86893822D01*
X234640792Y-87108548D01*
X233972330Y-87460445D01*
X233931912Y-87487452D01*
X233571724Y-87977119D01*
X233757416Y-88162811D01*
X233736170Y-88177007D01*
X233592007Y-88321170D01*
X233577811Y-88342416D01*
X233392119Y-88156724D01*
X232902452Y-88516912D01*
X232542151Y-89180882D01*
X232318306Y-89902385D01*
X232239520Y-90653695D01*
X232308822Y-91405938D01*
X232523548Y-92130208D01*
X232875445Y-92798670D01*
X232902452Y-92839088D01*
X233392119Y-93199276D01*
X233577811Y-93013584D01*
X233592007Y-93034830D01*
X233736170Y-93178993D01*
X233757416Y-93193189D01*
X233571724Y-93378881D01*
X233931912Y-93868548D01*
X234279195Y-94057000D01*
X95920990Y-94057000D01*
X96227670Y-93895555D01*
X96268088Y-93868548D01*
X96628276Y-93378881D01*
X96442584Y-93193189D01*
X96463830Y-93178993D01*
X96607993Y-93034830D01*
X96622189Y-93013584D01*
X96807881Y-93199276D01*
X97297548Y-92839088D01*
X97657849Y-92175118D01*
X97881694Y-91453615D01*
X97960480Y-90702305D01*
X97891178Y-89950062D01*
X97676452Y-89225792D01*
X97324555Y-88557330D01*
X97297548Y-88516912D01*
X96807881Y-88156724D01*
X96622189Y-88342416D01*
X96607993Y-88321170D01*
X96463830Y-88177007D01*
X96442584Y-88162811D01*
X96628276Y-87977119D01*
X96268088Y-87487452D01*
X95604118Y-87127151D01*
X94882615Y-86903306D01*
X94131305Y-86824520D01*
X93379062Y-86893822D01*
X92654792Y-87108548D01*
X91986330Y-87460445D01*
X91945912Y-87487452D01*
X91585724Y-87977119D01*
X91771416Y-88162811D01*
X91750170Y-88177007D01*
X91606007Y-88321170D01*
X91591811Y-88342416D01*
X91406119Y-88156724D01*
X90916452Y-88516912D01*
X90728000Y-88864195D01*
X90728000Y-82477000D01*
X106476928Y-82477000D01*
X106476928Y-83893000D01*
X106489188Y-84017482D01*
X106525498Y-84137180D01*
X106584463Y-84247494D01*
X106663815Y-84344185D01*
X106760506Y-84423537D01*
X106870820Y-84482502D01*
X106990518Y-84518812D01*
X107115000Y-84531072D01*
X107988205Y-84531072D01*
X116982559Y-93525427D01*
X117008709Y-93557291D01*
X117135854Y-93661636D01*
X117280913Y-93739172D01*
X117438311Y-93786918D01*
X117560981Y-93799000D01*
X117560991Y-93799000D01*
X117601999Y-93803039D01*
X117643007Y-93799000D01*
X195919982Y-93799000D01*
X195961000Y-93803040D01*
X196002018Y-93799000D01*
X196002019Y-93799000D01*
X196124689Y-93786918D01*
X196282087Y-93739172D01*
X196427146Y-93661636D01*
X196554291Y-93557291D01*
X196580446Y-93525421D01*
X205744614Y-84361254D01*
X205820506Y-84423537D01*
X205930820Y-84482502D01*
X206050518Y-84518812D01*
X206175000Y-84531072D01*
X207591000Y-84531072D01*
X207715482Y-84518812D01*
X207835180Y-84482502D01*
X207945494Y-84423537D01*
X208042185Y-84344185D01*
X208121537Y-84247494D01*
X208180502Y-84137180D01*
X208216812Y-84017482D01*
X208229072Y-83893000D01*
X208229072Y-83812031D01*
X208232849Y-83821149D01*
X208379824Y-84041112D01*
X208566888Y-84228176D01*
X208786851Y-84375151D01*
X209031261Y-84476389D01*
X209290726Y-84528000D01*
X209555274Y-84528000D01*
X209814739Y-84476389D01*
X210059149Y-84375151D01*
X210279112Y-84228176D01*
X210466176Y-84041112D01*
X210613151Y-83821149D01*
X210693000Y-83628377D01*
X210772849Y-83821149D01*
X210919824Y-84041112D01*
X211106888Y-84228176D01*
X211326851Y-84375151D01*
X211571261Y-84476389D01*
X211830726Y-84528000D01*
X212095274Y-84528000D01*
X212354739Y-84476389D01*
X212599149Y-84375151D01*
X212819112Y-84228176D01*
X213006176Y-84041112D01*
X213153151Y-83821149D01*
X213233000Y-83628377D01*
X213312849Y-83821149D01*
X213459824Y-84041112D01*
X213646888Y-84228176D01*
X213866851Y-84375151D01*
X214111261Y-84476389D01*
X214370726Y-84528000D01*
X214635274Y-84528000D01*
X214894739Y-84476389D01*
X215139149Y-84375151D01*
X215359112Y-84228176D01*
X215546176Y-84041112D01*
X215693151Y-83821149D01*
X215773000Y-83628377D01*
X215852849Y-83821149D01*
X215999824Y-84041112D01*
X216186888Y-84228176D01*
X216406851Y-84375151D01*
X216651261Y-84476389D01*
X216910726Y-84528000D01*
X217175274Y-84528000D01*
X217434739Y-84476389D01*
X217679149Y-84375151D01*
X217899112Y-84228176D01*
X218086176Y-84041112D01*
X218233151Y-83821149D01*
X218313000Y-83628377D01*
X218392849Y-83821149D01*
X218539824Y-84041112D01*
X218726888Y-84228176D01*
X218946851Y-84375151D01*
X219191261Y-84476389D01*
X219450726Y-84528000D01*
X219715274Y-84528000D01*
X219974739Y-84476389D01*
X220219149Y-84375151D01*
X220439112Y-84228176D01*
X220626176Y-84041112D01*
X220773151Y-83821149D01*
X220853000Y-83628377D01*
X220932849Y-83821149D01*
X221079824Y-84041112D01*
X221266888Y-84228176D01*
X221486851Y-84375151D01*
X221731261Y-84476389D01*
X221990726Y-84528000D01*
X222255274Y-84528000D01*
X222514739Y-84476389D01*
X222759149Y-84375151D01*
X222979112Y-84228176D01*
X223166176Y-84041112D01*
X223313151Y-83821149D01*
X223414389Y-83576739D01*
X223466000Y-83317274D01*
X223466000Y-83052726D01*
X223414389Y-82793261D01*
X223313151Y-82548851D01*
X223166176Y-82328888D01*
X222979112Y-82141824D01*
X222759149Y-81994849D01*
X222514739Y-81893611D01*
X222255274Y-81842000D01*
X221990726Y-81842000D01*
X221731261Y-81893611D01*
X221486851Y-81994849D01*
X221266888Y-82141824D01*
X221079824Y-82328888D01*
X220932849Y-82548851D01*
X220853000Y-82741623D01*
X220773151Y-82548851D01*
X220626176Y-82328888D01*
X220439112Y-82141824D01*
X220219149Y-81994849D01*
X219974739Y-81893611D01*
X219715274Y-81842000D01*
X219450726Y-81842000D01*
X219425822Y-81846954D01*
X209547292Y-71968425D01*
X216353557Y-71968425D01*
X216394575Y-71972465D01*
X216435593Y-71968425D01*
X216435594Y-71968425D01*
X216558264Y-71956343D01*
X216715662Y-71908597D01*
X216860721Y-71831061D01*
X216987866Y-71726716D01*
X217014021Y-71694846D01*
X219425822Y-69283046D01*
X219450726Y-69288000D01*
X219715274Y-69288000D01*
X219974739Y-69236389D01*
X220219149Y-69135151D01*
X220439112Y-68988176D01*
X220626176Y-68801112D01*
X220773151Y-68581149D01*
X220874389Y-68336739D01*
X220926000Y-68077274D01*
X220926000Y-67812726D01*
X220874389Y-67553261D01*
X220773151Y-67308851D01*
X220626176Y-67088888D01*
X220439112Y-66901824D01*
X220219149Y-66754849D01*
X219974739Y-66653611D01*
X219715274Y-66602000D01*
X219450726Y-66602000D01*
X219191261Y-66653611D01*
X218946851Y-66754849D01*
X218726888Y-66901824D01*
X218539824Y-67088888D01*
X218392849Y-67308851D01*
X218313000Y-67501623D01*
X218233151Y-67308851D01*
X218086176Y-67088888D01*
X217899112Y-66901824D01*
X217679149Y-66754849D01*
X217434739Y-66653611D01*
X217175274Y-66602000D01*
X216910726Y-66602000D01*
X216651261Y-66653611D01*
X216406851Y-66754849D01*
X216186888Y-66901824D01*
X215999824Y-67088888D01*
X215852849Y-67308851D01*
X215773000Y-67501623D01*
X215693151Y-67308851D01*
X215546176Y-67088888D01*
X215359112Y-66901824D01*
X215139149Y-66754849D01*
X214894739Y-66653611D01*
X214635274Y-66602000D01*
X214370726Y-66602000D01*
X214111261Y-66653611D01*
X213866851Y-66754849D01*
X213646888Y-66901824D01*
X213459824Y-67088888D01*
X213312849Y-67308851D01*
X213233000Y-67501623D01*
X213153151Y-67308851D01*
X213006176Y-67088888D01*
X212819112Y-66901824D01*
X212796418Y-66886661D01*
X212785918Y-66780049D01*
X212738172Y-66622651D01*
X212660636Y-66477592D01*
X212598386Y-66401740D01*
X212556291Y-66350447D01*
X212524427Y-66324297D01*
X203931708Y-57731579D01*
X203905553Y-57699709D01*
X203778408Y-57595364D01*
X203633349Y-57517828D01*
X203475951Y-57470082D01*
X203353281Y-57458000D01*
X203353280Y-57458000D01*
X203312262Y-57453960D01*
X203271244Y-57458000D01*
X121707007Y-57458000D01*
X121665999Y-57453961D01*
X121624991Y-57458000D01*
X121624981Y-57458000D01*
X121502311Y-57470082D01*
X121344913Y-57517828D01*
X121199854Y-57595364D01*
X121072709Y-57699709D01*
X121046559Y-57731573D01*
X112341579Y-66436554D01*
X112309709Y-66462709D01*
X112233148Y-66556000D01*
X112205364Y-66589855D01*
X112127828Y-66734914D01*
X112084902Y-66876424D01*
X112046888Y-66901824D01*
X111859824Y-67088888D01*
X111712849Y-67308851D01*
X111633000Y-67501623D01*
X111553151Y-67308851D01*
X111406176Y-67088888D01*
X111219112Y-66901824D01*
X110999149Y-66754849D01*
X110754739Y-66653611D01*
X110495274Y-66602000D01*
X110230726Y-66602000D01*
X109971261Y-66653611D01*
X109726851Y-66754849D01*
X109506888Y-66901824D01*
X109319824Y-67088888D01*
X109172849Y-67308851D01*
X109071611Y-67553261D01*
X109020000Y-67812726D01*
X109020000Y-68077274D01*
X109071611Y-68336739D01*
X109172849Y-68581149D01*
X109319824Y-68801112D01*
X109506888Y-68988176D01*
X109726851Y-69135151D01*
X109971261Y-69236389D01*
X110230726Y-69288000D01*
X110495274Y-69288000D01*
X110520179Y-69283046D01*
X111013558Y-69776426D01*
X111039709Y-69808291D01*
X111166854Y-69912636D01*
X111311913Y-69990172D01*
X111469311Y-70037918D01*
X111591981Y-70050000D01*
X111591983Y-70050000D01*
X111632999Y-70054040D01*
X111674015Y-70050000D01*
X116036982Y-70050000D01*
X116078000Y-70054040D01*
X116119018Y-70050000D01*
X116119019Y-70050000D01*
X116241689Y-70037918D01*
X116399087Y-69990172D01*
X116544146Y-69912636D01*
X116671291Y-69808291D01*
X116697445Y-69776422D01*
X117274432Y-69199436D01*
X117306291Y-69173291D01*
X117332440Y-69141429D01*
X117340871Y-69131155D01*
X117346851Y-69135151D01*
X117591261Y-69236389D01*
X117850726Y-69288000D01*
X118115274Y-69288000D01*
X118374739Y-69236389D01*
X118619149Y-69135151D01*
X118839112Y-68988176D01*
X119026176Y-68801112D01*
X119173151Y-68581149D01*
X119253000Y-68388377D01*
X119332849Y-68581149D01*
X119479824Y-68801112D01*
X119666888Y-68988176D01*
X119886851Y-69135151D01*
X120131261Y-69236389D01*
X120390726Y-69288000D01*
X120655274Y-69288000D01*
X120914739Y-69236389D01*
X121159149Y-69135151D01*
X121379112Y-68988176D01*
X121566176Y-68801112D01*
X121713151Y-68581149D01*
X121814389Y-68336739D01*
X121866000Y-68077274D01*
X121866000Y-67812726D01*
X121861046Y-67787821D01*
X124790868Y-64858000D01*
X142466428Y-64858000D01*
X142478688Y-64982482D01*
X142514998Y-65102180D01*
X142573963Y-65212494D01*
X142653315Y-65309185D01*
X142750006Y-65388537D01*
X142860320Y-65447502D01*
X142932880Y-65469513D01*
X142801025Y-65601368D01*
X142638510Y-65844589D01*
X142526568Y-66114842D01*
X142469500Y-66401740D01*
X142469500Y-66694260D01*
X142526568Y-66981158D01*
X142638510Y-67251411D01*
X142801025Y-67494632D01*
X143007868Y-67701475D01*
X143251089Y-67863990D01*
X143521342Y-67975932D01*
X143808240Y-68033000D01*
X144100760Y-68033000D01*
X144387658Y-67975932D01*
X144657911Y-67863990D01*
X144901132Y-67701475D01*
X145107975Y-67494632D01*
X145270490Y-67251411D01*
X145382432Y-66981158D01*
X145439500Y-66694260D01*
X145439500Y-66401740D01*
X145382432Y-66114842D01*
X145270490Y-65844589D01*
X145107975Y-65601368D01*
X144976120Y-65469513D01*
X145048680Y-65447502D01*
X145158994Y-65388537D01*
X145255685Y-65309185D01*
X145335037Y-65212494D01*
X145394002Y-65102180D01*
X145430312Y-64982482D01*
X145442572Y-64858000D01*
X145439500Y-64293750D01*
X145280750Y-64135000D01*
X144081500Y-64135000D01*
X144081500Y-64155000D01*
X143827500Y-64155000D01*
X143827500Y-64135000D01*
X142628250Y-64135000D01*
X142469500Y-64293750D01*
X142466428Y-64858000D01*
X124790868Y-64858000D01*
X126690870Y-62957999D01*
X142501596Y-62957999D01*
X142478688Y-63033518D01*
X142466428Y-63158000D01*
X142469500Y-63722250D01*
X142628250Y-63881000D01*
X143827500Y-63881000D01*
X143827500Y-63861000D01*
X144081500Y-63861000D01*
X144081500Y-63881000D01*
X145280750Y-63881000D01*
X145439500Y-63722250D01*
X145442572Y-63158000D01*
X145430312Y-63033518D01*
X145407404Y-62957999D01*
X172799869Y-62957999D01*
X172727388Y-63030480D01*
X172603176Y-63216376D01*
X172517617Y-63422933D01*
X172474000Y-63642212D01*
X172474000Y-63865788D01*
X172517617Y-64085067D01*
X172603176Y-64291624D01*
X172727388Y-64477520D01*
X172774000Y-64524132D01*
X172774001Y-66920867D01*
X172727388Y-66967480D01*
X172603176Y-67153376D01*
X172517617Y-67359933D01*
X172474000Y-67579212D01*
X172474000Y-67802788D01*
X172517617Y-68022067D01*
X172603176Y-68228624D01*
X172727388Y-68414520D01*
X172885480Y-68572612D01*
X173071376Y-68696824D01*
X173277933Y-68782383D01*
X173497212Y-68826000D01*
X173720788Y-68826000D01*
X173940067Y-68782383D01*
X174146624Y-68696824D01*
X174332520Y-68572612D01*
X174490612Y-68414520D01*
X174614824Y-68228624D01*
X174700383Y-68022067D01*
X174744000Y-67802788D01*
X174744000Y-67579212D01*
X174700383Y-67359933D01*
X174614824Y-67153376D01*
X174490612Y-66967480D01*
X174444000Y-66920868D01*
X174444000Y-64524132D01*
X174490612Y-64477520D01*
X174614824Y-64291624D01*
X174700383Y-64085067D01*
X174744000Y-63865788D01*
X174744000Y-63642212D01*
X174700383Y-63422933D01*
X174614824Y-63216376D01*
X174490612Y-63030480D01*
X174418131Y-62957999D01*
X177992983Y-62957999D01*
X178034001Y-62962039D01*
X178075019Y-62957999D01*
X178075020Y-62957999D01*
X178197690Y-62945917D01*
X178223789Y-62938000D01*
X179359133Y-62938000D01*
X186581421Y-70160289D01*
X186471738Y-70269972D01*
X186369414Y-70423111D01*
X186298932Y-70593271D01*
X186263000Y-70773911D01*
X186263000Y-70958089D01*
X186298932Y-71138729D01*
X186363000Y-71293404D01*
X186363001Y-85760131D01*
X183677133Y-88446000D01*
X180860902Y-88446000D01*
X181020990Y-88206411D01*
X181132932Y-87936158D01*
X181190000Y-87649260D01*
X181190000Y-87356740D01*
X181132932Y-87069842D01*
X181020990Y-86799589D01*
X180858475Y-86556368D01*
X180651632Y-86349525D01*
X180408411Y-86187010D01*
X180138158Y-86075068D01*
X179851260Y-86018000D01*
X179558740Y-86018000D01*
X179271842Y-86075068D01*
X179001589Y-86187010D01*
X178758368Y-86349525D01*
X178626513Y-86481380D01*
X178604502Y-86408820D01*
X178545537Y-86298506D01*
X178466185Y-86201815D01*
X178369494Y-86122463D01*
X178259180Y-86063498D01*
X178139482Y-86027188D01*
X178015000Y-86014928D01*
X177450750Y-86018000D01*
X177292000Y-86176750D01*
X177292000Y-87376000D01*
X177312000Y-87376000D01*
X177312000Y-87630000D01*
X177292000Y-87630000D01*
X177292000Y-87650000D01*
X177038000Y-87650000D01*
X177038000Y-87630000D01*
X175838750Y-87630000D01*
X175680000Y-87788750D01*
X175676928Y-88353000D01*
X175686087Y-88446000D01*
X171922868Y-88446000D01*
X170129868Y-86653000D01*
X175676928Y-86653000D01*
X175680000Y-87217250D01*
X175838750Y-87376000D01*
X177038000Y-87376000D01*
X177038000Y-86176750D01*
X176879250Y-86018000D01*
X176315000Y-86014928D01*
X176190518Y-86027188D01*
X176070820Y-86063498D01*
X175960506Y-86122463D01*
X175863815Y-86201815D01*
X175784463Y-86298506D01*
X175725498Y-86408820D01*
X175689188Y-86528518D01*
X175676928Y-86653000D01*
X170129868Y-86653000D01*
X168278655Y-84801787D01*
X168214586Y-84647111D01*
X168112262Y-84493972D01*
X167982028Y-84363738D01*
X167828889Y-84261414D01*
X167658729Y-84190932D01*
X167478089Y-84155000D01*
X167293911Y-84155000D01*
X167113271Y-84190932D01*
X166943111Y-84261414D01*
X166789972Y-84363738D01*
X166659738Y-84493972D01*
X166557414Y-84647111D01*
X166486932Y-84817271D01*
X166451000Y-84997911D01*
X166451000Y-85182089D01*
X166486932Y-85362729D01*
X166557414Y-85532889D01*
X166659738Y-85686028D01*
X166789972Y-85816262D01*
X166943111Y-85918586D01*
X167097787Y-85982655D01*
X170174099Y-89058967D01*
X127577835Y-89058967D01*
X123046867Y-84528000D01*
X123195274Y-84528000D01*
X123454739Y-84476389D01*
X123699149Y-84375151D01*
X123919112Y-84228176D01*
X124106176Y-84041112D01*
X124253151Y-83821149D01*
X124354389Y-83576739D01*
X124406000Y-83317274D01*
X124406000Y-83146000D01*
X142402928Y-83146000D01*
X142415188Y-83270482D01*
X142451498Y-83390180D01*
X142510463Y-83500494D01*
X142589815Y-83597185D01*
X142686506Y-83676537D01*
X142796820Y-83735502D01*
X142916518Y-83771812D01*
X143041000Y-83784072D01*
X143605250Y-83781000D01*
X143764000Y-83622250D01*
X143764000Y-82423000D01*
X142564750Y-82423000D01*
X142406000Y-82581750D01*
X142402928Y-83146000D01*
X124406000Y-83146000D01*
X124406000Y-83052726D01*
X124354389Y-82793261D01*
X124253151Y-82548851D01*
X124106176Y-82328888D01*
X123919112Y-82141824D01*
X123699149Y-81994849D01*
X123454739Y-81893611D01*
X123195274Y-81842000D01*
X122930726Y-81842000D01*
X122671261Y-81893611D01*
X122426851Y-81994849D01*
X122206888Y-82141824D01*
X122019824Y-82328888D01*
X121872849Y-82548851D01*
X121793000Y-82741623D01*
X121713151Y-82548851D01*
X121566176Y-82328888D01*
X121379112Y-82141824D01*
X121159149Y-81994849D01*
X120914739Y-81893611D01*
X120655274Y-81842000D01*
X120390726Y-81842000D01*
X120131261Y-81893611D01*
X119886851Y-81994849D01*
X119666888Y-82141824D01*
X119479824Y-82328888D01*
X119332849Y-82548851D01*
X119253000Y-82741623D01*
X119173151Y-82548851D01*
X119026176Y-82328888D01*
X118839112Y-82141824D01*
X118619149Y-81994849D01*
X118374739Y-81893611D01*
X118115274Y-81842000D01*
X117850726Y-81842000D01*
X117591261Y-81893611D01*
X117346851Y-81994849D01*
X117126888Y-82141824D01*
X116939824Y-82328888D01*
X116792849Y-82548851D01*
X116713000Y-82741623D01*
X116633151Y-82548851D01*
X116486176Y-82328888D01*
X116299112Y-82141824D01*
X116079149Y-81994849D01*
X115834739Y-81893611D01*
X115575274Y-81842000D01*
X115310726Y-81842000D01*
X115051261Y-81893611D01*
X114806851Y-81994849D01*
X114586888Y-82141824D01*
X114399824Y-82328888D01*
X114252849Y-82548851D01*
X114173000Y-82741623D01*
X114093151Y-82548851D01*
X113946176Y-82328888D01*
X113759112Y-82141824D01*
X113539149Y-81994849D01*
X113294739Y-81893611D01*
X113035274Y-81842000D01*
X112770726Y-81842000D01*
X112511261Y-81893611D01*
X112266851Y-81994849D01*
X112046888Y-82141824D01*
X111859824Y-82328888D01*
X111712849Y-82548851D01*
X111633000Y-82741623D01*
X111553151Y-82548851D01*
X111406176Y-82328888D01*
X111219112Y-82141824D01*
X110999149Y-81994849D01*
X110754739Y-81893611D01*
X110495274Y-81842000D01*
X110230726Y-81842000D01*
X109971261Y-81893611D01*
X109726851Y-81994849D01*
X109506888Y-82141824D01*
X109319824Y-82328888D01*
X109172849Y-82548851D01*
X109169072Y-82557969D01*
X109169072Y-82477000D01*
X109156812Y-82352518D01*
X109120502Y-82232820D01*
X109061537Y-82122506D01*
X108982185Y-82025815D01*
X108885494Y-81946463D01*
X108775180Y-81887498D01*
X108655482Y-81851188D01*
X108531000Y-81838928D01*
X107115000Y-81838928D01*
X106990518Y-81851188D01*
X106870820Y-81887498D01*
X106760506Y-81946463D01*
X106663815Y-82025815D01*
X106584463Y-82122506D01*
X106525498Y-82232820D01*
X106489188Y-82352518D01*
X106476928Y-82477000D01*
X90728000Y-82477000D01*
X90728000Y-81446000D01*
X142402928Y-81446000D01*
X142406000Y-82010250D01*
X142564750Y-82169000D01*
X143764000Y-82169000D01*
X143764000Y-80969750D01*
X144018000Y-80969750D01*
X144018000Y-82169000D01*
X144038000Y-82169000D01*
X144038000Y-82423000D01*
X144018000Y-82423000D01*
X144018000Y-83622250D01*
X144176750Y-83781000D01*
X144741000Y-83784072D01*
X144865482Y-83771812D01*
X144985180Y-83735502D01*
X145095494Y-83676537D01*
X145192185Y-83597185D01*
X145271537Y-83500494D01*
X145330502Y-83390180D01*
X145352513Y-83317620D01*
X145484368Y-83449475D01*
X145727589Y-83611990D01*
X145997842Y-83723932D01*
X146284740Y-83781000D01*
X146577260Y-83781000D01*
X146864158Y-83723932D01*
X147134411Y-83611990D01*
X147377632Y-83449475D01*
X147584475Y-83242632D01*
X147701000Y-83068240D01*
X147817525Y-83242632D01*
X148024368Y-83449475D01*
X148267589Y-83611990D01*
X148537842Y-83723932D01*
X148824740Y-83781000D01*
X149117260Y-83781000D01*
X149337408Y-83737210D01*
X149804201Y-84204003D01*
X149827999Y-84233001D01*
X149943724Y-84327974D01*
X150075753Y-84398546D01*
X150219014Y-84442003D01*
X150330667Y-84453000D01*
X150330676Y-84453000D01*
X150367999Y-84456676D01*
X150405322Y-84453000D01*
X159601461Y-84453000D01*
X159704107Y-84521586D01*
X159874267Y-84592068D01*
X160054907Y-84628000D01*
X160239085Y-84628000D01*
X160419725Y-84592068D01*
X160589885Y-84521586D01*
X160743024Y-84419262D01*
X160873258Y-84289028D01*
X160975582Y-84135889D01*
X161046064Y-83965729D01*
X161081996Y-83785089D01*
X161081996Y-83600911D01*
X161046064Y-83420271D01*
X161025655Y-83371000D01*
X170053813Y-83371000D01*
X170189933Y-83427383D01*
X170409212Y-83471000D01*
X170632788Y-83471000D01*
X170852067Y-83427383D01*
X171058624Y-83341824D01*
X171244520Y-83217612D01*
X171291132Y-83171000D01*
X174058662Y-83171000D01*
X174106525Y-83242632D01*
X174313368Y-83449475D01*
X174556589Y-83611990D01*
X174826842Y-83723932D01*
X175113740Y-83781000D01*
X175406260Y-83781000D01*
X175693158Y-83723932D01*
X175963411Y-83611990D01*
X176206632Y-83449475D01*
X176413475Y-83242632D01*
X176575990Y-82999411D01*
X176687932Y-82729158D01*
X176745000Y-82442260D01*
X176745000Y-82245868D01*
X176875854Y-82115014D01*
X177519134Y-82115014D01*
X177673809Y-82179082D01*
X177854449Y-82215014D01*
X178038627Y-82215014D01*
X178219267Y-82179082D01*
X178389427Y-82108600D01*
X178542566Y-82006276D01*
X178672800Y-81876042D01*
X178775124Y-81722903D01*
X178845606Y-81552743D01*
X178881538Y-81372103D01*
X178881538Y-81187925D01*
X178845606Y-81007285D01*
X178775124Y-80837125D01*
X178672800Y-80683986D01*
X178630341Y-80641527D01*
X180015078Y-80641527D01*
X180068466Y-80870201D01*
X180298374Y-80976095D01*
X180544524Y-81035102D01*
X180797455Y-81044952D01*
X181047449Y-81005270D01*
X181284896Y-80917578D01*
X181373534Y-80870201D01*
X181426922Y-80641527D01*
X182555078Y-80641527D01*
X182608466Y-80870201D01*
X182838374Y-80976095D01*
X183084524Y-81035102D01*
X183337455Y-81044952D01*
X183587449Y-81005270D01*
X183824896Y-80917578D01*
X183913534Y-80870201D01*
X183966922Y-80641527D01*
X183261000Y-79935605D01*
X182555078Y-80641527D01*
X181426922Y-80641527D01*
X180721000Y-79935605D01*
X180015078Y-80641527D01*
X178630341Y-80641527D01*
X178542566Y-80553752D01*
X178389427Y-80451428D01*
X178219267Y-80380946D01*
X178038627Y-80345014D01*
X177854449Y-80345014D01*
X177673809Y-80380946D01*
X177519134Y-80445014D01*
X176581953Y-80445014D01*
X176687932Y-80189158D01*
X176745000Y-79902260D01*
X176745000Y-79832455D01*
X179432048Y-79832455D01*
X179471730Y-80082449D01*
X179559422Y-80319896D01*
X179606799Y-80408534D01*
X179835473Y-80461922D01*
X180541395Y-79756000D01*
X180900605Y-79756000D01*
X181606527Y-80461922D01*
X181835201Y-80408534D01*
X181941095Y-80178626D01*
X181992776Y-79963038D01*
X182011730Y-80082449D01*
X182099422Y-80319896D01*
X182146799Y-80408534D01*
X182375473Y-80461922D01*
X183081395Y-79756000D01*
X183440605Y-79756000D01*
X184146527Y-80461922D01*
X184375201Y-80408534D01*
X184481095Y-80178626D01*
X184540102Y-79932476D01*
X184549952Y-79679545D01*
X184510270Y-79429551D01*
X184422578Y-79192104D01*
X184375201Y-79103466D01*
X184146527Y-79050078D01*
X183440605Y-79756000D01*
X183081395Y-79756000D01*
X182375473Y-79050078D01*
X182146799Y-79103466D01*
X182040905Y-79333374D01*
X181989224Y-79548962D01*
X181970270Y-79429551D01*
X181882578Y-79192104D01*
X181835201Y-79103466D01*
X181606527Y-79050078D01*
X180900605Y-79756000D01*
X180541395Y-79756000D01*
X179835473Y-79050078D01*
X179606799Y-79103466D01*
X179500905Y-79333374D01*
X179441898Y-79579524D01*
X179432048Y-79832455D01*
X176745000Y-79832455D01*
X176745000Y-79609740D01*
X176687932Y-79322842D01*
X176575990Y-79052589D01*
X176454305Y-78870473D01*
X180015078Y-78870473D01*
X180721000Y-79576395D01*
X181426922Y-78870473D01*
X182555078Y-78870473D01*
X183261000Y-79576395D01*
X183966922Y-78870473D01*
X183913534Y-78641799D01*
X183683626Y-78535905D01*
X183437476Y-78476898D01*
X183184545Y-78467048D01*
X182934551Y-78506730D01*
X182697104Y-78594422D01*
X182608466Y-78641799D01*
X182555078Y-78870473D01*
X181426922Y-78870473D01*
X181373534Y-78641799D01*
X181143626Y-78535905D01*
X180897476Y-78476898D01*
X180644545Y-78467048D01*
X180394551Y-78506730D01*
X180157104Y-78594422D01*
X180068466Y-78641799D01*
X180015078Y-78870473D01*
X176454305Y-78870473D01*
X176413475Y-78809368D01*
X176206632Y-78602525D01*
X176032240Y-78486000D01*
X176206632Y-78369475D01*
X176413475Y-78162632D01*
X176575990Y-77919411D01*
X176687932Y-77649158D01*
X176745000Y-77362260D01*
X176745000Y-77069740D01*
X176687932Y-76782842D01*
X176575990Y-76512589D01*
X176413475Y-76269368D01*
X176206632Y-76062525D01*
X176032240Y-75946000D01*
X176206632Y-75829475D01*
X176413475Y-75622632D01*
X176575990Y-75379411D01*
X176687932Y-75109158D01*
X176745000Y-74822260D01*
X176745000Y-74529740D01*
X176687932Y-74242842D01*
X176575990Y-73972589D01*
X176413475Y-73729368D01*
X176281620Y-73597513D01*
X176354180Y-73575502D01*
X176464494Y-73516537D01*
X176561185Y-73437185D01*
X176640537Y-73340494D01*
X176699502Y-73230180D01*
X176735812Y-73110482D01*
X176748072Y-72986000D01*
X176745000Y-72421750D01*
X176586250Y-72263000D01*
X175387000Y-72263000D01*
X175387000Y-72283000D01*
X175133000Y-72283000D01*
X175133000Y-72263000D01*
X173933750Y-72263000D01*
X173775000Y-72421750D01*
X173771928Y-72986000D01*
X173784188Y-73110482D01*
X173820498Y-73230180D01*
X173879463Y-73340494D01*
X173958815Y-73437185D01*
X174055506Y-73516537D01*
X174165820Y-73575502D01*
X174238380Y-73597513D01*
X174106525Y-73729368D01*
X173981822Y-73916000D01*
X173923802Y-73916000D01*
X173156804Y-73149002D01*
X173133001Y-73119999D01*
X173017276Y-73025026D01*
X172885247Y-72954454D01*
X172741986Y-72910997D01*
X172630333Y-72900000D01*
X172630322Y-72900000D01*
X172593000Y-72896324D01*
X172555678Y-72900000D01*
X169582535Y-72900000D01*
X169479889Y-72831414D01*
X169309729Y-72760932D01*
X169129089Y-72725000D01*
X168944911Y-72725000D01*
X168764271Y-72760932D01*
X168594111Y-72831414D01*
X168440972Y-72933738D01*
X168310738Y-73063972D01*
X168208414Y-73217111D01*
X168137932Y-73387271D01*
X168133252Y-73410800D01*
X168055911Y-73410800D01*
X167875271Y-73446732D01*
X167705111Y-73517214D01*
X167551972Y-73619538D01*
X167421738Y-73749772D01*
X167319414Y-73902911D01*
X167248932Y-74073071D01*
X167213000Y-74253711D01*
X167213000Y-74437889D01*
X167248932Y-74618529D01*
X167319414Y-74788689D01*
X167421738Y-74941828D01*
X167551972Y-75072062D01*
X167705111Y-75174386D01*
X167875271Y-75244868D01*
X168055911Y-75280800D01*
X168128199Y-75280800D01*
X168137932Y-75329729D01*
X168208414Y-75499889D01*
X168310738Y-75653028D01*
X168440972Y-75783262D01*
X168594111Y-75885586D01*
X168764271Y-75956068D01*
X168885352Y-75980153D01*
X173172200Y-80267002D01*
X173195999Y-80296001D01*
X173224997Y-80319799D01*
X173311724Y-80390974D01*
X173443753Y-80461546D01*
X173587014Y-80505003D01*
X173736000Y-80519677D01*
X173773333Y-80516000D01*
X173981822Y-80516000D01*
X174106525Y-80702632D01*
X174313368Y-80909475D01*
X174487760Y-81026000D01*
X174313368Y-81142525D01*
X174106525Y-81349368D01*
X174005208Y-81501000D01*
X171291132Y-81501000D01*
X171244520Y-81454388D01*
X171058624Y-81330176D01*
X170852067Y-81244617D01*
X170632788Y-81201000D01*
X170409212Y-81201000D01*
X170189933Y-81244617D01*
X170053813Y-81301000D01*
X160107711Y-81301000D01*
X156256246Y-77449536D01*
X156199824Y-77313321D01*
X156075612Y-77127425D01*
X155917520Y-76969333D01*
X155731624Y-76845121D01*
X155595504Y-76788738D01*
X153117500Y-74310735D01*
X153117500Y-71255510D01*
X155672642Y-71255510D01*
X155884408Y-71467276D01*
X155913274Y-71612398D01*
X155991295Y-71800756D01*
X156104563Y-71970274D01*
X156248726Y-72114437D01*
X156418244Y-72227705D01*
X156606602Y-72305726D01*
X156806561Y-72345500D01*
X157010439Y-72345500D01*
X157210398Y-72305726D01*
X157398756Y-72227705D01*
X157568274Y-72114437D01*
X157673272Y-72009439D01*
X179436000Y-72009439D01*
X179436000Y-72262561D01*
X179485381Y-72510821D01*
X179582247Y-72744676D01*
X179722875Y-72955140D01*
X179901860Y-73134125D01*
X180112324Y-73274753D01*
X180346179Y-73371619D01*
X180594439Y-73421000D01*
X180847561Y-73421000D01*
X181095821Y-73371619D01*
X181329676Y-73274753D01*
X181540140Y-73134125D01*
X181719125Y-72955140D01*
X181859753Y-72744676D01*
X181956619Y-72510821D01*
X181991000Y-72337973D01*
X182025381Y-72510821D01*
X182122247Y-72744676D01*
X182262875Y-72955140D01*
X182441860Y-73134125D01*
X182652324Y-73274753D01*
X182886179Y-73371619D01*
X183134439Y-73421000D01*
X183387561Y-73421000D01*
X183635821Y-73371619D01*
X183869676Y-73274753D01*
X184080140Y-73134125D01*
X184259125Y-72955140D01*
X184399753Y-72744676D01*
X184496619Y-72510821D01*
X184546000Y-72262561D01*
X184546000Y-72009439D01*
X184496619Y-71761179D01*
X184399753Y-71527324D01*
X184259125Y-71316860D01*
X184080140Y-71137875D01*
X183869676Y-70997247D01*
X183635821Y-70900381D01*
X183387561Y-70851000D01*
X183134439Y-70851000D01*
X182886179Y-70900381D01*
X182652324Y-70997247D01*
X182441860Y-71137875D01*
X182262875Y-71316860D01*
X182122247Y-71527324D01*
X182025381Y-71761179D01*
X181991000Y-71934027D01*
X181956619Y-71761179D01*
X181859753Y-71527324D01*
X181719125Y-71316860D01*
X181540140Y-71137875D01*
X181329676Y-70997247D01*
X181095821Y-70900381D01*
X180847561Y-70851000D01*
X180594439Y-70851000D01*
X180346179Y-70900381D01*
X180112324Y-70997247D01*
X179901860Y-71137875D01*
X179722875Y-71316860D01*
X179582247Y-71527324D01*
X179485381Y-71761179D01*
X179436000Y-72009439D01*
X157673272Y-72009439D01*
X157712437Y-71970274D01*
X157825705Y-71800756D01*
X157903726Y-71612398D01*
X157943500Y-71412439D01*
X157943500Y-71208561D01*
X157903726Y-71008602D01*
X157825705Y-70820244D01*
X157712437Y-70650726D01*
X157568274Y-70506563D01*
X157398756Y-70393295D01*
X157397829Y-70392911D01*
X162641000Y-70392911D01*
X162641000Y-70577089D01*
X162676932Y-70757729D01*
X162747414Y-70927889D01*
X162849738Y-71081028D01*
X162979972Y-71211262D01*
X163133111Y-71313586D01*
X163303271Y-71384068D01*
X163483911Y-71420000D01*
X163668089Y-71420000D01*
X163848729Y-71384068D01*
X164018889Y-71313586D01*
X164121535Y-71245000D01*
X173775966Y-71245000D01*
X173771928Y-71286000D01*
X173775000Y-71850250D01*
X173933750Y-72009000D01*
X175133000Y-72009000D01*
X175133000Y-70809750D01*
X175387000Y-70809750D01*
X175387000Y-72009000D01*
X176586250Y-72009000D01*
X176745000Y-71850250D01*
X176748072Y-71286000D01*
X176735812Y-71161518D01*
X176699502Y-71041820D01*
X176640537Y-70931506D01*
X176561185Y-70834815D01*
X176464494Y-70755463D01*
X176354180Y-70696498D01*
X176234482Y-70660188D01*
X176110000Y-70647928D01*
X175545750Y-70651000D01*
X175387000Y-70809750D01*
X175133000Y-70809750D01*
X174974250Y-70651000D01*
X174772898Y-70649904D01*
X175411649Y-70011153D01*
X175532729Y-69987068D01*
X175702889Y-69916586D01*
X175856028Y-69814262D01*
X175986262Y-69684028D01*
X176088586Y-69530889D01*
X176159068Y-69360729D01*
X176195000Y-69180089D01*
X176195000Y-68995911D01*
X176159068Y-68815271D01*
X176088586Y-68645111D01*
X175986262Y-68491972D01*
X175856028Y-68361738D01*
X175702889Y-68259414D01*
X175532729Y-68188932D01*
X175352089Y-68153000D01*
X175167911Y-68153000D01*
X174987271Y-68188932D01*
X174817111Y-68259414D01*
X174663972Y-68361738D01*
X174533738Y-68491972D01*
X174431414Y-68645111D01*
X174360932Y-68815271D01*
X174336847Y-68936351D01*
X173548199Y-69725000D01*
X164121535Y-69725000D01*
X164018889Y-69656414D01*
X163848729Y-69585932D01*
X163668089Y-69550000D01*
X163483911Y-69550000D01*
X163303271Y-69585932D01*
X163133111Y-69656414D01*
X162979972Y-69758738D01*
X162849738Y-69888972D01*
X162747414Y-70042111D01*
X162676932Y-70212271D01*
X162641000Y-70392911D01*
X157397829Y-70392911D01*
X157210398Y-70315274D01*
X157065276Y-70286408D01*
X156637955Y-69859088D01*
X156611801Y-69827219D01*
X156484656Y-69722874D01*
X156339597Y-69645338D01*
X156182199Y-69597592D01*
X156059529Y-69585510D01*
X156059528Y-69585510D01*
X156018510Y-69581470D01*
X155977492Y-69585510D01*
X152852632Y-69585510D01*
X152806020Y-69538898D01*
X152620124Y-69414686D01*
X152413567Y-69329127D01*
X152194288Y-69285510D01*
X151970712Y-69285510D01*
X151751433Y-69329127D01*
X151544876Y-69414686D01*
X151358980Y-69538898D01*
X151200888Y-69696990D01*
X151076676Y-69882886D01*
X150991117Y-70089443D01*
X150947500Y-70308722D01*
X150947500Y-70532298D01*
X150991117Y-70751577D01*
X151047501Y-70887699D01*
X151047500Y-74688617D01*
X151042494Y-74739445D01*
X151047500Y-74790273D01*
X151047500Y-74790282D01*
X151062476Y-74942339D01*
X151121659Y-75137437D01*
X151217766Y-75317242D01*
X151347104Y-75474841D01*
X151386597Y-75507252D01*
X154131793Y-78252449D01*
X154188176Y-78388569D01*
X154312388Y-78574465D01*
X154470480Y-78732557D01*
X154656376Y-78856769D01*
X154792404Y-78913114D01*
X158812289Y-82933000D01*
X152854498Y-82933000D01*
X152938932Y-82729158D01*
X152996000Y-82442260D01*
X152996000Y-82149740D01*
X152938932Y-81862842D01*
X152826990Y-81592589D01*
X152664475Y-81349368D01*
X152457632Y-81142525D01*
X152214411Y-80980010D01*
X151944158Y-80868068D01*
X151657260Y-80811000D01*
X151364740Y-80811000D01*
X151077842Y-80868068D01*
X150807589Y-80980010D01*
X150564368Y-81142525D01*
X150357525Y-81349368D01*
X150241000Y-81523760D01*
X150124475Y-81349368D01*
X149917632Y-81142525D01*
X149674411Y-80980010D01*
X149404158Y-80868068D01*
X149117260Y-80811000D01*
X148824740Y-80811000D01*
X148537842Y-80868068D01*
X148267589Y-80980010D01*
X148024368Y-81142525D01*
X147817525Y-81349368D01*
X147701000Y-81523760D01*
X147584475Y-81349368D01*
X147377632Y-81142525D01*
X147134411Y-80980010D01*
X146864158Y-80868068D01*
X146577260Y-80811000D01*
X146284740Y-80811000D01*
X145997842Y-80868068D01*
X145727589Y-80980010D01*
X145484368Y-81142525D01*
X145352513Y-81274380D01*
X145330502Y-81201820D01*
X145271537Y-81091506D01*
X145192185Y-80994815D01*
X145095494Y-80915463D01*
X144985180Y-80856498D01*
X144865482Y-80820188D01*
X144741000Y-80807928D01*
X144176750Y-80811000D01*
X144018000Y-80969750D01*
X143764000Y-80969750D01*
X143605250Y-80811000D01*
X143041000Y-80807928D01*
X142916518Y-80820188D01*
X142796820Y-80856498D01*
X142686506Y-80915463D01*
X142589815Y-80994815D01*
X142510463Y-81091506D01*
X142451498Y-81201820D01*
X142415188Y-81321518D01*
X142402928Y-81446000D01*
X90728000Y-81446000D01*
X90728000Y-72097000D01*
X142529928Y-72097000D01*
X142542188Y-72221482D01*
X142578498Y-72341180D01*
X142637463Y-72451494D01*
X142716815Y-72548185D01*
X142813506Y-72627537D01*
X142923820Y-72686502D01*
X142996380Y-72708513D01*
X142864525Y-72840368D01*
X142702010Y-73083589D01*
X142590068Y-73353842D01*
X142533000Y-73640740D01*
X142533000Y-73933260D01*
X142590068Y-74220158D01*
X142702010Y-74490411D01*
X142864525Y-74733632D01*
X143071368Y-74940475D01*
X143245760Y-75057000D01*
X143071368Y-75173525D01*
X142864525Y-75380368D01*
X142702010Y-75623589D01*
X142590068Y-75893842D01*
X142533000Y-76180740D01*
X142533000Y-76473260D01*
X142590068Y-76760158D01*
X142702010Y-77030411D01*
X142864525Y-77273632D01*
X143071368Y-77480475D01*
X143245760Y-77597000D01*
X143071368Y-77713525D01*
X142864525Y-77920368D01*
X142702010Y-78163589D01*
X142590068Y-78433842D01*
X142533000Y-78720740D01*
X142533000Y-79013260D01*
X142590068Y-79300158D01*
X142702010Y-79570411D01*
X142864525Y-79813632D01*
X143071368Y-80020475D01*
X143314589Y-80182990D01*
X143584842Y-80294932D01*
X143871740Y-80352000D01*
X144164260Y-80352000D01*
X144451158Y-80294932D01*
X144721411Y-80182990D01*
X144964632Y-80020475D01*
X145171475Y-79813632D01*
X145333990Y-79570411D01*
X145445932Y-79300158D01*
X145503000Y-79013260D01*
X145503000Y-78720740D01*
X145445932Y-78433842D01*
X145333990Y-78163589D01*
X145171475Y-77920368D01*
X144964632Y-77713525D01*
X144790240Y-77597000D01*
X144964632Y-77480475D01*
X145171475Y-77273632D01*
X145333990Y-77030411D01*
X145445932Y-76760158D01*
X145503000Y-76473260D01*
X145503000Y-76180740D01*
X145445932Y-75893842D01*
X145333990Y-75623589D01*
X145171475Y-75380368D01*
X144964632Y-75173525D01*
X144790240Y-75057000D01*
X144964632Y-74940475D01*
X145171475Y-74733632D01*
X145333990Y-74490411D01*
X145445932Y-74220158D01*
X145503000Y-73933260D01*
X145503000Y-73640740D01*
X145445932Y-73353842D01*
X145333990Y-73083589D01*
X145171475Y-72840368D01*
X145039620Y-72708513D01*
X145112180Y-72686502D01*
X145222494Y-72627537D01*
X145319185Y-72548185D01*
X145398537Y-72451494D01*
X145457502Y-72341180D01*
X145493812Y-72221482D01*
X145506072Y-72097000D01*
X145503000Y-71532750D01*
X145344250Y-71374000D01*
X144145000Y-71374000D01*
X144145000Y-71394000D01*
X143891000Y-71394000D01*
X143891000Y-71374000D01*
X142691750Y-71374000D01*
X142533000Y-71532750D01*
X142529928Y-72097000D01*
X90728000Y-72097000D01*
X90728000Y-70397000D01*
X142529928Y-70397000D01*
X142533000Y-70961250D01*
X142691750Y-71120000D01*
X143891000Y-71120000D01*
X143891000Y-69920750D01*
X144145000Y-69920750D01*
X144145000Y-71120000D01*
X145344250Y-71120000D01*
X145503000Y-70961250D01*
X145506072Y-70397000D01*
X145493812Y-70272518D01*
X145457502Y-70152820D01*
X145398537Y-70042506D01*
X145319185Y-69945815D01*
X145222494Y-69866463D01*
X145112180Y-69807498D01*
X144992482Y-69771188D01*
X144868000Y-69758928D01*
X144303750Y-69762000D01*
X144145000Y-69920750D01*
X143891000Y-69920750D01*
X143732250Y-69762000D01*
X143168000Y-69758928D01*
X143043518Y-69771188D01*
X142923820Y-69807498D01*
X142813506Y-69866463D01*
X142716815Y-69945815D01*
X142637463Y-70042506D01*
X142578498Y-70152820D01*
X142542188Y-70272518D01*
X142529928Y-70397000D01*
X90728000Y-70397000D01*
X90728000Y-61630990D01*
X90889445Y-61937670D01*
X90916452Y-61978088D01*
X91406119Y-62338276D01*
X91591811Y-62152584D01*
X91606007Y-62173830D01*
X91750170Y-62317993D01*
X91771416Y-62332189D01*
X91585724Y-62517881D01*
X91945912Y-63007548D01*
X92609882Y-63367849D01*
X93331385Y-63591694D01*
X94082695Y-63670480D01*
X94834938Y-63601178D01*
X95559208Y-63386452D01*
X96227670Y-63034555D01*
X96268088Y-63007548D01*
X96628276Y-62517881D01*
X96442584Y-62332189D01*
X96463830Y-62317993D01*
X96607993Y-62173830D01*
X96622189Y-62152584D01*
X96807881Y-62338276D01*
X97297548Y-61978088D01*
X97657849Y-61314118D01*
X97881694Y-60592615D01*
X97960480Y-59841305D01*
X97891178Y-59089062D01*
X97676452Y-58364792D01*
X97324555Y-57696330D01*
X97297548Y-57655912D01*
X96807881Y-57295724D01*
X96622189Y-57481416D01*
X96607993Y-57460170D01*
X96463830Y-57316007D01*
X96442584Y-57301811D01*
X96628276Y-57116119D01*
X96268088Y-56626452D01*
X95920805Y-56438000D01*
X234279010Y-56438000D01*
X233972330Y-56599445D01*
%TA.AperFunction,Conductor*%
D24*
G36*
X233972330Y-56599445D02*
G01*
X233931912Y-56626452D01*
X233571724Y-57116119D01*
X233757416Y-57301811D01*
X233736170Y-57316007D01*
X233592007Y-57460170D01*
X233577811Y-57481416D01*
X233392119Y-57295724D01*
X232902452Y-57655912D01*
X232542151Y-58319882D01*
X232318306Y-59041385D01*
X232239520Y-59792695D01*
X232308822Y-60544938D01*
X232523548Y-61269208D01*
X232875445Y-61937670D01*
X232902452Y-61978088D01*
X233392119Y-62338276D01*
X233577811Y-62152584D01*
X233592007Y-62173830D01*
X233736170Y-62317993D01*
X233757416Y-62332189D01*
X233571724Y-62517881D01*
X233931912Y-63007548D01*
X234595882Y-63367849D01*
X235317385Y-63591694D01*
X236068695Y-63670480D01*
X236820938Y-63601178D01*
X237545208Y-63386452D01*
X238213670Y-63034555D01*
X238254088Y-63007548D01*
X238614276Y-62517881D01*
X238428584Y-62332189D01*
X238449830Y-62317993D01*
X238593993Y-62173830D01*
X238608189Y-62152584D01*
X238793881Y-62338276D01*
X239283548Y-61978088D01*
X239472000Y-61630805D01*
X239472001Y-88864012D01*
X239310555Y-88557330D01*
X239283548Y-88516912D01*
X238793881Y-88156724D01*
X238608189Y-88342416D01*
X238593993Y-88321170D01*
X238449830Y-88177007D01*
X238428584Y-88162811D01*
X238614276Y-87977119D01*
X238254088Y-87487452D01*
X237590118Y-87127151D01*
X236868615Y-86903306D01*
X236117305Y-86824520D01*
X235365062Y-86893822D01*
X234640792Y-87108548D01*
X233972330Y-87460445D01*
X233931912Y-87487452D01*
X233571724Y-87977119D01*
X233757416Y-88162811D01*
X233736170Y-88177007D01*
X233592007Y-88321170D01*
X233577811Y-88342416D01*
X233392119Y-88156724D01*
X232902452Y-88516912D01*
X232542151Y-89180882D01*
X232318306Y-89902385D01*
X232239520Y-90653695D01*
X232308822Y-91405938D01*
X232523548Y-92130208D01*
X232875445Y-92798670D01*
X232902452Y-92839088D01*
X233392119Y-93199276D01*
X233577811Y-93013584D01*
X233592007Y-93034830D01*
X233736170Y-93178993D01*
X233757416Y-93193189D01*
X233571724Y-93378881D01*
X233931912Y-93868548D01*
X234279195Y-94057000D01*
X95920990Y-94057000D01*
X96227670Y-93895555D01*
X96268088Y-93868548D01*
X96628276Y-93378881D01*
X96442584Y-93193189D01*
X96463830Y-93178993D01*
X96607993Y-93034830D01*
X96622189Y-93013584D01*
X96807881Y-93199276D01*
X97297548Y-92839088D01*
X97657849Y-92175118D01*
X97881694Y-91453615D01*
X97960480Y-90702305D01*
X97891178Y-89950062D01*
X97676452Y-89225792D01*
X97324555Y-88557330D01*
X97297548Y-88516912D01*
X96807881Y-88156724D01*
X96622189Y-88342416D01*
X96607993Y-88321170D01*
X96463830Y-88177007D01*
X96442584Y-88162811D01*
X96628276Y-87977119D01*
X96268088Y-87487452D01*
X95604118Y-87127151D01*
X94882615Y-86903306D01*
X94131305Y-86824520D01*
X93379062Y-86893822D01*
X92654792Y-87108548D01*
X91986330Y-87460445D01*
X91945912Y-87487452D01*
X91585724Y-87977119D01*
X91771416Y-88162811D01*
X91750170Y-88177007D01*
X91606007Y-88321170D01*
X91591811Y-88342416D01*
X91406119Y-88156724D01*
X90916452Y-88516912D01*
X90728000Y-88864195D01*
X90728000Y-82477000D01*
X106476928Y-82477000D01*
X106476928Y-83893000D01*
X106489188Y-84017482D01*
X106525498Y-84137180D01*
X106584463Y-84247494D01*
X106663815Y-84344185D01*
X106760506Y-84423537D01*
X106870820Y-84482502D01*
X106990518Y-84518812D01*
X107115000Y-84531072D01*
X107988205Y-84531072D01*
X116982559Y-93525427D01*
X117008709Y-93557291D01*
X117135854Y-93661636D01*
X117280913Y-93739172D01*
X117438311Y-93786918D01*
X117560981Y-93799000D01*
X117560991Y-93799000D01*
X117601999Y-93803039D01*
X117643007Y-93799000D01*
X195919982Y-93799000D01*
X195961000Y-93803040D01*
X196002018Y-93799000D01*
X196002019Y-93799000D01*
X196124689Y-93786918D01*
X196282087Y-93739172D01*
X196427146Y-93661636D01*
X196554291Y-93557291D01*
X196580446Y-93525421D01*
X205744614Y-84361254D01*
X205820506Y-84423537D01*
X205930820Y-84482502D01*
X206050518Y-84518812D01*
X206175000Y-84531072D01*
X207591000Y-84531072D01*
X207715482Y-84518812D01*
X207835180Y-84482502D01*
X207945494Y-84423537D01*
X208042185Y-84344185D01*
X208121537Y-84247494D01*
X208180502Y-84137180D01*
X208216812Y-84017482D01*
X208229072Y-83893000D01*
X208229072Y-83812031D01*
X208232849Y-83821149D01*
X208379824Y-84041112D01*
X208566888Y-84228176D01*
X208786851Y-84375151D01*
X209031261Y-84476389D01*
X209290726Y-84528000D01*
X209555274Y-84528000D01*
X209814739Y-84476389D01*
X210059149Y-84375151D01*
X210279112Y-84228176D01*
X210466176Y-84041112D01*
X210613151Y-83821149D01*
X210693000Y-83628377D01*
X210772849Y-83821149D01*
X210919824Y-84041112D01*
X211106888Y-84228176D01*
X211326851Y-84375151D01*
X211571261Y-84476389D01*
X211830726Y-84528000D01*
X212095274Y-84528000D01*
X212354739Y-84476389D01*
X212599149Y-84375151D01*
X212819112Y-84228176D01*
X213006176Y-84041112D01*
X213153151Y-83821149D01*
X213233000Y-83628377D01*
X213312849Y-83821149D01*
X213459824Y-84041112D01*
X213646888Y-84228176D01*
X213866851Y-84375151D01*
X214111261Y-84476389D01*
X214370726Y-84528000D01*
X214635274Y-84528000D01*
X214894739Y-84476389D01*
X215139149Y-84375151D01*
X215359112Y-84228176D01*
X215546176Y-84041112D01*
X215693151Y-83821149D01*
X215773000Y-83628377D01*
X215852849Y-83821149D01*
X215999824Y-84041112D01*
X216186888Y-84228176D01*
X216406851Y-84375151D01*
X216651261Y-84476389D01*
X216910726Y-84528000D01*
X217175274Y-84528000D01*
X217434739Y-84476389D01*
X217679149Y-84375151D01*
X217899112Y-84228176D01*
X218086176Y-84041112D01*
X218233151Y-83821149D01*
X218313000Y-83628377D01*
X218392849Y-83821149D01*
X218539824Y-84041112D01*
X218726888Y-84228176D01*
X218946851Y-84375151D01*
X219191261Y-84476389D01*
X219450726Y-84528000D01*
X219715274Y-84528000D01*
X219974739Y-84476389D01*
X220219149Y-84375151D01*
X220439112Y-84228176D01*
X220626176Y-84041112D01*
X220773151Y-83821149D01*
X220853000Y-83628377D01*
X220932849Y-83821149D01*
X221079824Y-84041112D01*
X221266888Y-84228176D01*
X221486851Y-84375151D01*
X221731261Y-84476389D01*
X221990726Y-84528000D01*
X222255274Y-84528000D01*
X222514739Y-84476389D01*
X222759149Y-84375151D01*
X222979112Y-84228176D01*
X223166176Y-84041112D01*
X223313151Y-83821149D01*
X223414389Y-83576739D01*
X223466000Y-83317274D01*
X223466000Y-83052726D01*
X223414389Y-82793261D01*
X223313151Y-82548851D01*
X223166176Y-82328888D01*
X222979112Y-82141824D01*
X222759149Y-81994849D01*
X222514739Y-81893611D01*
X222255274Y-81842000D01*
X221990726Y-81842000D01*
X221731261Y-81893611D01*
X221486851Y-81994849D01*
X221266888Y-82141824D01*
X221079824Y-82328888D01*
X220932849Y-82548851D01*
X220853000Y-82741623D01*
X220773151Y-82548851D01*
X220626176Y-82328888D01*
X220439112Y-82141824D01*
X220219149Y-81994849D01*
X219974739Y-81893611D01*
X219715274Y-81842000D01*
X219450726Y-81842000D01*
X219425822Y-81846954D01*
X209547292Y-71968425D01*
X216353557Y-71968425D01*
X216394575Y-71972465D01*
X216435593Y-71968425D01*
X216435594Y-71968425D01*
X216558264Y-71956343D01*
X216715662Y-71908597D01*
X216860721Y-71831061D01*
X216987866Y-71726716D01*
X217014021Y-71694846D01*
X219425822Y-69283046D01*
X219450726Y-69288000D01*
X219715274Y-69288000D01*
X219974739Y-69236389D01*
X220219149Y-69135151D01*
X220439112Y-68988176D01*
X220626176Y-68801112D01*
X220773151Y-68581149D01*
X220874389Y-68336739D01*
X220926000Y-68077274D01*
X220926000Y-67812726D01*
X220874389Y-67553261D01*
X220773151Y-67308851D01*
X220626176Y-67088888D01*
X220439112Y-66901824D01*
X220219149Y-66754849D01*
X219974739Y-66653611D01*
X219715274Y-66602000D01*
X219450726Y-66602000D01*
X219191261Y-66653611D01*
X218946851Y-66754849D01*
X218726888Y-66901824D01*
X218539824Y-67088888D01*
X218392849Y-67308851D01*
X218313000Y-67501623D01*
X218233151Y-67308851D01*
X218086176Y-67088888D01*
X217899112Y-66901824D01*
X217679149Y-66754849D01*
X217434739Y-66653611D01*
X217175274Y-66602000D01*
X216910726Y-66602000D01*
X216651261Y-66653611D01*
X216406851Y-66754849D01*
X216186888Y-66901824D01*
X215999824Y-67088888D01*
X215852849Y-67308851D01*
X215773000Y-67501623D01*
X215693151Y-67308851D01*
X215546176Y-67088888D01*
X215359112Y-66901824D01*
X215139149Y-66754849D01*
X214894739Y-66653611D01*
X214635274Y-66602000D01*
X214370726Y-66602000D01*
X214111261Y-66653611D01*
X213866851Y-66754849D01*
X213646888Y-66901824D01*
X213459824Y-67088888D01*
X213312849Y-67308851D01*
X213233000Y-67501623D01*
X213153151Y-67308851D01*
X213006176Y-67088888D01*
X212819112Y-66901824D01*
X212796418Y-66886661D01*
X212785918Y-66780049D01*
X212738172Y-66622651D01*
X212660636Y-66477592D01*
X212598386Y-66401740D01*
X212556291Y-66350447D01*
X212524427Y-66324297D01*
X203931708Y-57731579D01*
X203905553Y-57699709D01*
X203778408Y-57595364D01*
X203633349Y-57517828D01*
X203475951Y-57470082D01*
X203353281Y-57458000D01*
X203353280Y-57458000D01*
X203312262Y-57453960D01*
X203271244Y-57458000D01*
X121707007Y-57458000D01*
X121665999Y-57453961D01*
X121624991Y-57458000D01*
X121624981Y-57458000D01*
X121502311Y-57470082D01*
X121344913Y-57517828D01*
X121199854Y-57595364D01*
X121072709Y-57699709D01*
X121046559Y-57731573D01*
X112341579Y-66436554D01*
X112309709Y-66462709D01*
X112233148Y-66556000D01*
X112205364Y-66589855D01*
X112127828Y-66734914D01*
X112084902Y-66876424D01*
X112046888Y-66901824D01*
X111859824Y-67088888D01*
X111712849Y-67308851D01*
X111633000Y-67501623D01*
X111553151Y-67308851D01*
X111406176Y-67088888D01*
X111219112Y-66901824D01*
X110999149Y-66754849D01*
X110754739Y-66653611D01*
X110495274Y-66602000D01*
X110230726Y-66602000D01*
X109971261Y-66653611D01*
X109726851Y-66754849D01*
X109506888Y-66901824D01*
X109319824Y-67088888D01*
X109172849Y-67308851D01*
X109071611Y-67553261D01*
X109020000Y-67812726D01*
X109020000Y-68077274D01*
X109071611Y-68336739D01*
X109172849Y-68581149D01*
X109319824Y-68801112D01*
X109506888Y-68988176D01*
X109726851Y-69135151D01*
X109971261Y-69236389D01*
X110230726Y-69288000D01*
X110495274Y-69288000D01*
X110520179Y-69283046D01*
X111013558Y-69776426D01*
X111039709Y-69808291D01*
X111166854Y-69912636D01*
X111311913Y-69990172D01*
X111469311Y-70037918D01*
X111591981Y-70050000D01*
X111591983Y-70050000D01*
X111632999Y-70054040D01*
X111674015Y-70050000D01*
X116036982Y-70050000D01*
X116078000Y-70054040D01*
X116119018Y-70050000D01*
X116119019Y-70050000D01*
X116241689Y-70037918D01*
X116399087Y-69990172D01*
X116544146Y-69912636D01*
X116671291Y-69808291D01*
X116697445Y-69776422D01*
X117274432Y-69199436D01*
X117306291Y-69173291D01*
X117332440Y-69141429D01*
X117340871Y-69131155D01*
X117346851Y-69135151D01*
X117591261Y-69236389D01*
X117850726Y-69288000D01*
X118115274Y-69288000D01*
X118374739Y-69236389D01*
X118619149Y-69135151D01*
X118839112Y-68988176D01*
X119026176Y-68801112D01*
X119173151Y-68581149D01*
X119253000Y-68388377D01*
X119332849Y-68581149D01*
X119479824Y-68801112D01*
X119666888Y-68988176D01*
X119886851Y-69135151D01*
X120131261Y-69236389D01*
X120390726Y-69288000D01*
X120655274Y-69288000D01*
X120914739Y-69236389D01*
X121159149Y-69135151D01*
X121379112Y-68988176D01*
X121566176Y-68801112D01*
X121713151Y-68581149D01*
X121814389Y-68336739D01*
X121866000Y-68077274D01*
X121866000Y-67812726D01*
X121861046Y-67787821D01*
X124790868Y-64858000D01*
X142466428Y-64858000D01*
X142478688Y-64982482D01*
X142514998Y-65102180D01*
X142573963Y-65212494D01*
X142653315Y-65309185D01*
X142750006Y-65388537D01*
X142860320Y-65447502D01*
X142932880Y-65469513D01*
X142801025Y-65601368D01*
X142638510Y-65844589D01*
X142526568Y-66114842D01*
X142469500Y-66401740D01*
X142469500Y-66694260D01*
X142526568Y-66981158D01*
X142638510Y-67251411D01*
X142801025Y-67494632D01*
X143007868Y-67701475D01*
X143251089Y-67863990D01*
X143521342Y-67975932D01*
X143808240Y-68033000D01*
X144100760Y-68033000D01*
X144387658Y-67975932D01*
X144657911Y-67863990D01*
X144901132Y-67701475D01*
X145107975Y-67494632D01*
X145270490Y-67251411D01*
X145382432Y-66981158D01*
X145439500Y-66694260D01*
X145439500Y-66401740D01*
X145382432Y-66114842D01*
X145270490Y-65844589D01*
X145107975Y-65601368D01*
X144976120Y-65469513D01*
X145048680Y-65447502D01*
X145158994Y-65388537D01*
X145255685Y-65309185D01*
X145335037Y-65212494D01*
X145394002Y-65102180D01*
X145430312Y-64982482D01*
X145442572Y-64858000D01*
X145439500Y-64293750D01*
X145280750Y-64135000D01*
X144081500Y-64135000D01*
X144081500Y-64155000D01*
X143827500Y-64155000D01*
X143827500Y-64135000D01*
X142628250Y-64135000D01*
X142469500Y-64293750D01*
X142466428Y-64858000D01*
X124790868Y-64858000D01*
X126690870Y-62957999D01*
X142501596Y-62957999D01*
X142478688Y-63033518D01*
X142466428Y-63158000D01*
X142469500Y-63722250D01*
X142628250Y-63881000D01*
X143827500Y-63881000D01*
X143827500Y-63861000D01*
X144081500Y-63861000D01*
X144081500Y-63881000D01*
X145280750Y-63881000D01*
X145439500Y-63722250D01*
X145442572Y-63158000D01*
X145430312Y-63033518D01*
X145407404Y-62957999D01*
X172799869Y-62957999D01*
X172727388Y-63030480D01*
X172603176Y-63216376D01*
X172517617Y-63422933D01*
X172474000Y-63642212D01*
X172474000Y-63865788D01*
X172517617Y-64085067D01*
X172603176Y-64291624D01*
X172727388Y-64477520D01*
X172774000Y-64524132D01*
X172774001Y-66920867D01*
X172727388Y-66967480D01*
X172603176Y-67153376D01*
X172517617Y-67359933D01*
X172474000Y-67579212D01*
X172474000Y-67802788D01*
X172517617Y-68022067D01*
X172603176Y-68228624D01*
X172727388Y-68414520D01*
X172885480Y-68572612D01*
X173071376Y-68696824D01*
X173277933Y-68782383D01*
X173497212Y-68826000D01*
X173720788Y-68826000D01*
X173940067Y-68782383D01*
X174146624Y-68696824D01*
X174332520Y-68572612D01*
X174490612Y-68414520D01*
X174614824Y-68228624D01*
X174700383Y-68022067D01*
X174744000Y-67802788D01*
X174744000Y-67579212D01*
X174700383Y-67359933D01*
X174614824Y-67153376D01*
X174490612Y-66967480D01*
X174444000Y-66920868D01*
X174444000Y-64524132D01*
X174490612Y-64477520D01*
X174614824Y-64291624D01*
X174700383Y-64085067D01*
X174744000Y-63865788D01*
X174744000Y-63642212D01*
X174700383Y-63422933D01*
X174614824Y-63216376D01*
X174490612Y-63030480D01*
X174418131Y-62957999D01*
X177992983Y-62957999D01*
X178034001Y-62962039D01*
X178075019Y-62957999D01*
X178075020Y-62957999D01*
X178197690Y-62945917D01*
X178223789Y-62938000D01*
X179359133Y-62938000D01*
X186581421Y-70160289D01*
X186471738Y-70269972D01*
X186369414Y-70423111D01*
X186298932Y-70593271D01*
X186263000Y-70773911D01*
X186263000Y-70958089D01*
X186298932Y-71138729D01*
X186363000Y-71293404D01*
X186363001Y-85760131D01*
X183677133Y-88446000D01*
X180860902Y-88446000D01*
X181020990Y-88206411D01*
X181132932Y-87936158D01*
X181190000Y-87649260D01*
X181190000Y-87356740D01*
X181132932Y-87069842D01*
X181020990Y-86799589D01*
X180858475Y-86556368D01*
X180651632Y-86349525D01*
X180408411Y-86187010D01*
X180138158Y-86075068D01*
X179851260Y-86018000D01*
X179558740Y-86018000D01*
X179271842Y-86075068D01*
X179001589Y-86187010D01*
X178758368Y-86349525D01*
X178626513Y-86481380D01*
X178604502Y-86408820D01*
X178545537Y-86298506D01*
X178466185Y-86201815D01*
X178369494Y-86122463D01*
X178259180Y-86063498D01*
X178139482Y-86027188D01*
X178015000Y-86014928D01*
X177450750Y-86018000D01*
X177292000Y-86176750D01*
X177292000Y-87376000D01*
X177312000Y-87376000D01*
X177312000Y-87630000D01*
X177292000Y-87630000D01*
X177292000Y-87650000D01*
X177038000Y-87650000D01*
X177038000Y-87630000D01*
X175838750Y-87630000D01*
X175680000Y-87788750D01*
X175676928Y-88353000D01*
X175686087Y-88446000D01*
X171922868Y-88446000D01*
X170129868Y-86653000D01*
X175676928Y-86653000D01*
X175680000Y-87217250D01*
X175838750Y-87376000D01*
X177038000Y-87376000D01*
X177038000Y-86176750D01*
X176879250Y-86018000D01*
X176315000Y-86014928D01*
X176190518Y-86027188D01*
X176070820Y-86063498D01*
X175960506Y-86122463D01*
X175863815Y-86201815D01*
X175784463Y-86298506D01*
X175725498Y-86408820D01*
X175689188Y-86528518D01*
X175676928Y-86653000D01*
X170129868Y-86653000D01*
X168278655Y-84801787D01*
X168214586Y-84647111D01*
X168112262Y-84493972D01*
X167982028Y-84363738D01*
X167828889Y-84261414D01*
X167658729Y-84190932D01*
X167478089Y-84155000D01*
X167293911Y-84155000D01*
X167113271Y-84190932D01*
X166943111Y-84261414D01*
X166789972Y-84363738D01*
X166659738Y-84493972D01*
X166557414Y-84647111D01*
X166486932Y-84817271D01*
X166451000Y-84997911D01*
X166451000Y-85182089D01*
X166486932Y-85362729D01*
X166557414Y-85532889D01*
X166659738Y-85686028D01*
X166789972Y-85816262D01*
X166943111Y-85918586D01*
X167097787Y-85982655D01*
X170174099Y-89058967D01*
X127577835Y-89058967D01*
X123046867Y-84528000D01*
X123195274Y-84528000D01*
X123454739Y-84476389D01*
X123699149Y-84375151D01*
X123919112Y-84228176D01*
X124106176Y-84041112D01*
X124253151Y-83821149D01*
X124354389Y-83576739D01*
X124406000Y-83317274D01*
X124406000Y-83146000D01*
X142402928Y-83146000D01*
X142415188Y-83270482D01*
X142451498Y-83390180D01*
X142510463Y-83500494D01*
X142589815Y-83597185D01*
X142686506Y-83676537D01*
X142796820Y-83735502D01*
X142916518Y-83771812D01*
X143041000Y-83784072D01*
X143605250Y-83781000D01*
X143764000Y-83622250D01*
X143764000Y-82423000D01*
X142564750Y-82423000D01*
X142406000Y-82581750D01*
X142402928Y-83146000D01*
X124406000Y-83146000D01*
X124406000Y-83052726D01*
X124354389Y-82793261D01*
X124253151Y-82548851D01*
X124106176Y-82328888D01*
X123919112Y-82141824D01*
X123699149Y-81994849D01*
X123454739Y-81893611D01*
X123195274Y-81842000D01*
X122930726Y-81842000D01*
X122671261Y-81893611D01*
X122426851Y-81994849D01*
X122206888Y-82141824D01*
X122019824Y-82328888D01*
X121872849Y-82548851D01*
X121793000Y-82741623D01*
X121713151Y-82548851D01*
X121566176Y-82328888D01*
X121379112Y-82141824D01*
X121159149Y-81994849D01*
X120914739Y-81893611D01*
X120655274Y-81842000D01*
X120390726Y-81842000D01*
X120131261Y-81893611D01*
X119886851Y-81994849D01*
X119666888Y-82141824D01*
X119479824Y-82328888D01*
X119332849Y-82548851D01*
X119253000Y-82741623D01*
X119173151Y-82548851D01*
X119026176Y-82328888D01*
X118839112Y-82141824D01*
X118619149Y-81994849D01*
X118374739Y-81893611D01*
X118115274Y-81842000D01*
X117850726Y-81842000D01*
X117591261Y-81893611D01*
X117346851Y-81994849D01*
X117126888Y-82141824D01*
X116939824Y-82328888D01*
X116792849Y-82548851D01*
X116713000Y-82741623D01*
X116633151Y-82548851D01*
X116486176Y-82328888D01*
X116299112Y-82141824D01*
X116079149Y-81994849D01*
X115834739Y-81893611D01*
X115575274Y-81842000D01*
X115310726Y-81842000D01*
X115051261Y-81893611D01*
X114806851Y-81994849D01*
X114586888Y-82141824D01*
X114399824Y-82328888D01*
X114252849Y-82548851D01*
X114173000Y-82741623D01*
X114093151Y-82548851D01*
X113946176Y-82328888D01*
X113759112Y-82141824D01*
X113539149Y-81994849D01*
X113294739Y-81893611D01*
X113035274Y-81842000D01*
X112770726Y-81842000D01*
X112511261Y-81893611D01*
X112266851Y-81994849D01*
X112046888Y-82141824D01*
X111859824Y-82328888D01*
X111712849Y-82548851D01*
X111633000Y-82741623D01*
X111553151Y-82548851D01*
X111406176Y-82328888D01*
X111219112Y-82141824D01*
X110999149Y-81994849D01*
X110754739Y-81893611D01*
X110495274Y-81842000D01*
X110230726Y-81842000D01*
X109971261Y-81893611D01*
X109726851Y-81994849D01*
X109506888Y-82141824D01*
X109319824Y-82328888D01*
X109172849Y-82548851D01*
X109169072Y-82557969D01*
X109169072Y-82477000D01*
X109156812Y-82352518D01*
X109120502Y-82232820D01*
X109061537Y-82122506D01*
X108982185Y-82025815D01*
X108885494Y-81946463D01*
X108775180Y-81887498D01*
X108655482Y-81851188D01*
X108531000Y-81838928D01*
X107115000Y-81838928D01*
X106990518Y-81851188D01*
X106870820Y-81887498D01*
X106760506Y-81946463D01*
X106663815Y-82025815D01*
X106584463Y-82122506D01*
X106525498Y-82232820D01*
X106489188Y-82352518D01*
X106476928Y-82477000D01*
X90728000Y-82477000D01*
X90728000Y-81446000D01*
X142402928Y-81446000D01*
X142406000Y-82010250D01*
X142564750Y-82169000D01*
X143764000Y-82169000D01*
X143764000Y-80969750D01*
X144018000Y-80969750D01*
X144018000Y-82169000D01*
X144038000Y-82169000D01*
X144038000Y-82423000D01*
X144018000Y-82423000D01*
X144018000Y-83622250D01*
X144176750Y-83781000D01*
X144741000Y-83784072D01*
X144865482Y-83771812D01*
X144985180Y-83735502D01*
X145095494Y-83676537D01*
X145192185Y-83597185D01*
X145271537Y-83500494D01*
X145330502Y-83390180D01*
X145352513Y-83317620D01*
X145484368Y-83449475D01*
X145727589Y-83611990D01*
X145997842Y-83723932D01*
X146284740Y-83781000D01*
X146577260Y-83781000D01*
X146864158Y-83723932D01*
X147134411Y-83611990D01*
X147377632Y-83449475D01*
X147584475Y-83242632D01*
X147701000Y-83068240D01*
X147817525Y-83242632D01*
X148024368Y-83449475D01*
X148267589Y-83611990D01*
X148537842Y-83723932D01*
X148824740Y-83781000D01*
X149117260Y-83781000D01*
X149337408Y-83737210D01*
X149804201Y-84204003D01*
X149827999Y-84233001D01*
X149943724Y-84327974D01*
X150075753Y-84398546D01*
X150219014Y-84442003D01*
X150330667Y-84453000D01*
X150330676Y-84453000D01*
X150367999Y-84456676D01*
X150405322Y-84453000D01*
X159601461Y-84453000D01*
X159704107Y-84521586D01*
X159874267Y-84592068D01*
X160054907Y-84628000D01*
X160239085Y-84628000D01*
X160419725Y-84592068D01*
X160589885Y-84521586D01*
X160743024Y-84419262D01*
X160873258Y-84289028D01*
X160975582Y-84135889D01*
X161046064Y-83965729D01*
X161081996Y-83785089D01*
X161081996Y-83600911D01*
X161046064Y-83420271D01*
X161025655Y-83371000D01*
X170053813Y-83371000D01*
X170189933Y-83427383D01*
X170409212Y-83471000D01*
X170632788Y-83471000D01*
X170852067Y-83427383D01*
X171058624Y-83341824D01*
X171244520Y-83217612D01*
X171291132Y-83171000D01*
X174058662Y-83171000D01*
X174106525Y-83242632D01*
X174313368Y-83449475D01*
X174556589Y-83611990D01*
X174826842Y-83723932D01*
X175113740Y-83781000D01*
X175406260Y-83781000D01*
X175693158Y-83723932D01*
X175963411Y-83611990D01*
X176206632Y-83449475D01*
X176413475Y-83242632D01*
X176575990Y-82999411D01*
X176687932Y-82729158D01*
X176745000Y-82442260D01*
X176745000Y-82245868D01*
X176875854Y-82115014D01*
X177519134Y-82115014D01*
X177673809Y-82179082D01*
X177854449Y-82215014D01*
X178038627Y-82215014D01*
X178219267Y-82179082D01*
X178389427Y-82108600D01*
X178542566Y-82006276D01*
X178672800Y-81876042D01*
X178775124Y-81722903D01*
X178845606Y-81552743D01*
X178881538Y-81372103D01*
X178881538Y-81187925D01*
X178845606Y-81007285D01*
X178775124Y-80837125D01*
X178672800Y-80683986D01*
X178630341Y-80641527D01*
X180015078Y-80641527D01*
X180068466Y-80870201D01*
X180298374Y-80976095D01*
X180544524Y-81035102D01*
X180797455Y-81044952D01*
X181047449Y-81005270D01*
X181284896Y-80917578D01*
X181373534Y-80870201D01*
X181426922Y-80641527D01*
X182555078Y-80641527D01*
X182608466Y-80870201D01*
X182838374Y-80976095D01*
X183084524Y-81035102D01*
X183337455Y-81044952D01*
X183587449Y-81005270D01*
X183824896Y-80917578D01*
X183913534Y-80870201D01*
X183966922Y-80641527D01*
X183261000Y-79935605D01*
X182555078Y-80641527D01*
X181426922Y-80641527D01*
X180721000Y-79935605D01*
X180015078Y-80641527D01*
X178630341Y-80641527D01*
X178542566Y-80553752D01*
X178389427Y-80451428D01*
X178219267Y-80380946D01*
X178038627Y-80345014D01*
X177854449Y-80345014D01*
X177673809Y-80380946D01*
X177519134Y-80445014D01*
X176581953Y-80445014D01*
X176687932Y-80189158D01*
X176745000Y-79902260D01*
X176745000Y-79832455D01*
X179432048Y-79832455D01*
X179471730Y-80082449D01*
X179559422Y-80319896D01*
X179606799Y-80408534D01*
X179835473Y-80461922D01*
X180541395Y-79756000D01*
X180900605Y-79756000D01*
X181606527Y-80461922D01*
X181835201Y-80408534D01*
X181941095Y-80178626D01*
X181992776Y-79963038D01*
X182011730Y-80082449D01*
X182099422Y-80319896D01*
X182146799Y-80408534D01*
X182375473Y-80461922D01*
X183081395Y-79756000D01*
X183440605Y-79756000D01*
X184146527Y-80461922D01*
X184375201Y-80408534D01*
X184481095Y-80178626D01*
X184540102Y-79932476D01*
X184549952Y-79679545D01*
X184510270Y-79429551D01*
X184422578Y-79192104D01*
X184375201Y-79103466D01*
X184146527Y-79050078D01*
X183440605Y-79756000D01*
X183081395Y-79756000D01*
X182375473Y-79050078D01*
X182146799Y-79103466D01*
X182040905Y-79333374D01*
X181989224Y-79548962D01*
X181970270Y-79429551D01*
X181882578Y-79192104D01*
X181835201Y-79103466D01*
X181606527Y-79050078D01*
X180900605Y-79756000D01*
X180541395Y-79756000D01*
X179835473Y-79050078D01*
X179606799Y-79103466D01*
X179500905Y-79333374D01*
X179441898Y-79579524D01*
X179432048Y-79832455D01*
X176745000Y-79832455D01*
X176745000Y-79609740D01*
X176687932Y-79322842D01*
X176575990Y-79052589D01*
X176454305Y-78870473D01*
X180015078Y-78870473D01*
X180721000Y-79576395D01*
X181426922Y-78870473D01*
X182555078Y-78870473D01*
X183261000Y-79576395D01*
X183966922Y-78870473D01*
X183913534Y-78641799D01*
X183683626Y-78535905D01*
X183437476Y-78476898D01*
X183184545Y-78467048D01*
X182934551Y-78506730D01*
X182697104Y-78594422D01*
X182608466Y-78641799D01*
X182555078Y-78870473D01*
X181426922Y-78870473D01*
X181373534Y-78641799D01*
X181143626Y-78535905D01*
X180897476Y-78476898D01*
X180644545Y-78467048D01*
X180394551Y-78506730D01*
X180157104Y-78594422D01*
X180068466Y-78641799D01*
X180015078Y-78870473D01*
X176454305Y-78870473D01*
X176413475Y-78809368D01*
X176206632Y-78602525D01*
X176032240Y-78486000D01*
X176206632Y-78369475D01*
X176413475Y-78162632D01*
X176575990Y-77919411D01*
X176687932Y-77649158D01*
X176745000Y-77362260D01*
X176745000Y-77069740D01*
X176687932Y-76782842D01*
X176575990Y-76512589D01*
X176413475Y-76269368D01*
X176206632Y-76062525D01*
X176032240Y-75946000D01*
X176206632Y-75829475D01*
X176413475Y-75622632D01*
X176575990Y-75379411D01*
X176687932Y-75109158D01*
X176745000Y-74822260D01*
X176745000Y-74529740D01*
X176687932Y-74242842D01*
X176575990Y-73972589D01*
X176413475Y-73729368D01*
X176281620Y-73597513D01*
X176354180Y-73575502D01*
X176464494Y-73516537D01*
X176561185Y-73437185D01*
X176640537Y-73340494D01*
X176699502Y-73230180D01*
X176735812Y-73110482D01*
X176748072Y-72986000D01*
X176745000Y-72421750D01*
X176586250Y-72263000D01*
X175387000Y-72263000D01*
X175387000Y-72283000D01*
X175133000Y-72283000D01*
X175133000Y-72263000D01*
X173933750Y-72263000D01*
X173775000Y-72421750D01*
X173771928Y-72986000D01*
X173784188Y-73110482D01*
X173820498Y-73230180D01*
X173879463Y-73340494D01*
X173958815Y-73437185D01*
X174055506Y-73516537D01*
X174165820Y-73575502D01*
X174238380Y-73597513D01*
X174106525Y-73729368D01*
X173981822Y-73916000D01*
X173923802Y-73916000D01*
X173156804Y-73149002D01*
X173133001Y-73119999D01*
X173017276Y-73025026D01*
X172885247Y-72954454D01*
X172741986Y-72910997D01*
X172630333Y-72900000D01*
X172630322Y-72900000D01*
X172593000Y-72896324D01*
X172555678Y-72900000D01*
X169582535Y-72900000D01*
X169479889Y-72831414D01*
X169309729Y-72760932D01*
X169129089Y-72725000D01*
X168944911Y-72725000D01*
X168764271Y-72760932D01*
X168594111Y-72831414D01*
X168440972Y-72933738D01*
X168310738Y-73063972D01*
X168208414Y-73217111D01*
X168137932Y-73387271D01*
X168133252Y-73410800D01*
X168055911Y-73410800D01*
X167875271Y-73446732D01*
X167705111Y-73517214D01*
X167551972Y-73619538D01*
X167421738Y-73749772D01*
X167319414Y-73902911D01*
X167248932Y-74073071D01*
X167213000Y-74253711D01*
X167213000Y-74437889D01*
X167248932Y-74618529D01*
X167319414Y-74788689D01*
X167421738Y-74941828D01*
X167551972Y-75072062D01*
X167705111Y-75174386D01*
X167875271Y-75244868D01*
X168055911Y-75280800D01*
X168128199Y-75280800D01*
X168137932Y-75329729D01*
X168208414Y-75499889D01*
X168310738Y-75653028D01*
X168440972Y-75783262D01*
X168594111Y-75885586D01*
X168764271Y-75956068D01*
X168885352Y-75980153D01*
X173172200Y-80267002D01*
X173195999Y-80296001D01*
X173224997Y-80319799D01*
X173311724Y-80390974D01*
X173443753Y-80461546D01*
X173587014Y-80505003D01*
X173736000Y-80519677D01*
X173773333Y-80516000D01*
X173981822Y-80516000D01*
X174106525Y-80702632D01*
X174313368Y-80909475D01*
X174487760Y-81026000D01*
X174313368Y-81142525D01*
X174106525Y-81349368D01*
X174005208Y-81501000D01*
X171291132Y-81501000D01*
X171244520Y-81454388D01*
X171058624Y-81330176D01*
X170852067Y-81244617D01*
X170632788Y-81201000D01*
X170409212Y-81201000D01*
X170189933Y-81244617D01*
X170053813Y-81301000D01*
X160107711Y-81301000D01*
X156256246Y-77449536D01*
X156199824Y-77313321D01*
X156075612Y-77127425D01*
X155917520Y-76969333D01*
X155731624Y-76845121D01*
X155595504Y-76788738D01*
X153117500Y-74310735D01*
X153117500Y-71255510D01*
X155672642Y-71255510D01*
X155884408Y-71467276D01*
X155913274Y-71612398D01*
X155991295Y-71800756D01*
X156104563Y-71970274D01*
X156248726Y-72114437D01*
X156418244Y-72227705D01*
X156606602Y-72305726D01*
X156806561Y-72345500D01*
X157010439Y-72345500D01*
X157210398Y-72305726D01*
X157398756Y-72227705D01*
X157568274Y-72114437D01*
X157673272Y-72009439D01*
X179436000Y-72009439D01*
X179436000Y-72262561D01*
X179485381Y-72510821D01*
X179582247Y-72744676D01*
X179722875Y-72955140D01*
X179901860Y-73134125D01*
X180112324Y-73274753D01*
X180346179Y-73371619D01*
X180594439Y-73421000D01*
X180847561Y-73421000D01*
X181095821Y-73371619D01*
X181329676Y-73274753D01*
X181540140Y-73134125D01*
X181719125Y-72955140D01*
X181859753Y-72744676D01*
X181956619Y-72510821D01*
X181991000Y-72337973D01*
X182025381Y-72510821D01*
X182122247Y-72744676D01*
X182262875Y-72955140D01*
X182441860Y-73134125D01*
X182652324Y-73274753D01*
X182886179Y-73371619D01*
X183134439Y-73421000D01*
X183387561Y-73421000D01*
X183635821Y-73371619D01*
X183869676Y-73274753D01*
X184080140Y-73134125D01*
X184259125Y-72955140D01*
X184399753Y-72744676D01*
X184496619Y-72510821D01*
X184546000Y-72262561D01*
X184546000Y-72009439D01*
X184496619Y-71761179D01*
X184399753Y-71527324D01*
X184259125Y-71316860D01*
X184080140Y-71137875D01*
X183869676Y-70997247D01*
X183635821Y-70900381D01*
X183387561Y-70851000D01*
X183134439Y-70851000D01*
X182886179Y-70900381D01*
X182652324Y-70997247D01*
X182441860Y-71137875D01*
X182262875Y-71316860D01*
X182122247Y-71527324D01*
X182025381Y-71761179D01*
X181991000Y-71934027D01*
X181956619Y-71761179D01*
X181859753Y-71527324D01*
X181719125Y-71316860D01*
X181540140Y-71137875D01*
X181329676Y-70997247D01*
X181095821Y-70900381D01*
X180847561Y-70851000D01*
X180594439Y-70851000D01*
X180346179Y-70900381D01*
X180112324Y-70997247D01*
X179901860Y-71137875D01*
X179722875Y-71316860D01*
X179582247Y-71527324D01*
X179485381Y-71761179D01*
X179436000Y-72009439D01*
X157673272Y-72009439D01*
X157712437Y-71970274D01*
X157825705Y-71800756D01*
X157903726Y-71612398D01*
X157943500Y-71412439D01*
X157943500Y-71208561D01*
X157903726Y-71008602D01*
X157825705Y-70820244D01*
X157712437Y-70650726D01*
X157568274Y-70506563D01*
X157398756Y-70393295D01*
X157397829Y-70392911D01*
X162641000Y-70392911D01*
X162641000Y-70577089D01*
X162676932Y-70757729D01*
X162747414Y-70927889D01*
X162849738Y-71081028D01*
X162979972Y-71211262D01*
X163133111Y-71313586D01*
X163303271Y-71384068D01*
X163483911Y-71420000D01*
X163668089Y-71420000D01*
X163848729Y-71384068D01*
X164018889Y-71313586D01*
X164121535Y-71245000D01*
X173775966Y-71245000D01*
X173771928Y-71286000D01*
X173775000Y-71850250D01*
X173933750Y-72009000D01*
X175133000Y-72009000D01*
X175133000Y-70809750D01*
X175387000Y-70809750D01*
X175387000Y-72009000D01*
X176586250Y-72009000D01*
X176745000Y-71850250D01*
X176748072Y-71286000D01*
X176735812Y-71161518D01*
X176699502Y-71041820D01*
X176640537Y-70931506D01*
X176561185Y-70834815D01*
X176464494Y-70755463D01*
X176354180Y-70696498D01*
X176234482Y-70660188D01*
X176110000Y-70647928D01*
X175545750Y-70651000D01*
X175387000Y-70809750D01*
X175133000Y-70809750D01*
X174974250Y-70651000D01*
X174772898Y-70649904D01*
X175411649Y-70011153D01*
X175532729Y-69987068D01*
X175702889Y-69916586D01*
X175856028Y-69814262D01*
X175986262Y-69684028D01*
X176088586Y-69530889D01*
X176159068Y-69360729D01*
X176195000Y-69180089D01*
X176195000Y-68995911D01*
X176159068Y-68815271D01*
X176088586Y-68645111D01*
X175986262Y-68491972D01*
X175856028Y-68361738D01*
X175702889Y-68259414D01*
X175532729Y-68188932D01*
X175352089Y-68153000D01*
X175167911Y-68153000D01*
X174987271Y-68188932D01*
X174817111Y-68259414D01*
X174663972Y-68361738D01*
X174533738Y-68491972D01*
X174431414Y-68645111D01*
X174360932Y-68815271D01*
X174336847Y-68936351D01*
X173548199Y-69725000D01*
X164121535Y-69725000D01*
X164018889Y-69656414D01*
X163848729Y-69585932D01*
X163668089Y-69550000D01*
X163483911Y-69550000D01*
X163303271Y-69585932D01*
X163133111Y-69656414D01*
X162979972Y-69758738D01*
X162849738Y-69888972D01*
X162747414Y-70042111D01*
X162676932Y-70212271D01*
X162641000Y-70392911D01*
X157397829Y-70392911D01*
X157210398Y-70315274D01*
X157065276Y-70286408D01*
X156637955Y-69859088D01*
X156611801Y-69827219D01*
X156484656Y-69722874D01*
X156339597Y-69645338D01*
X156182199Y-69597592D01*
X156059529Y-69585510D01*
X156059528Y-69585510D01*
X156018510Y-69581470D01*
X155977492Y-69585510D01*
X152852632Y-69585510D01*
X152806020Y-69538898D01*
X152620124Y-69414686D01*
X152413567Y-69329127D01*
X152194288Y-69285510D01*
X151970712Y-69285510D01*
X151751433Y-69329127D01*
X151544876Y-69414686D01*
X151358980Y-69538898D01*
X151200888Y-69696990D01*
X151076676Y-69882886D01*
X150991117Y-70089443D01*
X150947500Y-70308722D01*
X150947500Y-70532298D01*
X150991117Y-70751577D01*
X151047501Y-70887699D01*
X151047500Y-74688617D01*
X151042494Y-74739445D01*
X151047500Y-74790273D01*
X151047500Y-74790282D01*
X151062476Y-74942339D01*
X151121659Y-75137437D01*
X151217766Y-75317242D01*
X151347104Y-75474841D01*
X151386597Y-75507252D01*
X154131793Y-78252449D01*
X154188176Y-78388569D01*
X154312388Y-78574465D01*
X154470480Y-78732557D01*
X154656376Y-78856769D01*
X154792404Y-78913114D01*
X158812289Y-82933000D01*
X152854498Y-82933000D01*
X152938932Y-82729158D01*
X152996000Y-82442260D01*
X152996000Y-82149740D01*
X152938932Y-81862842D01*
X152826990Y-81592589D01*
X152664475Y-81349368D01*
X152457632Y-81142525D01*
X152214411Y-80980010D01*
X151944158Y-80868068D01*
X151657260Y-80811000D01*
X151364740Y-80811000D01*
X151077842Y-80868068D01*
X150807589Y-80980010D01*
X150564368Y-81142525D01*
X150357525Y-81349368D01*
X150241000Y-81523760D01*
X150124475Y-81349368D01*
X149917632Y-81142525D01*
X149674411Y-80980010D01*
X149404158Y-80868068D01*
X149117260Y-80811000D01*
X148824740Y-80811000D01*
X148537842Y-80868068D01*
X148267589Y-80980010D01*
X148024368Y-81142525D01*
X147817525Y-81349368D01*
X147701000Y-81523760D01*
X147584475Y-81349368D01*
X147377632Y-81142525D01*
X147134411Y-80980010D01*
X146864158Y-80868068D01*
X146577260Y-80811000D01*
X146284740Y-80811000D01*
X145997842Y-80868068D01*
X145727589Y-80980010D01*
X145484368Y-81142525D01*
X145352513Y-81274380D01*
X145330502Y-81201820D01*
X145271537Y-81091506D01*
X145192185Y-80994815D01*
X145095494Y-80915463D01*
X144985180Y-80856498D01*
X144865482Y-80820188D01*
X144741000Y-80807928D01*
X144176750Y-80811000D01*
X144018000Y-80969750D01*
X143764000Y-80969750D01*
X143605250Y-80811000D01*
X143041000Y-80807928D01*
X142916518Y-80820188D01*
X142796820Y-80856498D01*
X142686506Y-80915463D01*
X142589815Y-80994815D01*
X142510463Y-81091506D01*
X142451498Y-81201820D01*
X142415188Y-81321518D01*
X142402928Y-81446000D01*
X90728000Y-81446000D01*
X90728000Y-72097000D01*
X142529928Y-72097000D01*
X142542188Y-72221482D01*
X142578498Y-72341180D01*
X142637463Y-72451494D01*
X142716815Y-72548185D01*
X142813506Y-72627537D01*
X142923820Y-72686502D01*
X142996380Y-72708513D01*
X142864525Y-72840368D01*
X142702010Y-73083589D01*
X142590068Y-73353842D01*
X142533000Y-73640740D01*
X142533000Y-73933260D01*
X142590068Y-74220158D01*
X142702010Y-74490411D01*
X142864525Y-74733632D01*
X143071368Y-74940475D01*
X143245760Y-75057000D01*
X143071368Y-75173525D01*
X142864525Y-75380368D01*
X142702010Y-75623589D01*
X142590068Y-75893842D01*
X142533000Y-76180740D01*
X142533000Y-76473260D01*
X142590068Y-76760158D01*
X142702010Y-77030411D01*
X142864525Y-77273632D01*
X143071368Y-77480475D01*
X143245760Y-77597000D01*
X143071368Y-77713525D01*
X142864525Y-77920368D01*
X142702010Y-78163589D01*
X142590068Y-78433842D01*
X142533000Y-78720740D01*
X142533000Y-79013260D01*
X142590068Y-79300158D01*
X142702010Y-79570411D01*
X142864525Y-79813632D01*
X143071368Y-80020475D01*
X143314589Y-80182990D01*
X143584842Y-80294932D01*
X143871740Y-80352000D01*
X144164260Y-80352000D01*
X144451158Y-80294932D01*
X144721411Y-80182990D01*
X144964632Y-80020475D01*
X145171475Y-79813632D01*
X145333990Y-79570411D01*
X145445932Y-79300158D01*
X145503000Y-79013260D01*
X145503000Y-78720740D01*
X145445932Y-78433842D01*
X145333990Y-78163589D01*
X145171475Y-77920368D01*
X144964632Y-77713525D01*
X144790240Y-77597000D01*
X144964632Y-77480475D01*
X145171475Y-77273632D01*
X145333990Y-77030411D01*
X145445932Y-76760158D01*
X145503000Y-76473260D01*
X145503000Y-76180740D01*
X145445932Y-75893842D01*
X145333990Y-75623589D01*
X145171475Y-75380368D01*
X144964632Y-75173525D01*
X144790240Y-75057000D01*
X144964632Y-74940475D01*
X145171475Y-74733632D01*
X145333990Y-74490411D01*
X145445932Y-74220158D01*
X145503000Y-73933260D01*
X145503000Y-73640740D01*
X145445932Y-73353842D01*
X145333990Y-73083589D01*
X145171475Y-72840368D01*
X145039620Y-72708513D01*
X145112180Y-72686502D01*
X145222494Y-72627537D01*
X145319185Y-72548185D01*
X145398537Y-72451494D01*
X145457502Y-72341180D01*
X145493812Y-72221482D01*
X145506072Y-72097000D01*
X145503000Y-71532750D01*
X145344250Y-71374000D01*
X144145000Y-71374000D01*
X144145000Y-71394000D01*
X143891000Y-71394000D01*
X143891000Y-71374000D01*
X142691750Y-71374000D01*
X142533000Y-71532750D01*
X142529928Y-72097000D01*
X90728000Y-72097000D01*
X90728000Y-70397000D01*
X142529928Y-70397000D01*
X142533000Y-70961250D01*
X142691750Y-71120000D01*
X143891000Y-71120000D01*
X143891000Y-69920750D01*
X144145000Y-69920750D01*
X144145000Y-71120000D01*
X145344250Y-71120000D01*
X145503000Y-70961250D01*
X145506072Y-70397000D01*
X145493812Y-70272518D01*
X145457502Y-70152820D01*
X145398537Y-70042506D01*
X145319185Y-69945815D01*
X145222494Y-69866463D01*
X145112180Y-69807498D01*
X144992482Y-69771188D01*
X144868000Y-69758928D01*
X144303750Y-69762000D01*
X144145000Y-69920750D01*
X143891000Y-69920750D01*
X143732250Y-69762000D01*
X143168000Y-69758928D01*
X143043518Y-69771188D01*
X142923820Y-69807498D01*
X142813506Y-69866463D01*
X142716815Y-69945815D01*
X142637463Y-70042506D01*
X142578498Y-70152820D01*
X142542188Y-70272518D01*
X142529928Y-70397000D01*
X90728000Y-70397000D01*
X90728000Y-61630990D01*
X90889445Y-61937670D01*
X90916452Y-61978088D01*
X91406119Y-62338276D01*
X91591811Y-62152584D01*
X91606007Y-62173830D01*
X91750170Y-62317993D01*
X91771416Y-62332189D01*
X91585724Y-62517881D01*
X91945912Y-63007548D01*
X92609882Y-63367849D01*
X93331385Y-63591694D01*
X94082695Y-63670480D01*
X94834938Y-63601178D01*
X95559208Y-63386452D01*
X96227670Y-63034555D01*
X96268088Y-63007548D01*
X96628276Y-62517881D01*
X96442584Y-62332189D01*
X96463830Y-62317993D01*
X96607993Y-62173830D01*
X96622189Y-62152584D01*
X96807881Y-62338276D01*
X97297548Y-61978088D01*
X97657849Y-61314118D01*
X97881694Y-60592615D01*
X97960480Y-59841305D01*
X97891178Y-59089062D01*
X97676452Y-58364792D01*
X97324555Y-57696330D01*
X97297548Y-57655912D01*
X96807881Y-57295724D01*
X96622189Y-57481416D01*
X96607993Y-57460170D01*
X96463830Y-57316007D01*
X96442584Y-57301811D01*
X96628276Y-57116119D01*
X96268088Y-56626452D01*
X95920805Y-56438000D01*
X234279010Y-56438000D01*
X233972330Y-56599445D01*
G37*
%TD.AperFunction*%
D23*
X191367212Y-74946081D02*
X191393358Y-74977940D01*
X191425217Y-75004086D01*
X191425219Y-75004088D01*
X191489692Y-75056999D01*
X191520503Y-75082285D01*
X191665562Y-75159821D01*
X191822960Y-75207567D01*
X191945630Y-75219649D01*
X191945631Y-75219649D01*
X191986649Y-75223689D01*
X192027667Y-75219649D01*
X193021570Y-75219649D01*
X193021570Y-75313596D01*
X193057502Y-75494236D01*
X193127984Y-75664396D01*
X193230308Y-75817535D01*
X193360542Y-75947769D01*
X193513681Y-76050093D01*
X193668357Y-76114162D01*
X195126001Y-77571806D01*
X195126000Y-88300131D01*
X194367166Y-89058967D01*
X185425900Y-89058967D01*
X187759427Y-86725441D01*
X187791291Y-86699291D01*
X187895636Y-86572146D01*
X187973172Y-86427087D01*
X188020918Y-86269689D01*
X188033000Y-86147019D01*
X188037040Y-86106001D01*
X188033000Y-86064982D01*
X188033000Y-82149740D01*
X189142000Y-82149740D01*
X189142000Y-82442260D01*
X189199068Y-82729158D01*
X189311010Y-82999411D01*
X189473525Y-83242632D01*
X189680368Y-83449475D01*
X189923589Y-83611990D01*
X190193842Y-83723932D01*
X190480740Y-83781000D01*
X190773260Y-83781000D01*
X191060158Y-83723932D01*
X191330411Y-83611990D01*
X191573632Y-83449475D01*
X191705487Y-83317620D01*
X191727498Y-83390180D01*
X191786463Y-83500494D01*
X191865815Y-83597185D01*
X191962506Y-83676537D01*
X192072820Y-83735502D01*
X192192518Y-83771812D01*
X192317000Y-83784072D01*
X192881250Y-83781000D01*
X193040000Y-83622250D01*
X193040000Y-82423000D01*
X193294000Y-82423000D01*
X193294000Y-83622250D01*
X193452750Y-83781000D01*
X194017000Y-83784072D01*
X194141482Y-83771812D01*
X194261180Y-83735502D01*
X194371494Y-83676537D01*
X194468185Y-83597185D01*
X194547537Y-83500494D01*
X194606502Y-83390180D01*
X194642812Y-83270482D01*
X194655072Y-83146000D01*
X194652000Y-82581750D01*
X194493250Y-82423000D01*
X193294000Y-82423000D01*
X193040000Y-82423000D01*
X193020000Y-82423000D01*
X193020000Y-82169000D01*
X193040000Y-82169000D01*
X193040000Y-80969750D01*
X193294000Y-80969750D01*
X193294000Y-82169000D01*
X194493250Y-82169000D01*
X194652000Y-82010250D01*
X194655072Y-81446000D01*
X194642812Y-81321518D01*
X194606502Y-81201820D01*
X194547537Y-81091506D01*
X194468185Y-80994815D01*
X194371494Y-80915463D01*
X194261180Y-80856498D01*
X194141482Y-80820188D01*
X194017000Y-80807928D01*
X193452750Y-80811000D01*
X193294000Y-80969750D01*
X193040000Y-80969750D01*
X192881250Y-80811000D01*
X192317000Y-80807928D01*
X192192518Y-80820188D01*
X192072820Y-80856498D01*
X191962506Y-80915463D01*
X191865815Y-80994815D01*
X191786463Y-81091506D01*
X191727498Y-81201820D01*
X191705487Y-81274380D01*
X191573632Y-81142525D01*
X191330411Y-80980010D01*
X191060158Y-80868068D01*
X190773260Y-80811000D01*
X190480740Y-80811000D01*
X190193842Y-80868068D01*
X189923589Y-80980010D01*
X189680368Y-81142525D01*
X189473525Y-81349368D01*
X189311010Y-81592589D01*
X189199068Y-81862842D01*
X189142000Y-82149740D01*
X188033000Y-82149740D01*
X188033000Y-71611868D01*
X191367212Y-74946081D01*
%TA.AperFunction,Conductor*%
D24*
G36*
X191367212Y-74946081D02*
G01*
X191393358Y-74977940D01*
X191425217Y-75004086D01*
X191425219Y-75004088D01*
X191489692Y-75056999D01*
X191520503Y-75082285D01*
X191665562Y-75159821D01*
X191822960Y-75207567D01*
X191945630Y-75219649D01*
X191945631Y-75219649D01*
X191986649Y-75223689D01*
X192027667Y-75219649D01*
X193021570Y-75219649D01*
X193021570Y-75313596D01*
X193057502Y-75494236D01*
X193127984Y-75664396D01*
X193230308Y-75817535D01*
X193360542Y-75947769D01*
X193513681Y-76050093D01*
X193668357Y-76114162D01*
X195126001Y-77571806D01*
X195126000Y-88300131D01*
X194367166Y-89058967D01*
X185425900Y-89058967D01*
X187759427Y-86725441D01*
X187791291Y-86699291D01*
X187895636Y-86572146D01*
X187973172Y-86427087D01*
X188020918Y-86269689D01*
X188033000Y-86147019D01*
X188037040Y-86106001D01*
X188033000Y-86064982D01*
X188033000Y-82149740D01*
X189142000Y-82149740D01*
X189142000Y-82442260D01*
X189199068Y-82729158D01*
X189311010Y-82999411D01*
X189473525Y-83242632D01*
X189680368Y-83449475D01*
X189923589Y-83611990D01*
X190193842Y-83723932D01*
X190480740Y-83781000D01*
X190773260Y-83781000D01*
X191060158Y-83723932D01*
X191330411Y-83611990D01*
X191573632Y-83449475D01*
X191705487Y-83317620D01*
X191727498Y-83390180D01*
X191786463Y-83500494D01*
X191865815Y-83597185D01*
X191962506Y-83676537D01*
X192072820Y-83735502D01*
X192192518Y-83771812D01*
X192317000Y-83784072D01*
X192881250Y-83781000D01*
X193040000Y-83622250D01*
X193040000Y-82423000D01*
X193294000Y-82423000D01*
X193294000Y-83622250D01*
X193452750Y-83781000D01*
X194017000Y-83784072D01*
X194141482Y-83771812D01*
X194261180Y-83735502D01*
X194371494Y-83676537D01*
X194468185Y-83597185D01*
X194547537Y-83500494D01*
X194606502Y-83390180D01*
X194642812Y-83270482D01*
X194655072Y-83146000D01*
X194652000Y-82581750D01*
X194493250Y-82423000D01*
X193294000Y-82423000D01*
X193040000Y-82423000D01*
X193020000Y-82423000D01*
X193020000Y-82169000D01*
X193040000Y-82169000D01*
X193040000Y-80969750D01*
X193294000Y-80969750D01*
X193294000Y-82169000D01*
X194493250Y-82169000D01*
X194652000Y-82010250D01*
X194655072Y-81446000D01*
X194642812Y-81321518D01*
X194606502Y-81201820D01*
X194547537Y-81091506D01*
X194468185Y-80994815D01*
X194371494Y-80915463D01*
X194261180Y-80856498D01*
X194141482Y-80820188D01*
X194017000Y-80807928D01*
X193452750Y-80811000D01*
X193294000Y-80969750D01*
X193040000Y-80969750D01*
X192881250Y-80811000D01*
X192317000Y-80807928D01*
X192192518Y-80820188D01*
X192072820Y-80856498D01*
X191962506Y-80915463D01*
X191865815Y-80994815D01*
X191786463Y-81091506D01*
X191727498Y-81201820D01*
X191705487Y-81274380D01*
X191573632Y-81142525D01*
X191330411Y-80980010D01*
X191060158Y-80868068D01*
X190773260Y-80811000D01*
X190480740Y-80811000D01*
X190193842Y-80868068D01*
X189923589Y-80980010D01*
X189680368Y-81142525D01*
X189473525Y-81349368D01*
X189311010Y-81592589D01*
X189199068Y-81862842D01*
X189142000Y-82149740D01*
X188033000Y-82149740D01*
X188033000Y-71611868D01*
X191367212Y-74946081D01*
G37*
%TD.AperFunction*%
D23*
X209202651Y-66619519D02*
X209031261Y-66653611D01*
X208786851Y-66754849D01*
X208566888Y-66901824D01*
X208379824Y-67088888D01*
X208232849Y-67308851D01*
X208131611Y-67553261D01*
X208080000Y-67812726D01*
X208080000Y-68077274D01*
X208084954Y-68102179D01*
X207488732Y-68698401D01*
X194331004Y-68698401D01*
X194176329Y-68634333D01*
X193995689Y-68598401D01*
X193811511Y-68598401D01*
X193630871Y-68634333D01*
X193460711Y-68704815D01*
X193307572Y-68807139D01*
X193177338Y-68937373D01*
X193075014Y-69090512D01*
X193004532Y-69260672D01*
X192968600Y-69441312D01*
X192968600Y-69625490D01*
X193004532Y-69806130D01*
X193057252Y-69933408D01*
X193004532Y-70060685D01*
X192968600Y-70241325D01*
X192968600Y-70425503D01*
X193004532Y-70606143D01*
X193057264Y-70733450D01*
X193004557Y-70860696D01*
X192968625Y-71041336D01*
X192968625Y-71225514D01*
X193004557Y-71406154D01*
X193019784Y-71442915D01*
X181848446Y-60271579D01*
X181822291Y-60239709D01*
X181695146Y-60135364D01*
X181550087Y-60057828D01*
X181392689Y-60010082D01*
X181270019Y-59998000D01*
X181270018Y-59998000D01*
X181229000Y-59993960D01*
X181187982Y-59998000D01*
X123569606Y-59998000D01*
X123839595Y-59728011D01*
X202311144Y-59728011D01*
X209202651Y-66619519D01*
%TA.AperFunction,Conductor*%
D24*
G36*
X209202651Y-66619519D02*
G01*
X209031261Y-66653611D01*
X208786851Y-66754849D01*
X208566888Y-66901824D01*
X208379824Y-67088888D01*
X208232849Y-67308851D01*
X208131611Y-67553261D01*
X208080000Y-67812726D01*
X208080000Y-68077274D01*
X208084954Y-68102179D01*
X207488732Y-68698401D01*
X194331004Y-68698401D01*
X194176329Y-68634333D01*
X193995689Y-68598401D01*
X193811511Y-68598401D01*
X193630871Y-68634333D01*
X193460711Y-68704815D01*
X193307572Y-68807139D01*
X193177338Y-68937373D01*
X193075014Y-69090512D01*
X193004532Y-69260672D01*
X192968600Y-69441312D01*
X192968600Y-69625490D01*
X193004532Y-69806130D01*
X193057252Y-69933408D01*
X193004532Y-70060685D01*
X192968600Y-70241325D01*
X192968600Y-70425503D01*
X193004532Y-70606143D01*
X193057264Y-70733450D01*
X193004557Y-70860696D01*
X192968625Y-71041336D01*
X192968625Y-71225514D01*
X193004557Y-71406154D01*
X193019784Y-71442915D01*
X181848446Y-60271579D01*
X181822291Y-60239709D01*
X181695146Y-60135364D01*
X181550087Y-60057828D01*
X181392689Y-60010082D01*
X181270019Y-59998000D01*
X181270018Y-59998000D01*
X181229000Y-59993960D01*
X181187982Y-59998000D01*
X123569606Y-59998000D01*
X123839595Y-59728011D01*
X202311144Y-59728011D01*
X209202651Y-66619519D01*
G37*
%TD.AperFunction*%
D23*
X95000119Y-89640718D02*
X95144282Y-89784881D01*
X95165528Y-89799077D01*
X94286605Y-90678000D01*
X95165528Y-91556923D01*
X95144282Y-91571119D01*
X95000119Y-91715282D01*
X94985923Y-91736528D01*
X94107000Y-90857605D01*
X93228077Y-91736528D01*
X93213881Y-91715282D01*
X93069718Y-91571119D01*
X93048472Y-91556923D01*
X93927395Y-90678000D01*
X93048472Y-89799077D01*
X93069718Y-89784881D01*
X93213881Y-89640718D01*
X93228077Y-89619472D01*
X94107000Y-90498395D01*
X94985923Y-89619472D01*
X95000119Y-89640718D01*
%TA.AperFunction,Conductor*%
D24*
G36*
X95000119Y-89640718D02*
G01*
X95144282Y-89784881D01*
X95165528Y-89799077D01*
X94286605Y-90678000D01*
X95165528Y-91556923D01*
X95144282Y-91571119D01*
X95000119Y-91715282D01*
X94985923Y-91736528D01*
X94107000Y-90857605D01*
X93228077Y-91736528D01*
X93213881Y-91715282D01*
X93069718Y-91571119D01*
X93048472Y-91556923D01*
X93927395Y-90678000D01*
X93048472Y-89799077D01*
X93069718Y-89784881D01*
X93213881Y-89640718D01*
X93228077Y-89619472D01*
X94107000Y-90498395D01*
X94985923Y-89619472D01*
X95000119Y-89640718D01*
G37*
%TD.AperFunction*%
D23*
X236986119Y-89640718D02*
X237130282Y-89784881D01*
X237151528Y-89799077D01*
X236272605Y-90678000D01*
X237151528Y-91556923D01*
X237130282Y-91571119D01*
X236986119Y-91715282D01*
X236971923Y-91736528D01*
X236093000Y-90857605D01*
X235214077Y-91736528D01*
X235199881Y-91715282D01*
X235055718Y-91571119D01*
X235034472Y-91556923D01*
X235913395Y-90678000D01*
X235034472Y-89799077D01*
X235055718Y-89784881D01*
X235199881Y-89640718D01*
X235214077Y-89619472D01*
X236093000Y-90498395D01*
X236971923Y-89619472D01*
X236986119Y-89640718D01*
%TA.AperFunction,Conductor*%
D24*
G36*
X236986119Y-89640718D02*
G01*
X237130282Y-89784881D01*
X237151528Y-89799077D01*
X236272605Y-90678000D01*
X237151528Y-91556923D01*
X237130282Y-91571119D01*
X236986119Y-91715282D01*
X236971923Y-91736528D01*
X236093000Y-90857605D01*
X235214077Y-91736528D01*
X235199881Y-91715282D01*
X235055718Y-91571119D01*
X235034472Y-91556923D01*
X235913395Y-90678000D01*
X235034472Y-89799077D01*
X235055718Y-89784881D01*
X235199881Y-89640718D01*
X235214077Y-89619472D01*
X236093000Y-90498395D01*
X236971923Y-89619472D01*
X236986119Y-89640718D01*
G37*
%TD.AperFunction*%
D23*
X236986119Y-58779718D02*
X237130282Y-58923881D01*
X237151528Y-58938077D01*
X236272605Y-59817000D01*
X237151528Y-60695923D01*
X237130282Y-60710119D01*
X236986119Y-60854282D01*
X236971923Y-60875528D01*
X236093000Y-59996605D01*
X235214077Y-60875528D01*
X235199881Y-60854282D01*
X235055718Y-60710119D01*
X235034472Y-60695923D01*
X235913395Y-59817000D01*
X235034472Y-58938077D01*
X235055718Y-58923881D01*
X235199881Y-58779718D01*
X235214077Y-58758472D01*
X236093000Y-59637395D01*
X236971923Y-58758472D01*
X236986119Y-58779718D01*
%TA.AperFunction,Conductor*%
D24*
G36*
X236986119Y-58779718D02*
G01*
X237130282Y-58923881D01*
X237151528Y-58938077D01*
X236272605Y-59817000D01*
X237151528Y-60695923D01*
X237130282Y-60710119D01*
X236986119Y-60854282D01*
X236971923Y-60875528D01*
X236093000Y-59996605D01*
X235214077Y-60875528D01*
X235199881Y-60854282D01*
X235055718Y-60710119D01*
X235034472Y-60695923D01*
X235913395Y-59817000D01*
X235034472Y-58938077D01*
X235055718Y-58923881D01*
X235199881Y-58779718D01*
X235214077Y-58758472D01*
X236093000Y-59637395D01*
X236971923Y-58758472D01*
X236986119Y-58779718D01*
G37*
%TD.AperFunction*%
D23*
X95000119Y-58779718D02*
X95144282Y-58923881D01*
X95165528Y-58938077D01*
X94286605Y-59817000D01*
X95165528Y-60695923D01*
X95144282Y-60710119D01*
X95000119Y-60854282D01*
X94985923Y-60875528D01*
X94107000Y-59996605D01*
X93228077Y-60875528D01*
X93213881Y-60854282D01*
X93069718Y-60710119D01*
X93048472Y-60695923D01*
X93927395Y-59817000D01*
X93048472Y-58938077D01*
X93069718Y-58923881D01*
X93213881Y-58779718D01*
X93228077Y-58758472D01*
X94107000Y-59637395D01*
X94985923Y-58758472D01*
X95000119Y-58779718D01*
%TA.AperFunction,Conductor*%
D24*
G36*
X95000119Y-58779718D02*
G01*
X95144282Y-58923881D01*
X95165528Y-58938077D01*
X94286605Y-59817000D01*
X95165528Y-60695923D01*
X95144282Y-60710119D01*
X95000119Y-60854282D01*
X94985923Y-60875528D01*
X94107000Y-59996605D01*
X93228077Y-60875528D01*
X93213881Y-60854282D01*
X93069718Y-60710119D01*
X93048472Y-60695923D01*
X93927395Y-59817000D01*
X93048472Y-58938077D01*
X93069718Y-58923881D01*
X93213881Y-58779718D01*
X93228077Y-58758472D01*
X94107000Y-59637395D01*
X94985923Y-58758472D01*
X95000119Y-58779718D01*
G37*
%TD.AperFunction*%
%TD*%
M02*
