M48
; DRILL file {KiCad (5.1.9)-1} date 04/24/21 21:51:34
; FORMAT={-:-/ absolute / inch / decimal}
; #@! TF.CreationDate,2021-04-24T21:51:34+02:00
; #@! TF.GenerationSoftware,Kicad,Pcbnew,(5.1.9)-1
FMAT,2
INCH
T1C0.0157
T2C0.0197
T3C0.0236
T4C0.0315
T5C0.0358
T6C0.0394
T7C0.1260
%
G90
G05
T1
X6.305Y-3.295
X6.44Y-2.775
X6.59Y-3.35
X6.62Y-2.927
X6.655Y-2.9
X6.655Y-2.955
X6.9Y-2.72
X7.0058Y-3.2
X7.37Y-2.79
X7.6339Y-2.832
X7.634Y-2.7375
X7.634Y-2.769
X7.634Y-2.8005
X7.6348Y-2.9285
X7.635Y-2.8635
X7.635Y-2.8965
X7.6361Y-2.9615
X7.87Y-3.055
X7.87Y-3.12
T2
X3.6105Y-2.355
X3.6105Y-3.57
X3.6382Y-2.2882
X3.6382Y-2.4218
X3.6382Y-3.5032
X3.6382Y-3.6368
X3.705Y-2.2605
X3.705Y-2.4495
X3.705Y-3.4755
X3.705Y-3.6645
X3.7718Y-2.2882
X3.7718Y-2.4218
X3.7718Y-3.5032
X3.7718Y-3.6368
X3.7995Y-2.355
X3.7995Y-3.57
X9.2005Y-2.355
X9.2005Y-3.57
X9.2282Y-2.2882
X9.2282Y-2.4218
X9.2282Y-3.5032
X9.2282Y-3.6368
X9.295Y-2.2605
X9.295Y-2.4495
X9.295Y-3.4755
X9.295Y-3.6645
X9.3618Y-2.2882
X9.3618Y-2.4218
X9.3618Y-3.5032
X9.3618Y-3.6368
X9.3895Y-2.355
X9.3895Y-3.57
T3
X6.1775Y-2.8075
T4
X5.82Y-2.355
X5.9875Y-2.7725
X6.1094Y-2.7292
X6.11Y-3.065
X6.7134Y-3.2416
X6.835Y-2.51
X6.835Y-2.665
X7.115Y-2.84
X7.115Y-3.14
X7.215Y-2.84
X7.215Y-3.14
X7.67Y-2.61
T5
X4.245Y-3.275
X4.345Y-2.675
X4.345Y-3.275
X4.445Y-2.675
X4.445Y-3.275
X4.545Y-2.675
X4.545Y-3.275
X4.645Y-2.675
X4.645Y-3.275
X4.745Y-2.675
X4.745Y-3.275
X4.845Y-3.275
X8.145Y-3.275
X8.245Y-2.675
X8.245Y-3.275
X8.345Y-2.675
X8.345Y-3.275
X8.445Y-2.675
X8.445Y-3.275
X8.545Y-2.675
X8.545Y-3.275
X8.645Y-2.675
X8.645Y-3.275
X8.745Y-3.275
T6
X5.665Y-3.24
X5.6675Y-2.52
X5.6675Y-2.62
X5.67Y-2.805
X5.67Y-2.905
X5.67Y-3.005
X5.67Y-3.105
X5.765Y-3.24
X5.865Y-3.24
X5.965Y-3.24
X6.9Y-2.84
X6.9Y-2.94
X6.9Y-3.04
X6.9Y-3.14
X6.9Y-3.24
X6.975Y-3.445
X7.075Y-3.445
X7.505Y-3.24
X7.605Y-3.24
T7
X3.705Y-2.355
X3.705Y-3.57
X9.295Y-2.355
X9.295Y-3.57
T0
M30
